<svg xmlns="http://www.w3.org/2000/svg" viewBox="0 0 123.92 83.95"><defs><style>.cls-1{fill:none;}</style></defs><title>Fichier 8</title><g id="Calque_2" data-name="Calque 2"><g id="Calque_2-2" data-name="Calque 2"><path d="M63.21,28.44a1.75,1.75,0,0,0-.58-1.33,4,4,0,0,0-1.71-.83,5,5,0,0,1-1.52-.73,1.46,1.46,0,0,1-.47-.52,7.91,7.91,0,0,1-.51-1.38,1.84,1.84,0,0,1,.72-1.8A3.54,3.54,0,0,1,63,21.51a1.91,1.91,0,0,1,.95,1.79.4.4,0,0,1-.34.43.35.35,0,0,1-.42-.26,2,2,0,0,1-.13-.53.86.86,0,0,0-.57-.74,2.79,2.79,0,0,0-2.53.14,1.23,1.23,0,0,0-.57,1.55,2,2,0,0,0,1.43,1.45,7,7,0,0,0,.78.24,4.31,4.31,0,0,1,1.77,1.05,2.7,2.7,0,0,1,.49,2.95A2.57,2.57,0,0,1,61.05,31c-.32-.05-.65-.08-1-.15a2.73,2.73,0,0,1-1.74-1.24,1.59,1.59,0,0,1-.2-.66.34.34,0,0,1,.28-.36.37.37,0,0,1,.43.15.64.64,0,0,1,.08.14A2.17,2.17,0,0,0,61,30.2c.16,0,.33,0,.49,0A1.74,1.74,0,0,0,63.21,28.44Z"/><path d="M49.39,25.84c0-1.28,0-2.56,0-3.84,0-.48.21-.68.67-.68l3.41,0a1.53,1.53,0,0,1,.43,0,.41.41,0,0,1,0,.8,1.63,1.63,0,0,1-.49.05H50.53c-.21,0-.28.09-.27.3,0,.46,0,.91,0,1.37s-.07.95-.08,1.42,0,.45.43.43,1.09-.09,1.64-.12c.38,0,.77,0,1.15,0a.44.44,0,0,1,.48.42c0,.23-.19.41-.49.43l-2.79.15c-.4,0-.42,0-.41.44,0,.84,0,1.68.07,2.52,0,.38,0,.43.41.42.79,0,1.57-.1,2.35-.15.28,0,.55,0,.82,0a.43.43,0,0,1,.48.36c0,.21-.12.37-.4.45l-.27.05a25.67,25.67,0,0,1-3.72.16c-.32,0-.48-.14-.5-.45s0-.69,0-1V25.84Z"/><path d="M41.69,23.14c-.06,1.1-.11,2-.16,2.89a2,2,0,0,0,0,.6,3.54,3.54,0,0,1-.06,1.52c-.06.53-.07,1.08-.1,1.63,0,.25.14.27.36.26,1.1,0,2.19,0,3.29,0a1.28,1.28,0,0,1,.43.06.35.35,0,0,1,.28.41.37.37,0,0,1-.33.38,2.67,2.67,0,0,1-.49,0c-.66,0-1.32-.07-2-.07s-1,.08-1.58.1-.67-.09-.76-.63a6.26,6.26,0,0,1,.1-2.44,4.34,4.34,0,0,0,0-1.14,21,21,0,0,1,.05-2.24,8.8,8.8,0,0,0-.08-2.51,1.56,1.56,0,0,1,0-.43.34.34,0,0,1,.32-.33.59.59,0,0,1,.37.16.42.42,0,0,1,.14.28C41.58,22.18,41.65,22.76,41.69,23.14Z"/><path d="M51.22,37.7c0-.62,0-1.24,0-1.86a1.85,1.85,0,0,1,.07-.58.33.33,0,0,1,.42-.23.34.34,0,0,1,.31.36l.06,2.45c0,1,.09,2,.11,3.08s0,2,0,3a.53.53,0,0,1-.48.54c-.27,0-.38-.14-.48-.33a20.34,20.34,0,0,0-1.45-2.35c-.47-.64-.81-1.37-1.23-2.05-.15-.26-.36-.48-.53-.73-.43-.63-.84-1.27-1.26-1.9a.52.52,0,0,0-.11-.1s-.07.08-.07.12c0,.76-.08,1.52-.09,2.28,0,1.49,0,3,0,4.47a2,2,0,0,1-.07.42.34.34,0,0,1-.36.26.33.33,0,0,1-.36-.26.87.87,0,0,1,0-.36c0-.55.06-1.1.07-1.65,0-.35,0-.71-.05-1.06,0-1.16,0-2.31,0-3.46,0-.69.06-1.39.1-2.08a1.06,1.06,0,0,1,.09-.35.37.37,0,0,1,.65-.1,6.17,6.17,0,0,1,.77,1.14,13,13,0,0,0,1.47,2.28c.36.45.65,1,1,1.46l1.47,2.33.07.08a.35.35,0,0,0,.05-.13c0-.81-.06-1.63-.07-2.44s0-1.49,0-2.24Z"/><path d="M20.28,41.49c0,.74,0,1.49,0,2.23v.21c0,.39-.21.62-.47.59s-.43-.25-.38-.6c.19-1.58,0-3.16.09-4.73a14.32,14.32,0,0,0,0-2.45,4.91,4.91,0,0,1,0-1c0-.39.17-.48.55-.49.58,0,1.17-.07,1.75-.07a11.88,11.88,0,0,1,1.33.09,2.84,2.84,0,0,1,2,2.17,2.87,2.87,0,0,1-.29,1.85,1.69,1.69,0,0,1-1.08.89l-.25.09c-.36.12-.38.14-.19.47.59,1,1.2,2,1.8,3a1.65,1.65,0,0,1,.2.37.36.36,0,0,1-.16.46.39.39,0,0,1-.49-.06,1,1,0,0,1-.2-.25,31.06,31.06,0,0,1-2.06-3.47.37.37,0,0,0-.39-.27c-.48,0-1,0-1.44,0s-.34,0-.35.37,0,.43,0,.64Zm.09-3.08h-.08c0,.32,0,.64,0,1s0,.29.25.29c.48,0,1,0,1.43,0a8.35,8.35,0,0,0,1.32-.16,1.18,1.18,0,0,0,.88-.61,2,2,0,0,0-.38-2.35A1.69,1.69,0,0,0,22.55,36C22,36,21.49,36,21,36c-.71,0-.75,0-.7.75,0,.07,0,.14,0,.21C20.31,37.46,20.34,37.93,20.37,38.41Z"/><path d="M29.62,38.35a6.26,6.26,0,0,0-.19-2.11.88.88,0,0,1,0-.16c-.08-.73.14-1.07.87-1.09a6,6,0,0,1,3.36.55,2.4,2.4,0,0,1,1.08,1.19l.38,1.05a.44.44,0,0,1,0,.15c0,.58.28,1.11.28,1.67a5.8,5.8,0,0,1-.34,2.61,3.51,3.51,0,0,1-3.25,2.11l-1.86,0a.33.33,0,0,1-.38-.3,1.87,1.87,0,0,1-.06-.62,7.63,7.63,0,0,0,0-1.91,10.72,10.72,0,0,1,0-1.39C29.54,39.55,29.59,39,29.62,38.35Zm1.69-2.54h-.79c-.22,0-.28.11-.26.3s.06.24.07.36a11.47,11.47,0,0,1,.14,1.16c0,.51-.06,1-.07,1.54,0,.85,0,1.7,0,2.55a6.52,6.52,0,0,1,0,1.53c-.05.27,0,.31.28.29a16.27,16.27,0,0,0,1.85-.13,2.66,2.66,0,0,0,2-2.1A4.36,4.36,0,0,0,34.45,39a.23.23,0,0,1,0-.11A3.82,3.82,0,0,0,34,37.22a1.55,1.55,0,0,0-.84-1A3.14,3.14,0,0,0,31.31,35.81Z"/><path d="M8.49,44l.1-.29c.49-1.61,1-3.21,1.67-4.76.47-1.15.94-2.29,1.43-3.44.1-.25.2-.57.56-.56s.4.33.5.56a10.35,10.35,0,0,1,.93,2.71,9.72,9.72,0,0,0,.45,1.35c.19.57.38,1.15.55,1.72.27.86.52,1.73.77,2.59a.72.72,0,0,1,0,.41.34.34,0,0,1-.36.25.42.42,0,0,1-.42-.34c-.12-.43-.23-.86-.34-1.28a2.8,2.8,0,0,0-.09-.31A2.25,2.25,0,0,0,14,42c-.17-.23-.43,0-.64,0-1,0-1.92,0-2.88,0-.5,0-.51,0-.67.47s-.31,1-.47,1.53a1.3,1.3,0,0,1-.17.38.36.36,0,0,1-.46.16C8.54,44.41,8.47,44.26,8.49,44ZM12,41.11h.9c1,0,1,.2.62-1l0-.09a8.69,8.69,0,0,1-.7-2.22,13.46,13.46,0,0,0-.44-1.36s-.07-.07-.11-.1a.41.41,0,0,0-.07.11c-.12.28-.22.56-.33.84l-1.27,3.09c-.06.14-.08.3-.14.45s0,.24.2.24Z"/><path d="M61.38,42c.09-.8-.45-1.25-1.09-1.61A4.79,4.79,0,0,0,59.2,40a6,6,0,0,1-1.53-.73.54.54,0,0,1-.16-.14c-1-1.38-1.24-3.06.74-3.89a3.37,3.37,0,0,1,2.4-.11A1.94,1.94,0,0,1,62.1,37a.44.44,0,0,1-.35.47.4.4,0,0,1-.43-.32,3.1,3.1,0,0,1-.08-.42,1,1,0,0,0-.73-.82,2.75,2.75,0,0,0-2.07.09,2.57,2.57,0,0,0-.66.52.75.75,0,0,0-.21.48,2,2,0,0,0,.78,1.66,4.54,4.54,0,0,0,1.36.58,4.27,4.27,0,0,1,1.86,1.08,2.57,2.57,0,0,1,.35,3,2.42,2.42,0,0,1-2.6,1.26,8.49,8.49,0,0,1-1.24-.24,2.6,2.6,0,0,1-1.42-1.15,1.39,1.39,0,0,1-.19-.49.39.39,0,0,1,.29-.45c.21-.08.34,0,.45.18a.64.64,0,0,1,.08.14,2.07,2.07,0,0,0,1.86,1.21c.17,0,.35,0,.53,0A1.64,1.64,0,0,0,61.38,42Z"/><path d="M4.21,41.56c.07-1,.16-1.9.2-2.86s0-1.74,0-2.6a4.52,4.52,0,0,1,0-.64c0-.28.23-.45.45-.41s.35.24.35.52c0,.74,0,1.48,0,2.22,0,.39-.06.78-.08,1.17,0,.9-.1,1.8-.1,2.71a4.54,4.54,0,0,1-.23,1.51,1.68,1.68,0,0,1-.43.66,2.9,2.9,0,0,1-3.32.38,1.42,1.42,0,0,1-.71-.83A12.16,12.16,0,0,1,0,42a1.35,1.35,0,0,1,.08-.62.3.3,0,0,1,.37-.22.61.61,0,0,1,.34.29c.06.09,0,.24,0,.36.05.31.09.63.16.94a1.22,1.22,0,0,0,1.15,1,2.44,2.44,0,0,0,1.29-.17,1.2,1.2,0,0,0,.77-1.11c0-.29,0-.57,0-.85Z"/><path d="M40.7,39.53c0,.85,0,1.7,0,2.56,0,.56,0,1.13.06,1.7,0,.38-.13.58-.38.6s-.42-.21-.45-.61c-.13-1.63-.08-3.26-.1-4.89,0-.46.07-.92.08-1.38s0-.71,0-1.06,0-.64-.08-1a.39.39,0,0,1,.31-.44.38.38,0,0,1,.45.28,1.87,1.87,0,0,1,.12.57c0,.53,0,1.06,0,1.6v2Z"/><path d="M19.11,59.65h-1a.34.34,0,0,1-.39-.28,1.92,1.92,0,0,1-.05-.63,8,8,0,0,0,0-2.07,5.3,5.3,0,0,1,0-.8c0-.92.13-1.84.16-2.76A11.65,11.65,0,0,0,17.65,52a7.42,7.42,0,0,1-.08-1.05.51.51,0,0,1,.45-.57,1.09,1.09,0,0,1,.26,0A6.1,6.1,0,0,1,22,51,2.06,2.06,0,0,1,22.82,52a5.73,5.73,0,0,1,.4,1.09,8.15,8.15,0,0,1,.28,3,5.53,5.53,0,0,1-.31,1.44A3.55,3.55,0,0,1,20,59.61h-.85Zm.35-8.55h-.71c-.4,0-.42,0-.36.44a9.6,9.6,0,0,1,.18,1.31c0,.69-.07,1.38-.09,2.07s-.05,1.32,0,2a6,6,0,0,1,0,1.69c0,.2,0,.25.23.26a8.48,8.48,0,0,0,2-.16,2.73,2.73,0,0,0,2-2.43,2.64,2.64,0,0,1,0-.63,2.17,2.17,0,0,0,0-.95c-.09-.38-.1-.77-.21-1.14A13.38,13.38,0,0,0,21.9,52a1,1,0,0,0-.43-.38A3.1,3.1,0,0,0,19.46,51.1Z"/><path d="M37.43,59.33c0,.31-.09.45-.3.49a.36.36,0,0,1-.46-.26c-.13-.4-.23-.81-.35-1.22s-.2-.64-.3-1c0-.16-.14-.21-.31-.2l-3.2.06h-.26c-.24,0-.36.09-.42.31s-.21.67-.32,1-.19.65-.3,1-.21.33-.41.29a.7.7,0,0,1-.36-.25.53.53,0,0,1,0-.35A66.54,66.54,0,0,1,33,52.32c.24-.54.45-1.08.7-1.61.1-.22.21-.49.51-.47s.37.29.49.52a11.74,11.74,0,0,1,1,3.06,5.53,5.53,0,0,0,.2.66c.23.69.43,1.38.7,2.06A23.74,23.74,0,0,1,37.34,59C37.37,59.15,37.41,59.27,37.43,59.33Zm-3.5-2.93h.8c1.08,0,1.11,0,.65-1.06a1.79,1.79,0,0,1-.12-.24c-.15-.47-.31-.93-.43-1.41a8.48,8.48,0,0,0-.6-1.91.33.33,0,0,0-.09-.11s-.08.07-.09.12c-.18.42-.34.85-.51,1.28-.37.93-.75,1.86-1.13,2.8a1.83,1.83,0,0,0-.08.25c-.06.23,0,.28.22.29Z"/><path d="M67.56,50.43h1.7c.42,0,.63.17.61.44s-.23.42-.63.42H66.42c-.45,0-.42,0-.42.45,0,.76,0,1.52,0,2.28s-.08.72.72.68,1.41-.09,2.12-.13a1.56,1.56,0,0,1,.43,0,.37.37,0,0,1,.29.39.35.35,0,0,1-.26.36.8.8,0,0,1-.26,0l-2.76.15c-.2,0-.29.08-.28.28,0,0,0,0,0,.05,0,.84,0,1.67,0,2.5,0,.4.05.46.48.44.73,0,1.45-.08,2.18-.13.28,0,.56-.06.85-.06s.43.13.46.34-.1.37-.37.44a1.55,1.55,0,0,1-.31.06,26.44,26.44,0,0,1-3.56.16c-.35,0-.48-.12-.49-.48,0-.64,0-1.28,0-1.92,0-.23,0-.45,0-.68a1.55,1.55,0,0,1,0-.21c0-.92,0-1.84,0-2.76,0-.71,0-1.42,0-2.13,0-.93.06-1,1-1h1.38Z"/><path d="M55.74,55.25a3.87,3.87,0,0,1,0,.59A4.25,4.25,0,0,0,56.11,58a1.71,1.71,0,0,0,1,.92,3.39,3.39,0,0,0,2.09,0c.4-.12.54-.5.7-.83.07-.15.09-.31.16-.45s.27-.39.46-.36.36.22.3.54a2.27,2.27,0,0,1-1.9,2,4.8,4.8,0,0,1-1.69,0,2.5,2.5,0,0,1-.84-.31,5.3,5.3,0,0,1-.84-.73,1.18,1.18,0,0,1-.25-.4,7.61,7.61,0,0,1-.43-3.66c0-.56.09-1.13.16-1.69a3.24,3.24,0,0,1,2.55-2.61,2.67,2.67,0,0,1,2.35.52,2.05,2.05,0,0,1,.74,1.58.43.43,0,0,1-.33.48.38.38,0,0,1-.43-.31,1.73,1.73,0,0,1-.07-.31,1.46,1.46,0,0,0-1.15-1.18A2.52,2.52,0,0,0,56,52.78a4.87,4.87,0,0,0-.2,1.14c0,.44,0,.89,0,1.33Z"/><path d="M42.19,52.3c0,.86-.07,1.73-.09,2.6,0,.34,0,.67,0,1A5.46,5.46,0,0,1,42,57.12a10.39,10.39,0,0,0-.08,1.58c0,.24.18.2.35.2l3.09,0a2,2,0,0,1,.42,0c.27.06.4.21.38.43a.42.42,0,0,1-.44.38c-.21,0-.42,0-.63,0l-2.23,0-1.17,0a.41.41,0,0,1-.46-.35,3.49,3.49,0,0,1-.15-1.25,10.86,10.86,0,0,1,.25-1.79.55.55,0,0,0,0-.31,4.68,4.68,0,0,1,0-1.54c0-.74.08-1.48.08-2.23a8.34,8.34,0,0,0-.11-1.11c0-.17,0-.35,0-.53a.34.34,0,0,1,.29-.33.37.37,0,0,1,.41.19,1.49,1.49,0,0,1,.15.45c.06.46.1.92.14,1.37Z"/><path d="M50.64,52.12a48.54,48.54,0,0,0-.09,5.38c0,.52.06,1,.07,1.54s-.13.63-.4.64-.43-.25-.44-.63c0-1.07,0-2.13,0-3.2s0-2.27,0-3.4c0-.46-.06-.92-.09-1.38a1.52,1.52,0,0,1,0-.21c0-.29.12-.49.34-.52a.41.41,0,0,1,.45.37C50.54,51.19,50.58,51.69,50.64,52.12Z"/><path d="M27.84,52.46v1.11a3.09,3.09,0,0,1,0,.43.4.4,0,0,1-.39.36.37.37,0,0,1-.36-.34c0-.64-.06-1.27-.08-1.91,0-.4,0-.81,0-1.21a1.48,1.48,0,0,1,0-.21.45.45,0,0,1,.39-.44.37.37,0,0,1,.4.35,9.45,9.45,0,0,1,.08,1.06c0,.26,0,.53,0,.79Z"/><path d="M53.64,9.57c.21-.81-.57-1.84.56-2.43l.34,2.4-.06.06-.82,0Z"/><path d="M53.66,10.43c-.82-.18-1.84.58-2.43-.55l2.41-.31h0l0,.86Z"/><path d="M54.54,9.54,57,9.88c-.57,1.15-1.62.32-2.41.58l-.06-.05V9.6Z"/><path d="M54.54,10.46c-.12.8-.23,1.59-.34,2.39-1.12-.6-.37-1.62-.54-2.42h0l.84,0Z"/><path d="M122.32,43.16c0,.49.05,1,0,1.48,0,.14-.12.42-.34.42s-.25-.29-.35-.45c-.19-.33.06-1.3.06-1.3s-1.76,0-1.71-.41c.15,0-.16-.22,0-.24.32,0,1.11.07,1.43,0a2,2,0,0,1,.42,0l.41.09c.13.13.46.2.06.36Z"/><path d="M122.39,42.66h.2l1.33.29a1.78,1.78,0,0,1-.1.35c-.5,0-1-.1-1.5-.15h0l-.06-.36Z"/><path d="M121.85,42.7a10.13,10.13,0,0,1-.14-1.22c0-.12.21-.24.33-.36.09.1.25.18.26.28,0,.42.06.84.09,1.26l-.13.13a1.27,1.27,0,0,1-.34,0Z"/><path d="M57.32,68.18c0,.49,0,1,0,1.48,0,.15-.12.42-.33.42s-.26-.29-.35-.45c-.2-.33.05-1.29.05-1.29s-1.75,0-1.71-.42c.16,0-.15-.21,0-.24.32-.05,1.11.08,1.43,0a3.09,3.09,0,0,1,.43,0l.4.09c.14.14.47.2.06.36Z"/><path d="M57.38,67.68h.21l1.33.29c0,.12-.08.36-.11.36-.5,0-1-.1-1.49-.16h0l-.06-.36Z"/><path d="M56.85,67.72a10.16,10.16,0,0,1-.15-1.22c0-.11.22-.23.33-.35.09.09.25.17.26.28.06.41.07.83.09,1.25l-.13.13a1.32,1.32,0,0,1-.34,0Z"/><path d="M93.4,16.42c-.07.43-.26.57-.63.27a10,10,0,0,1-3.43-4.31q-1.47-4-2.75-8.1a2.87,2.87,0,0,1,.16-1.8c.37-.9.81-1,1.76-.7a6.16,6.16,0,0,1,4,3.55,21,21,0,0,1,1.36,6.34c.07.9.16,1.8.25,2.7a1.23,1.23,0,0,0,.13.29l.06-.26c.15-.66.31-1.32.45-2C95.88,7.3,98.47,3.3,103.25.91a4.6,4.6,0,0,1,1.82-.48,1.36,1.36,0,0,1,1.35,1.94,24.13,24.13,0,0,1-4.49,6.44,13,13,0,0,1-5.43,3,1.45,1.45,0,0,0-1.21,1.1,47.87,47.87,0,0,0-1.2,8.6c0,.1.07.2.11.3a2.52,2.52,0,0,0,.27-.3c.84-1.4,1.61-2.84,2.53-4.18a20.38,20.38,0,0,1,8.25-7.09,7.14,7.14,0,0,1,1.82-.51c.9-.14,1.29.27,1.11,1.17a3.31,3.31,0,0,1-.54,1.23c-1.78,2.51-3.53,5.11-6.21,6.75A22.46,22.46,0,0,1,96.63,21c-1.47.49-2.28,1-2.55,2.54a32,32,0,0,0-.41,10.52,60.67,60.67,0,0,1,.3,8c0,2.13-.06,4.26-.1,6.38,0,.14,0,.27,0,.4.08-.15.15-.3.22-.45,1.08-2.45,2.12-4.91,3.23-7.34C97.85,40,98.47,39,99.07,38A3.17,3.17,0,0,0,99,34.17a9,9,0,0,1-1.81-7,19.67,19.67,0,0,0,.07-2.31c0-.64.17-1.28.9-1.53a1.71,1.71,0,0,1,1.88.47,3.06,3.06,0,0,1,.9,1.62,26.54,26.54,0,0,1,.21,4.71c-.11,1.71-.49,3.4-.74,5.1a1.71,1.71,0,0,0,0,.39,3.55,3.55,0,0,0,.31-.23c.92-.93,1.82-1.89,2.76-2.8a3.37,3.37,0,0,0,1-2.8c-.12-3.14.12-6.24,2-9,.8-1.14,1.42-2.42,2.13-3.63.39-.65,1-1.37,1.7-1a2.62,2.62,0,0,1,.87,1.83,4.06,4.06,0,0,1-.36,2.11c-1.2,2.58-2.49,5.13-3.77,7.67-.55,1.09-1.17,2.15-1.76,3.22h0c1.09-.74,2.16-1.49,3.27-2.19a2.28,2.28,0,0,0,1.17-1.73,14.13,14.13,0,0,1,2.61-6.61c1-1.43,1.95-2.85,3-4.19a3.71,3.71,0,0,1,1.64-1.09.88.88,0,0,1,1.22,1,4.55,4.55,0,0,1-.52,1.93A29.46,29.46,0,0,1,113,24.37,26,26,0,0,0,110.92,27a1.66,1.66,0,0,0-.14.61,4.42,4.42,0,0,0,.63,0,54.09,54.09,0,0,1,6-1.06,15.1,15.1,0,0,1,4.4.59c1.28.31,1.41,1,.54,1.91a2.75,2.75,0,0,1-1,.75,15,15,0,0,1-6.17,1.32,10.56,10.56,0,0,1-4.67-1.71,1.58,1.58,0,0,0-1.85,0l-2.8,1.9h0a7,7,0,0,0-.88.63,2.29,2.29,0,0,0-.39.64,2.64,2.64,0,0,0,.74.2,20.29,20.29,0,0,1,6.67,1,10.38,10.38,0,0,1,3.19,2,1.79,1.79,0,0,1,.47,1.42c-.1.64-.78.41-1.25.47a10.29,10.29,0,0,1-7.55-2,13.52,13.52,0,0,1-1.83-1.8c-.93-1-1.29-1-2.24,0a25.11,25.11,0,0,0-5,7.54,64.66,64.66,0,0,0-3.58,8.78,55.16,55.16,0,0,0-2,14.36c0,2.44-.1,4.89,0,7.33,0,1.21.34,2.42.49,3.63,0,.18-.1.38-.16.57-.12-.17-.33-.32-.35-.5a40.27,40.27,0,0,1-.66-5.65c0-3.8.32-7.6.55-11.39a5.72,5.72,0,0,0-.74-3.13,54.73,54.73,0,0,0-5.21-8.57,13.94,13.94,0,0,1-1.1-2.3c-.64-1.19-.8-1.21-2-.7-2.62,1.11-5.3,1.86-8.19,1.22-.57-.13-1.13-.3-1.71-.4-.75-.14-1.5-.24-2.25-.34-.32,0-.64,0-1-.1-1-.26-1.2-1-.47-1.69a2.89,2.89,0,0,1,1.13-.73,19.11,19.11,0,0,1,4.22-.88A13.75,13.75,0,0,1,81.14,42a12,12,0,0,0,2,.68c.46.12.79-.07.45-.56C82.89,41.06,82.1,40,81.29,39c-.34-.45-.76-.46-1.32-.24a10.24,10.24,0,0,1-9.71-1.14c-.75-.48-1.76-1.1-1.54-2s1.37-1,2.27-1.17a7.78,7.78,0,0,1,4.12.56,16.29,16.29,0,0,1,6.77,3.9,1.89,1.89,0,0,0,.31.25,1.59,1.59,0,0,0,.08-.46c-.28-1.84-.58-3.67-.85-5.5a6.16,6.16,0,0,1,1.06-4.9,3.93,3.93,0,0,1,.54-.61c1.31-1.11,2.51-.71,2.89,1a5,5,0,0,1,.07.54A18.82,18.82,0,0,1,84.64,37a4.64,4.64,0,0,1-1.13,1.5,1.4,1.4,0,0,0-.3,1.84c.78,1.44,1.62,2.84,2.45,4.24.06.1.2.16.3.23a1.55,1.55,0,0,0,.13-.36,10,10,0,0,0,.26-2,19.39,19.39,0,0,1,1.11-6.94,8,8,0,0,1,1.68-2.72c.69-.78,1.57-.5,1.8.51a4.5,4.5,0,0,1,0,2c-.48,1.88-1.09,3.73-1.6,5.6a9.33,9.33,0,0,1-2.08,3.77c-.86,1-.88,1.16-.22,2.28,1.28,2.18,2.62,4.34,3.91,6.52.43.74.79,1.53,1.2,2.29a2.18,2.18,0,0,0,.3.38,4.07,4.07,0,0,0,.13-.5,120.38,120.38,0,0,0,.85-12.87,51.54,51.54,0,0,0-.19-7.86,27.32,27.32,0,0,0-.94-4.78c-1.76-5.35-4.5-10.08-9-13.6a3.59,3.59,0,0,0-.47-.27h0L80,14h0a12.27,12.27,0,0,0-1.14-1.14c-.28-.23-.83-.55-1-.44a1.48,1.48,0,0,0-.62,1.5,25.27,25.27,0,0,1,0,3.48.91.91,0,0,1-.25.61,1.86,1.86,0,0,1-1,.53c-.26,0-.62-.37-.74-.65a2.69,2.69,0,0,1,.14-2.36c.46-.89.94-1.76,1.43-2.63.35-.61,0-.69-.48-.65a2.9,2.9,0,0,0-2.1,2.11,5.09,5.09,0,0,1-1.71,3.71c-.39.36-.83.83-1.42.37a1.22,1.22,0,0,1-.35-1.59,7.62,7.62,0,0,1,2.63-3.21c.37-.26.75-.51,1.1-.8a1.44,1.44,0,0,0,.25-.44c-.14-.08-.29-.22-.44-.22a19.58,19.58,0,0,0-2,.07,1.12,1.12,0,0,0-.52.34c-.09.09-.06.28-.15.38a9.81,9.81,0,0,0-2.33,4.74,2.18,2.18,0,0,1-.87,1.16,1.58,1.58,0,0,1-1.21.25,1,1,0,0,1-.49-1.39,3.79,3.79,0,0,1,.67-1.17,16.32,16.32,0,0,1,1.28-1.21l.2-.09-.2.1a14.2,14.2,0,0,1-1.45-.13c-1.66-.29-1.89-1-.78-2.28l.3-.24.3-.25.21-.09-.21.1-.3.24-.29.25a15.11,15.11,0,0,1-2.42.06c-.93-.11-1.67-1-1.56-1.61a1.93,1.93,0,0,1,2.14-1.06,4.43,4.43,0,0,1,1.45.7,3.79,3.79,0,0,0,3,.77c.75-.13,1.53-.07,2.3-.14a1.82,1.82,0,0,0,.63-.33c-.25-.2-.57-.64-.74-.58-2,.62-3.54-.31-5.1-1.24-.37-.23-.81-.77-.78-1.12.07-.64.73-.89,1.35-.91a4.36,4.36,0,0,1,3.06.9,24.58,24.58,0,0,1,2.45,2.34,2.26,2.26,0,0,0,2,.89c1-.08,2-.07,3-.1l0,.07,0-.06a9.7,9.7,0,0,1-1.62-1.43c-.88-1.2-2.24-1.61-3.44-2.3-.24-.13-.62,0-.91-.08a30.55,30.55,0,0,1-3-.86,1.14,1.14,0,0,1-.79-1.51,1.09,1.09,0,0,1,1.63-.46c1,.58,2,1.26,2.92,1.91.44.3.85.64,1.28,1l-.42-1.43a3.1,3.1,0,0,1-.15-.52A3.25,3.25,0,0,0,71,3.17a4.2,4.2,0,0,1-1.13-1.49,1,1,0,0,1,.3-1.33A1,1,0,0,1,71.61.29a5.8,5.8,0,0,1,1.12,1.62c.26.58.34,1.22,1.13,1.3.09,0,.16.09.23.15l1.16.87.27-1.72A6.37,6.37,0,0,1,75.78.8c.39-.9,1.2-.92,1.79-.12a2,2,0,0,1-.07,2.41,3.33,3.33,0,0,1-.91,1,1.15,1.15,0,0,0-.52,1.61,3.07,3.07,0,0,1-.24,2.87A.93.93,0,0,0,76.08,10c.56.43,1.18.78,1.77,1.16A18.22,18.22,0,0,0,78,9c0-1.12-.23-2.24-.31-3.36a1.29,1.29,0,0,1,.2-.91A2.2,2.2,0,0,1,79.09,4c.59-.07.85.5.89,1a4.77,4.77,0,0,1-.92,3.46,2.49,2.49,0,0,0-.27.78c.27-.12.61-.16.79-.36a10.7,10.7,0,0,0,.74-1.11,20.39,20.39,0,0,1,1.55-2,1.16,1.16,0,0,1,1.7-.24c.62.51.44,1.12.08,1.71a4.9,4.9,0,0,1-3.58,2.43c-.64.1-1.19.22-1.33.91a1.7,1.7,0,0,0,.52,2c1.3,1,2.51,2.09,3.79,3.1a26.63,26.63,0,0,1,8.49,11.08c.29.71.68,1.37,1,2.05.15-.68.36-1.36.45-2.05.24-1.93.44-3.86.62-5.8a22.64,22.64,0,0,0,.11-2.85,9.14,9.14,0,0,0-.36-1.66c-1-2.82-1.87-5.66-2.93-8.45a27.79,27.79,0,0,0-2-4c-.26-.44-.82-.7-1.24-1a7.13,7.13,0,0,0,.11,1.68c.55,1.77,1.27,3.49,1.75,5.28A10.47,10.47,0,0,0,93.4,16.42Zm-19.63-12,.28,0,0,.07L74,4.44l-.24-.29-.11-.36-.14.08.26.27,0,.28-.07.06Zm-6.38,9.5-.25-.29,0-.55c.29.27.68.49.85.81.47.92.52,1,1.41.52a4.2,4.2,0,0,0,1.23-1c.49-.62.28-1.1-.49-1a24.08,24.08,0,0,0-3,.72,6,6,0,0,0-.83.68.59.59,0,0,0-.06.56c.1.15.37.18.57.27a1.78,1.78,0,0,1,0-.56,1.59,1.59,0,0,1,.29-.42Zm5.16,3.24-.3.25-.93.47c.05.06.15.16.16.15.26-.2.51-.42.76-.64l.3-.24.06-.05Zm-9.09-5h0l-.24-.3-.13-.21.13.21Zm8.33,4.36h0l0,.54-.21.14.22-.13.32-.52c.16-.07.32-.21.48-.2,1.12.07.78-.85,1-1.4,0-.12-.09-.3-.14-.45a5.16,5.16,0,0,0-1.09.92,2.83,2.83,0,0,0-.22,1.12A.27.27,0,0,1,71.79,16.52ZM68.14,6.07l.06-.56.82.08.22.57a1.54,1.54,0,0,0,1.82,1,.48.48,0,0,0,.17-.25,5.05,5.05,0,0,0-1.06-.76c-.26-.11-.63,0-.94.07L69,5.6l-.81-.08,0,.54.22.09Zm37.39,23.28.35-.79c1.15-2,2.42-4,3.42-6.11.63-1.32,1.43-2.64,1.35-4.21,0-.17,0-.35,0-.52a2.48,2.48,0,0,0-.22.47,30.52,30.52,0,0,1-2.9,6.53c-.65,1.23-1.09,2.57-1.63,3.85l-.35.79-.13.19ZM66,8.31h.4l0-.14L66,8.31l-.08.21Zm5.5,33.61,1.11-.17c1.7.23,3.39.44,5.08.69,1.25.19,2.48.45,3.72.66a1.8,1.8,0,0,0,.45-.06c-.12-.06-.22-.14-.34-.19a12.56,12.56,0,0,0-8.9-1.08l-1.11.16-.21.09ZM76.38,17l-.23-.31c.78-.56,1-1.19.7-1.88,0-.09-.34-.17-.35-.15a7.8,7.8,0,0,0-.7,1.42c0,.15.22.41.34.62l.25.29c0,.47-.11.76-.63.77l-.11-.22.12.21c.24.49.52.48.7,0C76.55,17.52,76.42,17.23,76.38,17Zm6-10.91c.54.55-.16.55-.35.78a4.71,4.71,0,0,0-1,.79,5.38,5.38,0,0,0-.57,1.21s.11.18.13.17c.65-.2,1.3-.38,1.47-1.2,0-.11.45-.1.57-.24a1.83,1.83,0,0,0,.19-.65c0-.36.46-1-.47-.87ZM79.22,4.66h0c-.12,0-.32-.15-.34-.12a3,3,0,0,0-.35.63s.2.14.31.21a1.54,1.54,0,0,1,0-.53C78.92,4.76,79.1,4.73,79.22,4.66Zm-3.08-2.2L76.08,2s-.06.07-.06.1.09.23.13.35a2.39,2.39,0,0,0,0,.53,4.11,4.11,0,0,0,.19.56l.77-.7a6,6,0,0,0-.54-.33A1.68,1.68,0,0,0,76.14,2.46ZM67.29,17.72l.79.36h0l0-1,.55.5h0l.41-1.66c-.48.36-1,.7-1.41,1.09a2.28,2.28,0,0,0-.37.71c0,.3,0,.6,0,.9,0,0,.07,0,.11,0l-.15-.81A.69.69,0,0,1,67.29,17.72ZM70.54,1.1l0-.07,0,.06c-.18,1.05.5,1.56,1.26,2a1.86,1.86,0,0,0,.49.13c0-.17.15-.35.11-.49-.15-.52-.34-1-.51-1.52l-.55-.06ZM67.62,8.74c-.09.14-.3.33-.26.42a3.22,3.22,0,0,0,3.12,1.27c.1,0,.2-.43.15-.46a20.29,20.29,0,0,0-2.16-1.55c-.16-.1-.57.2-.86.32ZM89.6,33a8,8,0,0,0-1.45,2.22c-.54,2.19-.85,4.43-1.24,6.65a1.93,1.93,0,0,0,0,.48c0-.17.09-.34.13-.52.26-1.19.46-2.4.8-3.57.52-1.77,1.15-3.52,1.73-5.27l.06,0Zm21.65-9.13c1.14-1.52,2.29-3,3.42-4.56.62-.84,1.23-1.68,1.8-2.55a2.49,2.49,0,0,0,.24-.84,3.24,3.24,0,0,0-.75.53c-1.78,2.34-3.65,4.63-4.7,7.43l-.09.2Zm-12.56-.11,0-.06,0,.05A9.74,9.74,0,0,1,100,30.5a20.55,20.55,0,0,0,0,2.83,2.87,2.87,0,0,0,.07.5c0-.17.09-.35.11-.52.13-1,.2-2.07.38-3.09a12.68,12.68,0,0,0-.21-4.95A1.68,1.68,0,0,0,98.69,23.78ZM87.51,43.19a13.42,13.42,0,0,0,1.22-2.5,29.39,29.39,0,0,1,1.52-5.19,3.64,3.64,0,0,0,.24-1.32,2.61,2.61,0,0,0-.2-.75,3.08,3.08,0,0,0-.45.59,37.81,37.81,0,0,0-2.31,9.18l-.1.21Zm23.56-17.4c.6-.68,1.16-1.4,1.81-2A26.78,26.78,0,0,0,117.2,18a4.66,4.66,0,0,0,.44-1.27,1.78,1.78,0,0,0-.08-.59c-.11.13-.24.25-.35.39-1.21,1.63-2.48,3.23-3.61,4.92-.93,1.38-1.69,2.87-2.52,4.31l0,0Zm-28,12.33a8.54,8.54,0,0,0,1.37-2.27,57.9,57.9,0,0,0,1-6.15,4.05,4.05,0,0,0-.4-1.69c0-.15-.32-.23-.49-.34,0,.17-.08.34-.11.51-.45,3.31-.91,6.63-1.36,9.94Zm16.29-4.44h0c0-1.67.09-3.34.16-5a5.81,5.81,0,0,0-1.13-4.09c-.1-.12-.29-.16-.43-.24a1.82,1.82,0,0,0-.11.38c0,1.18,0,2.36-.15,3.53A7.56,7.56,0,0,0,99.38,33.68Zm-30,2.3h0c.8,1.37,2.31,1.67,3.57,2.31a7.63,7.63,0,0,0,5.56.31,2,2,0,0,0,.34-.2l-.36-.14c-2-.64-4-1.33-6.08-1.88A21.59,21.59,0,0,0,69.35,36Zm27-16.26c1.55-1.31,3.13-2.59,4.63-3.95,2-1.77,3.9-3.62,5.84-5.43a4.27,4.27,0,0,1,.38.38,7.74,7.74,0,0,1-.73.78q-3.41,3.08-6.83,6.13c-1.1,1-2.24,1.94-3.36,2.91h0A11.72,11.72,0,0,0,101,18.6c2.61-1.68,4.37-4.14,6.09-6.63a3,3,0,0,0,.46-1.25c.06-.52-.28-.6-.71-.37a8.49,8.49,0,0,0-3.91,1.79c-2.75,2-5.27,4.28-6.57,7.58Zm-2.8-4.93.1.2-.11-.19c0-.76-.09-1.53-.14-2.3A22.75,22.75,0,0,0,92,5.35a5.37,5.37,0,0,0-3.5-3,1.43,1.43,0,0,0-.5,0,4.61,4.61,0,0,0,.29.43,12.83,12.83,0,0,1,2.57,4.44C91.68,9.79,92.64,12.29,93.55,14.79Zm2.53-3.58a10.23,10.23,0,0,0,5.59-2.85c1.79-1.6,2.8-3.76,4-5.75,0,0,.07-.08.07-.12s0-.25,0-.38a.89.89,0,0,0-.34.07,4.33,4.33,0,0,0-.53.43l-8.87,8.61,0,0ZM105,.87c-.52.18-1.09.32-1.61.56-3.67,1.7-5.82,4.74-7.29,8.36a1.71,1.71,0,0,0,0,.51,2.79,2.79,0,0,0,.44-.29q2.33-2.17,4.63-4.37,2.06-1.95,4.1-3.93a1.82,1.82,0,0,0,.3-.57ZM74.32,42.35c-1.08.15-2.54.34-4,.56-.21,0-.39.27-.59.41a2,2,0,0,0,.54.31c1.46.26,2.93.51,4.39.74.71.11,1.43.19,2.15.27A7.64,7.64,0,0,0,80.64,44l.35-.17a1.34,1.34,0,0,0-.29-.15Zm30.57-16.08.21.09c0,.54,0,1.08,0,1.62a1.59,1.59,0,0,0,.07.38,2,2,0,0,0,.2-.31c1.08-2.18,2.21-4.34,3.22-6.55a27.38,27.38,0,0,0,1.24-3.57,3.52,3.52,0,0,0,0-1,3.37,3.37,0,0,0-.73.67,41.33,41.33,0,0,0-2.3,4C106.05,23.08,105.51,24.7,104.89,26.27Zm9.39,4.17a13.1,13.1,0,0,0,6.91-1.12c.24-.11.38-.43.57-.64-.25-.06-.51-.13-.77-.18a1.24,1.24,0,0,0-.27,0l-9.46.37a1.3,1.3,0,0,0-.34.08c.08.09.15.23.26.28C112.38,29.72,113.6,30.18,114.28,30.44ZM83.78,29l.12,0a1.9,1.9,0,0,0,0-.41c0-.25,0-.5-.08-.76a2.65,2.65,0,0,0-.66.38A3.73,3.73,0,0,0,82,30.89c.11,1.88.36,3.76.57,5.64,0,.12.13.22.19.33a1,1,0,0,0,.15-.32C83.19,34,83.48,31.52,83.78,29Zm24,4.46-.68-.07-.35,0c.12,0,.25.09.37.15,2,.91,3.92,1.82,5.9,2.71a4.19,4.19,0,0,0,1.16.34,2.63,2.63,0,0,0,.76-.15c-.12-.22-.18-.53-.36-.65a10.82,10.82,0,0,0-2.45-1.38C110.65,34,109.12,33.76,107.76,33.47Zm11.08-6.41c-.91,0-1.91,0-2.88.13-1.2.17-2.38.47-3.57.72a1.31,1.31,0,0,0-.33.21,2.1,2.1,0,0,0,.39.21,1.12,1.12,0,0,0,.41,0l8.48-.5a2.33,2.33,0,0,0,.32-.1,1.76,1.76,0,0,0-.37-.17ZM72.37,34.88c-.48,0-1.2.08-1.91.16-.14,0-.26.17-.39.25a2.67,2.67,0,0,0,.36.14l7,1.9c.43.12.87.23,1.31.31a1.24,1.24,0,0,0,.43-.11,1.43,1.43,0,0,0-.28-.27A18.62,18.62,0,0,0,72.37,34.88ZM112,37.08c.4,0,.8.09,1.21.12a2.69,2.69,0,0,0,.4,0L113.3,37l-6.67-3a2.67,2.67,0,0,0-.64-.08c.09.19.14.43.29.55A10.39,10.39,0,0,0,112,37.08ZM75.69,7.15a5.63,5.63,0,0,0-.07-.87c-.22-.87-.62-1-1.52-.71-.1,0-.29-.05-.4-.13s-.11-.2-.16-.3c-.07.11-.22.24-.19.31.34.92.68,1.85,1.08,2.74.09.2.43.46.59.42s.38-.36.48-.59A4.36,4.36,0,0,0,75.69,7.15ZM64.94,12.63a5.51,5.51,0,0,0,1-.22.74.74,0,0,0,.19-.48c-.61-.34-1.24-.65-1.88-.93-.06,0-.25.21-.35.34s0,.13.06.21l.5-.2a2.47,2.47,0,0,0,0,.77C64.52,12.32,64.77,12.46,64.94,12.63Zm13.3-6.05c.06.41.1.86.2,1.29,0,.07.28.17.34.13A1.35,1.35,0,0,0,79,6.32,1.84,1.84,0,0,0,78.42,6ZM76.81,1.44l.22.13a1.41,1.41,0,0,0,0-.2s-.09-.07-.1-.06A.53.53,0,0,0,76.81,1.44Z"/><path d="M106.79,58.2c1.1-.35,1.24-1.36,1.46-2.26a3.22,3.22,0,0,1,2.49-2.56c1.4-.34,2.1.5,1.67,1.89a8.36,8.36,0,0,0-.52,2.77,8,8,0,0,0,.7-1.15c.86-2,2.78-2.45,4.58-3a1.09,1.09,0,0,1,1,.43c.17.56.38,1.44.09,1.77-1.16,1.29-1.27,3.06-2.2,4.44a2.78,2.78,0,0,0-.48,1.07,4.37,4.37,0,0,1-2.7,3.37,7.4,7.4,0,0,0-1.52,1.11,16.35,16.35,0,0,1-10,4.33,26.75,26.75,0,0,0-9.27,2.44A21.56,21.56,0,0,1,85,75.27c-1.18.11-1.4.62-1.49,2-.11,1.74-.29,3.48-.5,5.21a.9.9,0,0,1-.63.51c-1.82.17-3.64.41-5.44.65a39.94,39.94,0,0,1-4.75.35c-1.53,0-1.76-.26-1.78-1.85a51.89,51.89,0,0,1,0-5.58A28,28,0,0,1,73,67a7.19,7.19,0,0,1,5.3-4,41.2,41.2,0,0,1,7.51-1,15.32,15.32,0,0,0,8.51-2.47c1.71-1.19,3.68-1.25,5.53-1.79,1-.28,2.11.08,3.14-.1a10.69,10.69,0,0,0,2.56-1c.42-.19.72-.55,1.28-.14.77.57-.28,1,0,1.46,0,.06,0,.16,0,.24l-.36.16.18.18ZM89.06,66.36A45.94,45.94,0,0,1,94,64.57a22.31,22.31,0,0,0,5.13-2.35c.65-.34,1.1-.88.2-1.62-.28-.23-.17-.9-.34-1.33-.08-.22-.51-.54-.58-.49-1.2.76-2.66.8-3.9,1.63a10.79,10.79,0,0,1-5.42,2.17c-3.25.16-6.48.51-9.71,1a6.58,6.58,0,0,0-5.74,4.29c-1.21,3.16-2.33,6.36-2.27,9.83,0,1.11-.11,2.23-.21,3.34-.13,1.36.36,2,1.66,2a42.49,42.49,0,0,0,7.64-.52c2-.32,2-.4,2.07-2.39,0-1.13,0-2.26,0-3.39,0-.71-.22-1-1-1-.15,0-.32-.25-.48-.39.2-.18.42-.53.6-.51a14,14,0,0,0,5.41-.71,51,51,0,0,0,7.79-3.27c2.8-1.4,5.53-2.86,8.69-3.4a25.29,25.29,0,0,0,8.46-2.78,5.75,5.75,0,0,0,2.76-3A28.12,28.12,0,0,1,117.38,56c.15-.23.19-.79.06-.89a1.36,1.36,0,0,0-1.07-.27,6.34,6.34,0,0,0-3.78,3.62,6.51,6.51,0,0,1-5,4c-1.93.36-4,.2-5.94.5s-2,.08-3.77,1a10.57,10.57,0,0,1-1.51.65,6.78,6.78,0,0,0-3.29,2.25,4.81,4.81,0,0,1-2.59,1.6c-1.21.3-2.38.77-3.57,1.17-.14,0-.3.22-.41.19s-.47-.2-.49-.34.15-.4.3-.54.32,0,.47-.06l5.42-2-.08-.33Zm18.07-4.77c1.3.23,2-.42,2.7-1.65a20.3,20.3,0,0,0,1.68-4.34,3.76,3.76,0,0,0,0-1.11,4,4,0,0,0-1.31.12,1.72,1.72,0,0,0-.91.89,8.79,8.79,0,0,1-2.64,4.64,2.49,2.49,0,0,0-.55,1c0,.1.12.37.23.41A3.53,3.53,0,0,0,107.13,61.59Zm-8.24,8.22a17.15,17.15,0,0,0,8.55-1.93c.08,0,.11-.19.15-.29-.14,0-.3-.15-.43-.12a22.13,22.13,0,0,0-2.29.47C103,68.49,100.87,68.46,98.89,69.81Zm3.19-7.71a1.86,1.86,0,0,0,2-1c.6-.9,1.14-1.86,1.67-2.81.1-.18,0-.47,0-.7a4.4,4.4,0,0,0-.74.13c-.74.24-1.67.57-1.36,1.47s-.16,1.15-.7,1.46-1.12.56-1.66.86c-.13.07-.2.24-.29.37a1.32,1.32,0,0,0,.35.23A3.21,3.21,0,0,0,102.08,62.1Zm9.48-3.18-.13-.16-.14.15.2.15Z"/><path class="cls-1" d="M89.06,66.36A45.94,45.94,0,0,1,94,64.57a22.31,22.31,0,0,0,5.13-2.35c.65-.34,1.1-.88.2-1.62-.28-.23-.17-.9-.34-1.33-.08-.22-.51-.54-.58-.49-1.2.76-2.66.8-3.9,1.63a10.79,10.79,0,0,1-5.42,2.17c-3.25.16-6.48.51-9.71,1a6.58,6.58,0,0,0-5.74,4.29c-1.21,3.16-2.33,6.36-2.27,9.83,0,1.11-.11,2.23-.21,3.34-.13,1.36.36,2,1.66,2a42.49,42.49,0,0,0,7.64-.52c2-.32,2-.4,2.07-2.39,0-1.13,0-2.26,0-3.39,0-.71-.22-1-1-1-.15,0-.32-.25-.48-.39.2-.18.42-.53.6-.51a14,14,0,0,0,5.41-.71,51,51,0,0,0,7.79-3.27c2.8-1.4,5.53-2.86,8.69-3.4a25.29,25.29,0,0,0,8.46-2.78,5.75,5.75,0,0,0,2.76-3A28.12,28.12,0,0,1,117.38,56c.15-.23.19-.79.06-.89a1.36,1.36,0,0,0-1.07-.27,6.34,6.34,0,0,0-3.78,3.62,6.51,6.51,0,0,1-5,4c-1.93.36-4,.2-5.94.5s-2,.08-3.77,1a10.57,10.57,0,0,1-1.51.65,6.78,6.78,0,0,0-3.29,2.25,4.81,4.81,0,0,1-2.59,1.6c-1.21.3-2.38.77-3.57,1.17-.14,0-.3.22-.41.19s-.47-.2-.49-.34.15-.4.3-.54.32,0,.47-.06l5.42-2-.08-.33Z"/><path class="cls-1" d="M107.13,61.59c1.3.23,2-.42,2.7-1.65a20.3,20.3,0,0,0,1.68-4.34,3.76,3.76,0,0,0,0-1.11,4,4,0,0,0-1.31.12,1.72,1.72,0,0,0-.91.89,8.79,8.79,0,0,1-2.64,4.64,2.49,2.49,0,0,0-.55,1c0,.1.12.37.23.41A3.53,3.53,0,0,0,107.13,61.59Z"/><path class="cls-1" d="M98.89,69.81a17.15,17.15,0,0,0,8.55-1.93c.08,0,.11-.19.15-.29-.14,0-.3-.15-.43-.12a22.13,22.13,0,0,0-2.29.47C103,68.49,100.87,68.46,98.89,69.81Z"/><path class="cls-1" d="M102.08,62.1a1.86,1.86,0,0,0,2-1c.6-.9,1.14-1.86,1.67-2.81.1-.18,0-.47,0-.7a4.4,4.4,0,0,0-.74.13c-.74.24-1.67.57-1.36,1.47s-.16,1.15-.7,1.46-1.12.56-1.66.86c-.13.07-.2.24-.29.37a1.32,1.32,0,0,0,.35.23A3.21,3.21,0,0,0,102.08,62.1Z"/></g></g></svg>