<svg xmlns="http://www.w3.org/2000/svg" viewBox="0 0 39.21 87"><title>Fichier 13</title><g id="Calque_2" data-name="Calque 2"><g id="Calque_2-2" data-name="Calque 2"><path d="M11.07,62.12c-1,1.42-1,3.36-2.16,4.71-.37.41-.61.92-1,1.35s-1,.61-1.4.06A6.18,6.18,0,0,1,5.1,66.08a22.4,22.4,0,0,0-3.56-7.37,5.42,5.42,0,0,1-1-3.09C.49,51.9.5,48.19.12,44.46c-.44-4.45.4-8.91,1.26-13.32,1-5.22,2.49-10.37,2.72-15.73a4.89,4.89,0,0,1,.64-1.48H4.8c.2.38.63.78.59,1.13a131.59,131.59,0,0,1-3,16C1.21,35.58,1.7,40.2,1,44.73c1.09,3.15.44,6.4.53,9.6s.68,4.35,3.38,6.58a3.64,3.64,0,0,1,1.66,2.45,4.71,4.71,0,0,0,.8,1.81,1.11,1.11,0,0,0,.8.47A1,1,0,0,0,8.83,65c.61-2.1,1.64-4.08.16-6.38-.54-.83-.28-2.16-1.78-2.29a1.29,1.29,0,0,1,0-.68c1.06-2.47,1.19-2.48,1-5.23-.09-1.94.61-3.19,2.76-4.33-1.24,1.77-1.71,3.13-.91,4.77.47,1,.27,2.28.75,3.24a16.19,16.19,0,0,1,1.3,6.52,63.26,63.26,0,0,0,2.41,14.48,5.58,5.58,0,0,1,.18,2.33,8.13,8.13,0,0,0,.63,4.47,5,5,0,0,0,1.31,1.87A1.32,1.32,0,0,0,18.73,83a15.47,15.47,0,0,0,.43-6.53,33.86,33.86,0,0,1-.47-6c.15-3-1.11-6.07.2-9.06,0-.07-.1-.19-.14-.3a49.29,49.29,0,0,1-2.29-9.35c-.14-.81-.51-.4-.83-.13s-.47.57-.77.66a3.54,3.54,0,0,1-1.11-.07c.08-.3.07-.69.26-.88a7.42,7.42,0,0,0,2-3.58c.21-1.09.92-1.43,2-1.44A11.6,11.6,0,0,0,19.76,46c-.15-.65-.28-1.29-.45-1.93a15.7,15.7,0,0,0-.57-1.92c-.11-.24-.48-.56-.69-.53s-.54.36-.63.63c-.65,1.93-2.3,2.91-3.77,4.08a2.89,2.89,0,0,1,.54-1.16c2.19-3.17,4.6-6.2,5.56-10.06a28.27,28.27,0,0,1,1.34-3.74c.09-.22.55-.29.84-.43a3,3,0,0,1-.06.59c-.73,2.31-1.45,4.62-2.22,6.92a9.17,9.17,0,0,1-.79,1.43,7.74,7.74,0,0,1,1.64-.74c.79-.17,1.41-.66,2.47,0a11.47,11.47,0,0,1,2.9,2.14,2.3,2.3,0,0,0,3.25.66,13.24,13.24,0,0,1,2.51-.85,3.51,3.51,0,0,1,1.31-.2c.26,0,.49.34.74.53a2.11,2.11,0,0,1-.36.37c-.38.23-.77.43-1.15.65-1.61.94-1.7,1.29-.5,2.54.9.93,1.72,2.27,3.36,1.15a.38.38,0,0,1,.33,0c.28.15.53.34.79.51a4.43,4.43,0,0,0-.62.51c-.25.29-.68.68-.63.94a18.27,18.27,0,0,0,.93,2.54c-3.06-1.85-4.52-4.72-7-7.4a42.51,42.51,0,0,0,1.35,4.09A1.07,1.07,0,0,1,29.53,49c-1.51.29-1.22,1-.65,1.88.94,1.36,2,2.65,3,4,1.8,2.57,3.83,2.62,5.3,0A9.38,9.38,0,0,0,38,48.41a27,27,0,0,1-.14-3.93h0c1.26,1.62.72,3.64,1.19,5.44a11.62,11.62,0,0,1,.09,2.37A5.59,5.59,0,0,1,35,58.07c-1,.32-1.94.52-2.11,1.8a1.89,1.89,0,0,1-.68,1.1,14.65,14.65,0,0,0-2.34,1.77c-.57.73-.61,1.86-1.12,2.65-1.12,1.73-3,2.23-4.9,2.44-.51,0-1.89,0-2-1.33-.05-.47-.57-.93-.94-1.33a20.39,20.39,0,0,0-1.59-1.39c.21,1.72.39,2.92.52,4.13A7,7,0,0,1,20,70.59a9.74,9.74,0,0,0,.17,5.59c.83,3.17-.2,6.18-.52,9.24a1.91,1.91,0,0,1-3.21,1.08,3.13,3.13,0,0,1-1-1.3c-1-2.57-2-5.12-2.06-8a18,18,0,0,0-.56-4.64A81.05,81.05,0,0,1,11,62.12v-1l.18-.53-.34,0,.22.51Zm-.51-3.38-.19.54h.35l-.23-.52c.72-1.41-.25-2.52-.68-3.71-.1-.28-.42-.49-.63-.73-.09.3-.32.65-.23.88C9.44,56.39,10,57.56,10.56,58.74Zm16.81,6.52c.93-1.07,1.15-1.92.31-3.13a39.25,39.25,0,0,1-4.9-10.81,3.21,3.21,0,0,0-.36-.92,3.87,3.87,0,0,0-.77-.6,5.21,5.21,0,0,1,.06,1c-.08,1-.27,2-.3,3-.05,1.33-.91,1.47-1.85,1.22-.66-.18-1.2-.73-1.13.54a19,19,0,0,0,4.17,10.3,1.76,1.76,0,0,0,2.1.69C25.62,66.16,26.48,65.67,27.37,65.26ZM20.81,45.51c.23.68.25,1.56.68,1.89,2.06,1.57,2.16,4.07,3.14,6.13s1.73,4,2.62,6a2.85,2.85,0,0,0,3,1.69c1.6,0,1.3-1.36,1.67-2.13a2.25,2.25,0,0,0-.49-2.9A14.8,14.8,0,0,1,28.23,52c-.85-1.78-2.58-3.08-2.77-5.23,0-.33-1-.94-1.24-.82-1.12.66-1.89-.34-2.83-.42C21.21,45.52,21,45.52,20.81,45.51Zm3.9-1.82.47.07c0-.38.18-.85,0-1.12s-.66-.37-1-.54Z"/><path d="M4.74,13.93c-.15-.16-.42-.31-.44-.5C3.77,9.86,3.68,6.33,5.39,3a1.67,1.67,0,0,1,.84-.84A60.75,60.75,0,0,1,23.3,0c2.52,0,4.68,1.24,6.78,2.46,1,.58,2.28,1.24,2.66,2.18s-.43,2.08-.69,3.15a26.06,26.06,0,0,0-.79,3.56,9.53,9.53,0,0,0,.23,2.91c.26,1.29,1.11,2.58,1,3.79-.41,3.65,1.35,6.7,2.33,10a8.48,8.48,0,0,1,.75,2.53c-.17,3.88,1.62,7.32,2.28,11a18.92,18.92,0,0,1,.09,2.92h0c-2-3.41-2.54-7.34-3.09-11.1a25.33,25.33,0,0,0-2.5-8.89A5.6,5.6,0,0,1,31.4,21c.5-2.25-.31-4.2-.88-6.19a8.2,8.2,0,0,1,0-5.25c.41-1.14.62-2.37,1.09-3.49.26-.65.27-1.16-.29-1.43-2.44-1.22-4.57-2.94-7.48-3.38a25.33,25.33,0,0,0-6.64.21c-2.77.29-5.56.56-8.3,1.1C7.05,3,5.49,4,5.38,6.27,5.26,8.82,5,11.38,4.8,13.93Z"/><path d="M7.25,23.18c3-1.23,5.21-4.25,8.92-3.84.31,0,.62.13.92.19a3.76,3.76,0,0,1-.89.77,6.82,6.82,0,0,1-1.91.5,5.9,5.9,0,0,0-3.57,1.63,14.06,14.06,0,0,1-2.78,1.72c-.17.09-.58-.18-.82-.37C7.05,23.72,7.2,23.39,7.25,23.18Z"/></g></g></svg>