<svg xmlns="http://www.w3.org/2000/svg" viewBox="0 0 75.23 47.95"><title>Fichier 6</title><g id="Calque_2" data-name="Calque 2"><g id="Calque_2-2" data-name="Calque 2"><path d="M57.06,7.66C58.78,7.1,59,5.53,59.34,4.12a5,5,0,0,1,3.9-4c2.18-.53,3.28.78,2.6,2.95A13.38,13.38,0,0,0,65,7.41,13.51,13.51,0,0,0,66.14,5.6C67.48,2.43,70.48,1.77,73.3.92a1.74,1.74,0,0,1,1.56.68c.27.88.59,2.25.14,2.76-1.82,2-2,4.8-3.44,7A4.31,4.31,0,0,0,70.81,13c-.37,2.61-2,4.15-4.22,5.27A10.94,10.94,0,0,0,64.21,20a25.6,25.6,0,0,1-15.67,6.77A41.93,41.93,0,0,0,34,30.6c-3.59,1.67-7.09,3.39-11.12,3.77-1.85.17-2.19,1-2.32,3.08-.18,2.72-.47,5.44-.79,8.14a1.37,1.37,0,0,1-1,.8c-2.84.27-5.7.65-8.51,1A59.89,59.89,0,0,1,2.87,48c-2.4,0-2.76-.4-2.78-2.89a79.38,79.38,0,0,1,.07-8.73,43.85,43.85,0,0,1,4-14.84,11.21,11.21,0,0,1,8.29-6.26,63.79,63.79,0,0,1,11.76-1.55c4.73-.13,9.38-1.12,13.32-3.86,2.67-1.86,5.76-2,8.66-2.8,1.52-.44,3.3.12,4.9-.16a16.71,16.71,0,0,0,4-1.6c.67-.3,1.13-.85,2-.21,1.21.88-.43,1.52,0,2.27a1.18,1.18,0,0,1,0,.38L56.53,8l.28.28ZM29.3,20.42A69.18,69.18,0,0,1,37,17.63c3-.71,5.42-2.32,8-3.69,1-.53,1.74-1.38.32-2.53-.44-.35-.26-1.41-.53-2.09-.13-.34-.8-.83-.92-.76C42,9.75,39.76,9.81,37.82,11.12c-2.5,1.68-5.29,3.24-8.49,3.39-5.09.25-10.14.79-15.19,1.5-4.32.6-7.42,2.65-9,6.72-1.9,4.95-3.65,9.94-3.57,15.38a51,51,0,0,1-.32,5.23c-.2,2.13.56,3.07,2.59,3.12a64,64,0,0,0,12-.81c3.08-.5,3.19-.62,3.24-3.73,0-1.77,0-3.55.05-5.32.05-1.1-.33-1.63-1.49-1.6-.24,0-.5-.4-.75-.61.31-.28.65-.82.94-.8a22.06,22.06,0,0,0,8.47-1.11,79.53,79.53,0,0,0,12.18-5.12c4.39-2.18,8.66-4.47,13.61-5.32a39.26,39.26,0,0,0,13.23-4.36A8.93,8.93,0,0,0,69.63,13a43.69,43.69,0,0,1,4-8.68c.24-.36.31-1.24.09-1.4A2,2,0,0,0,72,2.47a9.85,9.85,0,0,0-5.91,5.66,10.24,10.24,0,0,1-7.84,6.26c-3,.55-6.18.31-9.3.78s-3.21.12-5.89,1.48a15.09,15.09,0,0,1-2.38,1,10.64,10.64,0,0,0-5.14,3.53,7.57,7.57,0,0,1-4.06,2.49c-1.89.48-3.72,1.21-5.58,1.84-.22.08-.47.34-.64.3s-.74-.31-.77-.53a1.21,1.21,0,0,1,.47-.85c.15-.13.5,0,.73-.1,2.83-1,5.66-2.06,8.48-3.09l-.11-.52ZM57.58,13c2,.36,3.18-.67,4.22-2.59a31.42,31.42,0,0,0,2.64-6.79,5.92,5.92,0,0,0,0-1.73A6.26,6.26,0,0,0,62.37,2,2.7,2.7,0,0,0,61,3.43c-.83,2.75-1.8,5.36-4.14,7.26A3.66,3.66,0,0,0,56,12.3a.74.74,0,0,0,.35.64A5.14,5.14,0,0,0,57.58,13ZM44.68,25.82a27,27,0,0,0,13.4-3c.12-.06.15-.31.23-.46-.23-.07-.47-.23-.68-.19a33.42,33.42,0,0,0-3.58.74C51.05,23.76,47.78,23.72,44.68,25.82Zm5-12.07c1.29.4,2.4-.38,3.2-1.58.95-1.42,1.79-2.91,2.62-4.41.15-.28,0-.73,0-1.1a8.79,8.79,0,0,0-1.16.21c-1.15.38-2.61.9-2.12,2.31S52,11,51.15,11.46s-1.75.87-2.6,1.34c-.2.11-.31.39-.46.58a2,2,0,0,0,.55.36A5.45,5.45,0,0,0,49.68,13.75Zm14.83-5-.19-.24-.22.22.31.24Z"/></g></g></svg>