<svg xmlns="http://www.w3.org/2000/svg" viewBox="0 0 68.37 70.07"><title>Fichier 4</title><g id="Calque_2" data-name="Calque 2"><g id="Calque_2-2" data-name="Calque 2"><path d="M22.82,13.69c-.26-1.74-1.67-3.07-1.76-4.88,0-.54-.2-1.08-.26-1.63s.26-1.11,1-1a6,6,0,0,1,2.55.53A22.68,22.68,0,0,0,32,9.46,5.56,5.56,0,0,1,34.87,11c2.66,2.61,5.25,5.26,8.13,7.66,3.43,2.87,6,6.65,8.42,10.39,2.93,4.45,5.48,9.15,9.07,13.15a4.56,4.56,0,0,1,.58,1.5l0,0c-.41-.12-1-.11-1.21-.38a130.37,130.37,0,0,1-9-13.57c-2.36-4-5.95-7-8.63-10.69-3-1.48-4.8-4.25-7.1-6.48s-3.53-2.63-7-2.33a3.66,3.66,0,0,1-2.9-.59,4.9,4.9,0,0,0-1.84-.73,1.07,1.07,0,0,0-.9.23,1,1,0,0,0,0,.88c1,1.92,1.68,4.06,4.35,4.66,1,.22,1.72,1.35,2.88.39a1.24,1.24,0,0,1,.48.48c1,2.51.89,2.59,2.91,4.47,1.43,1.32,1.81,2.7,1.07,5-.36-2.14-1-3.43-2.69-4.05-1-.36-1.79-1.43-2.81-1.78a16.3,16.3,0,0,1-5.48-3.75A63.27,63.27,0,0,0,11.22,6.84,5.63,5.63,0,0,1,9.47,5.3,8.17,8.17,0,0,0,5.89,2.55a4.94,4.94,0,0,0-2.24-.42,1.32,1.32,0,0,0-.94,2A15.52,15.52,0,0,0,7,9.08a34.53,34.53,0,0,1,4.54,4c2,2.27,5.05,3.56,6.21,6.61,0,.07.2.07.3.12a49.62,49.62,0,0,1,8.18,5.08c.67.48.65-.07.69-.49s-.06-.74.09-1,.55-.49.84-.73c.15.27.43.54.43.81a7.45,7.45,0,0,0,1.1,3.93,1.7,1.7,0,0,1-.39,2.4,11.7,11.7,0,0,0-1.1,1.49c.56.36,1.11.72,1.67,1.06a13.62,13.62,0,0,0,1.75,1,1,1,0,0,0,.87-.1,1,1,0,0,0,0-.89c-.89-1.84-.4-3.69-.17-5.55a2.67,2.67,0,0,1,.42,1.2c.66,3.8,1.06,7.65,3.08,11.08a28.8,28.8,0,0,1,1.66,3.61c.09.22-.19.59-.3.9a4,4,0,0,1-.37-.47c-1.09-2.16-2.2-4.31-3.26-6.49A9.2,9.2,0,0,1,32.8,35a7.65,7.65,0,0,1-.66,1.67c-.44.67-.55,1.46-1.77,1.73a11.21,11.21,0,0,1-3.57.5A2.3,2.3,0,0,0,24,40.7a13.88,13.88,0,0,1-1.2,2.37A3.5,3.5,0,0,1,22,44.13c-.2.16-.6.1-.9.13a1.74,1.74,0,0,1,0-.51c.1-.43.25-.85.36-1.27.49-1.8.31-2.12-1.42-2.16-1.29,0-2.82-.42-3.21,1.53a.4.4,0,0,1-.23.23c-.31.08-.62.13-.92.19a4.43,4.43,0,0,0,.08-.8c0-.38,0-1-.21-1.11a17.51,17.51,0,0,0-2.43-1.16c3.47-.82,6.52.2,10.18.37a39.82,39.82,0,0,0-3.83-2A1.08,1.08,0,0,1,18.82,36c.88-1.26.14-1.61-.84-1.8-1.63-.31-3.29-.48-4.92-.78-3.08-.57-4.57.8-3.81,3.69a9.37,9.37,0,0,0,3.93,5.23A27,27,0,0,1,16,45l0,0c-2-.28-3.06-2.09-4.66-3a11,11,0,0,1-1.72-1.64,5.59,5.59,0,0,1-1.08-7c.48-.93,1-1.73.24-2.76a2,2,0,0,1-.28-1.27,14.23,14.23,0,0,0,.43-2.9c-.1-.92-.86-1.75-1-2.68-.41-2,.61-3.72,1.79-5.17C10,18.19,11,17.23,12,18.12a2.9,2.9,0,0,0,1.6.3c.53,0,1.06-.06,2.11-.13-1.35-1.07-2.33-1.81-3.26-2.59a6.86,6.86,0,0,1-2-1.81,9.75,9.75,0,0,0-4-3.89C3.68,8.33,2.31,5.46.39,3.05A1.92,1.92,0,0,1,1.93,0,3.23,3.23,0,0,1,3.56.25c2.5,1.15,5,2.23,7,4.25a18,18,0,0,0,3.65,2.91,81.21,81.21,0,0,1,8.6,6.24l.69.68.24.51.23-.25-.52-.21Zm2.73,2.05-.24-.51-.25.25.53.22c.48,1.5,1.94,1.62,3.09,2.17a2.72,2.72,0,0,0,1,.07c-.15-.27-.23-.68-.46-.78C28,16.64,26.76,16.21,25.55,15.74ZM9,22.86c.08,1.41.52,2.18,2,2.45A39.62,39.62,0,0,1,22,29.6a3.57,3.57,0,0,0,.89.41,4.07,4.07,0,0,0,1-.11,6.29,6.29,0,0,1-.71-.65c-.63-.76-1.19-1.59-1.86-2.33-.9-1-.38-1.68.47-2.16.59-.34,1.37-.32.42-1.18A19,19,0,0,0,12,19.14a1.76,1.76,0,0,0-2,1A29.2,29.2,0,0,0,9,22.86Zm18.51,9.51c-.64-.32-1.27-.94-1.81-.87-2.56.32-4.39-1.4-6.54-2.18s-4.05-1.67-6.09-2.47a2.85,2.85,0,0,0-3.31.88c-1.13,1.12,0,1.88.3,2.68a2.25,2.25,0,0,0,2.39,1.73,14.82,14.82,0,0,1,5.21.79c1.85.67,4,.38,5.64,1.79a1.69,1.69,0,0,0,1.46-.28c.34-1.26,1.59-1.08,2.31-1.68ZM26,36.4l-.38.28c.26.29.47.74.77.81s.73-.19,1.1-.32Z"/><path d="M61.07,43.68c.22,0,.52-.07.67,0,2.87,2.18,5.41,4.64,6.52,8.22a1.68,1.68,0,0,1,0,1.19,61.15,61.15,0,0,1-10.7,13.48c-1.83,1.73-4.21,2.38-6.56,3-1.12.28-2.5.71-3.43.3s-1.15-1.79-1.71-2.73a27.26,27.26,0,0,0-1.93-3.1,9.86,9.86,0,0,0-2.2-1.92c-1.09-.73-2.6-1.06-3.34-2-2.27-2.9-5.66-3.84-8.64-5.49a8.67,8.67,0,0,1-2.31-1.27c-2.6-2.89-6.28-4.11-9.34-6.27a20,20,0,0,1-2.1-2l0,0c3.84,1,7,3.46,10,5.76,2.53,1.92,4.95,3.69,8,4.61a5.48,5.48,0,0,1,3,1.85c1.22,2,3.17,2.78,5,3.81a8.15,8.15,0,0,1,3.66,3.75c.51,1.11,1.22,2.13,1.67,3.25.26.65.62,1,1.21.83,2.59-.85,5.32-1.11,7.71-2.83a25.37,25.37,0,0,0,4.59-4.8C62.64,59.12,64.44,57,66,54.68c1.08-1.57,1.51-3.35,0-5.08-1.7-1.91-3.3-3.92-5-5.89Z"/><path d="M52.8,38.82c-1.27,3-.74,6.69-3.68,9a8.92,8.92,0,0,1-.79.51,3.73,3.73,0,0,1,.1-1.17,6.51,6.51,0,0,1,1-1.7,5.93,5.93,0,0,0,1.4-3.66,13.81,13.81,0,0,1,.78-3.18c.06-.18.55-.27.85-.3C52.57,38.3,52.69,38.64,52.8,38.82Z"/></g></g></svg>