<svg xmlns="http://www.w3.org/2000/svg" viewBox="0 0 666.95 299.96"><defs><style>.cls-1{fill:#fff;}</style></defs><title>Fichier 22</title><g id="Calque_2" data-name="Calque 2"><g id="Calque_4" data-name="Calque 4"><g id="Calque_2-2" data-name="Calque 2-2"><path class="cls-1" d="M318.19,159.49c-.15,1.76-.15,3.14-.3,4.75-.69,7.13-8.44,13-3.45,21.62.84,1.76-3.91,9.43-6.37,9.43-16.56,1.23-26.6,14.42-40.33,20.86a111.65,111.65,0,0,0-32.5,24,17.1,17.1,0,0,1-22.32,3.53c-5.9-2.84-16.17-.69-16.17-12.88a21.92,21.92,0,0,1,13.18-23c15.72-6.67,30.44-12.27,46.39-19.63s35.11-8.2,47.31-23.54C306.23,161.25,313,161.17,318.19,159.49Z" transform="translate(-0.25 -0.25)"/><path class="cls-1" d="M285.15,165.62a25.24,25.24,0,0,1-4.6,5.83,24.31,24.31,0,0,1-7.13,2.68,304.54,304.54,0,0,0-83.19,36.73c-9.35,6.36-15.87,4.6-24-2.61-3.07-6.82-6.75-13.49-9.74-20.55a13.5,13.5,0,0,1,5.37-16.1,146.5,146.5,0,0,1,79.36-31.13c9.73-.46,5.44,3.68,4.06,8.67-2,7.28-1,13.87,9.2,14.33,7.67.31,15.33,1.84,23,2.53A38.61,38.61,0,0,0,285.15,165.62Z" transform="translate(-0.25 -0.25)"/><path class="cls-1" d="M325.17,290.44l2.06.1-2.14.21a197.76,197.76,0,0,0-30.2.76,72,72,0,0,1-49.61-7.13c-19.78-11.5-19.17-27.06.61-40.63,10.2-7.06,20.09-15.26,30.67-22.39,6.59-4.29,12.27-6.44,14.26,5.14a8.65,8.65,0,0,0,.94,2.24,8.36,8.36,0,0,0,11.48,2.82,311.37,311.37,0,0,1,31.51-10.12c-20.77,18.93-42.86,30.21-57.27,53.21a134.57,134.57,0,0,1,19.48-6.9c2-.39,4.9,3,7.2,4.9a32.52,32.52,0,0,1,3.76,4.76c1.38-2,2.84-3.91,4-6a3,3,0,0,0,0-2.53c-8.51-12.65,1.91-18.86,9.12-25.69,9.58-9.12,12.27-8.43,19.4,4,1.61,2.91,3.14,6,4.9,8.89a15.34,15.34,0,0,0,2.76,2.76c1.46-1.84,4.15-3.6,4.15-5.59a26.63,26.63,0,0,0-.85-10.28A101.67,101.67,0,0,0,345,223.66c-.15-.22-.3-.45-.44-.68a17.55,17.55,0,0,1,5.73-24.16A88.26,88.26,0,0,0,367,176.74c4.91-8.05,1.23-12.88,0-18.94a62.67,62.67,0,0,0-5.52-12.65,70.18,70.18,0,0,0,10.89,6.21c17.56,6.06,35.19,11.73,52.9,17.56a22.25,22.25,0,0,0,4.53.46c-1.08-2.23-1.61-5.75-3.3-6.44A215,215,0,0,0,398,152.36c-29.44-7.67-52.52-26.38-76.67-43.4a22.13,22.13,0,0,0-8.82-4.29c8.51,11.42,16,24.07,30.67,29.28a7.71,7.71,0,0,1,4.75,4.91c.23,1.61-2.22,4.37-4.14,5.14a104.23,104.23,0,0,1-14.72,4.29c-4.91,1.23-9.89,2.23-14.8,3.3a89.88,89.88,0,0,1-2.14-14c.07-8.13-2.53-13.65-10.81-15.34A56.53,56.53,0,0,1,274,106.89c-1.45-1.46-4.37-1.38-6.67-2.07a25.6,25.6,0,0,0-.61,8.59c.61,2.22,2.91,3.45,5,5.9s5.14,5.37-1.07,6.36a384.12,384.12,0,0,0-71.92,16.8c-.76.3-1.76,1.07-2.22,1.07-22.85-9.89-46.46-.84-69.46-2.22a260.52,260.52,0,0,0-46,3.06,118.34,118.34,0,0,1-50-3.75,10,10,0,0,1-3.29-1.45,10.11,10.11,0,0,1-2.76-14,38.23,38.23,0,0,1,14.41-9.89,63.07,63.07,0,0,1,34.35-4.83,41.63,41.63,0,0,0,17.86-1.23A486.4,486.4,0,0,1,202.8,92.25a125.85,125.85,0,0,0,50.07-10c7.44-3.6,17.17-2,24.84-5.52,12.73-5.68,23-2,36.57,7.67-8.58-16.64-18.17-22.09-33-21.47-21.09.76-21.09-.16-40-8.51a10,10,0,0,0-5.22,0c-1.07,11.5-11.19,9.35-17.71,13.49-17.71,11.2-32.81,3.07-48.84-1.76a7.67,7.67,0,0,1-4.6-4.91,8.38,8.38,0,0,1,3.68-6.13,36.48,36.48,0,0,1,13.88-6,27.7,27.7,0,0,0,18.94-12.5C218.67,16.11,227.49,11.59,252,11.2S301.4,16,325.63,7.91c35,5.52,70.23,2.14,104.58,10.5A1008.26,1008.26,0,0,0,552.88,43.1l.36,0c2.53,0,5.52-3,8.31-4.54l.61.61c19.55,1.76,39.1,4,58.65,5.14,17.79,1,25.08,13,27.76,27.37,3.83,20.93,5.67,42.4,7.67,63.71a197.06,197.06,0,0,1,1.07,50.83c-3.45,22.32-16.94,38.49-26.45,57.12-2.15,4.3-6.06,4.22-11,2.07-8.51-3.68-17.94-5.36-26.68-8.58a62.67,62.67,0,0,0-40.18-.46c-15.33,4.21-30.36,10.27-47.61,6.28A42.32,42.32,0,0,0,478.9,249a193.89,193.89,0,0,1-68.39,18.4c-14.45,2-29.21,3.95-43.65,7.27S338.32,282.78,325.17,290.44Zm194-164.15c3.45-28.68-19.48-46-28.75-69-1.61-.38-4.07-1.53-4.53-.69-1.45,1.77-3.6,4.91-3,6.21a104.75,104.75,0,0,0,13,21.47,45.52,45.52,0,0,1,12.19,27.45,52,52,0,0,0,3.68,14.72,28.73,28.73,0,0,0,5.82,6.9C518.15,131,519.15,128.66,519.15,126.29Z" transform="translate(-0.25 -0.25)"/><path d="M651.71,50.84A466.85,466.85,0,0,1,667.05,182c-.62,19.32-9.89,35.73-19.4,51.75-4.52,7.67-9.74,17.41-16.95,20.25s-15.94-3.45-24.07-5.53a214.47,214.47,0,0,0-27.3-6.36A73.07,73.07,0,0,0,557,243.59c-9.81,1.92-19.85,8.29-29,7.14-28-3.46-51.53,9.81-76.68,17.09a67.21,67.21,0,0,1-19.39,5.6c-29.75-1.61-56.28,11.81-84.34,16.56a145.32,145.32,0,0,1-20.33.56l-2.06-.1c13.15-7.66,27.26-12.4,41.69-15.73s29.2-5.24,43.65-7.27A193.89,193.89,0,0,0,478.9,249a42.32,42.32,0,0,1,26.45-6.37c17.25,4,32.28-2.07,47.61-6.28a62.67,62.67,0,0,1,40.18.46c8.74,3.22,18.17,4.9,26.68,8.58,5,2.15,8.89,2.23,11-2.07,9.51-18.63,23-34.8,26.45-57.12a197.06,197.06,0,0,0-1.07-50.83c-2-21.31-3.84-42.78-7.67-63.71-2.68-14.34-10-26.38-27.76-27.37-19.55-1.15-39.1-3.38-58.65-5.14l-.61-.61c1.22-1.15,2.37-3.22,3.83-3.38,27.37-3.75,54.51-4.14,80,9.2A13,13,0,0,1,651.71,50.84Z" transform="translate(-0.25 -0.25)"/><path d="M561.55,38.58c-2.79,1.54-5.78,4.54-8.31,4.54l-.36,0A1008.26,1008.26,0,0,1,430.21,18.41c-34.35-8.36-69.54-5-104.58-10.5C301.4,16,276.56,10.82,252,11.2s-33.36,4.91-50.68,25.46a27.7,27.7,0,0,1-18.94,12.5,36.48,36.48,0,0,0-13.88,6,8.38,8.38,0,0,0-3.68,6.13,7.67,7.67,0,0,0,4.6,4.91c16,4.83,31.13,13,48.84,1.76,6.52-4.14,16.64-2,17.71-13.49a10,10,0,0,1,5.22,0c18.93,8.35,18.93,9.27,40,8.51,14.87-.62,24.46,4.83,33,21.47-13.57-9.67-23.84-13.35-36.57-7.67-7.67,3.53-17.4,1.92-24.84,5.52a125.85,125.85,0,0,1-50.07,10A486.4,486.4,0,0,0,91.55,109.19a41.63,41.63,0,0,1-17.86,1.23,63.07,63.07,0,0,0-34.35,4.83,38.23,38.23,0,0,0-14.41,9.89,10.11,10.11,0,0,0,2.76,14A10,10,0,0,0,31,140.63a118.34,118.34,0,0,0,50,3.75,260.52,260.52,0,0,1,46-3.06c23,1.38,46.61-7.67,69.46,2.22.46,0,1.46-.77,2.22-1.07a384.12,384.12,0,0,1,71.92-16.8c6.21-1,3.14-3.91,1.07-6.36s-4.37-3.68-5-5.9a25.6,25.6,0,0,1,.61-8.59c2.3.69,5.22.61,6.67,2.07a56.53,56.53,0,0,0,27.38,15.33c8.28,1.69,10.88,7.21,10.81,15.34a89.88,89.88,0,0,0,2.14,14c4.91-1.07,9.89-2.07,14.8-3.3A104.23,104.23,0,0,0,343.8,144c1.92-.77,4.37-3.53,4.14-5.14a7.71,7.71,0,0,0-4.75-4.91c-14.72-5.21-22.16-17.86-30.67-29.28a22.13,22.13,0,0,1,8.82,4.29c24.15,17,47.23,35.73,76.67,43.4a215,215,0,0,1,28.52,10.58c1.69.69,2.22,4.21,3.3,6.44a22.25,22.25,0,0,1-4.53-.46c-17.71-5.83-35.34-11.5-52.9-17.56a70.18,70.18,0,0,1-10.89-6.21A62.67,62.67,0,0,1,367,157.8c1.23,6.06,4.91,10.89,0,18.94a88.26,88.26,0,0,1-16.71,22.08A17.55,17.55,0,0,0,344.59,223c.14.23.29.46.44.68A101.67,101.67,0,0,1,351.39,243a26.63,26.63,0,0,1,.85,10.28c0,2-2.69,3.75-4.15,5.59a15.34,15.34,0,0,1-2.76-2.76c-1.76-2.91-3.29-6-4.9-8.89-7.13-12.42-9.82-13.11-19.4-4-7.21,6.83-17.63,13-9.12,25.69a3,3,0,0,1,0,2.53c-1.15,2.07-2.61,4-4,6a32.52,32.52,0,0,0-3.76-4.76c-2.3-1.91-5.21-5.29-7.2-4.9a134.57,134.57,0,0,0-19.48,6.9c14.41-23,36.5-34.28,57.27-53.21a311.37,311.37,0,0,0-31.51,10.12,8.36,8.36,0,0,1-11.48-2.82,8.65,8.65,0,0,1-.94-2.24c-2-11.58-7.67-9.43-14.26-5.14-10.58,7.13-20.47,15.33-30.67,22.39-19.78,13.57-20.39,29.13-.61,40.63a72,72,0,0,0,49.61,7.13,197.76,197.76,0,0,1,30.2-.76c-6.25,4.79-13.22,6.11-20.37,6.67s-14.47.34-21.41,2.07a89.75,89.75,0,0,1-18.17.46,43,43,0,0,1-44-32.28c-2.38-7.67-3.84-15-13.65-16.33a14.18,14.18,0,0,1-8.36-5.37,111.81,111.81,0,0,0-13.41-18c-5.52-4.44-14.19-4.83-20.25-8.81-13.18-8.74-16.86-23.46-18.24-37.8-.39-3.84,0-14.42,10.35-15.34,3.6,0,7.13-4.21,10.27-7a155.46,155.46,0,0,0,10.74-12.19c-13.19,1.53-22.47,2.83-31.75,3.68a53,53,0,0,1-20.47.76,75,75,0,0,0-42.93.85c-24.31,6.13-47.31-2-70.77-4.68-12.35-1.53-16.1-15-8.44-24.54a24.48,24.48,0,0,1,10.05-7.66c19.78-7.67,39.41-15.34,61.34-15.34A134.85,134.85,0,0,0,111.18,96a597,597,0,0,1,80.3-12.79l.51.37,7.36.16.66-.28,3.33,1.2V82.05L200,83.46l-.73-.26h-7.8c-10.83-7.75-25.33-7.44-35.45-16.65-3.14-2.76-7.05-4.75-10.27-7.67s-4.68-7.66-.38-10.81a48.51,48.51,0,0,1,16.71-11A171.81,171.81,0,0,0,218.9,10.44a42,42,0,0,1,23.77-7.21c28.14,0,56.66.31,85.11-2.22C362-2.06,396.17,4.76,429.67,11.74,469.62,20,509,31.6,550.12,33.82A33.8,33.8,0,0,1,561.55,38.58ZM344,185.48l-12.27,4.06-.53,3.61c2.91,0,6.51,1.45,8.58,0S342.73,188.16,344,185.48Zm-26.14-21.24c.15-1.61.15-3,.3-4.75-5.21,1.68-12,1.76-14.56,5.13-12.2,15.34-31.36,16.18-47.31,23.54s-30.67,13-46.39,19.63a21.92,21.92,0,0,0-13.18,23c0,12.19,10.27,10,16.17,12.88a17.1,17.1,0,0,0,22.32-3.53,111.65,111.65,0,0,1,32.5-24c13.73-6.44,23.77-19.63,40.33-20.86,2.46,0,7.21-7.67,6.37-9.43C309.45,177.2,317.2,171.37,317.89,164.24Zm-37.34,7.21a25.24,25.24,0,0,0,4.6-5.83,38.61,38.61,0,0,1-7.67.38c-7.67-.69-15.33-2.22-23-2.53-10.2-.46-11.19-7.05-9.2-14.33,1.38-5,5.67-9.13-4.06-8.67a146.5,146.5,0,0,0-79.36,31.13,13.5,13.5,0,0,0-5.37,16.1c3,7.06,6.67,13.73,9.74,20.55,8.13,7.21,14.65,9,24,2.61a304.54,304.54,0,0,1,83.19-36.73A24.31,24.31,0,0,0,280.55,171.45Zm-34.27-97c2.14-.77,3.75-3.15,5.59-4.83-2.22-.62-5-2.46-6.67-1.77-9.35,3.59-18.2,7.7-27,11.68l-.33-.17-.56.23-3.5-1.23v2.68l3.5-1.45.42.15-.17.08h.39l-.22-.08.47-.21C228.67,84.81,237.18,77.65,246.28,74.46Z" transform="translate(-0.25 -0.25)"/><path d="M490.4,57.28c9.27,23,32.2,40.33,28.75,69,0,2.37-1,4.67-1.54,7a28.73,28.73,0,0,1-5.82-6.9,52,52,0,0,1-3.68-14.72,45.52,45.52,0,0,0-12.19-27.45,104.75,104.75,0,0,1-13-21.47c-.61-1.3,1.54-4.44,3-6.21C486.33,55.75,488.79,56.9,490.4,57.28Z" transform="translate(-0.25 -0.25)"/><path d="M218.16,79.54l-.47.21-.42-.15.56-.23Z" transform="translate(-0.25 -0.25)"/><path d="M191.61,83.2h7.67l.73.26-.66.28L192,83.58l-.51-.37Z" transform="translate(-0.25 -0.25)"/></g></g></g></svg>