<svg xmlns="http://www.w3.org/2000/svg" viewBox="0 0 579.79 261.51"><defs><style>.cls-1{fill:#fff;}</style></defs><title>Fichier 23</title><g id="Calque_2" data-name="Calque 2"><g id="Calque_4" data-name="Calque 4"><g id="Calque_2-2" data-name="Calque 2-2"><path class="cls-1" d="M292.25,93.67l-.47,3.14-10.67,3.53c1.14-2.33,1.87-5.4,3.67-6.67S289.71,93.67,292.25,93.67Z" transform="translate(-0.25 -0.25)"/><path class="cls-1" d="M443.67,97.67a11.75,11.75,0,0,1-4.6,14,127.18,127.18,0,0,1-68.35,27.41c-8.46.46-4.8-3.14-3.6-7.54,1.74-6.26.87-12-8.06-12.33-6.67-.33-13.34-1.53-20-2.2a41.15,41.15,0,0,0-6.66.4,23.35,23.35,0,0,1,4-5.07,21.18,21.18,0,0,1,6.2-2.4A263.48,263.48,0,0,0,414.8,77.67c8.06-5.6,14.13-4.07,20.8,2.13A188.51,188.51,0,0,1,443.67,97.67Z" transform="translate(-0.25 -0.25)"/><path class="cls-1" d="M409.06,60.4a19.13,19.13,0,0,1-11.67,20c-13.33,5.94-26.2,10.81-40,17.27s-30.54,7.4-41,20.74c-2.26,2.87-8.13,3-12.66,4.47a24.54,24.54,0,0,0,0-3.74c.53-6.27,7.2-11.33,2.86-18.87-.73-1.53,3.34-8.2,5.54-8.2,14.33-1.2,23.07-12.67,34.93-18.33A98.36,98.36,0,0,0,375.46,52.4a14.93,14.93,0,0,1,19.4-3.13C400,51.67,409.06,49.8,409.06,60.4Z" transform="translate(-0.25 -0.25)"/><path class="cls-1" d="M297.38,8.59l.19.25-.39.29a180.48,180.48,0,0,0,26.2-.8,62.78,62.78,0,0,1,43.21,6c17.27,9.87,16.8,23.4-.4,35.34-8.93,6.26-17.54,13.33-26.67,19.6-5.8,3.8-10.6,5.67-12.47-4.47a7,7,0,0,0-.88-2,7.2,7.2,0,0,0-9.92-2.28c-7.33,3.27-15.34,5.07-27.34,8.87,18-16.74,37.14-26.67,49.61-46.68a127.51,127.51,0,0,1-16.94,6.07c-1.73.4-4.33-2.53-6.26-4.27A27.63,27.63,0,0,1,312,20.4c-1.2,1.73-2.4,3.4-3.46,5.2a2.5,2.5,0,0,0,0,2.2c7.4,11-1.6,16.4-7.81,22.4-8.33,8-10.66,7.33-16.86-3.4-1.47-2.53-2.8-5.2-4.34-7.73a14.38,14.38,0,0,0-2.46-2.41c-1.27,1.61-3.61,3.21-3.61,4.94a23.06,23.06,0,0,0,1.34,8.67,83.08,83.08,0,0,0,5.6,16.8c.13.18.25.37.37.56a15.4,15.4,0,0,1-4.84,21.24,78.13,78.13,0,0,0-14.4,19.2c-4.33,7.07-1.07,11.27,0,16.54a56,56,0,0,0,4.87,10.93,56,56,0,0,0-9.54-5.33c-15.27-5.2-30.67-10.07-46-15a20,20,0,0,0-4-.47c.93,1.93,1.4,5,2.93,5.67a194.39,194.39,0,0,0,25.07,9.2c25.47,6.6,45.61,22.74,66.67,37.47a19.15,19.15,0,0,0,7.54,3.6c-7.67-9.87-14.2-20.87-27.07-25.33-1.73-.6-3.93-2.74-4.13-4.21s1.93-3.86,3.53-4.53a96.46,96.46,0,0,1,12.8-3.8c4.27-1.07,8.6-1.93,12.87-2.87a77.6,77.6,0,0,1,2.2,11.8c0,7.14,2.27,11.87,9.53,13.34a49.84,49.84,0,0,1,23.81,13.33c1.26,1.27,3.86,1.27,5.8,1.8a22,22,0,0,0,.53-7.46c-.6-1.94-2.6-3-4.4-5.14s-4.47-4.6.93-5.53a325.45,325.45,0,0,0,62.48-14.94,11.16,11.16,0,0,1,1.93-.86c19.87,8.8,40.41.53,60.41,1.6a220.53,220.53,0,0,0,40-2.87,102.73,102.73,0,0,1,43.48,3.07,8.72,8.72,0,0,1,3.67,1.71,8.8,8.8,0,0,1,1.46,12.36,34.26,34.26,0,0,1-12.53,8.66,55.28,55.28,0,0,1-29.81,4A36.24,36.24,0,0,0,501,166a422.76,422.76,0,0,1-96.68,15.53,109.3,109.3,0,0,0-43.47,8.4c-6.47,3.2-14.94,1.8-21.61,4.94-11,5.27-20,2.13-31.8-6.27,7.53,14.4,15.87,19.07,28.8,18.54,18.34-1.07,18.34,0,35,7.13a8.12,8.12,0,0,0,4.53,0c.87-10,9.74-8.2,15.34-11.8,15.4-9.8,28.6-2.8,42.53,1.33a6.71,6.71,0,0,1,4,4.2,7.16,7.16,0,0,1-3.14,5.34,31.15,31.15,0,0,1-12.07,5.26,24.42,24.42,0,0,0-16.4,11c-15,17.93-22.67,21.93-44,22.33s-42.94-4-64,3.2c-30.21-4.73-61-1.6-91.15-9.33a859.5,859.5,0,0,0-106.68-20.87c-2.33-.27-5,2.53-7.53,3.93v.07h-.07v-.6c-17.07-1.47-34.07-3.27-51.07-4.2-15.47-.8-21.87-11.2-24.27-23.67-3.6-18-5.2-36.61-7-55.14a168.27,168.27,0,0,1-1.2-44.21c2.8-19.4,14.6-33.53,22.8-49.8,1.87-3.74,5.27-3.67,9.54-1.8,7.46,3.13,15.6,4.26,23.27,7.6a54.94,54.94,0,0,0,34.93,0C112.89,53.33,126,47.93,141,51.4a37.71,37.71,0,0,0,23-5.67A168,168,0,0,1,223.24,28.6c12.54-1.64,25.35-3.3,37.9-6.23S285.94,15.26,297.38,8.59Zm-139,204.76c1.27-1.53,3.14-4.26,2.54-5.4a96.89,96.89,0,0,0-11.4-18.67,39.13,39.13,0,0,1-10.74-23.8,44.87,44.87,0,0,0-3.27-12.73c-.93-2.34-3.4-4-5.13-6-.4,2.06-1.27,4.06-1.27,6.13-2.86,24.67,17.14,39.67,25.34,59.67C155.76,212.82,158,213.75,158.36,213.35Z" transform="translate(-0.25 -0.25)"/><path d="M569.55,131.88c10.2,1.06,13.73,12.93,7.13,21.47A21.61,21.61,0,0,1,568,160c-17.2,6.67-34.27,13.34-53.34,13.34A120.37,120.37,0,0,0,483.74,177a542.25,542.25,0,0,1-69.58,11.42l0,0-7.14-.34-.46.2-2.94-1v2.27l2.94-1.27.6.2h6.67l.36,0c9.47,6.64,22.32,6.65,31.31,14.58,2.73,2.4,6.13,4.07,8.93,6.67s4.07,6.66.4,9.33a42,42,0,0,1-14.4,9.34,149.72,149.72,0,0,0-49.27,23.47,36.81,36.81,0,0,1-20.67,6.66c-24.81,0-49.48,0-74.35,2.54-29.73,2.8-59.47-3-88.81-8.87-34.8-6.67-69.07-16.94-104.81-18.67a32.6,32.6,0,0,1-9.8-4.33v-.34c2.53-1.4,5.2-4.2,7.53-3.93A859.5,859.5,0,0,1,206.9,245.76c30.14,7.73,60.94,4.6,91.15,9.33,21.07-7.2,42.67-2.8,64-3.2s29-4.4,44-22.33a24.42,24.42,0,0,1,16.4-11,31.15,31.15,0,0,0,12.07-5.26,7.16,7.16,0,0,0,3.14-5.34,6.71,6.71,0,0,0-4-4.2c-13.93-4.13-27.13-11.13-42.53-1.33-5.6,3.6-14.47,1.8-15.34,11.8a8.12,8.12,0,0,1-4.53,0c-16.67-7.13-16.67-8.2-35-7.13-12.93.53-21.27-4.14-28.8-18.54,11.8,8.4,20.8,11.54,31.8,6.27,6.67-3.14,15.14-1.74,21.61-4.94a109.3,109.3,0,0,1,43.47-8.4A422.76,422.76,0,0,0,501,166a36.24,36.24,0,0,1,15.53-1.14,55.28,55.28,0,0,0,29.81-4,34.26,34.26,0,0,0,12.53-8.66,8.8,8.8,0,0,0-1.46-12.36,8.72,8.72,0,0,0-3.67-1.71A102.73,102.73,0,0,0,510.27,135a220.53,220.53,0,0,1-40,2.87c-20-1.07-40.54,7.2-60.41-1.6a11.16,11.16,0,0,0-1.93.86,325.45,325.45,0,0,1-62.48,14.94c-5.4.93-2.73,3.4-.93,5.53s3.8,3.2,4.4,5.14a22,22,0,0,1-.53,7.46c-1.94-.53-4.54-.53-5.8-1.8a49.84,49.84,0,0,0-23.81-13.33c-7.26-1.47-9.53-6.2-9.53-13.34a77.6,77.6,0,0,0-2.2-11.8c-4.27.94-8.6,1.8-12.87,2.87a96.46,96.46,0,0,0-12.8,3.8c-1.6.67-3.73,3.07-3.53,4.53s2.4,3.61,4.13,4.21c12.87,4.46,19.4,15.46,27.07,25.33a19.15,19.15,0,0,1-7.54-3.6c-21.06-14.73-41.2-30.87-66.67-37.47a194.39,194.39,0,0,1-25.07-9.2c-1.53-.67-2-3.74-2.93-5.67a20,20,0,0,1,4,.47c15.33,4.93,30.73,9.8,46,15a56,56,0,0,1,9.54,5.33,56,56,0,0,1-4.87-10.93c-1.07-5.27-4.33-9.47,0-16.54a78.13,78.13,0,0,1,14.4-19.2,15.4,15.4,0,0,0,4.84-21.24c-.12-.19-.24-.38-.37-.56a83.08,83.08,0,0,1-5.6-16.8,23.06,23.06,0,0,1-1.34-8.67c0-1.73,2.34-3.33,3.61-4.94a14.38,14.38,0,0,1,2.46,2.41c1.54,2.53,2.87,5.2,4.34,7.73,6.2,10.73,8.53,11.4,16.86,3.4,6.21-6,15.21-11.4,7.81-22.4a2.5,2.5,0,0,1,0-2.2c1.06-1.8,2.26-3.47,3.46-5.2a27.63,27.63,0,0,0,3.34,4.06c1.93,1.74,4.53,4.67,6.26,4.27a127.51,127.51,0,0,0,16.94-6.07c-12.47,20-31.6,29.94-49.61,46.68,12-3.8,20-5.6,27.34-8.87a7.2,7.2,0,0,1,9.92,2.28,7,7,0,0,1,.88,2c1.87,10.14,6.67,8.27,12.47,4.47,9.13-6.27,17.74-13.34,26.67-19.6,17.2-11.94,17.67-25.47.4-35.34a62.78,62.78,0,0,0-43.21-6,180.48,180.48,0,0,1-26.2.8l.39-.29C303,4.7,309,3.5,315.13,3s12.59-.37,18.59-1.91A78,78,0,0,1,349.59.39,37.27,37.27,0,0,1,388,28.33c2.14,6.67,3.4,12.87,11.94,14.07a13.28,13.28,0,0,1,7.13,4.67,99.7,99.7,0,0,0,11.67,15.6c4.87,3.8,12.4,4.13,17.67,7.6,11.47,7.53,14.73,20.34,16.07,32.74,0,3.4,0,12.53-8.94,13.33-3.13,0-6.2,3.67-8.93,6.14s-4.67,5.26-9.34,10.6c11.47-1.4,19.54-2.54,27.61-3.34a46.78,46.78,0,0,1,17.8-.73,65.14,65.14,0,0,0,37.34-.87C529.14,122.61,549.15,129.61,569.55,131.88ZM439.07,111.67a11.75,11.75,0,0,0,4.6-14A188.51,188.51,0,0,0,435.6,79.8c-6.67-6.2-12.74-7.73-20.8-2.13a263.48,263.48,0,0,1-72.21,32.27,21.18,21.18,0,0,0-6.2,2.4,23.35,23.35,0,0,0-4,5.07,41.15,41.15,0,0,1,6.66-.4c6.67.67,13.34,1.87,20,2.2,8.93.33,9.8,6.07,8.06,12.33-1.2,4.4-4.86,8,3.6,7.54A127.18,127.18,0,0,0,439.07,111.67ZM397.39,80.4a19.13,19.13,0,0,0,11.67-20c0-10.6-9.07-8.73-14.2-11.13a14.93,14.93,0,0,0-19.4,3.13,98.36,98.36,0,0,1-28.41,21.34c-11.86,5.66-20.6,17.13-34.93,18.33-2.2,0-6.27,6.67-5.54,8.2,4.34,7.54-2.33,12.6-2.86,18.87a24.54,24.54,0,0,1,0,3.74c4.53-1.47,10.4-1.6,12.66-4.47,10.47-13.34,27.21-14.27,41-20.74S384.06,86.34,397.39,80.4ZM395.19,193v-2.34l-3,1.24-.63-.24-.46.21c-9.08-4.37-16.36,1.84-24.21,4.66-1.86.67-3.26,2.74-4.86,4.2,2,.54,4.33,2.14,5.86,1.54,7.79-3.14,15.5-6.86,23.21-10.4l.53.26.56-.23ZM291.78,96.81l.47-3.14c-2.54,0-5.67-1.26-7.47,0s-2.53,4.34-3.67,6.67Z" transform="translate(-0.25 -0.25)"/><path d="M414.13,188.42l0,0-.36,0h-6.67l-.6-.2.46-.2Z" transform="translate(-0.25 -0.25)"/><path d="M391.59,191.68l.63.24-.56.23-.53-.26Z" transform="translate(-0.25 -0.25)"/><path d="M297.38,8.59c-11.44,6.67-23.7,10.85-36.24,13.78S235.78,27,223.24,28.6A168,168,0,0,0,164,45.73a37.71,37.71,0,0,1-23,5.67c-15-3.47-28.07,1.93-41.34,5.67a54.94,54.94,0,0,1-34.93,0C57,53.73,48.88,52.6,41.42,49.47c-4.27-1.87-7.67-1.94-9.54,1.8-8.2,16.27-20,30.4-22.8,49.8a168.27,168.27,0,0,0,1.2,44.21c1.8,18.53,3.4,37.14,7,55.14,2.4,12.47,8.8,22.87,24.27,23.67,17,.93,34,2.73,51.07,4.2v.6c-1.13,1-2.13,2.8-3.33,2.93-23.8,3.4-47.41,3.87-69.54-7.67a10.89,10.89,0,0,1-5.6-5.6A404.93,404.93,0,0,1,.34,104.61c.54-16.74,8.54-30.87,16.74-45,3.93-6.67,8.4-15.2,14.67-17.73s13.87,3,21,4.73A172.56,172.56,0,0,0,76.42,52a65.53,65.53,0,0,0,19.4-1.4c8.6-1.73,17.27-7.33,25.27-6.67,24.41,2.94,44.74-8.73,66.68-15.13a56.47,56.47,0,0,1,16.87-4.94c25.87,1.27,48.87-10.53,73.34-14.8A117.47,117.47,0,0,1,297.38,8.59Z" transform="translate(-0.25 -0.25)"/><path d="M160.9,208c.6,1.14-1.27,3.87-2.54,5.4-.4.4-2.6-.53-3.93-.8-8.2-20-28.2-35-25.34-59.67,0-2.07.87-4.07,1.27-6.13,1.73,2,4.2,3.66,5.13,6a44.87,44.87,0,0,1,3.27,12.73,39.13,39.13,0,0,0,10.74,23.8A96.89,96.89,0,0,1,160.9,208Z" transform="translate(-0.25 -0.25)"/></g></g></g></svg>