<svg xmlns="http://www.w3.org/2000/svg" viewBox="0 0 39.07 86.93"><title>HandFichier 12</title><g id="Calque_2" data-name="Calque 2"><g id="Calque_2-2" data-name="Calque 2"><path d="M28.31,25c1.06-1.41,1-3.34,2.24-4.68.37-.4.63-.91,1-1.33s1-.6,1.41,0a6.17,6.17,0,0,1,1.41,2.19,22.59,22.59,0,0,0,3.45,7.42,5.45,5.45,0,0,1,.92,3.11c0,3.72,0,7.42.27,11.16.38,4.46-.54,8.91-1.47,13.3-1.1,5.21-2.65,10.33-3,15.69a4.52,4.52,0,0,1-.66,1.46h-.05c-.2-.38-.62-.78-.58-1.13a130.81,130.81,0,0,1,3.3-15.95c1.2-4.51.79-9.14,1.54-13.66-1.05-3.16-.35-6.4-.38-9.6s-.61-4.36-3.28-6.63a3.65,3.65,0,0,1-1.62-2.48A4.68,4.68,0,0,0,32,22a1.08,1.08,0,0,0-.79-.48,1,1,0,0,0-.65.6c-.64,2.08-1.71,4.05-.26,6.37.53.85.25,2.17,1.75,2.32a1.36,1.36,0,0,1,0,.68C31,33.94,30.87,33.94,31,36.69c.07,1.94-.65,3.18-2.82,4.29,1.27-1.75,1.76-3.1,1-4.76-.46-1-.24-2.28-.7-3.25a16.18,16.18,0,0,1-1.2-6.53A63.48,63.48,0,0,0,25,11.92a5.57,5.57,0,0,1-.15-2.33,8.13,8.13,0,0,0-.55-4.48,5,5,0,0,0-1.28-1.89A1.32,1.32,0,0,0,21,4a15.61,15.61,0,0,0-.53,6.52,34,34,0,0,1,.38,6c-.2,3,1,6.09-.34,9.06,0,.06.09.19.13.3a49.42,49.42,0,0,1,2.14,9.38c.13.82.5.42.83.15s.48-.57.78-.65a3.27,3.27,0,0,1,1.11.09c-.08.3-.08.68-.27.87a7.44,7.44,0,0,0-2,3.55c-.23,1.09-.94,1.42-2,1.41a10.61,10.61,0,0,0-1.84.27c.14.64.26,1.29.42,1.93a14.18,14.18,0,0,0,.55,1.93c.09.24.46.56.67.54s.55-.36.64-.62c.68-1.92,2.34-2.88,3.84-4a2.77,2.77,0,0,1-.57,1.15c-2.23,3.13-4.69,6.13-5.71,10a27.81,27.81,0,0,1-1.4,3.72c-.09.22-.55.28-.85.42a2.88,2.88,0,0,1,.07-.59c.77-2.3,1.53-4.6,2.33-6.88a9.11,9.11,0,0,1,.81-1.42,8.14,8.14,0,0,1-1.64.71c-.79.15-1.43.63-2.48-.05a11,11,0,0,1-2.86-2.19A2.31,2.31,0,0,0,10,44.82a13.36,13.36,0,0,1-2.53.82,3.68,3.68,0,0,1-1.31.18c-.26,0-.49-.36-.73-.55a2.51,2.51,0,0,1,.37-.36c.38-.23.78-.42,1.16-.64,1.62-.91,1.72-1.26.54-2.52-.89-1-1.69-2.31-3.35-1.21a.42.42,0,0,1-.33,0c-.27-.16-.52-.35-.78-.53a5.05,5.05,0,0,0,.63-.49c.25-.3.69-.68.64-.94A18.55,18.55,0,0,0,3.38,36c3,1.89,4.44,4.78,6.89,7.5A42.71,42.71,0,0,0,9,39.43a1.08,1.08,0,0,1,.66-1.61c1.52-.26,1.25-1,.69-1.87-.92-1.38-2-2.68-2.9-4.05-1.76-2.59-3.79-2.68-5.3-.11a9.35,9.35,0,0,0-1,6.47,27.17,27.17,0,0,1,.08,3.94H1.2C0,40.56.53,38.55.09,36.74a11,11,0,0,1,0-2.37,5.59,5.59,0,0,1,4.24-5.72c1-.3,2-.48,2.14-1.77a1.91,1.91,0,0,1,.7-1.08,14.55,14.55,0,0,0,2.36-1.74c.58-.72.64-1.84,1.17-2.63,1.15-1.71,3.07-2.18,4.93-2.36.51-.05,1.89,0,2,1.36,0,.47.55.94.91,1.35s.78.71,1.57,1.41c-.19-1.72-.34-2.93-.45-4.14a7.13,7.13,0,0,1-.09-2.67,9.7,9.7,0,0,0-.07-5.6c-.79-3.18.29-6.17.66-9.23a1.91,1.91,0,0,1,3.23-1,3.15,3.15,0,0,1,1,1.31c1,2.59,2,5.16,1.94,8a18.11,18.11,0,0,0,.49,4.65A79.5,79.5,0,0,1,28.37,25v1c-.06.18-.13.35-.19.53h.34L28.3,26Zm.46,3.39.2-.54h-.35l.22.53c-.74,1.4.21,2.52.62,3.72.1.29.41.5.62.74.09-.29.33-.65.24-.87C29.85,30.73,29.3,29.56,28.77,28.37ZM12.06,21.59c-.94,1.05-1.18,1.9-.35,3.12a39.79,39.79,0,0,1,4.73,10.88,2.87,2.87,0,0,0,.34.93,3.57,3.57,0,0,0,.76.61,6.18,6.18,0,0,1-.05-1c.1-1,.3-2,.35-3,.07-1.33.93-1.46,1.87-1.19.66.19,1.19.75,1.14-.53a19,19,0,0,0-4-10.36,1.77,1.77,0,0,0-2.1-.72A28.89,28.89,0,0,0,12.06,21.59Zm6.25,19.85c-.21-.68-.22-1.56-.65-1.9-2-1.6-2.09-4.11-3-6.19S13,29.3,12.09,27.28a2.83,2.83,0,0,0-2.95-1.73c-1.59,0-1.32,1.33-1.7,2.1a2.24,2.24,0,0,0,.45,2.92A14.93,14.93,0,0,1,11,34.82c.82,1.79,2.53,3.12,2.69,5.27,0,.33,1,1,1.22.84,1.13-.64,1.88.37,2.82.47Zm-3.93,1.75-.46-.07c0,.38-.2.84,0,1.12s.65.38,1,.55C14.72,44.27,14.56,43.75,14.38,43.19Z"/><path d="M33.88,73.26c.15.17.42.32.44.51.47,3.58.5,7.11-1.26,10.42a1.67,1.67,0,0,1-.85.83A60.89,60.89,0,0,1,15.1,86.89c-2.51-.09-4.65-1.32-6.73-2.56-1-.6-2.26-1.28-2.63-2.23S6.21,80,6.48,79a26.39,26.39,0,0,0,.85-3.54,9.57,9.57,0,0,0-.19-2.92c-.24-1.29-1.06-2.59-.91-3.8C6.7,65.05,5,62,4.06,58.7a8.94,8.94,0,0,1-.72-2.54c.24-3.88-1.49-7.35-2.1-11a20.15,20.15,0,0,1,0-2.91h.05c2,3.44,2.42,7.37,2.92,11.14a25.4,25.4,0,0,0,2.35,8.93,5.62,5.62,0,0,1,.82,3.46c-.54,2.25.24,4.21.78,6.21A8.27,8.27,0,0,1,8,77.19c-.43,1.14-.66,2.36-1.14,3.47-.28.64-.29,1.15.26,1.44,2.43,1.25,4.52,3,7.43,3.49a25,25,0,0,0,6.64-.11c2.78-.24,5.57-.46,8.31-1,1.87-.35,3.45-1.29,3.59-3.6.16-2.56.47-5.1.71-7.66Z"/><path d="M31.52,64c-3,1.19-5.28,4.18-9,3.7-.31,0-.61-.13-.92-.2a3.53,3.53,0,0,1,.91-.75,6.43,6.43,0,0,1,1.92-.47A6,6,0,0,0,28,64.67,13.85,13.85,0,0,1,30.85,63c.17-.08.58.2.81.39C31.73,63.44,31.58,63.77,31.52,64Z"/></g></g></svg>