<svg xmlns="http://www.w3.org/2000/svg" viewBox="0 0 86.97 39.16"><title>HandFichier 13</title><g id="Calque_2" data-name="Calque 2"><g id="Calque_2-2" data-name="Calque 2"><path d="M62.06,28.2c1.42,1,3.35,1,4.7,2.19.41.36.92.61,1.34,1s.61,1,.06,1.4A6.28,6.28,0,0,1,66,34.19a22.5,22.5,0,0,0-7.39,3.52,5.52,5.52,0,0,1-3.1,1c-3.72,0-7.42,0-11.15.38-4.46.42-8.92-.45-13.32-1.33-5.22-1-10.36-2.54-15.72-2.8a4.87,4.87,0,0,1-1.47-.65v-.05c.38-.21.78-.63,1.13-.59a129.27,129.27,0,0,1,16,3.13c4.52,1.16,9.14.69,13.67,1.4,3.16-1.08,6.4-.42,9.6-.48s4.35-.66,6.6-3.35a3.66,3.66,0,0,1,2.46-1.65,4.68,4.68,0,0,0,1.81-.79,1.07,1.07,0,0,0,.47-.8,1,1,0,0,0-.6-.63c-2.09-.62-4.07-1.67-6.38-.2-.84.54-2.17.27-2.3,1.77a1.22,1.22,0,0,1-.68,0C53.13,31,53.13,30.84,50.38,31c-1.94.08-3.19-.62-4.32-2.78,1.77,1.26,3.12,1.73,4.77.94,1-.47,2.27-.26,3.24-.74a16.38,16.38,0,0,1,6.52-1.26,63.41,63.41,0,0,0,14.5-2.33,5.42,5.42,0,0,1,2.33-.17,8.3,8.3,0,0,0,4.47-.6,5.13,5.13,0,0,0,1.88-1.3A1.32,1.32,0,0,0,83,20.65a15.42,15.42,0,0,0-6.52-.46,33.08,33.08,0,0,1-6,.43c-3-.16-6.08,1.08-9.06-.24-.06,0-.19.09-.29.13a48.8,48.8,0,0,1-9.37,2.24c-.81.14-.41.51-.14.83s.57.48.66.77a3.32,3.32,0,0,1-.08,1.12c-.29-.08-.68-.08-.87-.27a7.47,7.47,0,0,0-3.57-2c-1.09-.22-1.43-.93-1.43-2A11.67,11.67,0,0,0,46,19.43c-.64.14-1.29.27-1.93.43a14.56,14.56,0,0,0-1.92.57c-.24.1-.56.46-.53.68s.36.54.62.63c1.93.67,2.91,2.32,4.06,3.8A2.86,2.86,0,0,1,45.17,25c-3.16-2.21-6.18-4.63-10-5.62A29.13,29.13,0,0,1,31.41,18c-.23-.1-.3-.56-.44-.85a3,3,0,0,1,.6.07c2.3.74,4.61,1.47,6.9,2.25a8.4,8.4,0,0,1,1.43.8,8.49,8.49,0,0,1-.73-1.64c-.16-.79-.65-1.42,0-2.48a11.68,11.68,0,0,1,2.16-2.88A2.31,2.31,0,0,0,42,10a12.43,12.43,0,0,1-.84-2.52,3.46,3.46,0,0,1-.2-1.3c0-.26.35-.5.54-.74a2.11,2.11,0,0,1,.37.36c.23.38.43.78.65,1.16.93,1.61,1.28,1.71,2.53.51.93-.9,2.28-1.71,1.17-3.36a.38.38,0,0,1,0-.33c.16-.27.34-.52.52-.78a4.16,4.16,0,0,0,.5.61c.29.26.68.7.94.64a19.2,19.2,0,0,0,2.54-.91c-1.87,3-4.74,4.49-7.44,7,1.8-.57,3-.84,4.1-1.33A1.08,1.08,0,0,1,49,9.66c.28,1.52,1,1.24,1.87.67,1.37-.94,2.66-2,4-2.94,2.58-1.79,2.65-3.82.06-5.3a9.42,9.42,0,0,0-6.48-.9,27,27,0,0,1-3.93.12v0C46.19,0,48.2.56,50,.1A11.64,11.64,0,0,1,52.38,0a5.59,5.59,0,0,1,5.76,4.19c.32,1,.51,1.93,1.79,2.11A2,2,0,0,1,61,7a14.86,14.86,0,0,0,1.75,2.34c.73.57,1.86.62,2.65,1.14,1.72,1.13,2.21,3.05,2.41,4.91,0,.51,0,1.88-1.34,2-.47,0-.93.55-1.34.92s-.7.79-1.4,1.59c1.72-.21,2.93-.38,4.14-.5a7,7,0,0,1,2.67-.11,9.78,9.78,0,0,0,5.6-.13c3.17-.83,6.17.22,9.23.56,1.53.16,2.06,1.94,1.07,3.22a3.26,3.26,0,0,1-1.3,1c-2.58,1-5.14,2-8,2a18.08,18.08,0,0,0-4.64.55,81.33,81.33,0,0,1-10.49,1.72h-1l-.53-.18,0,.34.51-.22Zm-3.38.49.54.2v-.35l-.53.22c-1.4-.73-2.51.23-3.71.66-.28.1-.49.41-.73.63.3.08.65.32.88.23C56.32,29.8,57.5,29.23,58.68,28.69Zm6.6-16.78c-1-.93-1.91-1.16-3.12-.32a39.47,39.47,0,0,1-10.83,4.84,3.16,3.16,0,0,0-.93.36,3.53,3.53,0,0,0-.6.76,6.19,6.19,0,0,1,1-.06c1,.1,2,.28,3,.33,1.34.05,1.47.91,1.21,1.85-.18.66-.73,1.2.54,1.13A19.07,19.07,0,0,0,65.8,16.69a1.76,1.76,0,0,0,.69-2.1A27.87,27.87,0,0,0,65.28,11.91ZM45.5,18.37c.68-.22,1.56-.24,1.9-.67,1.57-2,4.08-2.14,6.15-3.11s4-1.7,6-2.59A2.87,2.87,0,0,0,61.3,9c0-1.59-1.36-1.31-2.13-1.67a2.24,2.24,0,0,0-2.91.47A14.74,14.74,0,0,1,52,11c-1.78.85-3.09,2.57-5.24,2.75-.33,0-.94,1-.83,1.23.65,1.13-.35,1.89-.43,2.83C45.52,18,45.51,18.15,45.5,18.37Zm-1.79-3.91.07-.47c-.38,0-.85-.19-1.12,0s-.38.65-.55,1Z"/><path d="M13.84,34.27c-.17.15-.32.42-.5.44-3.57.51-7.11.58-10.43-1.15a1.64,1.64,0,0,1-.84-.84A60.76,60.76,0,0,1,0,15.63C.08,13.12,1.28,11,2.51,8.88c.59-1,1.26-2.28,2.2-2.66s2.08.45,3.15.71a26,26,0,0,0,3.55.81,9.84,9.84,0,0,0,2.91-.21c1.29-.26,2.59-1.1,3.79-1,3.66.44,6.71-1.31,10-2.27a8.45,8.45,0,0,1,2.53-.74c3.88.19,7.33-1.58,11-2.22a17.61,17.61,0,0,1,2.91-.07v0c-3.43,2-7.36,2.51-11.12,3A25.21,25.21,0,0,0,24.54,6.8a5.66,5.66,0,0,1-3.45.85c-2.25-.52-4.21.29-6.2.85a8.24,8.24,0,0,1-5.24,0C8.5,8,7.28,7.83,6.16,7.36c-.64-.28-1.15-.29-1.43.27-1.23,2.44-3,4.56-3.42,7.47a25.27,25.27,0,0,0,.18,6.63C1.76,24.51,2,27.3,2.54,30c.36,1.87,1.32,3.43,3.64,3.55,2.55.14,5.1.41,7.66.63Z"/><path d="M23.11,31.82c-1.23-3-4.23-5.25-3.8-8.95,0-.31.13-.61.19-.92.26.3.63.55.77.9a6.72,6.72,0,0,1,.49,1.91,5.88,5.88,0,0,0,1.61,3.57,14.46,14.46,0,0,1,1.71,2.8c.09.17-.19.58-.38.81C23.64,32,23.31,31.86,23.11,31.82Z"/></g></g></svg>