<svg xmlns="http://www.w3.org/2000/svg" viewBox="0 0 86.95 39.12"><title>HandFichier 13</title><g id="Calque_2" data-name="Calque 2"><g id="Calque_2-2" data-name="Calque 2"><path d="M25,10.87c-1.42-1.06-3.35-1-4.69-2.22-.41-.36-.92-.62-1.34-1s-.61-1-.05-1.41a6.33,6.33,0,0,1,2.18-1.43,22.41,22.41,0,0,0,7.41-3.48,5.47,5.47,0,0,1,3.1-.94C35.28.39,39,.43,42.71.1,47.17-.3,51.63.59,56,1.5c5.21,1.07,10.35,2.59,15.71,2.88A4.42,4.42,0,0,1,73.2,5v0c-.38.21-.79.63-1.13.59a131.42,131.42,0,0,1-16-3.22C51.59,1.28,47,1.72,42.43,1c-3.16,1.06-6.4.38-9.6.43s-4.35.64-6.61,3.32a3.61,3.61,0,0,1-2.47,1.63,4.75,4.75,0,0,0-1.81.78,1.09,1.09,0,0,0-.48.8,1,1,0,0,0,.6.64c2.09.63,4.06,1.69,6.37.23.85-.54,2.17-.26,2.31-1.76a1.32,1.32,0,0,1,.68,0c2.47,1.09,2.47,1.21,5.22,1.11,1.94-.08,3.19.63,4.31,2.8-1.77-1.26-3.11-1.74-4.77-1-1,.46-2.27.25-3.24.72A16.39,16.39,0,0,1,26.41,12,63.5,63.5,0,0,0,11.9,14.21a5.41,5.41,0,0,1-2.33.16A8.24,8.24,0,0,0,5.09,15a5,5,0,0,0-1.88,1.29A1.32,1.32,0,0,0,4,18.31a15.43,15.43,0,0,0,6.52.49,34,34,0,0,1,6-.4c3,.18,6.08-1,9.06.29.06,0,.19-.1.29-.14a50.13,50.13,0,0,1,9.38-2.19c.81-.13.41-.51.14-.83s-.57-.48-.65-.77a3.33,3.33,0,0,1,.08-1.12c.3.09.68.08.87.27a7.38,7.38,0,0,0,3.57,2c1.08.22,1.42.94,1.41,2a11.75,11.75,0,0,0,.28,1.83c.64-.14,1.29-.27,1.93-.43a13.68,13.68,0,0,0,1.92-.56c.25-.1.57-.46.54-.67a1,1,0,0,0-.62-.64c-1.92-.68-2.89-2.33-4-3.82a2.88,2.88,0,0,1,1.15.56c3.15,2.22,6.16,4.66,10,5.66a28.22,28.22,0,0,1,3.72,1.38c.22.09.29.55.43.84a2.81,2.81,0,0,1-.59-.06c-2.31-.76-4.61-1.5-6.9-2.29a9.11,9.11,0,0,1-1.42-.81,8.26,8.26,0,0,1,.72,1.65c.16.79.64,1.42,0,2.47a11.51,11.51,0,0,1-2.18,2.88,2.29,2.29,0,0,0-.69,3.24,13.29,13.29,0,0,1,.83,2.52A3.46,3.46,0,0,1,45.9,33c0,.26-.35.49-.54.73a2,2,0,0,1-.36-.36c-.23-.38-.43-.78-.64-1.16-.93-1.62-1.28-1.71-2.53-.52-.94.89-2.3,1.7-1.19,3.35a.38.38,0,0,1,0,.33c-.15.27-.34.52-.52.78a4.31,4.31,0,0,0-.49-.62c-.3-.25-.68-.69-.94-.64a17.66,17.66,0,0,0-2.54.9c1.88-3,4.76-4.47,7.47-6.94a40.71,40.71,0,0,0-4.11,1.32,1.09,1.09,0,0,1-1.62-.66c-.26-1.51-1-1.23-1.86-.67-1.38.93-2.67,2-4,2.92-2.58,1.77-2.66,3.8-.08,5.3a9.4,9.4,0,0,0,6.47.93,25.87,25.87,0,0,1,3.94-.1v0c-1.63,1.25-3.64.69-5.45,1.14a11.67,11.67,0,0,1-2.37.06,5.61,5.61,0,0,1-5.74-4.21c-.31-1-.5-1.95-1.78-2.13a1.85,1.85,0,0,1-1.09-.7,14.5,14.5,0,0,0-1.75-2.35c-.72-.58-1.85-.63-2.64-1.15-1.72-1.14-2.2-3.06-2.38-4.93-.05-.5,0-1.88,1.35-2,.47,0,.93-.55,1.34-.91a20,20,0,0,0,1.4-1.59c-1.72.2-2.93.37-4.14.48a6.94,6.94,0,0,1-2.67.1,9.78,9.78,0,0,0-5.6.11c-3.17.8-6.17-.26-9.23-.61C0,19-.49,17.24.51,16a3.18,3.18,0,0,1,1.31-1c2.58-1,5.14-2,8-2a17.62,17.62,0,0,0,4.64-.51,77.88,77.88,0,0,1,10.49-1.67h1l.53.19v-.34l-.52.22Zm3.38-.49-.54-.19v.35l.53-.22c1.39.73,2.51-.22,3.71-.64.28-.1.49-.41.73-.63-.29-.08-.65-.32-.87-.23C30.69,9.3,29.51,9.85,28.33,10.38ZM21.64,27.13c1.06.94,1.91,1.17,3.13.34a39.76,39.76,0,0,1,10.85-4.79,3.14,3.14,0,0,0,.93-.35,3.25,3.25,0,0,0,.6-.76,5.15,5.15,0,0,1-1,.05c-1-.09-2-.29-3-.33-1.33-.06-1.46-.92-1.2-1.87.18-.65.74-1.19-.53-1.13a19.11,19.11,0,0,0-10.35,4.06,1.76,1.76,0,0,0-.7,2.1C20.76,25.37,21.24,26.24,21.64,27.13Zm19.82-6.36c-.68.22-1.56.23-1.9.67-1.59,2-4.09,2.11-6.17,3.07s-4,1.69-6.05,2.56a2.86,2.86,0,0,0-1.72,3c0,1.59,1.34,1.31,2.11,1.68a2.23,2.23,0,0,0,2.91-.46,14.58,14.58,0,0,1,4.24-3.13c1.79-.84,3.1-2.56,5.26-2.72.32,0,.94-1,.83-1.23-.65-1.13.36-1.89.45-2.82C41.44,21.18,41.44,21,41.46,20.77Zm1.77,3.92-.07.47c.38,0,.85.19,1.12,0s.38-.65.55-1Z"/><path d="M73.2,5c.16-.15.31-.42.5-.44,3.57-.49,7.11-.54,10.43,1.2a1.69,1.69,0,0,1,.83.84,60.9,60.9,0,0,1,2,17.1c-.08,2.52-1.29,4.66-2.53,6.75-.59,1-1.27,2.27-2.21,2.64s-2.08-.45-3.14-.72a27.81,27.81,0,0,0-3.56-.83,9.53,9.53,0,0,0-2.91.2c-1.28.25-2.59,1.08-3.79.93-3.65-.45-6.72,1.28-10,2.23a8.81,8.81,0,0,1-2.53.73c-3.88-.21-7.34,1.54-11,2.16a18.94,18.94,0,0,1-2.92.06v0c3.43-2,7.36-2.47,11.13-3a25.26,25.26,0,0,0,8.92-2.4,5.52,5.52,0,0,1,3.45-.83c2.25.52,4.21-.27,6.21-.82a8.17,8.17,0,0,1,5.24.06c1.14.42,2.37.64,3.48,1.12.65.28,1.16.29,1.44-.27,1.24-2.43,3-4.54,3.45-7.45a25.72,25.72,0,0,0-.14-6.63c-.26-2.78-.5-5.58-1-8.31-.35-1.87-1.3-3.44-3.62-3.57-2.55-.15-5.1-.44-7.65-.67Z"/><path d="M63.92,7.44c1.21,3,4.2,5.26,3.75,9,0,.31-.13.61-.2.92a3.75,3.75,0,0,1-.76-.9,6.77,6.77,0,0,1-.48-1.92,5.93,5.93,0,0,0-1.59-3.58,13.67,13.67,0,0,1-1.7-2.8c-.08-.17.2-.58.39-.81C63.39,7.24,63.71,7.39,63.92,7.44Z"/></g></g></svg>