<svg xmlns="http://www.w3.org/2000/svg" viewBox="0 0 655.6 340.87"><title>Fichier 3</title><g id="Calque_2" data-name="Calque 2"><g id="Calque_2-2" data-name="Calque 2"><path d="M371.92,209.41c-.26-1.75-1.67-3.07-1.76-4.88,0-.55-.2-1.09-.26-1.63s.26-1.12,1-1a6.35,6.35,0,0,1,2.55.53,22.47,22.47,0,0,0,7.7,2.77A5.5,5.5,0,0,1,384,206.7c2.66,2.6,5.25,5.25,8.12,7.65,3.44,2.87,6,6.65,8.43,10.4,2.93,4.44,5.48,9.14,9.07,13.14a4.56,4.56,0,0,1,.58,1.5l0,0c-.41-.13-1-.11-1.21-.39a128.66,128.66,0,0,1-9-13.56c-2.36-4-5.95-7-8.63-10.69-3-1.49-4.8-4.26-7.1-6.49s-3.53-2.63-7-2.33a3.65,3.65,0,0,1-2.91-.59,4.79,4.79,0,0,0-1.83-.73,1.07,1.07,0,0,0-.9.23,1,1,0,0,0,0,.88c1,1.92,1.68,4.06,4.35,4.66,1,.22,1.72,1.36,2.88.39a1.41,1.41,0,0,1,.48.48c1,2.51.89,2.6,2.91,4.47,1.43,1.32,1.81,2.7,1.07,5-.36-2.14-1-3.44-2.69-4-1-.37-1.79-1.44-2.81-1.79a16.06,16.06,0,0,1-5.48-3.75,63.27,63.27,0,0,0-11.87-8.65,5.63,5.63,0,0,1-1.76-1.53,8.19,8.19,0,0,0-3.57-2.76,5.11,5.11,0,0,0-2.24-.42,1.33,1.33,0,0,0-.94,2,15.59,15.59,0,0,0,4.26,5,32.62,32.62,0,0,1,4.55,4c2,2.26,5.05,3.56,6.21,6.61,0,.06.2.07.3.11a49.62,49.62,0,0,1,8.18,5.08c.67.48.65-.07.69-.49s-.07-.74.08-1a3.41,3.41,0,0,1,.85-.74c.15.27.43.54.43.81a7.36,7.36,0,0,0,1.1,3.93,1.7,1.7,0,0,1-.39,2.4A11.7,11.7,0,0,0,377,227c.56.36,1.1.73,1.67,1.07a14.88,14.88,0,0,0,1.75,1,.93.93,0,0,0,.86-.09,1,1,0,0,0,0-.9c-.89-1.83-.41-3.69-.17-5.55a2.83,2.83,0,0,1,.42,1.21c.66,3.79,1.06,7.65,3.07,11.08a26.78,26.78,0,0,1,1.67,3.6c.09.22-.19.6-.3.9a3.24,3.24,0,0,1-.37-.46c-1.09-2.16-2.2-4.32-3.26-6.5a9.93,9.93,0,0,1-.44-1.58,7.23,7.23,0,0,1-.65,1.68c-.44.67-.55,1.46-1.77,1.73a11.53,11.53,0,0,1-3.57.49,2.29,2.29,0,0,0-2.78,1.8,14,14,0,0,1-1.2,2.38,3.58,3.58,0,0,1-.79,1.05c-.21.17-.6.1-.9.14a1.81,1.81,0,0,1,0-.52c.1-.43.24-.84.36-1.27.49-1.8.31-2.11-1.42-2.16-1.3,0-2.82-.42-3.21,1.53a.37.37,0,0,1-.23.23c-.31.08-.62.13-.93.19a3.55,3.55,0,0,0,.09-.79c0-.39,0-1-.21-1.12a17.51,17.51,0,0,0-2.43-1.16c3.47-.82,6.52.21,10.18.38a40.28,40.28,0,0,0-3.83-2,1.08,1.08,0,0,1-.68-1.6c.88-1.27.14-1.61-.84-1.8-1.63-.32-3.29-.49-4.92-.79-3.08-.57-4.57.81-3.81,3.7a9.44,9.44,0,0,0,3.93,5.23,25.08,25.08,0,0,1,2.85,2.71l0,0c-2-.27-3.06-2.09-4.66-3a12.06,12.06,0,0,1-1.72-1.64,5.6,5.6,0,0,1-1.08-7c.48-.92,1-1.72.24-2.76a2,2,0,0,1-.28-1.27,14.13,14.13,0,0,0,.43-2.9c-.1-.92-.86-1.75-1-2.68-.41-2,.61-3.71,1.79-5.16a1.63,1.63,0,0,1,2.37-.47,2.9,2.9,0,0,0,1.6.3,20.45,20.45,0,0,0,2.11-.12c-1.36-1.08-2.33-1.81-3.26-2.59a6.92,6.92,0,0,1-2-1.82,9.59,9.59,0,0,0-4-3.88c-2.81-1.68-4.18-4.55-6.1-7a1.91,1.91,0,0,1,1.54-3,3.12,3.12,0,0,1,1.63.22c2.5,1.15,5,2.24,7,4.25a18,18,0,0,0,3.66,2.92,79.73,79.73,0,0,1,8.6,6.23l.68.69c.09.17.17.34.25.5l.23-.25-.52-.21Zm2.73,2.05-.24-.52-.25.25.53.22c.47,1.51,1.94,1.62,3.09,2.17a2.72,2.72,0,0,0,1,.08c-.15-.27-.24-.69-.46-.79C377.09,212.36,375.86,211.92,374.65,211.46Zm-16.57,7.12c.08,1.4.52,2.17,2,2.44a40.06,40.06,0,0,1,11.06,4.29,3.14,3.14,0,0,0,.9.41,3.61,3.61,0,0,0,1-.11,6.22,6.22,0,0,1-.71-.64c-.63-.77-1.19-1.6-1.86-2.33-.9-1-.38-1.69.47-2.17.59-.34,1.37-.32.42-1.18a19,19,0,0,0-10.19-4.44,1.77,1.77,0,0,0-2,1A29.39,29.39,0,0,0,358.08,218.58Zm18.51,9.51c-.64-.33-1.27-.94-1.81-.88-2.57.32-4.39-1.39-6.54-2.18s-4.05-1.67-6.09-2.47a2.85,2.85,0,0,0-3.31.88c-1.13,1.12,0,1.88.3,2.68a2.25,2.25,0,0,0,2.39,1.74,14.59,14.59,0,0,1,5.21.78c1.85.67,4,.39,5.64,1.79.25.21,1.4-.05,1.46-.28.34-1.25,1.59-1.08,2.31-1.68C376.29,228.36,376.43,228.23,376.59,228.09Zm-1.52,4-.38.28c.26.29.47.74.77.82s.73-.2,1.1-.32Z"/><path d="M410.17,239.39c.22,0,.52-.07.67,0,2.87,2.18,5.41,4.65,6.52,8.22a1.68,1.68,0,0,1,0,1.19,60.59,60.59,0,0,1-10.69,13.48c-1.83,1.73-4.21,2.39-6.56,3-1.12.29-2.5.71-3.43.3s-1.15-1.78-1.71-2.73a26.28,26.28,0,0,0-1.93-3.09,9.62,9.62,0,0,0-2.2-1.92c-1.09-.73-2.6-1.07-3.34-2-2.27-2.9-5.66-3.84-8.65-5.49a8.43,8.43,0,0,1-2.31-1.27c-2.59-2.89-6.27-4.1-9.33-6.27a20,20,0,0,1-2.1-2l0,0c3.84,1,6.95,3.46,10,5.76,2.53,1.91,4.95,3.68,8,4.6a5.63,5.63,0,0,1,3,1.85c1.22,2,3.17,2.79,5,3.81a8.2,8.2,0,0,1,3.66,3.75c.51,1.11,1.22,2.13,1.67,3.26.26.65.62,1,1.21.82,2.59-.85,5.31-1.1,7.71-2.83A25.32,25.32,0,0,0,410,257c1.77-2.15,3.58-4.3,5.15-6.6,1.08-1.57,1.51-3.35,0-5.08-1.71-1.91-3.3-3.92-4.95-5.88Z"/><path d="M401.9,234.53c-1.27,3-.74,6.7-3.68,9a8.28,8.28,0,0,1-.79.52,3.77,3.77,0,0,1,.1-1.18,6.68,6.68,0,0,1,1-1.7,5.91,5.91,0,0,0,1.4-3.65,13.69,13.69,0,0,1,.78-3.18c.06-.19.55-.28.85-.31C401.67,234,401.79,234.35,401.9,234.53Z"/><path d="M505.55,145.49c.28-1.88.51-3.77.89-5.63.17-.88.94-1,1.41-.27.72,1.11,1.3,2.32,1.94,3.48.13.22.29.42.44.63a3.25,3.25,0,0,0,.59-.58c2.85-4.37,5.68-8.76,8.54-13.13a1.23,1.23,0,0,1,.91-.38c.13,0,.38.41.4.65.1,1.23.19,2.47.2,3.7,0,4.81-.33,9.53-3.2,13.66a4.32,4.32,0,0,0-.34.72,3.52,3.52,0,0,0,1,0,15.35,15.35,0,0,1,7.6-.67,9.33,9.33,0,0,1,6.88,5,5,5,0,0,1,.24,1.58c-.52,0-1.18.27-1.53,0-1.92-1.27-4-1.08-6.06-.75a22.08,22.08,0,0,1-11.26-.76,2.81,2.81,0,0,0-2.68.3c-3.82,2.4-6.35,5.68-6.94,10.25-.19,1.51-.27,3-.35,4.55a18.09,18.09,0,0,0,.09,2.08,7.93,7.93,0,0,0,1.43-1.67c1.8-4.09,5.15-5.69,9.33-5.91,2.55-.13,4.82.9,7,2.08,1.25.66,2.43,1.47,3.71,2.06a7.52,7.52,0,0,1,4.1,4.87c.44,1.4-.17,2.29-1.64,2.17a9,9,0,0,1-2.95-.93,29.4,29.4,0,0,1-3.21-1.86c-2.27-1.41-4.54-1.82-6.94-.22a10.86,10.86,0,0,1-2.6,1.16,10.75,10.75,0,0,1-6.17.5c-2.2-.54-2.46-.44-3.31,1.65-.79,1.93-1.52,3.89-2.24,5.86-.24.67-.37,1.39-.55,2.09l1.72-1a.58.58,0,0,1,.26-.11c.18,0,.46,0,.51.08s.27.61.16.75a22,22,0,0,1-1.48,1.72c-3,3.28-6.13,6.5-9.08,9.86-2.14,2.43-4.06,5-6.11,7.54a5.18,5.18,0,0,1-1.11.76c-.28-.45-.83-.93-.77-1.32.11-.78.48-1,1-1.58a25.94,25.94,0,0,1,2.24-2.78,47.85,47.85,0,0,0,8-9.28c.57-.89,1.23-1.8.65-2.9a41.77,41.77,0,0,0-8.55-11.3c-.61-.56-1.13-.51-1.66.18a7.82,7.82,0,0,1-5.75,2.75c-3,.33-6,.71-9.05,1.07-.94.11-1.37-.33-.9-1.07a44.37,44.37,0,0,1,3.47-4.88c2.78-3.26,6.57-3.69,10.21-1.33a12.45,12.45,0,0,0,1.75.88.64.64,0,0,0,.53-.09.48.48,0,0,0,0-.44c-1.33-2-2.4-4.21-5.41-4.51a18.51,18.51,0,0,1-5.91-2c-3.59-1.72-7.08-3.66-10.6-5.54a4.72,4.72,0,0,1-.95-.9c.35-.27.67-.69,1-.77,4.42-1,8.83-1.69,13,.82.81.49,1.14.37,1.2-.61a7.3,7.3,0,0,1,.34-2.25c.86-2.3,1.81-4.57,2.77-6.83.13-.3.61-.73.77-.68a1.72,1.72,0,0,1,1,.83c1.18,3.21,2.34,6.44,3.42,9.68a8.64,8.64,0,0,1,.57,3.07,14.6,14.6,0,0,1-.77,5.28,2.72,2.72,0,0,0,.3,3.26q5,6.93,9.94,13.93c.54.76.88.61,1.15,0,1.24-2.87,2.48-5.75,3.59-8.67a2.11,2.11,0,0,0-.5-1.71,21.12,21.12,0,0,1-4.29-9.53c-.76-3.72-.87-7.57-2.39-11.12-.07-.17-.14-.48-.06-.53.24-.19.69-.5.81-.41a6.71,6.71,0,0,1,1.47,1.34c1.71,2.16,3.37,4.37,5.05,6.55.2.27.43.51.65.76a5,5,0,0,0,0-1.09c-1.3-7.1-4.22-13.6-7.53-19.93a5.27,5.27,0,0,0-2.69-2.39c-5-1.71-8.76-5.7-13.58-7.78-.25-.11-.34-.57-.51-.87.31-.17.61-.46.93-.48,1.88-.13,3.78-.26,5.67-.25.83,0,1.18.09.92-1-1.24-5-2.4-10-3.55-15a4.42,4.42,0,0,1,.06-1.3c.35,0,.79,0,1.05.17,4.35,3,8.66,6,11.05,10.89a60.83,60.83,0,0,1,2.45,7c.09.27.18.54.26.81a4.7,4.7,0,0,0,.82-.55c1.36-1.34,2.66-2.72,4-4a1.7,1.7,0,0,1,1.26-.27c.18,0,.38.61.39.94.09,5.89-.34,11.65-4.64,16.28a2,2,0,0,0-.24,2.54A57,57,0,0,1,504,158.48c0,.18.09.36.14.55.15-.09.37-.14.44-.26.82-1.69,3-3,1.2-5.42-.69-.93-.54-2.56-.56-3.88a35.57,35.57,0,0,1,.32-4Zm-23.86,28.15a2.27,2.27,0,0,0,1.1-.27c.8-.61,1.54-1.32,2.3-2-1-.19-1.92-.38-2.89-.55a3.82,3.82,0,0,0-.56.06c-.67,0-1.47.75-1.88-.28a10.11,10.11,0,0,1,1.52-.94,4.48,4.48,0,0,0,.44-.32,1.91,1.91,0,0,0-.57-.35,5.93,5.93,0,0,0-6.19,1.94,30.71,30.71,0,0,0-2.28,3.52l-.23.06.18-.12Zm15.52-19.5.16.7c.23,4.77.91,9.44,3.25,13.71a13.73,13.73,0,0,0,1.5,1.86,15.81,15.81,0,0,0,.79-2.38,12.56,12.56,0,0,0-2.24-9.45,36.55,36.55,0,0,0-3.35-3.71ZM483.94,111l.16.19c.65,5.77,1.67,11.47,4.32,16.7a14.18,14.18,0,0,0,5.1,6l.2.32c0-.06,0-.15,0-.18a.8.8,0,0,0-.23-.1c-.49-1.82-1-3.63-1.45-5.46-.07-.27.18-.63.29-.94.28.18.73.3.83.55.57,1.5,1.05,3,1.58,4.57a2.52,2.52,0,0,0,.3.45c.12-.2.32-.38.35-.59A17,17,0,0,0,494,122.19a24.14,24.14,0,0,0-9.94-11Zm26.15,40c.1.95.55,1.06,1.34.62a15,15,0,0,0,7.66-10.78,49.09,49.09,0,0,0,.43-7.09c0-.23-.24-.48-.37-.72a5,5,0,0,0-.39.41c-2.09,3.05-4.37,6-6.2,9.21a42.7,42.7,0,0,0-2.58,6.56C510,150.24,510.06,150.62,510.09,151ZM481.9,162.31a2.63,2.63,0,0,0,.63.44,6.49,6.49,0,0,0-.11-.77c-.24-.78-1.08-1.91-.18-2.27,1.15-.46.89,1.1,1.28,1.73.54.88.88,1.89,1.34,2.83.1.21.35.35.53.52.18-.22.44-.41.52-.66a11.45,11.45,0,0,0-.11-7c-.83-2.62-1.84-5.19-2.78-7.78a4.8,4.8,0,0,0-.39-.7c-.26.26-.63.47-.74.78-.73,2-1.41,3.91-2.1,5.87A9.67,9.67,0,0,0,481.9,162.31Zm26.38,4.28a2.75,2.75,0,0,0-.34.95l.75-.15c1.13-.16,2-1.61,3.36-.62-.92.6-1.82,1.22-2.76,1.79s-1.67.91-2.48,1.4c-.18.12-.4.47-.34.63a.88.88,0,0,0,.62.44,10.79,10.79,0,0,0,6.35-1c2.48-1.2,4.92-2.47,7.37-3.72a5.52,5.52,0,0,0,.62-.46c-.19-.2-.34-.5-.57-.59-1.5-.58-3-1.12-4-1.49C513.22,163.56,510.44,164.24,508.28,166.59Zm-6-41.33c0-.56-.22-.55-.66-.22-3.91,3-6,8.93-4.59,13.45a1.63,1.63,0,0,0,.63.77c.07.05.46-.26.62-.46a15.85,15.85,0,0,0,3.86-10.13C502.2,127.53,502.27,126.4,502.29,125.26Zm-31.35,30.81c-1.3.14-2.6.32-3.9.48,1,.73,2,1.52,3,2.16,1.87,1.11,3.78,2.18,5.72,3.16,1,.51,1.35.19,1.28-1-.24-3.84-.93-4.51-5-4.74A6.33,6.33,0,0,0,470.94,156.07Zm55.37-3.95c.65-.06,1.3-.19,2-.22s1.49,0,2.24,0a12.24,12.24,0,0,0-2-1.86c-3.31-2-6.38-1.74-9,.76a3.8,3.8,0,0,0-.55.92,12.14,12.14,0,0,0,1.12.61,3.23,3.23,0,0,0,.84.09v.13Zm-19.49.52c.06.48.83,1.3,1.16,1.25.82-.13,1-.87.93-1.75a17.94,17.94,0,0,1,.15-4.21,9.16,9.16,0,0,0-1-5.46c-.1-.23-.36-.38-.55-.57a2.22,2.22,0,0,0-.31.64c-.14,1.32-.24,2.63-.36,4h-.43C506.55,148.54,506.59,150.6,506.82,152.64Zm21.71,18.77c-.58-3-4.5-4.95-7.15-3.66-.55.27-.68.75-.14,1.06,2.12,1.22,4.29,2.37,6.67,3.67C528.19,172,528.58,171.67,528.53,171.41ZM482.13,128c.94.62,1.88,1.23,2.84,1.81a2.23,2.23,0,0,0,.7.13,3.36,3.36,0,0,0,0-.78,2.69,2.69,0,0,0-3.61-1.93c-.11,0-.17.23-.25.35A1.79,1.79,0,0,0,482.13,128Z"/><path d="M466.26,151.63l.16.07.08-.22-.25-.09Z"/><path d="M637.43,199.53c1.72-.55,1.94-2.12,2.28-3.53a5,5,0,0,1,3.9-4c2.18-.53,3.29.79,2.61,3a13.12,13.12,0,0,0-.81,4.34,14.1,14.1,0,0,0,1.1-1.81c1.35-3.17,4.34-3.83,7.17-4.69a1.74,1.74,0,0,1,1.56.68c.27.88.59,2.26.13,2.77-1.81,2-2,4.8-3.44,6.95a4.21,4.21,0,0,0-.74,1.68c-.38,2.61-2,4.15-4.23,5.28a11.39,11.39,0,0,0-2.38,1.73,25.46,25.46,0,0,1-15.66,6.77,42.26,42.26,0,0,0-14.52,3.82c-3.59,1.68-7.08,3.39-11.11,3.77-1.85.18-2.19,1-2.33,3.08-.17,2.72-.46,5.44-.79,8.15,0,.31-.62.76-1,.79-2.85.28-5.7.66-8.51,1a60,60,0,0,1-7.43.55c-2.41,0-2.76-.4-2.79-2.9a82,82,0,0,1,.07-8.73,44.26,44.26,0,0,1,4-14.83,11.28,11.28,0,0,1,8.3-6.27,63.67,63.67,0,0,1,11.76-1.54c4.72-.13,9.38-1.12,13.31-3.86,2.68-1.87,5.76-2,8.66-2.8,1.52-.44,3.31.12,4.9-.16a17.21,17.21,0,0,0,4-1.6c.66-.31,1.13-.86,2-.22,1.2.89-.44,1.52-.06,2.28.06.1,0,.25,0,.38l-.57.26.28.28ZM609.68,212.3a71.34,71.34,0,0,1,7.71-2.8c3-.7,5.43-2.31,8-3.68,1-.54,1.73-1.38.31-2.53-.44-.36-.26-1.41-.52-2.09-.13-.34-.81-.84-.92-.77-1.88,1.19-4.16,1.26-6.09,2.56-2.5,1.69-5.3,3.24-8.49,3.4-5.09.25-10.14.79-15.19,1.49-4.33.61-7.42,2.65-9,6.72-1.91,5-3.66,10-3.57,15.38a48.31,48.31,0,0,1-.33,5.23c-.19,2.14.56,3.07,2.6,3.13a63.87,63.87,0,0,0,12-.82c3.09-.49,3.2-.61,3.25-3.72,0-1.78,0-3.55,0-5.32,0-1.11-.34-1.63-1.49-1.61-.25,0-.5-.39-.75-.61.31-.27.65-.82.93-.79a21.82,21.82,0,0,0,8.47-1.12,78.6,78.6,0,0,0,12.19-5.11c4.39-2.19,8.66-4.48,13.61-5.32a39.43,39.43,0,0,0,13.22-4.36,8.92,8.92,0,0,0,4.32-4.72,44.57,44.57,0,0,1,4-8.68c.24-.36.31-1.24.1-1.4a2.08,2.08,0,0,0-1.67-.42A9.91,9.91,0,0,0,646.5,200a10.22,10.22,0,0,1-7.83,6.25c-3,.56-6.19.32-9.3.79s-3.22.11-5.9,1.47a14.11,14.11,0,0,1-2.37,1,10.61,10.61,0,0,0-5.14,3.54,7.67,7.67,0,0,1-4.06,2.49c-1.9.48-3.73,1.21-5.58,1.84-.23.08-.47.34-.65.29s-.73-.31-.77-.53.24-.63.47-.84.51,0,.74-.1c2.83-1,5.65-2.06,8.48-3.1l-.12-.52ZM638,204.85c2,.36,3.19-.67,4.23-2.59a32,32,0,0,0,2.64-6.79,6.35,6.35,0,0,0,0-1.74,6.51,6.51,0,0,0-2,.18,2.76,2.76,0,0,0-1.43,1.4c-.82,2.75-1.79,5.36-4.13,7.26a3.78,3.78,0,0,0-.86,1.61.72.72,0,0,0,.36.63A4.55,4.55,0,0,0,638,204.85ZM625.06,217.7a26.85,26.85,0,0,0,13.39-3c.12-.06.16-.3.23-.46-.22-.06-.47-.22-.67-.19a36.1,36.1,0,0,0-3.58.75C631.43,215.64,628.16,215.59,625.06,217.7Zm5-12.07c1.3.4,2.4-.38,3.21-1.59,1-1.41,1.79-2.91,2.61-4.4.16-.29,0-.73,0-1.1a6.46,6.46,0,0,0-1.15.21c-1.15.38-2.61.9-2.13,2.31s-.25,1.79-1.1,2.28-1.74.87-2.59,1.34c-.2.11-.31.38-.46.58a2.37,2.37,0,0,0,.55.36A5.34,5.34,0,0,0,630.05,205.63Zm14.84-5-.2-.23-.22.22.32.23Z"/><path d="M57.06,206c1.72-.55,1.94-2.13,2.28-3.53a5,5,0,0,1,3.9-4c2.18-.53,3.28.78,2.6,3a13.28,13.28,0,0,0-.81,4.34A14.91,14.91,0,0,0,66.14,204c1.34-3.17,4.34-3.83,7.16-4.69a1.74,1.74,0,0,1,1.56.68c.27.88.59,2.26.14,2.76-1.82,2-2,4.8-3.44,7a4.31,4.31,0,0,0-.75,1.68c-.37,2.61-2,4.15-4.22,5.28a10.57,10.57,0,0,0-2.38,1.73,25.49,25.49,0,0,1-15.67,6.77A42.15,42.15,0,0,0,34,229c-3.59,1.68-7.09,3.39-11.12,3.77-1.85.17-2.19,1-2.32,3.08-.18,2.72-.47,5.44-.79,8.15,0,.31-.62.75-1,.79-2.84.28-5.7.65-8.51,1a58,58,0,0,1-7.43.54c-2.4,0-2.76-.39-2.78-2.89a79.4,79.4,0,0,1,.07-8.73,43.85,43.85,0,0,1,4-14.84,11.23,11.23,0,0,1,8.29-6.26A64.66,64.66,0,0,1,24.25,212c4.73-.12,9.38-1.12,13.32-3.86,2.67-1.86,5.76-2,8.66-2.8,1.52-.44,3.3.13,4.9-.15a17.58,17.58,0,0,0,4-1.6c.67-.31,1.13-.86,2-.22,1.21.89-.43,1.52,0,2.28,0,.1,0,.25,0,.37l-.58.26.28.29ZM29.3,218.78A73.44,73.44,0,0,1,37,216c3-.71,5.42-2.32,8-3.68,1-.54,1.74-1.38.32-2.53-.44-.36-.26-1.42-.53-2.09-.13-.34-.8-.84-.92-.77-1.87,1.19-4.15,1.26-6.09,2.56-2.5,1.68-5.29,3.24-8.49,3.4-5.09.24-10.14.79-15.19,1.49-4.32.6-7.42,2.65-9,6.72C3.26,226,1.51,231,1.59,236.47a51,51,0,0,1-.32,5.23c-.2,2.13.56,3.07,2.59,3.13a64.84,64.84,0,0,0,12-.82c3.08-.5,3.19-.61,3.24-3.73,0-1.77,0-3.54.05-5.31.05-1.11-.33-1.64-1.49-1.61-.24,0-.5-.4-.75-.61.31-.28.65-.82.94-.79a22.26,22.26,0,0,0,8.47-1.12,79.53,79.53,0,0,0,12.18-5.12c4.39-2.18,8.66-4.47,13.61-5.31a39.71,39.71,0,0,0,13.23-4.36,9,9,0,0,0,4.32-4.73,43.35,43.35,0,0,1,4-8.67c.24-.36.31-1.24.09-1.41a2.1,2.1,0,0,0-1.67-.41,9.85,9.85,0,0,0-5.91,5.66,10.24,10.24,0,0,1-7.84,6.26c-3,.56-6.18.32-9.3.79s-3.21.11-5.89,1.47a14.21,14.21,0,0,1-2.38,1,10.71,10.71,0,0,0-5.14,3.53,7.59,7.59,0,0,1-4.06,2.5c-1.89.48-3.72,1.21-5.58,1.84-.22.07-.47.34-.64.29s-.74-.31-.77-.53.23-.63.47-.84.5,0,.73-.11c2.83-1,5.66-2.06,8.48-3.09l-.11-.52Zm28.28-7.45c2,.36,3.18-.66,4.22-2.59A31.54,31.54,0,0,0,64.44,202a6,6,0,0,0,0-1.74,6.26,6.26,0,0,0-2.05.18A2.63,2.63,0,0,0,61,201.8c-.83,2.75-1.8,5.36-4.14,7.25a3.76,3.76,0,0,0-.85,1.62.74.74,0,0,0,.35.63A5.14,5.14,0,0,0,57.58,211.33Zm-12.9,12.85a26.75,26.75,0,0,0,13.4-3c.12-.06.15-.3.23-.46-.23-.07-.47-.23-.68-.19-1.2.22-2.41.41-3.58.74C51.05,222.12,47.78,222.08,44.68,224.18Zm5-12.06c1.29.39,2.4-.38,3.2-1.59.95-1.42,1.79-2.91,2.62-4.4.15-.29,0-.73,0-1.1a7.4,7.4,0,0,0-1.16.2c-1.15.38-2.61.9-2.12,2.31s-.25,1.79-1.1,2.29-1.75.87-2.6,1.34c-.2.11-.31.38-.46.58a2.21,2.21,0,0,0,.55.35A5.21,5.21,0,0,0,49.68,212.12Zm14.83-5-.19-.24-.22.22.31.24Z"/><path d="M101.45,100.61c-.26-1.75-1.67-3.07-1.75-4.89,0-.54-.21-1.08-.27-1.63s.26-1.11,1-1a6.11,6.11,0,0,1,2.55.53,22.55,22.55,0,0,0,7.7,2.77,5.47,5.47,0,0,1,2.86,1.53c2.66,2.6,5.25,5.25,8.13,7.65,3.43,2.87,6,6.65,8.42,10.4,2.93,4.44,5.49,9.14,9.07,13.14a4.35,4.35,0,0,1,.58,1.5l0,0c-.42-.13-1-.12-1.22-.39a129.32,129.32,0,0,1-9-13.57c-2.36-4-5.94-7-8.63-10.69-3-1.48-4.8-4.25-7.1-6.48s-3.53-2.63-7-2.33a3.62,3.62,0,0,1-2.9-.59,4.85,4.85,0,0,0-1.83-.73,1.08,1.08,0,0,0-.91.23,1,1,0,0,0,0,.88c1,1.92,1.68,4.06,4.34,4.66,1,.22,1.72,1.35,2.88.39a1.32,1.32,0,0,1,.49.48c1,2.51.89,2.6,2.91,4.47,1.42,1.32,1.8,2.7,1.06,5-.35-2.15-1-3.44-2.69-4.06-1-.36-1.79-1.43-2.8-1.78a16.25,16.25,0,0,1-5.49-3.75,63.53,63.53,0,0,0-11.86-8.65,5.65,5.65,0,0,1-1.76-1.53,8.12,8.12,0,0,0-3.58-2.76A4.94,4.94,0,0,0,82.28,89a1.32,1.32,0,0,0-.94,2,15.53,15.53,0,0,0,4.27,5,35.27,35.27,0,0,1,4.55,4c2,2.27,5,3.57,6.2,6.62,0,.06.2.06.3.11a49.62,49.62,0,0,1,8.18,5.08c.67.48.65-.07.69-.49s-.06-.74.09-1,.55-.49.84-.73c.15.27.43.54.43.81a7.37,7.37,0,0,0,1.11,3.93,1.7,1.7,0,0,1-.4,2.4,11.63,11.63,0,0,0-1.09,1.49c.55.36,1.1.73,1.66,1.07a15.85,15.85,0,0,0,1.76,1,.94.94,0,0,0,.86-.1,1,1,0,0,0,0-.89c-.89-1.84-.4-3.69-.16-5.55a2.84,2.84,0,0,1,.42,1.2c.66,3.8,1.06,7.65,3.07,11.08a27.44,27.44,0,0,1,1.66,3.61c.09.22-.19.59-.29.9a2.32,2.32,0,0,1-.37-.47c-1.1-2.16-2.2-4.31-3.26-6.49a8.19,8.19,0,0,1-.44-1.58,8.16,8.16,0,0,1-.65,1.67c-.45.68-.56,1.47-1.78,1.73a11.21,11.21,0,0,1-3.57.5,2.3,2.3,0,0,0-2.78,1.8,13.14,13.14,0,0,1-1.19,2.37,3.7,3.7,0,0,1-.8,1.06c-.2.17-.59.1-.9.13a2.17,2.17,0,0,1,0-.51c.1-.43.25-.85.37-1.27.49-1.8.31-2.11-1.43-2.16-1.29,0-2.82-.42-3.2,1.53a.39.39,0,0,1-.24.23c-.3.08-.61.13-.92.19a5.46,5.46,0,0,0,.09-.79c0-.39,0-1-.22-1.12a17.51,17.51,0,0,0-2.43-1.16c3.48-.82,6.52.2,10.19.37a41,41,0,0,0-3.84-2,1.09,1.09,0,0,1-.68-1.61c.89-1.26.15-1.6-.84-1.79-1.63-.32-3.29-.49-4.92-.79-3.08-.57-4.57.81-3.8,3.69a9.31,9.31,0,0,0,3.92,5.23A27,27,0,0,1,94.66,132l0,0c-2-.27-3.06-2.09-4.66-3.05a11,11,0,0,1-1.72-1.64,5.6,5.6,0,0,1-1.08-7c.49-.93,1-1.73.25-2.76a2,2,0,0,1-.28-1.27,15,15,0,0,0,.43-2.9c-.11-.92-.87-1.75-1.06-2.68-.41-2,.61-3.72,1.8-5.17a1.63,1.63,0,0,1,2.37-.46,2.88,2.88,0,0,0,1.59.3,18.76,18.76,0,0,0,2.12-.13c-1.36-1.07-2.33-1.81-3.27-2.58-.69-.58-1.59-1.08-2-1.82a9.75,9.75,0,0,0-4-3.89c-2.81-1.67-4.18-4.54-6.09-7a1.91,1.91,0,0,1,1.53-3,3.23,3.23,0,0,1,1.63.23c2.51,1.15,5,2.23,7,4.25a17.63,17.63,0,0,0,3.65,2.91,81.21,81.21,0,0,1,8.6,6.24l.69.68.24.51.23-.25-.52-.21Zm2.73,2-.24-.51-.24.25.53.22c.47,1.5,1.93,1.62,3.08,2.17a2.74,2.74,0,0,0,1,.08c-.15-.27-.23-.69-.46-.79C106.62,103.55,105.4,103.12,104.18,102.65Zm-16.57,7.13c.09,1.4.53,2.17,2,2.44a39.5,39.5,0,0,1,11.07,4.29,3.17,3.17,0,0,0,.9.41,3.66,3.66,0,0,0,1-.11,5.57,5.57,0,0,1-.72-.64c-.63-.77-1.19-1.6-1.86-2.34-.9-1-.38-1.68.47-2.16.59-.34,1.37-.32.42-1.18a19,19,0,0,0-10.18-4.44,1.76,1.76,0,0,0-2,1A28.42,28.42,0,0,0,87.61,109.78Zm18.52,9.51c-.64-.33-1.27-1-1.82-.88-2.56.32-4.39-1.4-6.53-2.18s-4.06-1.67-6.09-2.47a2.86,2.86,0,0,0-3.32.88c-1.13,1.12,0,1.88.31,2.68a2.24,2.24,0,0,0,2.38,1.74,14.64,14.64,0,0,1,5.22.78c1.85.67,4,.38,5.63,1.79a1.69,1.69,0,0,0,1.46-.28c.34-1.26,1.59-1.08,2.31-1.68C105.83,119.56,106,119.43,106.13,119.29Zm-1.52,4-.38.28c.25.29.46.74.77.82s.73-.2,1.1-.32Z"/><path d="M139.7,130.59c.23,0,.52-.07.67,0,2.87,2.18,5.41,4.65,6.52,8.22a1.68,1.68,0,0,1,0,1.19,61.15,61.15,0,0,1-10.7,13.48c-1.83,1.73-4.2,2.39-6.56,3-1.12.28-2.5.71-3.43.3s-1.14-1.79-1.71-2.73a25.92,25.92,0,0,0-1.93-3.1,9.68,9.68,0,0,0-2.2-1.92c-1.08-.72-2.59-1.06-3.34-2-2.26-2.9-5.65-3.84-8.64-5.49a8.4,8.4,0,0,1-2.31-1.27c-2.6-2.89-6.28-4.11-9.33-6.27a19.13,19.13,0,0,1-2.11-2l0,0c3.85,1,7,3.46,10,5.77a25.39,25.39,0,0,0,8,4.6,5.6,5.6,0,0,1,3,1.85c1.22,2,3.16,2.79,5,3.81a8.15,8.15,0,0,1,3.66,3.75c.51,1.11,1.22,2.13,1.68,3.25.26.65.61,1,1.2.83,2.6-.85,5.32-1.11,7.71-2.83a25.62,25.62,0,0,0,4.59-4.79c1.78-2.15,3.59-4.3,5.16-6.6,1.07-1.57,1.5-3.35,0-5.08-1.7-1.91-3.3-3.92-4.94-5.88Z"/><path d="M131.44,125.73c-1.27,3-.75,6.69-3.68,9-.25.19-.53.35-.8.52a3.76,3.76,0,0,1,.11-1.18,6.48,6.48,0,0,1,1-1.7,5.93,5.93,0,0,0,1.4-3.66,14.48,14.48,0,0,1,.78-3.18c.06-.18.55-.27.85-.3C131.2,125.21,131.33,125.55,131.44,125.73Z"/><path d="M554.31,28.94c-.26-1.74-1.67-3.07-1.76-4.88,0-.55-.2-1.08-.26-1.63s.26-1.11,1-1a6.15,6.15,0,0,1,2.55.52,22.49,22.49,0,0,0,7.7,2.78,5.42,5.42,0,0,1,2.86,1.52c2.66,2.6,5.25,5.26,8.13,7.66,3.43,2.86,6,6.65,8.42,10.39,2.93,4.45,5.48,9.15,9.07,13.14a4.7,4.7,0,0,1,.58,1.51l0,0c-.41-.12-1-.11-1.21-.39a130.24,130.24,0,0,1-9-13.56c-2.36-4-5.95-7-8.63-10.69-3-1.48-4.8-4.25-7.1-6.48s-3.53-2.63-7-2.33a3.66,3.66,0,0,1-2.9-.59,4.74,4.74,0,0,0-1.84-.73,1.07,1.07,0,0,0-.9.23,1,1,0,0,0,0,.88c1,1.91,1.68,4.06,4.35,4.66,1,.22,1.72,1.35,2.88.39a1.27,1.27,0,0,1,.48.47c1,2.51.89,2.6,2.91,4.47,1.43,1.32,1.81,2.7,1.07,5-.36-2.14-1-3.43-2.69-4-1-.36-1.79-1.43-2.81-1.78a16.3,16.3,0,0,1-5.48-3.75,64,64,0,0,0-11.86-8.66A5.4,5.4,0,0,1,541,20.55a8.17,8.17,0,0,0-3.58-2.75,4.94,4.94,0,0,0-2.24-.42,1.32,1.32,0,0,0-.94,2,15.52,15.52,0,0,0,4.27,5,33.81,33.81,0,0,1,4.54,4c2,2.27,5,3.56,6.21,6.61,0,.07.2.07.3.12a49,49,0,0,1,8.18,5.08c.67.48.65-.07.69-.49s-.06-.74.09-1,.55-.49.84-.73c.15.27.43.54.43.81a7.48,7.48,0,0,0,1.1,3.93,1.7,1.7,0,0,1-.39,2.4,11.7,11.7,0,0,0-1.1,1.49c.56.35,1.11.72,1.67,1.06a13.62,13.62,0,0,0,1.75,1,1,1,0,0,0,.87-.1,1,1,0,0,0,0-.89c-.89-1.84-.4-3.69-.17-5.56a2.7,2.7,0,0,1,.42,1.21c.66,3.8,1.06,7.65,3.08,11.08a29.33,29.33,0,0,1,1.66,3.6c.09.23-.19.6-.3.9a3.24,3.24,0,0,1-.37-.46c-1.09-2.16-2.2-4.32-3.26-6.49a9.2,9.2,0,0,1-.43-1.58,7.65,7.65,0,0,1-.66,1.67c-.44.67-.55,1.46-1.77,1.73a11.49,11.49,0,0,1-3.57.49A2.31,2.31,0,0,0,555.51,56a13.88,13.88,0,0,1-1.2,2.37,3.5,3.5,0,0,1-.79,1.06c-.2.16-.6.1-.9.13a1.74,1.74,0,0,1,0-.51c.1-.43.25-.85.36-1.28.49-1.79.31-2.11-1.42-2.15-1.29,0-2.82-.42-3.21,1.53,0,.09-.14.2-.23.23-.3.08-.62.12-.92.18a4.23,4.23,0,0,0,.08-.79c0-.39,0-1-.21-1.12a18.84,18.84,0,0,0-2.43-1.15c3.48-.82,6.52.2,10.18.37a39.82,39.82,0,0,0-3.83-2,1.09,1.09,0,0,1-.68-1.61c.88-1.26.14-1.61-.84-1.8-1.63-.31-3.29-.49-4.92-.79-3.08-.56-4.57.81-3.8,3.7a9.31,9.31,0,0,0,3.92,5.23,26,26,0,0,1,2.85,2.71l0,0c-2-.27-3.06-2.09-4.66-3a11,11,0,0,1-1.72-1.64,5.59,5.59,0,0,1-1.08-7c.48-.93,1-1.73.24-2.77a1.87,1.87,0,0,1-.27-1.26,14.2,14.2,0,0,0,.42-2.9c-.1-.92-.86-1.75-1-2.68-.41-2,.61-3.72,1.8-5.17a1.62,1.62,0,0,1,2.36-.46,2.9,2.9,0,0,0,1.6.3c.53,0,1.06-.06,2.11-.13-1.35-1.07-2.32-1.81-3.26-2.59-.69-.57-1.59-1.07-2-1.82a9.79,9.79,0,0,0-4-3.88c-2.81-1.67-4.18-4.54-6.1-6.95a1.92,1.92,0,0,1,1.54-3,3.23,3.23,0,0,1,1.63.23c2.5,1.15,5,2.23,7.05,4.25a18,18,0,0,0,3.65,2.91,81.21,81.21,0,0,1,8.6,6.24l.69.68.24.51.23-.25-.52-.21ZM557,31l-.24-.51-.25.25.53.22c.48,1.5,1.94,1.62,3.09,2.17a2.72,2.72,0,0,0,1,.07c-.15-.27-.23-.68-.46-.78C559.48,31.89,558.25,31.46,557,31Zm-16.57,7.12c.08,1.41.52,2.18,2,2.45a39.62,39.62,0,0,1,11.07,4.29,3.21,3.21,0,0,0,.89.4,3.25,3.25,0,0,0,1-.11,5.4,5.4,0,0,1-.71-.64c-.63-.77-1.19-1.6-1.86-2.33-.9-1-.38-1.68.47-2.16.59-.34,1.37-.33.42-1.18a19,19,0,0,0-10.19-4.44,1.75,1.75,0,0,0-2,1A28.17,28.17,0,0,0,540.47,38.11ZM559,47.62c-.64-.32-1.27-.94-1.81-.87-2.56.32-4.39-1.4-6.54-2.18s-4-1.67-6.09-2.48a2.85,2.85,0,0,0-3.31.89c-1.13,1.11,0,1.87.3,2.68a2.25,2.25,0,0,0,2.39,1.73,15,15,0,0,1,5.21.78c1.86.67,4,.39,5.64,1.79a1.63,1.63,0,0,0,1.46-.28c.34-1.25,1.59-1.07,2.31-1.67Zm-1.52,4-.38.28c.26.28.47.73.77.81s.73-.2,1.1-.32Z"/><path d="M592.56,58.93c.22,0,.52-.08.67,0,2.87,2.18,5.41,4.64,6.52,8.22a1.65,1.65,0,0,1,0,1.18,61,61,0,0,1-10.7,13.49c-1.83,1.73-4.21,2.38-6.56,3-1.12.29-2.5.71-3.43.31s-1.15-1.79-1.71-2.73a27.26,27.26,0,0,0-1.93-3.1,9.86,9.86,0,0,0-2.2-1.92c-1.09-.73-2.6-1.06-3.34-2-2.27-2.9-5.66-3.84-8.64-5.49a8.42,8.42,0,0,1-2.31-1.28c-2.6-2.89-6.28-4.1-9.34-6.26a20.07,20.07,0,0,1-2.1-2l0,0c3.84,1,7,3.46,10,5.76a25.58,25.58,0,0,0,8,4.61,5.48,5.48,0,0,1,3,1.85c1.22,2,3.17,2.78,5,3.8a8.22,8.22,0,0,1,3.66,3.76c.51,1.1,1.22,2.12,1.67,3.25.26.65.62,1,1.21.82,2.59-.84,5.32-1.1,7.71-2.82a25.68,25.68,0,0,0,4.59-4.8c1.78-2.15,3.58-4.29,5.15-6.59,1.08-1.57,1.51-3.36,0-5.08-1.7-1.92-3.3-3.92-5-5.89Z"/><path d="M584.29,54.07c-1.27,3-.74,6.69-3.68,9a8.92,8.92,0,0,1-.79.51,3.73,3.73,0,0,1,.1-1.17,6.51,6.51,0,0,1,1-1.7,6,6,0,0,0,1.4-3.66,14.34,14.34,0,0,1,.78-3.18c.06-.18.55-.27.85-.3C584.06,53.55,584.19,53.89,584.29,54.07Z"/><path d="M235.08,36.69c.29-1.88.51-3.77.89-5.63.18-.88.94-1,1.42-.27.71,1.11,1.29,2.32,1.94,3.48a6.82,6.82,0,0,0,.43.62,3.24,3.24,0,0,0,.6-.57c2.84-4.38,5.67-8.77,8.54-13.13a1.21,1.21,0,0,1,.9-.38c.13,0,.39.41.4.65.11,1.23.19,2.46.21,3.7.05,4.81-.34,9.52-3.21,13.66a4.29,4.29,0,0,0-.33.72,3.54,3.54,0,0,0,1,0,15.42,15.42,0,0,1,7.59-.67,9.37,9.37,0,0,1,6.88,5,4.72,4.72,0,0,1,.24,1.58c-.52,0-1.18.26-1.53,0-1.92-1.28-4-1.08-6.06-.75A22.08,22.08,0,0,1,243.76,44a2.84,2.84,0,0,0-2.68.29c-3.82,2.41-6.35,5.69-6.93,10.26-.2,1.51-.28,3-.36,4.55a20.8,20.8,0,0,0,.09,2.08,7.47,7.47,0,0,0,1.43-1.68c1.8-4.08,5.15-5.68,9.33-5.9,2.55-.13,4.83.9,7,2.07,1.25.67,2.44,1.48,3.72,2.07a7.55,7.55,0,0,1,4.1,4.87c.43,1.4-.17,2.29-1.64,2.17a9,9,0,0,1-3-.93,29.26,29.26,0,0,1-3.2-1.86c-2.28-1.42-4.55-1.82-6.94-.22a10.93,10.93,0,0,1-2.61,1.16,10.73,10.73,0,0,1-6.17.5c-2.19-.55-2.45-.44-3.31,1.65-.79,1.93-1.52,3.89-2.23,5.85a21.64,21.64,0,0,0-.56,2.1l1.72-1a.62.62,0,0,1,.27-.11c.17,0,.46,0,.51.08s.26.6.15.75A19.92,19.92,0,0,1,231,74.47c-3,3.29-6.13,6.51-9.08,9.87-2.13,2.42-4.06,5-6.11,7.53a4.45,4.45,0,0,1-1.11.76c-.28-.44-.83-.92-.77-1.32.11-.78.49-1,1-1.58A28.35,28.35,0,0,1,217.18,87a47.75,47.75,0,0,0,8-9.28c.57-.89,1.23-1.81.66-2.9a41.65,41.65,0,0,0-8.56-11.3c-.6-.56-1.12-.51-1.66.18a7.85,7.85,0,0,1-5.74,2.75c-3,.32-6,.71-9.05,1.07-.94.11-1.38-.33-.9-1.08a45.13,45.13,0,0,1,3.46-4.87c2.78-3.27,6.57-3.69,10.21-1.34a12.62,12.62,0,0,0,1.76.89.65.65,0,0,0,.52-.09c.08-.05.09-.33,0-.44-1.34-2-2.41-4.21-5.41-4.51a18.21,18.21,0,0,1-5.91-2c-3.6-1.71-7.09-3.65-10.61-5.53a5,5,0,0,1-.94-.9c.35-.27.66-.69,1.05-.78,4.41-1,8.82-1.68,13,.82.82.49,1.15.37,1.2-.6a7.73,7.73,0,0,1,.34-2.26c.86-2.3,1.81-4.56,2.77-6.83.13-.29.61-.73.78-.67a1.66,1.66,0,0,1,1,.83q1.78,4.81,3.43,9.68a8.83,8.83,0,0,1,.57,3.07,14.39,14.39,0,0,1-.78,5.28,2.73,2.73,0,0,0,.3,3.26q5,6.92,10,13.93c.53.76.87.61,1.14,0,1.25-2.87,2.48-5.75,3.6-8.68a2.13,2.13,0,0,0-.5-1.7,21.18,21.18,0,0,1-4.3-9.53c-.75-3.72-.86-7.57-2.38-11.13-.07-.16-.14-.47-.07-.52.25-.2.69-.5.82-.41a6.68,6.68,0,0,1,1.47,1.34c1.7,2.16,3.36,4.36,5,6.55.21.26.44.51.65.76a4.44,4.44,0,0,0,0-1.09c-1.3-7.1-4.22-13.6-7.52-19.94a5.33,5.33,0,0,0-2.69-2.38c-5-1.72-8.77-5.71-13.58-7.78-.25-.11-.35-.57-.52-.87.31-.17.61-.46.93-.49,1.89-.12,3.78-.25,5.67-.24.83,0,1.19.08.92-1-1.24-5-2.39-10-3.55-15a5.2,5.2,0,0,1,.06-1.3c.36.05.79,0,1.05.17,4.35,3,8.66,6,11,10.88a63,63,0,0,1,2.46,7c.09.27.17.54.26.81a5.87,5.87,0,0,0,.82-.55c1.35-1.34,2.66-2.72,4-4a1.67,1.67,0,0,1,1.27-.27c.17,0,.38.61.38.94.09,5.89-.33,11.65-4.64,16.27a2,2,0,0,0-.23,2.55,57.62,57.62,0,0,1,5.23,15.93,4.9,4.9,0,0,0,.13.55c.15-.08.38-.13.44-.26.82-1.69,3-2.94,1.2-5.41-.69-.94-.53-2.57-.56-3.88a37.91,37.91,0,0,1,.33-4ZM211.23,64.83a2.15,2.15,0,0,0,1.09-.26c.81-.62,1.54-1.32,2.31-2L211.74,62a2.83,2.83,0,0,0-.57.06c-.66,0-1.46.75-1.87-.29a9.52,9.52,0,0,1,1.51-.93c.16-.1.3-.21.45-.32a2,2,0,0,0-.57-.35,6,6,0,0,0-6.2,1.93,30.71,30.71,0,0,0-2.28,3.52l-.23.06.19-.11C205.19,65.35,208.21,65.1,211.23,64.83Zm15.52-19.49.15.7c.23,4.77.91,9.44,3.26,13.7a13.89,13.89,0,0,0,1.49,1.87,15.81,15.81,0,0,0,.79-2.38,12.52,12.52,0,0,0-2.24-9.45,35.4,35.4,0,0,0-3.35-3.71ZM213.47,2.19l.17.19c.64,5.77,1.66,11.47,4.31,16.7A14.11,14.11,0,0,0,223.06,25l.19.33c0-.06,0-.15,0-.18s-.15-.07-.22-.11c-.5-1.81-1-3.62-1.46-5.45-.06-.28.19-.63.29-.94.29.18.73.29.83.55.57,1.5,1.06,3,1.58,4.56a2,2,0,0,0,.31.46c.12-.2.31-.38.34-.59a16.85,16.85,0,0,0-1.38-10.27,24.06,24.06,0,0,0-9.94-11Zm26.16,40c.09.95.54,1,1.33.62A15,15,0,0,0,248.63,32a50.56,50.56,0,0,0,.42-7.09c0-.23-.24-.48-.37-.72a3.62,3.62,0,0,0-.38.41c-2.1,3.05-4.37,6-6.2,9.2a43.31,43.31,0,0,0-2.59,6.57C239.58,41.44,239.59,41.82,239.63,42.2Zm-28.2,11.31a3.22,3.22,0,0,0,.63.44,4,4,0,0,0-.11-.77c-.24-.78-1.08-1.91-.18-2.27,1.15-.46.9,1.09,1.28,1.73.55.88.88,1.89,1.35,2.83.1.21.34.35.53.52.17-.22.43-.41.51-.66a11.37,11.37,0,0,0-.11-7c-.82-2.63-1.84-5.19-2.78-7.78a5.49,5.49,0,0,0-.39-.71c-.25.26-.62.48-.74.79-.73,1.94-1.41,3.91-2.1,5.87A9.72,9.72,0,0,0,211.43,53.51Zm26.38,4.28c-.21.22-.23.63-.34,1l.75-.15c1.13-.16,2-1.62,3.36-.62-.91.6-1.82,1.22-2.75,1.79s-1.67.9-2.48,1.4c-.19.11-.41.47-.35.62a.88.88,0,0,0,.62.44,10.74,10.74,0,0,0,6.36-1c2.47-1.2,4.91-2.47,7.37-3.73A4.35,4.35,0,0,0,251,57c-.19-.21-.34-.51-.57-.6-1.5-.58-3-1.11-4-1.48C242.75,54.76,240,55.44,237.81,57.79Zm-6-41.33c0-.56-.22-.55-.65-.23-3.92,3-6,8.94-4.6,13.46a1.64,1.64,0,0,0,.64.77c.07.05.45-.26.62-.46a15.86,15.86,0,0,0,3.85-10.13C231.73,18.73,231.81,17.6,231.82,16.46ZM200.47,47.27c-1.3.14-2.6.32-3.9.48,1,.72,2,1.52,3.05,2.15,1.87,1.12,3.78,2.19,5.73,3.17,1,.51,1.34.18,1.27-1-.23-3.85-.93-4.51-5-4.74A6.26,6.26,0,0,0,200.47,47.27Zm55.37-4c.66-.06,1.31-.19,2-.22s1.49,0,2.23,0a13.13,13.13,0,0,0-2-1.86c-3.32-2-6.38-1.73-9,.77a4.05,4.05,0,0,0-.54.91,8.61,8.61,0,0,0,1.11.61,2.89,2.89,0,0,0,.84.09v.14Zm-19.48.52c0,.48.82,1.3,1.15,1.25.83-.13,1-.87.94-1.75a18.5,18.5,0,0,1,.14-4.21,9.15,9.15,0,0,0-1-5.46c-.11-.23-.37-.38-.56-.57a2.18,2.18,0,0,0-.3.64c-.14,1.31-.25,2.63-.37,3.94H236C236.09,39.74,236.13,41.8,236.36,43.84Zm21.7,18.76c-.58-3-4.49-4.94-7.15-3.65-.55.26-.68.75-.14,1.06,2.13,1.22,4.29,2.37,6.67,3.67C257.73,63.21,258.12,62.86,258.06,62.6Zm-46.4-43.44c.94.62,1.88,1.22,2.84,1.8a2,2,0,0,0,.71.14,3.46,3.46,0,0,0,0-.79,2.69,2.69,0,0,0-3.61-1.92c-.11,0-.16.22-.24.35A2,2,0,0,0,211.66,19.16Z"/><path d="M195.8,42.83l.15.07.08-.22-.25-.09Z"/><path d="M367,90.73c1.72-.55,1.94-2.13,2.27-3.53a5,5,0,0,1,3.91-4c2.18-.53,3.28.78,2.6,3a13.33,13.33,0,0,0-.81,4.34,14.17,14.17,0,0,0,1.11-1.81c1.34-3.17,4.34-3.83,7.16-4.69a1.74,1.74,0,0,1,1.56.68c.27.88.59,2.26.14,2.77-1.82,2-2,4.79-3.44,7a4.31,4.31,0,0,0-.75,1.68c-.37,2.61-2,4.15-4.22,5.28a10.57,10.57,0,0,0-2.38,1.73,25.49,25.49,0,0,1-15.67,6.77,42.15,42.15,0,0,0-14.51,3.82c-3.59,1.68-7.09,3.39-11.12,3.77-1.85.17-2.19,1-2.32,3.08-.18,2.72-.47,5.44-.79,8.15,0,.31-.62.75-1,.79-2.84.28-5.7.65-8.51,1a58,58,0,0,1-7.43.54c-2.4,0-2.76-.39-2.78-2.89a82,82,0,0,1,.06-8.73,44.1,44.1,0,0,1,4.05-14.84,11.23,11.23,0,0,1,8.29-6.26,64.54,64.54,0,0,1,11.76-1.55c4.73-.12,9.38-1.11,13.32-3.85,2.67-1.87,5.76-2,8.65-2.81,1.53-.43,3.31.13,4.91-.15a17.58,17.58,0,0,0,4-1.6c.67-.31,1.13-.86,2-.22,1.2.89-.43,1.52-.05,2.28a1,1,0,0,1,0,.38l-.57.25.28.29Zm-27.76,12.76a72.63,72.63,0,0,1,7.72-2.79c2.95-.71,5.42-2.31,8-3.68,1-.54,1.74-1.38.32-2.53-.44-.36-.26-1.42-.53-2.09-.13-.34-.8-.84-.92-.77-1.88,1.19-4.15,1.26-6.09,2.56-2.5,1.69-5.29,3.24-8.49,3.4-5.09.25-10.14.79-15.19,1.49-4.32.6-7.42,2.65-9,6.72-1.9,5-3.65,10-3.57,15.38a48.31,48.31,0,0,1-.33,5.23c-.19,2.13.57,3.07,2.6,3.13a64.84,64.84,0,0,0,12-.82c3.08-.49,3.19-.61,3.24-3.73,0-1.77,0-3.54,0-5.31.05-1.11-.33-1.64-1.49-1.61-.24,0-.5-.39-.75-.61.31-.28.65-.82.93-.79a22.28,22.28,0,0,0,8.48-1.12,78.49,78.49,0,0,0,12.18-5.11c4.39-2.19,8.66-4.48,13.61-5.32a39.48,39.48,0,0,0,13.23-4.36A9,9,0,0,0,379.54,96a43.6,43.6,0,0,1,4-8.67c.24-.36.31-1.24.09-1.4a2.07,2.07,0,0,0-1.67-.42A9.85,9.85,0,0,0,376,91.2a10.24,10.24,0,0,1-7.84,6.26c-3,.56-6.18.32-9.3.79s-3.21.11-5.89,1.47a14.21,14.21,0,0,1-2.38,1,10.71,10.71,0,0,0-5.14,3.53,7.59,7.59,0,0,1-4.06,2.5c-1.89.48-3.72,1.21-5.58,1.84-.23.08-.47.34-.65.29s-.73-.31-.76-.53.23-.63.47-.84.5,0,.73-.1l8.48-3.1-.11-.52ZM367.49,96c2,.36,3.18-.66,4.22-2.58a32.15,32.15,0,0,0,2.64-6.79,6,6,0,0,0,0-1.74,6.26,6.26,0,0,0-2.05.18,2.67,2.67,0,0,0-1.42,1.4c-.83,2.75-1.8,5.36-4.14,7.25a3.76,3.76,0,0,0-.85,1.62.74.74,0,0,0,.35.63A4.7,4.7,0,0,0,367.49,96Zm-12.9,12.86a26.8,26.8,0,0,0,13.39-3c.13-.06.16-.3.24-.46-.23-.07-.47-.23-.68-.19-1.2.22-2.41.41-3.58.74C361,106.83,357.69,106.79,354.59,108.9Zm5-12.07c1.29.4,2.4-.38,3.2-1.59.95-1.42,1.79-2.91,2.62-4.4.15-.29,0-.73,0-1.1a7.4,7.4,0,0,0-1.16.2c-1.15.38-2.61.9-2.12,2.31s-.25,1.8-1.1,2.29-1.75.87-2.6,1.34c-.2.11-.31.38-.46.58a2,2,0,0,0,.55.35A4.53,4.53,0,0,0,359.59,96.83Zm14.83-5-.19-.24-.22.22.31.24Z"/><path d="M79.64,284.5c-.25-1.75-1.66-3.07-1.75-4.88,0-.55-.21-1.09-.26-1.63s.25-1.11,1-1a6.28,6.28,0,0,1,2.55.53,22.32,22.32,0,0,0,7.71,2.77,5.47,5.47,0,0,1,2.85,1.53c2.66,2.6,5.25,5.25,8.13,7.65,3.44,2.87,6,6.65,8.42,10.4,2.93,4.44,5.49,9.14,9.08,13.14a4.55,4.55,0,0,1,.57,1.5l0,0c-.42-.12-1-.11-1.22-.39a130.24,130.24,0,0,1-9-13.56c-2.36-4-5.94-7-8.63-10.69-3-1.49-4.8-4.26-7.1-6.49s-3.53-2.63-7-2.33a3.62,3.62,0,0,1-2.9-.59,4.68,4.68,0,0,0-1.83-.72,1,1,0,0,0-.9.22.94.94,0,0,0,0,.88c1,1.92,1.68,4.06,4.35,4.66,1,.22,1.71,1.36,2.87.39a1.41,1.41,0,0,1,.49.48c1,2.51.89,2.6,2.91,4.47,1.42,1.32,1.8,2.7,1.06,5-.35-2.14-1-3.44-2.69-4.05-1-.37-1.78-1.44-2.8-1.79a16.22,16.22,0,0,1-5.49-3.74,63.13,63.13,0,0,0-11.86-8.66,5.52,5.52,0,0,1-1.76-1.53,8.3,8.3,0,0,0-3.57-2.76,5.15,5.15,0,0,0-2.25-.42,1.33,1.33,0,0,0-.94,2,15.75,15.75,0,0,0,4.27,5,33.8,33.8,0,0,1,4.55,4c2,2.26,5,3.56,6.2,6.61,0,.06.2.07.3.11A49.71,49.71,0,0,1,83,295.66c.66.48.65-.07.68-.49s-.06-.74.09-1,.56-.5.85-.74c.15.27.42.54.42.81a7.52,7.52,0,0,0,1.11,3.94,1.7,1.7,0,0,1-.39,2.39,10.81,10.81,0,0,0-1.1,1.49c.55.36,1.1.73,1.67,1.07a14.88,14.88,0,0,0,1.75,1A.94.94,0,0,0,89,304a1,1,0,0,0,0-.9c-.89-1.83-.4-3.69-.16-5.55a2.83,2.83,0,0,1,.42,1.21c.66,3.79,1.06,7.65,3.07,11.08a25.55,25.55,0,0,1,1.66,3.6c.09.22-.18.6-.29.9a2.67,2.67,0,0,1-.37-.46c-1.1-2.16-2.2-4.32-3.26-6.5a8.19,8.19,0,0,1-.44-1.58,8.25,8.25,0,0,1-.65,1.68c-.45.67-.55,1.46-1.77,1.73a11.59,11.59,0,0,1-3.58.49,2.3,2.3,0,0,0-2.78,1.8,13.23,13.23,0,0,1-1.19,2.38,3.8,3.8,0,0,1-.8,1.05c-.2.17-.59.1-.9.14a2.26,2.26,0,0,1,0-.52c.11-.43.25-.84.37-1.27.49-1.8.31-2.11-1.42-2.16-1.3,0-2.83-.42-3.21,1.53a.37.37,0,0,1-.24.23c-.3.08-.61.13-.92.19a4.25,4.25,0,0,0,.09-.79c0-.39,0-1-.21-1.12A18.28,18.28,0,0,0,70,310c3.48-.82,6.53.21,10.19.38a41.52,41.52,0,0,0-3.83-2,1.08,1.08,0,0,1-.68-1.6c.88-1.27.14-1.61-.85-1.8-1.63-.32-3.28-.49-4.92-.79-3.08-.57-4.57.81-3.8,3.7A9.37,9.37,0,0,0,70,313.14a26,26,0,0,1,2.86,2.71l0,0c-2-.27-3.07-2.09-4.67-3a11.49,11.49,0,0,1-1.71-1.64,5.59,5.59,0,0,1-1.08-7c.48-.92,1-1.72.24-2.76a2,2,0,0,1-.28-1.27,14.84,14.84,0,0,0,.43-2.9c-.11-.92-.87-1.75-1.06-2.68-.41-2,.61-3.71,1.8-5.16a1.62,1.62,0,0,1,2.37-.46,3,3,0,0,0,1.59.29,20.75,20.75,0,0,0,2.12-.12c-1.36-1.08-2.33-1.81-3.27-2.59a7,7,0,0,1-2-1.82,9.7,9.7,0,0,0-4-3.88c-2.82-1.68-4.19-4.55-6.1-7-1-1.2-.07-2.83,1.54-3a3.08,3.08,0,0,1,1.62.22c2.51,1.15,5,2.24,7.05,4.25a17.94,17.94,0,0,0,3.65,2.92,81.12,81.12,0,0,1,8.6,6.23l.69.69.24.5.24-.25-.53-.21Zm2.73,2.05-.24-.52-.24.25.53.22c.47,1.51,1.94,1.62,3.08,2.17a2.74,2.74,0,0,0,1,.08c-.15-.27-.23-.69-.45-.79C84.81,287.45,83.59,287,82.37,286.55ZM65.8,293.67c.09,1.41.53,2.17,2,2.44a40,40,0,0,1,11.07,4.29,3,3,0,0,0,.9.41,3.66,3.66,0,0,0,1-.11,6.32,6.32,0,0,1-.72-.64c-.63-.77-1.19-1.6-1.85-2.33-.9-1-.39-1.69.46-2.17.6-.34,1.37-.32.42-1.18a19,19,0,0,0-10.18-4.44,1.77,1.77,0,0,0-2,1A29.45,29.45,0,0,0,65.8,293.67Zm18.52,9.51c-.64-.33-1.27-.94-1.82-.88-2.56.32-4.38-1.39-6.53-2.18s-4-1.67-6.09-2.47a2.86,2.86,0,0,0-3.32.88c-1.13,1.12,0,1.88.31,2.68A2.24,2.24,0,0,0,69.25,303a14.64,14.64,0,0,1,5.22.78c1.85.67,4,.39,5.63,1.79.25.21,1.4,0,1.46-.28.34-1.25,1.59-1.08,2.32-1.68C84,303.45,84.15,303.32,84.32,303.18Zm-1.52,4-.38.28c.25.29.46.74.77.82s.73-.2,1.1-.32Z"/><path d="M117.89,314.48c.23,0,.52-.07.67,0,2.88,2.18,5.41,4.65,6.53,8.22a1.73,1.73,0,0,1,0,1.19,60.35,60.35,0,0,1-10.7,13.48c-1.83,1.73-4.2,2.39-6.55,3-1.13.29-2.51.71-3.43.31s-1.15-1.79-1.72-2.74a27.06,27.06,0,0,0-1.92-3.09A9.46,9.46,0,0,0,98.55,333c-1.08-.73-2.59-1.07-3.34-2-2.26-2.9-5.65-3.84-8.64-5.49a8.28,8.28,0,0,1-2.31-1.27c-2.6-2.89-6.28-4.1-9.33-6.27a18.19,18.19,0,0,1-2.1-2l0,0c3.84,1,7,3.46,10,5.76a25.5,25.5,0,0,0,8,4.6,5.66,5.66,0,0,1,3,1.85c1.22,2,3.16,2.79,5,3.81a8.27,8.27,0,0,1,3.67,3.75c.51,1.11,1.22,2.13,1.67,3.26.26.65.61,1,1.21.82,2.59-.85,5.31-1.1,7.7-2.83a25.32,25.32,0,0,0,4.59-4.79c1.78-2.15,3.59-4.3,5.16-6.6,1.07-1.57,1.51-3.35,0-5.08-1.7-1.91-3.3-3.92-4.94-5.88Z"/><path d="M109.63,309.62c-1.27,3-.75,6.7-3.68,9a8.42,8.42,0,0,1-.8.52,3.79,3.79,0,0,1,.11-1.18,6.65,6.65,0,0,1,1-1.7,5.85,5.85,0,0,0,1.4-3.65,14.23,14.23,0,0,1,.79-3.18c.05-.18.54-.28.84-.31C109.39,309.1,109.52,309.44,109.63,309.62Z"/><path d="M213.27,220.58c.29-1.88.51-3.77.89-5.63.18-.88.94-1,1.42-.27.71,1.11,1.29,2.32,1.94,3.48a6.5,6.5,0,0,0,.44.63,4,4,0,0,0,.59-.58c2.84-4.37,5.67-8.76,8.54-13.13a1.21,1.21,0,0,1,.9-.38c.13,0,.39.41.41.65.1,1.23.18,2.47.2,3.7.05,4.81-.34,9.53-3.21,13.66a4.69,4.69,0,0,0-.33.72,3.54,3.54,0,0,0,1,0,15.3,15.3,0,0,1,7.59-.67,9.31,9.31,0,0,1,6.88,5,4.72,4.72,0,0,1,.24,1.58c-.51,0-1.18.27-1.52,0-1.92-1.28-4-1.09-6.07-.76a22.19,22.19,0,0,1-11.26-.75,2.76,2.76,0,0,0-2.67.29c-3.83,2.4-6.36,5.68-6.94,10.25-.19,1.51-.28,3-.36,4.55a20.67,20.67,0,0,0,.09,2.08,7.65,7.65,0,0,0,1.43-1.67c1.8-4.09,5.15-5.69,9.33-5.91,2.55-.13,4.83.9,7,2.08,1.26.66,2.44,1.47,3.72,2.07a7.51,7.51,0,0,1,4.1,4.86c.44,1.4-.17,2.29-1.64,2.17a9,9,0,0,1-3-.93,32,32,0,0,1-3.2-1.85c-2.28-1.42-4.55-1.83-6.94-.23a10.93,10.93,0,0,1-2.61,1.16,10.73,10.73,0,0,1-6.17.5c-2.19-.54-2.45-.44-3.31,1.65-.79,1.93-1.52,3.89-2.23,5.86a20.72,20.72,0,0,0-.56,2.09l1.73-1a.66.66,0,0,1,.26-.11c.18,0,.46,0,.51.08s.26.61.16.75a20.17,20.17,0,0,1-1.49,1.72c-3,3.28-6.13,6.5-9.08,9.86-2.13,2.43-4.06,5-6.11,7.54a4.73,4.73,0,0,1-1.11.76c-.27-.45-.83-.93-.77-1.32.11-.78.49-1,1-1.58a25.94,25.94,0,0,1,2.24-2.78,47.46,47.46,0,0,0,8-9.28c.58-.89,1.23-1.8.66-2.9a41.81,41.81,0,0,0-8.56-11.3c-.6-.56-1.12-.51-1.66.18a7.81,7.81,0,0,1-5.74,2.75c-3,.33-6,.71-9.05,1.07-.94.11-1.38-.33-.9-1.07a44.29,44.29,0,0,1,3.46-4.88c2.78-3.26,6.57-3.69,10.22-1.33a11.93,11.93,0,0,0,1.75.88.61.61,0,0,0,.52-.09c.08,0,.09-.33,0-.44-1.34-2.05-2.41-4.21-5.41-4.51a18.43,18.43,0,0,1-5.91-2c-3.6-1.72-7.09-3.66-10.6-5.53a4.53,4.53,0,0,1-1-.91c.35-.26.66-.69,1.05-.77,4.41-1,8.83-1.69,13,.82.82.49,1.15.37,1.2-.61a7.61,7.61,0,0,1,.34-2.25c.87-2.3,1.81-4.57,2.78-6.83.12-.3.6-.73.77-.67a1.65,1.65,0,0,1,1,.82q1.78,4.81,3.43,9.68a8.87,8.87,0,0,1,.57,3.07,14.39,14.39,0,0,1-.78,5.28,2.73,2.73,0,0,0,.3,3.26q5,6.93,10,13.93c.53.76.87.62,1.14,0,1.25-2.87,2.48-5.75,3.6-8.67a2.15,2.15,0,0,0-.5-1.71,21.24,21.24,0,0,1-4.3-9.53c-.75-3.72-.86-7.57-2.38-11.12-.07-.17-.14-.47-.07-.53.25-.19.69-.49.82-.41a6.94,6.94,0,0,1,1.47,1.34c1.7,2.16,3.36,4.37,5,6.55.2.27.43.51.64.76a5,5,0,0,0,0-1.09c-1.31-7.1-4.22-13.6-7.53-19.93a5.31,5.31,0,0,0-2.69-2.39c-5-1.71-8.76-5.7-13.58-7.78-.25-.11-.35-.57-.52-.87.31-.17.61-.46.93-.48,1.89-.13,3.78-.26,5.67-.25.84,0,1.19.09.92-1-1.24-5-2.39-10-3.55-15a4.8,4.8,0,0,1,.07-1.3,2.69,2.69,0,0,1,1.05.17c4.35,2.95,8.66,6,11,10.89a60.87,60.87,0,0,1,2.46,7c.09.27.17.54.26.81a5.1,5.1,0,0,0,.82-.55c1.35-1.34,2.66-2.72,4-4a1.71,1.71,0,0,1,1.27-.27c.18,0,.38.61.39.94.08,5.89-.34,11.65-4.65,16.28a2,2,0,0,0-.23,2.54,57.36,57.36,0,0,1,5.23,15.94c0,.18.09.36.13.55.15-.09.38-.14.44-.26.82-1.69,3-3,1.2-5.42-.68-.93-.53-2.56-.56-3.88a38.13,38.13,0,0,1,.33-4Zm-23.85,28.15a2.33,2.33,0,0,0,1.1-.27c.8-.61,1.54-1.32,2.3-2-1-.19-1.93-.38-2.89-.55a2.68,2.68,0,0,0-.56.07c-.67,0-1.47.74-1.88-.29a9.83,9.83,0,0,1,1.51-.94,4.6,4.6,0,0,0,.45-.32,2,2,0,0,0-.57-.35,6,6,0,0,0-6.2,1.94,32.12,32.12,0,0,0-2.28,3.52l-.23.06.19-.12Zm15.52-19.5.15.7c.23,4.77.91,9.44,3.26,13.71a14.46,14.46,0,0,0,1.49,1.86,15.85,15.85,0,0,0,.8-2.38,12.52,12.52,0,0,0-2.25-9.45A34.33,34.33,0,0,0,205,230Zm-13.27-43.15.16.19c.64,5.77,1.66,11.47,4.31,16.7a14.14,14.14,0,0,0,5.11,5.95l.19.32c0-.06,0-.15,0-.18a.88.88,0,0,0-.22-.1c-.5-1.82-1-3.63-1.46-5.46-.06-.27.19-.62.29-.94.29.18.74.3.83.55.57,1.5,1.06,3,1.59,4.57a2.08,2.08,0,0,0,.3.45c.12-.2.31-.38.34-.59a16.82,16.82,0,0,0-1.38-10.26,24.12,24.12,0,0,0-9.93-11Zm26.15,40c.09.95.55,1.06,1.33.62a15,15,0,0,0,7.67-10.78,50.56,50.56,0,0,0,.43-7.09c0-.23-.25-.48-.38-.72a3.62,3.62,0,0,0-.38.41c-2.09,3.06-4.37,6-6.2,9.21a43.87,43.87,0,0,0-2.59,6.56C217.77,225.33,217.78,225.71,217.82,226.09Zm-28.2,11.31a2.84,2.84,0,0,0,.63.44,4,4,0,0,0-.11-.77c-.23-.78-1.08-1.91-.18-2.27,1.15-.46.9,1.1,1.28,1.73a30.63,30.63,0,0,1,1.35,2.83c.1.21.35.35.53.52.17-.22.43-.41.51-.66a11.38,11.38,0,0,0-.11-7c-.82-2.62-1.84-5.19-2.78-7.78a4.8,4.8,0,0,0-.39-.7c-.25.26-.62.47-.74.78-.73,1.95-1.4,3.91-2.1,5.87A9.71,9.71,0,0,0,189.62,237.4ZM216,241.68a2.75,2.75,0,0,0-.34.95l.75-.15c1.13-.16,2-1.61,3.36-.62-.91.6-1.82,1.22-2.75,1.79s-1.67.91-2.48,1.4c-.19.12-.4.47-.35.63a.9.9,0,0,0,.62.44,10.81,10.81,0,0,0,6.36-1c2.48-1.2,4.92-2.47,7.37-3.72a5.41,5.41,0,0,0,.61-.46c-.19-.2-.34-.5-.57-.59-1.49-.58-3-1.12-4-1.49C220.94,238.65,218.16,239.33,216,241.68Zm-6-41.32c0-.57-.22-.56-.65-.23-3.92,3-6,8.93-4.6,13.46a1.68,1.68,0,0,0,.64.76c.07.05.45-.26.62-.46a15.91,15.91,0,0,0,3.86-10.13C209.92,202.62,210,201.49,210,200.36Zm-31.34,30.8c-1.31.14-2.61.32-3.91.48,1,.73,2,1.52,3.05,2.16,1.88,1.11,3.78,2.18,5.73,3.16,1,.51,1.35.19,1.27-1-.23-3.84-.93-4.51-5-4.74A7.27,7.27,0,0,0,178.67,231.16ZM234,227.21c.66-.06,1.31-.19,2-.22s1.49,0,2.23,0a11.78,11.78,0,0,0-1.95-1.86c-3.32-2-6.38-1.74-9,.76a3.8,3.8,0,0,0-.55.92,12,12,0,0,0,1.11.61,3.28,3.28,0,0,0,.84.09v.13Zm-19.48.52c.06.48.82,1.3,1.15,1.25.83-.13,1-.87.94-1.75a18.5,18.5,0,0,1,.14-4.21,9.08,9.08,0,0,0-1-5.46c-.11-.23-.37-.38-.56-.57a2.18,2.18,0,0,0-.3.64c-.14,1.32-.25,2.63-.37,4h-.42C214.28,223.63,214.32,225.69,214.55,227.73Zm21.71,18.77c-.59-3-4.5-4.95-7.16-3.66-.55.27-.68.75-.14,1.06,2.13,1.22,4.3,2.37,6.67,3.67C235.92,247.1,236.31,246.76,236.26,246.5Zm-46.41-43.45c.94.62,1.88,1.23,2.85,1.81a2.18,2.18,0,0,0,.7.13,3.36,3.36,0,0,0,0-.78,2.7,2.7,0,0,0-3.61-1.93c-.1,0-.16.23-.24.35C189.63,202.77,189.71,203,189.85,203.05Z"/><path d="M174,226.72l.15.07.08-.22-.25-.09Z"/><path d="M345.16,274.62c1.72-.55,1.94-2.12,2.28-3.53a5,5,0,0,1,3.9-4c2.18-.53,3.29.79,2.61,3a12.87,12.87,0,0,0-.81,4.34,15.33,15.33,0,0,0,1.1-1.81c1.34-3.17,4.34-3.83,7.16-4.69a1.74,1.74,0,0,1,1.56.68c.28.88.59,2.26.14,2.77-1.82,2-2,4.8-3.44,6.95a4.44,4.44,0,0,0-.75,1.68c-.37,2.62-2,4.15-4.22,5.28a11.49,11.49,0,0,0-2.38,1.73,25.49,25.49,0,0,1-15.67,6.77,42.17,42.17,0,0,0-14.51,3.83c-3.59,1.67-7.09,3.39-11.12,3.76-1.84.18-2.19,1-2.32,3.08-.18,2.72-.46,5.44-.79,8.15a1.34,1.34,0,0,1-1,.79c-2.84.28-5.7.66-8.51,1a57.9,57.9,0,0,1-7.43.55c-2.4,0-2.76-.4-2.78-2.9a79.42,79.42,0,0,1,.07-8.73,43.8,43.8,0,0,1,4-14.83,11.26,11.26,0,0,1,8.29-6.27,63.78,63.78,0,0,1,11.76-1.54c4.73-.13,9.38-1.12,13.32-3.86,2.68-1.87,5.76-2,8.66-2.8,1.52-.44,3.3.12,4.9-.16a17.14,17.14,0,0,0,4-1.6c.67-.31,1.13-.86,2-.22,1.21.89-.43,1.52-.05,2.28.05.1,0,.25,0,.38l-.58.26.29.28ZM317.4,287.39a71.45,71.45,0,0,1,7.72-2.8c3-.7,5.42-2.31,8-3.68,1-.54,1.74-1.38.32-2.53-.44-.36-.26-1.41-.52-2.09-.14-.34-.81-.84-.93-.77-1.87,1.19-4.15,1.26-6.08,2.56-2.51,1.69-5.3,3.24-8.5,3.4-5.09.25-10.14.79-15.19,1.49-4.32.61-7.42,2.66-9,6.72-1.9,4.95-3.65,9.95-3.57,15.38a48.29,48.29,0,0,1-.32,5.23c-.2,2.14.56,3.07,2.6,3.13a64.72,64.72,0,0,0,12-.81c3.08-.5,3.19-.62,3.24-3.73,0-1.78,0-3.55.06-5.32,0-1.11-.34-1.63-1.5-1.61-.24,0-.5-.39-.75-.6.31-.28.65-.83.94-.8a21.87,21.87,0,0,0,8.47-1.12,78.49,78.49,0,0,0,12.18-5.11c4.39-2.19,8.66-4.48,13.61-5.32a39.48,39.48,0,0,0,13.23-4.36,9,9,0,0,0,4.32-4.72,44,44,0,0,1,4-8.68c.24-.36.31-1.24.09-1.4a2.07,2.07,0,0,0-1.67-.42,9.87,9.87,0,0,0-5.91,5.67,10.23,10.23,0,0,1-7.84,6.25c-3,.56-6.18.32-9.3.79s-3.21.11-5.89,1.48a15,15,0,0,1-2.38,1,10.73,10.73,0,0,0-5.14,3.54,7.63,7.63,0,0,1-4.06,2.49c-1.89.48-3.72,1.21-5.58,1.84-.22.08-.47.34-.64.29s-.74-.31-.77-.52a1.21,1.21,0,0,1,.47-.85c.15-.14.5,0,.73-.1,2.83-1,5.66-2.06,8.48-3.1l-.11-.51Zm28.28-7.45c2,.36,3.19-.67,4.22-2.59a32,32,0,0,0,2.65-6.79,6.37,6.37,0,0,0,0-1.74,6.45,6.45,0,0,0-2,.18,2.68,2.68,0,0,0-1.43,1.4c-.82,2.75-1.8,5.36-4.14,7.26a3.77,3.77,0,0,0-.85,1.61.76.76,0,0,0,.35.64A5.14,5.14,0,0,0,345.68,279.94Zm-12.9,12.85a26.86,26.86,0,0,0,13.4-3c.12-.06.15-.3.23-.46-.23-.06-.47-.22-.68-.18a33.42,33.42,0,0,0-3.58.74C339.15,290.73,335.88,290.68,332.78,292.79Zm5-12.07c1.29.4,2.4-.38,3.2-1.59.95-1.41,1.79-2.91,2.62-4.4.15-.29,0-.73,0-1.1a7.41,7.41,0,0,0-1.16.21c-1.14.38-2.61.9-2.12,2.31s-.25,1.79-1.1,2.28-1.74.87-2.6,1.34c-.2.11-.31.38-.46.58a2.6,2.6,0,0,0,.55.36A5.48,5.48,0,0,0,337.78,280.72Zm14.83-5-.19-.23-.22.22.31.23Z"/></g></g></svg>