<svg xmlns="http://www.w3.org/2000/svg" viewBox="0 0 2691.81 236.95"><title>Logo_banFichier 16</title><g id="Calque_2" data-name="Calque 2"><g id="Calque_3" data-name="Calque 3"><g id="Calque_2-2" data-name="Calque 2-2"><path d="M11.59,61c.65-2.51-1.79-5.73,1.75-7.61l1.06,7.51-.18.22H11.65Z"/><path d="M11.65,63.7C9.11,63.13,5.89,65.51,4,62l7.55-1h0v2.66Z"/><path d="M14.4,60.91,22,62c-1.79,3.6-5.07,1-7.55,1.81V60.91Z"/><path d="M14.4,63.79c-.34,2.51-.72,5-1.06,7.48-3.51-1.88-1.13-5-1.69-7.57h2.66Z"/><path d="M210.88,122.31V127c0,.47-.38,1.31-1,1.31s-.81-.91-1.12-1.41c-.6-1,.19-4.07.19-4.07s-5.51,0-5.36-1.28c.47,0-.5-.69,0-.75a26.81,26.81,0,0,0,4.48,0h1.31l1.29.28c.4.41,1.44.63.18,1.13Z"/><path d="M211.1,120.75h.62l4.16.91a4.67,4.67,0,0,1-.31,1.09,46.55,46.55,0,0,1-4.69-.47h0l-.19-1.12Z"/><path d="M209.41,120.87a38,38,0,0,1-.44-3.81c0-.38.66-.75,1-1.1.28.28.78.53.81.88.16,1.28.19,2.6.29,3.91l-.41.41a4.7,4.7,0,0,1-1.06,0Z"/><path d="M7.46,200.62c.07,1.54.07,3.08,0,4.63,0,.47-.35,1.31-1,1.31s-.78-.91-1.09-1.41c-.63-1,0-4,0-4s-5.2,0-5.2-1.16c.5,0-.47-.66,0-.75a27.17,27.17,0,0,0,4.51,0,9.54,9.54,0,0,1,1.31,0l1.29.28c.4.44,1.44.63,0,1.13Z"/><path d="M7.64,199.05q.33,0,.66,0l4.16.88a2.18,2.18,0,0,1-.34,1.12,37.94,37.94,0,0,1-4.66-.5h0v-1.12Z"/><path d="M6,199.18c-.15-1.29-.43-2.54-.46-3.82,0-.35.68-.72,1-1.1.28.28.78.57.84.88.16,1.28.19,2.6.25,3.91l-.37.41a4.05,4.05,0,0,1-1.1,0Z"/><path d="M122.81,46.61c-.19,1.22-.69,1.6-1.75.75a28.13,28.13,0,0,1-9.67-12.14q-4.14-11.35-7.76-22.85a8,8,0,0,1,.47-5.07c1-2.56,2.28-2.91,4.94-2a17.29,17.29,0,0,1,11.39,10,59.83,59.83,0,0,1,3.85,17.91c.19,2.53.44,5.07.72,7.6a2.65,2.65,0,0,0,.35.81l.18-.72c.41-1.87.88-3.75,1.26-5.6,3.13-14.42,10.35-25.72,23.81-32.45a12.94,12.94,0,0,1,5.13-1.35A3.86,3.86,0,0,1,159.91,5a4,4,0,0,1-.36,2A67.37,67.37,0,0,1,147,25.14a36.27,36.27,0,0,1-15.46,8.33,4.11,4.11,0,0,0-3.41,3.13,134.85,134.85,0,0,0-3.38,24.25,3.26,3.26,0,0,0,.32.84,10.66,10.66,0,0,0,.75-.87c2.38-3.91,4.57-8,7.16-11.77a57.18,57.18,0,0,1,23.26-20,20.71,20.71,0,0,1,5.13-1.44c2.53-.4,3.63.79,3.13,3.13a9.31,9.31,0,0,1-1.66,3.63c-5,7.11-10,14.4-17.49,19.06a64.8,64.8,0,0,1-13.56,6c-4.16,1.35-6.25,2.91-7.16,7.14a89,89,0,0,0-1.19,29.7,169,169,0,0,1,.84,22.5c0,6,0,12-.25,18a7.49,7.49,0,0,0,0,1.16c.22-.44.44-.87.63-1.31,3.13-6.89,6-13.83,9.11-20.66a82.74,82.74,0,0,1,4.82-8.73,8.91,8.91,0,0,0,0-10.58,25.43,25.43,0,0,1-5.11-19.87,53.91,53.91,0,0,0,.22-6.48c0-1.81.47-3.6,2.54-4.32a4.87,4.87,0,0,1,5.29,1.32,8.63,8.63,0,0,1,2.53,4.47,73,73,0,0,1,.6,13.3c-.28,4.82-1.38,9.58-2.1,14.37a4,4,0,0,0,0,1.09,10.72,10.72,0,0,0,.88-.62c2.59-2.63,5.13-5.32,7.79-7.92a9.38,9.38,0,0,0,3-7.85c-.34-8.86.31-17.59,5.73-25.29,2.25-3.13,4-6.82,6-10.24,1.09-1.84,2.78-3.88,4.79-2.81A7.32,7.32,0,0,1,173.2,51a11.37,11.37,0,0,1-.94,5.95c-3.38,7.26-7,14.42-10.64,21.62-1.57,3.13-3.13,6-5,9.08h0c3.13-2.07,6.26-4.2,9.39-6.26a6.26,6.26,0,0,0,3.13-4.85,40,40,0,0,1,7.39-18.78c2.69-4,5.47-8,8.51-11.8a10.53,10.53,0,0,1,4.63-3.13A2.5,2.5,0,0,1,193,44.1a2.44,2.44,0,0,1,.15,1.51,13.06,13.06,0,0,1-1.47,5.44A83.48,83.48,0,0,1,178.3,68.71a65.92,65.92,0,0,0-6,7.69c-.35.44-.28,1.16-.41,1.73a13.37,13.37,0,0,0,1.79,0A156.32,156.32,0,0,1,190.53,75a42.7,42.7,0,0,1,12.52,1.69c3.6.84,4,2.66,1.54,5.38a7.77,7.77,0,0,1-2.69,2.1,42,42,0,0,1-17.41,3.72,29.49,29.49,0,0,1-13.14-4.82,4.44,4.44,0,0,0-5.26,0l-7.88,5.35h0a17.88,17.88,0,0,0-2.48,1.75A7.15,7.15,0,0,0,154.64,92a7.25,7.25,0,0,0,2.1.56,57.93,57.93,0,0,1,18.77,3.13,28.24,28.24,0,0,1,9,5.54,5.09,5.09,0,0,1,1.32,4c-.25,1.78-2.19,1.13-3.54,1.31A29.06,29.06,0,0,1,161,100.81a41.18,41.18,0,0,1-5.16-5.07c-2.63-2.72-3.63-2.69-6.26,0A71.55,71.55,0,0,0,135.39,117a185.38,185.38,0,0,0-10.11,24.75,155.22,155.22,0,0,0-5.57,40.5c0,6.88-.31,13.8,0,20.68,0,3.41.94,6.79,1.38,10.24a4.65,4.65,0,0,1-.44,1.59c-.34-.47-.94-.9-1-1.41a110.64,110.64,0,0,1-1.88-15.92c0-10.74.91-21.44,1.57-32.15a16.09,16.09,0,0,0-2.1-8.79,153.19,153.19,0,0,0-14.68-24.19,39.07,39.07,0,0,1-3.13-6.48c-1.81-3.35-2.28-3.41-5.69-2a37.26,37.26,0,0,1-23.1,3.44c-1.59-.37-3.13-.84-4.82-1.12-2.13-.41-4.25-.69-6.26-1a19,19,0,0,1-3.1-.38c-2.78-.72-3.41-2.82-1.34-4.79a8.15,8.15,0,0,1,3.13-2,53.07,53.07,0,0,1,11.89-2.48,39.22,39.22,0,0,1,18,3.13,30.31,30.31,0,0,0,5.79,1.94c1.32.35,2.23-.18,1.26-1.59-2.1-3.13-4.35-6-6.61-8.92-1-1.25-2.16-1.28-3.72-.66a28.82,28.82,0,0,1-27.39-3.13c-2.12-1.34-5-3.13-4.35-5.72s3.85-2.79,6.26-3.13A21.55,21.55,0,0,1,71,99a45.7,45.7,0,0,1,19.09,11,4.43,4.43,0,0,0,.87.68,4.58,4.58,0,0,0,.22-1.28c-.78-5.19-1.63-10.33-2.41-15.65A17.41,17.41,0,0,1,91.89,80a11.71,11.71,0,0,1,1.5-1.72c3.7-3.13,7.08-2,8.17,2.75a8.54,8.54,0,0,1,.19,1.51A52.28,52.28,0,0,1,98,104.41a12.3,12.3,0,0,1-3.13,4.26A4,4,0,0,0,94,113.9c2.19,4,4.57,8,6.88,11.95a3.33,3.33,0,0,0,.88.66,6.54,6.54,0,0,0,.34-1,29.29,29.29,0,0,0,.76-5.67A54,54,0,0,1,106,100.25a21.86,21.86,0,0,1,4.72-7.7c1.94-2.19,4.44-1.41,5.07,1.47a12.51,12.51,0,0,1-.16,5.61c-1.34,5.32-3.13,10.51-4.5,15.8a26.43,26.43,0,0,1-5.85,10.64c-2.45,2.75-2.48,3.13-.63,6.26,3.63,6.26,7.39,12.27,11,18.4,1.25,2.1,2.25,4.32,3.41,6.45a6.33,6.33,0,0,0,.84,1.09,11.17,11.17,0,0,0,.35-1.41,336.61,336.61,0,0,0,2.41-36.33,146.9,146.9,0,0,0-.5-22,79.94,79.94,0,0,0-2.66-13.46A77.06,77.06,0,0,0,94,46.61c-.41-.28-.88-.5-1.32-.75h0L84.79,39.6h0a35.56,35.56,0,0,0-3.13-3.13c-.82-.63-2.35-1.53-2.79-1.22a4.16,4.16,0,0,0-1.75,4.22,73.29,73.29,0,0,1,0,9.83A2.51,2.51,0,0,1,76.4,51a5.27,5.27,0,0,1-2.79,1.47c-.72,0-1.72-1-2.06-1.81a7.5,7.5,0,0,1,.56-6.54c1.29-2.51,2.63-5,4-7.39,1-1.75,0-2-1.35-1.84a8.12,8.12,0,0,0-5.91,5.94A14.3,14.3,0,0,1,64,51.3c-1.1,1-2.32,2.35-4,1.07a3.51,3.51,0,0,1-1-4.51,21.86,21.86,0,0,1,7.42-9c1.06-.75,2.13-1.44,3.13-2.26a3.71,3.71,0,0,0,.72-1.25c-.41-.22-.82-.62-1.25-.62a49.9,49.9,0,0,0-5.73.22,2.68,2.68,0,0,0-1.47,1c-.25.22,0,.78-.41,1A27.78,27.78,0,0,0,54.87,50.3a6.22,6.22,0,0,1-2.47,3.13,4.24,4.24,0,0,1-3.42.69,2.86,2.86,0,0,1-1.45-3.76l.08-.15a11.44,11.44,0,0,1,1.91-3.13,40,40,0,0,1,3.6-3.41l.56-.25-.56.28a16.31,16.31,0,0,1-4.07-.34c-4.7-.85-5.35-2.76-2.22-6.45l.84-.69.85-.69.59-.25-.59.25-.85.69-.81.72A45.8,45.8,0,0,1,40,37.1c-2.62-.32-4.72-2.82-4.41-4.54a5.44,5.44,0,0,1,6-3.13,12.54,12.54,0,0,1,4.1,2,10.72,10.72,0,0,0,8.61,2.19c2.09-.37,4.32-.19,6.48-.41a5.75,5.75,0,0,0,1.78-.9c-.72-.6-1.63-1.82-2.1-1.66-5.54,1.78-10-.88-14.36-3.51C45.1,26.49,43.85,25,44,24c.22-1.78,2.06-2.47,3.81-2.53A12.25,12.25,0,0,1,56.4,24a72.59,72.59,0,0,1,6.89,6.58,6.44,6.44,0,0,0,5.63,2.53c2.79-.22,5.6-.19,8.39-.28v0a29.77,29.77,0,0,1-4.57-4c-2.47-3.38-6.26-4.53-9.67-6.48-.69-.37-1.75,0-2.6-.25a84.72,84.72,0,0,1-8.36-2.41A3.13,3.13,0,0,1,49.69,16a3.5,3.5,0,0,1,.17-.55A3.13,3.13,0,0,1,54,13.84a4.09,4.09,0,0,1,.46.25c2.85,1.66,5.54,3.57,8.26,5.42,1.22.84,2.38,1.78,3.6,2.69-.4-1.35-.78-2.69-1.19-4a8.27,8.27,0,0,1-.43-1.47,9.08,9.08,0,0,0-5.11-7.63,12.33,12.33,0,0,1-3.13-4.2,2.79,2.79,0,0,1,.85-3.75A2.87,2.87,0,0,1,61.37.83l.1.09A16.29,16.29,0,0,1,64.6,5.49c.72,1.63.94,3.44,3.13,3.69a1.53,1.53,0,0,1,.63.41L71.49,12c.25-1.6.53-3.13.75-4.82A19.92,19.92,0,0,1,73,2.36C74.12-.18,76.37-.24,78.06,2A5.81,5.81,0,0,1,78,9.06a8.77,8.77,0,0,1-2.57,2.75,3.31,3.31,0,0,0-1.54,4.43.91.91,0,0,0,.07.14,8.66,8.66,0,0,1-.66,8.1,2.63,2.63,0,0,0,.31,3.71,2.6,2.6,0,0,0,.38.27,47.38,47.38,0,0,0,5,3.13,42.94,42.94,0,0,0,.5-5.89c0-3.12-.63-6.25-.85-9.38a3.6,3.6,0,0,1,.57-2.57,6.24,6.24,0,0,1,3.28-2.07c1.69-.18,2.41,1.41,2.54,2.85a13.55,13.55,0,0,1-2.63,9.74,7.68,7.68,0,0,0-.75,2.19c.75-.32,1.72-.44,2.22-1a30.85,30.85,0,0,0,2.09-3.12,59.13,59.13,0,0,1,4.39-5.7,3.13,3.13,0,0,1,4.29-1.06,3,3,0,0,1,.49.37c1.76,1.44,1.26,3.13.25,4.82a14.07,14.07,0,0,1-10.1,6.89c-1.82.25-3.35.59-3.76,2.56A4.8,4.8,0,0,0,83,35.72c3.66,2.78,7,5.88,10.67,8.73a75.38,75.38,0,0,1,24,31.3c.78,2,1.87,3.85,2.84,5.76a51.9,51.9,0,0,0,1.26-5.76c.68-5.45,1.28-10.89,1.78-16.37a61.22,61.22,0,0,0,.28-8,22.24,22.24,0,0,0-1-4.7c-2.72-8-5.29-16-8.26-23.81a74.26,74.26,0,0,0-5.67-11.18c-.72-1.25-2.31-2-3.5-3a21.7,21.7,0,0,0,.31,4.76c1.53,5,3.6,9.83,5,14.86A29.4,29.4,0,0,0,122.81,46.61Zm-55.33-34h.78v.19h-.15L67.42,12l-.32-1-.37.22.72.75v.81h-.19Zm-18,26.83-.72-.85.15-1.53c.82.75,1.94,1.37,2.41,2.28,1.32,2.6,1.47,2.82,4,1.47a12.61,12.61,0,0,0,3.47-2.91c1.38-1.75.78-3.13-1.41-2.85A76.29,76.29,0,0,0,49,37.22a17.84,17.84,0,0,0-2.31,1.94,1.64,1.64,0,0,0-.19,1.6c.28.4,1,.5,1.6.75a5.17,5.17,0,0,1,0-1.57,4,4,0,0,1,.81-1.18ZM64,48.61l-.85.69-2.63,1.35c0,.15.44.44.47.4.72-.56,1.41-1.18,2.13-1.78l.85-.69.15-.15ZM38.41,34.53h0l-.72-.81-.38-.6.41.57Zm23.47,12.3h0v1.5l-.6.41.63-.38.81-1.44c.44-.18.91-.59,1.35-.56,3.13.19,2.22-2.41,2.72-4a4.67,4.67,0,0,0-.4-1.26,14.49,14.49,0,0,0-3.13,2.6,8,8,0,0,0-.63,3.13A.89.89,0,0,1,61.88,46.83ZM51.61,17.35V15.78l2.32.22.59,1.6a4.41,4.41,0,0,0,5.17,2.69c.22,0,.5-.69.47-.69A13,13,0,0,0,57,17.44a4.83,4.83,0,0,0-2.63.19L53.77,16l-2.28-.25v1.54l.59.25ZM157.05,83.07l1-2.22c3.13-5.73,6.82-11.3,9.67-17.25a24.75,24.75,0,0,0,3.82-11.86V50.27a8,8,0,0,0-.63,1.32A85.77,85.77,0,0,1,162.71,70a111.86,111.86,0,0,0-4.6,10.86l-1,2.22-.37.53ZM45.6,23.61h1.13V23.2l-1,.41-.22.59ZM61.25,118.4l3.13-.47c4.76.63,9.39,1.22,14.3,1.94,3.51.54,7,1.26,10.52,1.85a4.42,4.42,0,0,0,1.25-.16,10.21,10.21,0,0,0-1-.56,35.46,35.46,0,0,0-25-3.13l-3.12.44-.6.28ZM75,48.05l-.66-.84c2.19-1.6,2.88-3.38,2-5.33,0-.25-1-.46-1-.43a25.91,25.91,0,0,0-2,4c-.15.41.6,1.13.94,1.73L75,48c0,1.31-.34,2.16-1.81,2.19l-.32-.63.38.6c.66,1.38,1.44,1.34,2,0a20.08,20.08,0,0,0-.41-2.07ZM91.83,17.29c1.5,1.56-.47,1.56-1,2.19A15.1,15.1,0,0,0,88.1,21.7a16.77,16.77,0,0,0-1.59,3.44s.28.47.37.47c1.82-.56,3.63-1.09,4.13-3.38,0-.31,1.26-.28,1.6-.69a4.62,4.62,0,0,0,.53-1.81C93.14,18.73,94.46,16.91,91.83,17.29Zm-8.86-4h0c-.31,0-.91-.44-1-.34a9,9,0,0,0-1,1.78l.88.6a4.78,4.78,0,0,1,0-1.51c.09-.18.62-.28.94-.47ZM74.3,7.05,74,5.93s-.19.18-.16.25.25.65.38,1a6.27,6.27,0,0,0,0,1.5,9.34,9.34,0,0,0,.56,1.56l2.16-2a16.43,16.43,0,0,0-1.5-.94,6.57,6.57,0,0,0-1.25-.15Zm-25,43,2.22,1h0V48.3l1.59,1.41h0l1.13-4.66a45.75,45.75,0,0,0-4,3.13,5.63,5.63,0,0,0-1,2v2.53h.32a14,14,0,0,0-.41-2.28.85.85,0,0,1,.09-.22ZM58.44,3.14v0c-.5,2.94,1.37,4.38,3.53,5.67a5.52,5.52,0,0,0,1.38.37c0-.47.44-1,.31-1.38-.4-1.47-.94-2.88-1.44-4.28l-1.53-.19ZM50.21,24.89c-.29.38-.85.91-.76,1.16a9.05,9.05,0,0,0,8.83,3.6,1.71,1.71,0,0,0,.41-1.32A60.08,60.08,0,0,0,52.58,24c-.43-.25-1.59.6-2.41.94Zm61.93,68.44A22.91,22.91,0,0,0,108,99.59c-1.5,6.26-2.38,12.52-3.48,18.78a7.61,7.61,0,0,0,0,1.35l.38-1.44c.72-3.38,1.28-6.79,2.25-10.08,1.47-5,3.13-9.92,4.89-14.9h0ZM173.2,67.61c3.13-4.29,6.26-8.54,9.6-12.86,1.76-2.35,3.48-4.73,5.11-7.17a7.26,7.26,0,0,0,.65-2.38,8,8,0,0,0-2.12,1.47,85.77,85.77,0,0,0-13.24,21l-.25.56Zm-35.37-.31v0a27.21,27.21,0,0,1,3.73,19,66.89,66.89,0,0,0,0,8,10.87,10.87,0,0,0,.18,1.41,12.57,12.57,0,0,0,.35-1.5c.34-2.88.53-5.82,1.06-8.7a34.71,34.71,0,0,0-.69-13.8A4.74,4.74,0,0,0,137.83,67.3ZM106.26,122a40.81,40.81,0,0,0,3.41-7A83.06,83.06,0,0,1,114,100.34a9.72,9.72,0,0,0,.66-3.66,6.56,6.56,0,0,0-.53-2.09,6.7,6.7,0,0,0-1.28,1.66,103.68,103.68,0,0,0-6.51,25.88l-.28.59ZM172.67,73c1.72-1.91,3.28-3.94,5.13-5.69A78.67,78.67,0,0,0,190,51.09a13.7,13.7,0,0,0,1.22-3.57,4.4,4.4,0,0,0-.22-1.69c-.31.37-.69.69-1,1.09-3.44,4.6-7,9.11-10.2,13.9C177.2,64.7,175,68.89,172.7,73h0Zm-78.9,34.77a23,23,0,0,0,3.88-6.26,167,167,0,0,0,2.78-17.37,12.42,12.42,0,0,0-1.12-4.72c0-.44-.94-.66-1.41-1a11.11,11.11,0,0,1-.28,1.44L93.77,108Zm45.94-12.52h0c0-4.69.25-9.39.47-14.11a16.4,16.4,0,0,0-3.13-11.55,4.57,4.57,0,0,0-1.19-.69,4.61,4.61,0,0,0-.31,1.1,74.7,74.7,0,0,1-.44,9.92A21.47,21.47,0,0,0,139.71,95.21ZM55,101.69h0c2.26,3.85,6.51,4.7,10.08,6.51a21.34,21.34,0,0,0,15.65.85,5.11,5.11,0,0,0,1-.54,6.45,6.45,0,0,0-1-.4c-5.7-1.79-11.36-3.76-17.12-5.29A59.92,59.92,0,0,0,55,101.69ZM131.17,56c4.35-3.69,8.82-7.29,13.05-11.11,5.57-5,11-10.23,16.49-15.34a13,13,0,0,1,1,1.07,20.59,20.59,0,0,1-2.06,2.22c-6.26,5.76-12.8,11.55-19.25,17.28-3.13,2.75-6.26,5.44-9.39,8.19h0a33.16,33.16,0,0,0,13.21-5.44A63.71,63.71,0,0,0,161.4,34.09a8.26,8.26,0,0,0,1.47-3.63c0-1.47-.78-1.69-2-1a23.81,23.81,0,0,0-11,5C141.93,40.35,134.7,46.61,131.17,56Zm-7.89-13.9.28.57-.31-.53c0-2.16-.25-4.32-.41-6.48a64.69,64.69,0,0,0-4.07-20.35A15.18,15.18,0,0,0,108.92,7a3.72,3.72,0,0,0-1.41,0,11.88,11.88,0,0,0,.81,1.19,35.72,35.72,0,0,1,7.23,12.52c2.44,7.16,5.13,14.2,7.73,21.28ZM130.38,32A29,29,0,0,0,146,24c5-4.53,7.89-10.64,11.43-16.24a1,1,0,0,0,.21-.31V6.33a3.68,3.68,0,0,0-1,.22,9.52,9.52,0,0,0-1.47,1.22L130.2,32h.18Zm25-29.2c-1.47.53-3.13.94-4.54,1.59-10.26,4.64-16.18,13.21-20.5,23.41a5.78,5.78,0,0,0,0,1.44,7.52,7.52,0,0,0,1.26-.81q6.51-6.26,13-12.33c3.88-3.66,7.76-7.36,11.57-11.08a6.57,6.57,0,0,0,.88-1.6ZM69,119.65c-3.13.44-7.2,1-11.3,1.6-.59,0-1.09.75-1.65,1.16.5.28,1,.78,1.53.87,4.1.72,8.23,1.44,12.52,2.1,2,.31,4,.53,6.07.72A21,21,0,0,0,87,124.32a7.77,7.77,0,0,0,1-.5,3.92,3.92,0,0,0-.85-.41Zm86.25-45.31.6.22v4.6a5.48,5.48,0,0,0,.19,1.06,9.9,9.9,0,0,0,.56-.87c3.13-6.26,6.26-12.24,9.11-18.47a79.27,79.27,0,0,0,3.44-10.08,8.2,8.2,0,0,0,0-2.88,10.11,10.11,0,0,0-2,1.88A126.21,126.21,0,0,0,160.58,61C158.52,65.39,157,69.86,155.23,74.34Zm26.42,11.77A37.19,37.19,0,0,0,201.14,83c.69-.32,1.1-1.19,1.63-1.82l-2.19-.5a3.14,3.14,0,0,0-.75,0c-8.89.34-17.81.66-26.7,1a4.13,4.13,0,0,0-1,.22c.25.25.44.66.76.78Zm-85.94-4h.34a7.49,7.49,0,0,0,0-1.16,7,7,0,0,0-.22-2.13A7.25,7.25,0,0,0,94,79.85a10.53,10.53,0,0,0-3.35,7.44c.31,5.32,1,10.65,1.59,15.93,0,.32.38.63.57.94a3.81,3.81,0,0,0,.4-.9Q94.45,92.68,95.71,82.07Zm67.63,12.52-1.91-.19h-1l1,.44,16.65,7.66a11.89,11.89,0,0,0,3.13.94,6.47,6.47,0,0,0,2.13-.43c-.31-.63-.5-1.51-1-1.82a32.34,32.34,0,0,0-6.92-3.91c-4-1.19-8.26-1.82-12.11-2.66ZM194.63,76.5a56.24,56.24,0,0,0-8.13.4c-3.41.47-6.73,1.32-10.08,2-.34,0-.63.37-.94.56a5.82,5.82,0,0,0,1.13.6,3.51,3.51,0,0,0,1.12,0l23.91-1.44a3.56,3.56,0,0,0,.91-.28,5.63,5.63,0,0,0-1-.47ZM63.57,98.4c-1.38,0-3.38.26-5.38.47-.41,0-.76.47-1.1.69a5.39,5.39,0,0,0,1,.41l19.81,5.35c1.22.35,2.47.66,3.69.88a3.12,3.12,0,0,0,1.23-.32,4.86,4.86,0,0,0-.79-.78,53.46,53.46,0,0,0-18.49-6.51Zm111.82,6.42,3.41.31a7.1,7.1,0,0,0,1.13,0l-.82-.47-18.78-8.41a6.51,6.51,0,0,0-1.81-.22c.28.53.41,1.19.81,1.53A29.52,29.52,0,0,0,175.39,104.82ZM73.05,20.32a13.67,13.67,0,0,0-.22-2.47c-.59-2.47-1.72-2.94-4.25-2a1.46,1.46,0,0,1-1.16-.38c-.35-.37-.28-.53-.41-.84-.22.31-.62.68-.56.9,1,2.6,1.94,5.2,3.13,7.73.25.57,1.22,1.26,1.69,1.16s1.06-1,1.34-1.66a11.51,11.51,0,0,0,.28-2.34ZM42.73,35.75a10.87,10.87,0,0,0,2.75-.63c.34,0,.63-1.31.56-1.34-1.72-.94-3.5-1.82-5.32-2.6-.15,0-.69.56-1,.94s0,.38,0,.6l1.44-.57a6.71,6.71,0,0,0,0,2.19c.22.66.91,1,1.38,1.5ZM80.28,18.69c.16,1.16.28,2.41.56,3.67,0,.18.79.47.94.34A3.81,3.81,0,0,0,82.31,18a4.78,4.78,0,0,0-1.53-.81Zm-4-14.49.6.38a1.94,1.94,0,0,0,0-.59s-.22-.19-.28-.16a3.71,3.71,0,0,0-.5.47Z"/><path d="M155.77,164.38c3.12-1,3.47-3.85,4.1-6.26a9,9,0,0,1,7-7.2c3.94-1,5.94,1.41,4.69,5.32a24.53,24.53,0,0,0-1.44,7.82,25.33,25.33,0,0,0,2-3.13c2.44-5.72,7.83-6.91,12.93-8.45a3.13,3.13,0,0,1,2.81,1.22c.47,1.6,1,4.07.22,5-3.13,3.66-3.57,8.64-6.26,12.52a8.09,8.09,0,0,0-1.34,3.13,12.27,12.27,0,0,1-7.61,9.39,19.61,19.61,0,0,0-4.28,3.13,46.24,46.24,0,0,1-28.17,12.2,75.72,75.72,0,0,0-26.16,6.89,61.22,61.22,0,0,1-20,6.54c-3.35.28-4,1.75-4.2,5.54-.31,4.91-.84,9.79-1.44,14.67,0,.57-1.12,1.38-1.78,1.44-5.1.5-10.26,1.16-15.33,1.82a106.83,106.83,0,0,1-13.37,1c-4.35,0-5-.72-5-5.23q-.39-7.82,0-15.64a79.69,79.69,0,0,1,7.3-26.73,20.21,20.21,0,0,1,15.08-11.3,117.18,117.18,0,0,1,21.19-2.81,43.08,43.08,0,0,0,24-7c4.82-3.35,10.39-3.54,15.65-5,2.72-.78,5.94.22,8.82-.28a30.58,30.58,0,0,0,7.23-2.88c1.19-.57,2-1.54,3.6-.41,2.19,1.6-.78,2.76,0,4.13v.66l-1,.47.53.5Zm-50.05,23.06a127.89,127.89,0,0,1,13.93-5,64.15,64.15,0,0,0,14.46-6.63c1.85-1,3.13-2.51.56-4.57-.78-.66-.47-2.54-.94-3.76-.25-.62-1.47-1.53-1.66-1.37-3.38,2.12-7.51,2.25-11,4.6a30.57,30.57,0,0,1-15.3,6.26c-9.17.43-18.28,1.4-27.36,2.66A18.76,18.76,0,0,0,62.22,191.7a74.31,74.31,0,0,0-6.41,27.72,86.55,86.55,0,0,1-.6,9.39c-.34,3.85,1,5.54,4.7,5.64a115.69,115.69,0,0,0,21.59-1.63c5.54-.91,5.76-1.1,5.82-6.73v-9.58c0-2-.59-2.94-2.66-2.87-.47,0-.91-.72-1.38-1.1.57-.5,1.19-1.5,1.69-1.44a40.17,40.17,0,0,0,15.31-2,144.06,144.06,0,0,0,21.91-9.39,89,89,0,0,1,24.53-9.58,71.63,71.63,0,0,0,23.85-7.85,16.17,16.17,0,0,0,8-8.36,81.49,81.49,0,0,1,7.2-15.65c.43-.62.56-2.22,0-2.5a3.65,3.65,0,0,0-3.13-.75,17.73,17.73,0,0,0-10.33,10.2,18.41,18.41,0,0,1-14.15,11.27c-5.44,1-11.11.56-16.74,1.44s-5.79.18-10.61,2.63a25.78,25.78,0,0,1-4.29,1.84,19.41,19.41,0,0,0-9.39,6.26,13.49,13.49,0,0,1-7.41,4.6c-3.41.88-6.7,2.19-10,3.32-.41,0-.84.62-1.16.53s-1.34-.56-1.37-1a2.31,2.31,0,0,1,.84-1.5c.44-.38.91,0,1.32-.19l15.27-5.57-.19-.94ZM156.61,174c3.66.63,5.73-1.22,7.61-4.66a59.2,59.2,0,0,0,4.91-12.24,11.72,11.72,0,0,0,0-3.13,10.74,10.74,0,0,0-3.66.32,4.77,4.77,0,0,0-2.57,2.5,24.66,24.66,0,0,1-7.48,13.08,7.22,7.22,0,0,0-1.53,2.91,1.35,1.35,0,0,0,.65,1.16A9,9,0,0,0,156.61,174Zm-23.25,23.16a48.51,48.51,0,0,0,24.13-5.44c.22,0,.28-.54.43-.82-.43,0-.87-.44-1.25-.34q-3.18.5-6.32,1.31c-5.41,1.57-11.33,1.47-16.9,5.29Zm9-21.91a5.18,5.18,0,0,0,5.79-2.88c1.72-2.53,3.13-5.22,4.72-7.91.29-.53,0-1.32,0-2a16.21,16.21,0,0,0-2.06.38c-2.07.69-4.69,1.63-3.82,4.16s-.47,3.13-2,4.13-3.13,1.57-4.66,2.41c-.38.19-.57.69-.85,1,.34.21.63.56,1,.65a10,10,0,0,0,2,.19Zm26.79-8.82-.38-.41-.37.38.56.44Z"/></g><g id="Calque_2-2-2" data-name="Calque 2-2"><path d="M2680.22,60.89c-.65-2.51,1.79-5.73-1.75-7.61l-1.06,7.51.18.22h2.57Z"/><path d="M2680.16,63.58c2.54-.56,5.76,1.81,7.61-1.72l-7.55-1h0v2.66Z"/><path d="M2677.41,60.79l-7.55,1.07c1.79,3.6,5.07,1,7.55,1.81V60.79Z"/><path d="M2677.41,63.67c.34,2.51.72,5,1.06,7.48,3.51-1.88,1.13-5,1.69-7.57h-2.66Z"/><path d="M2480.93,122.2v4.63c0,.47.38,1.31,1,1.31s.81-.91,1.12-1.41c.6-1-.19-4.06-.19-4.06s5.51,0,5.36-1.29c-.47,0,.5-.69,0-.75a26.81,26.81,0,0,1-4.48,0h-1.31l-1.29.28c-.4.41-1.44.63-.18,1.13Z"/><path d="M2480.71,120.63h-.62l-4.16.91a4.67,4.67,0,0,0,.31,1.09,46.55,46.55,0,0,0,4.69-.47h0l.19-1.12Z"/><path d="M2482.4,120.76c.16-1.29.41-2.54.44-3.82,0-.38-.66-.75-1-1.1-.28.28-.78.53-.81.88-.16,1.28-.19,2.6-.29,3.91l.41.41a3.76,3.76,0,0,0,1.06,0Z"/><path d="M2684.35,200.5c-.07,1.54-.07,3.09,0,4.63,0,.47.35,1.31,1,1.31s.78-.9,1.09-1.4c.63-1,0-4,0-4s5.2,0,5.2-1.16c-.5,0,.47-.66,0-.75a27.17,27.17,0,0,1-4.51,0,9.54,9.54,0,0,0-1.31,0l-1.29.28c-.4.44-1.44.63,0,1.13Z"/><path d="M2684.17,198.93q-.33,0-.66,0l-4.16.88a2.19,2.19,0,0,0,.34,1.13,38,38,0,0,0,4.66-.51h0v-1.12Z"/><path d="M2685.82,199.06c.16-1.29.44-2.54.47-3.82,0-.34-.68-.72-1-1.1-.28.29-.78.57-.84.88-.16,1.28-.19,2.6-.25,3.91l.37.41a4.05,4.05,0,0,0,1.1,0Z"/><path d="M2581.2,28.21c1.35-5,3.41-9.88,5-14.86a21.7,21.7,0,0,0,.31-4.76c-1.19,1-2.78,1.72-3.5,3a74.16,74.16,0,0,0-5.67,11.17c-3,7.85-5.54,15.87-8.26,23.81a22.24,22.24,0,0,0-1,4.7,61.22,61.22,0,0,0,.28,8c.5,5.48,1.1,10.92,1.78,16.37a51.9,51.9,0,0,0,1.26,5.76c1-1.91,2.06-3.79,2.84-5.76a75.38,75.38,0,0,1,24-31.3c3.63-2.85,7-5.94,10.67-8.73a4.8,4.8,0,0,0,1.47-5.51c-.41-2-1.94-2.31-3.76-2.56a14.07,14.07,0,0,1-10.11-6.89c-1-1.69-1.5-3.38.26-4.82a2.47,2.47,0,0,1,.49-.36,3.11,3.11,0,0,1,4.29,1.05,57.48,57.48,0,0,1,4.38,5.7,34.18,34.18,0,0,0,2.1,3.13c.5.56,1.47.68,2.22,1a8.11,8.11,0,0,0-.75-2.19,13.52,13.52,0,0,1-2.63-9.74c.13-1.44.85-3,2.54-2.84a6.2,6.2,0,0,1,3.28,2.06,3.6,3.6,0,0,1,.57,2.57c-.22,3.13-.85,6.26-.85,9.39a42.93,42.93,0,0,0,.5,5.88,47.38,47.38,0,0,0,5-3.13,3.28,3.28,0,0,0,.38-.27,2.62,2.62,0,0,0,.31-3.7,8.69,8.69,0,0,1-.66-8.11.91.91,0,0,0,.07-.14,3.31,3.31,0,0,0-1.54-4.43,8.77,8.77,0,0,1-2.57-2.75,5.79,5.79,0,0,1-.06-7c1.69-2.26,3.94-2.2,5.07.34a19.92,19.92,0,0,1,.75,4.85c.22,1.69.5,3.22.75,4.82l3.13-2.44a1.47,1.47,0,0,1,.63-.41c2.19-.25,2.41-2.06,3.13-3.69A16.43,16.43,0,0,1,2630.34.8l.1-.09a2.87,2.87,0,0,1,4.06.28,2.79,2.79,0,0,1,.85,3.75,12.24,12.24,0,0,1-3.13,4.2,9.08,9.08,0,0,0-5.11,7.63,8,8,0,0,1-.43,1.47c-.41,1.35-.79,2.7-1.19,4,1.22-.91,2.38-1.85,3.6-2.69,2.72-1.85,5.41-3.76,8.26-5.41a2.59,2.59,0,0,1,.46-.26,3.13,3.13,0,0,1,4.14,1.57,3.5,3.5,0,0,1,.17.55,3.14,3.14,0,0,1-2.42,3.71c-2.75.94-5.54,1.75-8.36,2.41-.85.25-1.91-.13-2.6.25-3.41,1.94-7.2,3.09-9.67,6.47a29.25,29.25,0,0,1-4.57,4v0c2.79.09,5.6.06,8.39.28a6.42,6.42,0,0,0,5.63-2.53,72.59,72.59,0,0,1,6.89-6.58,12.25,12.25,0,0,1,8.64-2.53c1.75.06,3.59.75,3.81,2.53.1,1-1.15,2.51-2.22,3.13-4.38,2.63-8.82,5.29-14.36,3.51-.47-.16-1.38,1.06-2.1,1.66a6,6,0,0,0,1.78.91c2.16.21,4.39,0,6.48.4a10.72,10.72,0,0,0,8.61-2.19,12.74,12.74,0,0,1,4.1-2,5.44,5.44,0,0,1,6,3.13c.31,1.72-1.79,4.22-4.41,4.54a45.8,45.8,0,0,1-6.83-.16l-.81-.72-.85-.69-.59-.25.59.25.85.69.84.69c3.13,3.69,2.48,5.6-2.22,6.45a16.31,16.31,0,0,1-4.07.34l-.56-.28.56.25a40,40,0,0,1,3.6,3.41,11.44,11.44,0,0,1,1.91,3.13s.05.1.08.16a2.85,2.85,0,0,1-1.46,3.75,4.23,4.23,0,0,1-3.41-.69,6.22,6.22,0,0,1-2.47-3.13,27.82,27.82,0,0,0-6.57-13.39c-.41-.25-.16-.81-.41-1a2.68,2.68,0,0,0-1.47-1,49.9,49.9,0,0,0-5.73-.22c-.43,0-.84.4-1.25.62a3.86,3.86,0,0,0,.72,1.26c1,.81,2.07,1.5,3.13,2.25a21.93,21.93,0,0,1,7.42,9,3.51,3.51,0,0,1-1,4.51c-1.69,1.28-2.91-.06-4-1.06A14.32,14.32,0,0,1,2623,40.73a8.12,8.12,0,0,0-5.91-5.94c-1.35-.13-2.35.09-1.35,1.84,1.38,2.44,2.72,4.89,4,7.39a7.5,7.5,0,0,1,.56,6.54c-.34.78-1.35,1.82-2.06,1.82a5.28,5.28,0,0,1-2.79-1.48,2.51,2.51,0,0,1-.72-1.72,73.14,73.14,0,0,1,0-9.82,4.17,4.17,0,0,0-1.75-4.23c-.44-.31-2,.6-2.79,1.22a35.56,35.56,0,0,0-3.13,3.13h0l-7.92,6.26h0c-.43.25-.9.47-1.31.75A77.06,77.06,0,0,0,2572.28,85a80.14,80.14,0,0,0-2.66,13.46,145.61,145.61,0,0,0-.5,22,337,337,0,0,0,2.41,36.34,11.46,11.46,0,0,0,.35,1.4,6.33,6.33,0,0,0,.84-1.09c1.16-2.13,2.16-4.35,3.41-6.45,3.63-6.13,7.39-12.14,11-18.4,1.85-3.13,1.82-3.5-.63-6.26a26.43,26.43,0,0,1-5.85-10.64c-1.38-5.29-3.16-10.48-4.5-15.8a12.51,12.51,0,0,1-.16-5.61c.62-2.87,3.13-3.66,5.07-1.47a22,22,0,0,1,4.72,7.7,54.1,54.1,0,0,1,3.13,19.56,30.07,30.07,0,0,0,.75,5.67,7.81,7.81,0,0,0,.35,1,3.33,3.33,0,0,0,.88-.66c2.31-4,4.69-7.92,6.88-12a4,4,0,0,0-.84-5.23,12.3,12.3,0,0,1-3.13-4.26,52.28,52.28,0,0,1-3.76-21.9,8.32,8.32,0,0,1,.19-1.5c1.09-4.76,4.47-5.89,8.17-2.76a11.71,11.71,0,0,1,1.5,1.72,17.41,17.41,0,0,1,3.13,13.8c-.78,5.32-1.63,10.46-2.41,15.65a4.72,4.72,0,0,0,.22,1.29,4.89,4.89,0,0,0,.87-.69,45.81,45.81,0,0,1,19.09-11,21.65,21.65,0,0,1,11.65-1.56c2.41.34,5.63.53,6.26,3.13s-2.23,4.38-4.36,5.72a28.8,28.8,0,0,1-27.38,3.13c-1.56-.62-2.75-.59-3.72.66-2.26,2.94-4.51,5.79-6.61,8.92-1,1.41-.06,1.94,1.26,1.6a32,32,0,0,0,5.79-1.94,39,39,0,0,1,18-3.13,52.62,52.62,0,0,1,11.89,2.47,8.27,8.27,0,0,1,3.13,2c2.07,2,1.44,4.07-1.34,4.79a19.16,19.16,0,0,1-3.1.38c-2,.28-4.13.56-6.26,1-1.69.28-3.23.75-4.82,1.12a37.26,37.26,0,0,1-23.1-3.44c-3.41-1.44-3.88-1.38-5.69,2a39.07,39.07,0,0,1-3.13,6.48,153.65,153.65,0,0,0-14.68,24.19,16.1,16.1,0,0,0-2.1,8.8c.66,10.7,1.57,21.4,1.57,32.14a110.94,110.94,0,0,1-1.88,15.93c-.06.5-.66.93-1,1.4a4.65,4.65,0,0,1-.44-1.59c.44-3.44,1.38-6.82,1.38-10.24.31-6.88,0-13.8,0-20.68a155.27,155.27,0,0,0-5.57-40.5,185.38,185.38,0,0,0-10.11-24.75,71.38,71.38,0,0,0-14.18-21.28c-2.63-2.7-3.63-2.73-6.26,0a42.61,42.61,0,0,1-5.16,5.07,29.1,29.1,0,0,1-21.28,5.75c-1.35-.18-3.29.47-3.54-1.31a5.12,5.12,0,0,1,1.31-4,28.39,28.39,0,0,1,9-5.54,57.89,57.89,0,0,1,18.77-3.13,7.25,7.25,0,0,0,2.1-.56,6.93,6.93,0,0,0-1.09-1.81,17.14,17.14,0,0,0-2.48-1.76h0L2525.72,83a4.44,4.44,0,0,0-5.26,0,29.49,29.49,0,0,1-13.15,4.82,42,42,0,0,1-17.4-3.72,7.77,7.77,0,0,1-2.69-2.1c-2.44-2.72-2.06-4.54,1.54-5.38a42.68,42.68,0,0,1,12.51-1.69,156.05,156.05,0,0,1,16.9,3.13,13.37,13.37,0,0,0,1.79,0c-.13-.57-.06-1.29-.41-1.72a65.2,65.2,0,0,0-6-7.7,83.67,83.67,0,0,1-13.39-17.65,13.15,13.15,0,0,1-1.47-5.45,2.44,2.44,0,0,1,.15-1.51,2.51,2.51,0,0,1,3.29-1.31,10.53,10.53,0,0,1,4.63,3.13c3,3.79,5.82,7.8,8.51,11.8a40,40,0,0,1,7.39,18.78,6.26,6.26,0,0,0,3.13,4.85c3.13,2.07,6.26,4.19,9.39,6.26h0c-1.82-3-3.38-5.95-4.95-9.08-3.63-7.19-7.26-14.36-10.64-21.62a11.27,11.27,0,0,1-.94-5.95,7.32,7.32,0,0,1,2.44-5.13c2-1.06,3.7,1,4.79,2.82,2,3.41,3.76,7.1,6,10.23,5.41,7.7,6.07,16.43,5.73,25.29a9.38,9.38,0,0,0,3,7.85c2.66,2.6,5.2,5.29,7.79,7.92.28.23.58.43.88.63a4.05,4.05,0,0,0,0-1.1c-.72-4.79-1.82-9.55-2.1-14.36a72.23,72.23,0,0,1,.6-13.31,8.56,8.56,0,0,1,2.53-4.47,4.87,4.87,0,0,1,5.29-1.32c2.07.72,2.54,2.51,2.54,4.32a53.84,53.84,0,0,0,.22,6.48,25.47,25.47,0,0,1-5.11,19.87,8.91,8.91,0,0,0,0,10.58,82.74,82.74,0,0,1,4.82,8.73c3.13,6.83,6,13.77,9.11,20.66.19.44.41.88.63,1.31a7.36,7.36,0,0,0,0-1.15c-.25-6-.25-12-.25-18a169,169,0,0,1,.84-22.5,89,89,0,0,0-1.19-29.7c-.91-4.23-3-5.79-7.16-7.14a64.29,64.29,0,0,1-13.56-6c-7.54-4.66-12.45-12-17.49-19.06a9.31,9.31,0,0,1-1.66-3.63c-.5-2.34.6-3.53,3.13-3.12a20.27,20.27,0,0,1,5.13,1.43,57.26,57.26,0,0,1,23.26,20c2.59,3.79,4.78,7.86,7.16,11.77a10.54,10.54,0,0,0,.75.88,3.46,3.46,0,0,0,.32-.85,134.85,134.85,0,0,0-3.38-24.25,4.11,4.11,0,0,0-3.41-3.13A36.27,36.27,0,0,1,2544.78,25a67.37,67.37,0,0,1-12.52-18.15,3.84,3.84,0,0,1,3.82-5.48,12.94,12.94,0,0,1,5.13,1.35c13.46,6.73,20.68,18,23.81,32.45.38,1.85.85,3.73,1.26,5.61l.18.72a2.71,2.71,0,0,0,.35-.82c.28-2.53.53-5.07.72-7.6a59.7,59.7,0,0,1,3.85-17.9,17.26,17.26,0,0,1,11.39-10c2.66-.94,3.91-.59,4.94,2a8.11,8.11,0,0,1,.47,5.07q-3.63,11.49-7.76,22.85a28.13,28.13,0,0,1-9.67,12.14c-1.06.85-1.56.47-1.75-.75A29.37,29.37,0,0,0,2581.2,28.21Zm43.35-15.55h-.19v-.81l.72-.75-.38-.22-.31,1-.69.84h-.15v-.18h.78Zm18.4,26a4,4,0,0,1,.81,1.19,5.1,5.1,0,0,1,0,1.56c.57-.25,1.32-.34,1.6-.75a1.64,1.64,0,0,0-.19-1.6,17.84,17.84,0,0,0-2.31-1.94,76.86,76.86,0,0,0-8.42-2.13c-2.19-.28-2.79,1.1-1.41,2.85a12.44,12.44,0,0,0,3.47,2.91c2.51,1.35,2.66,1.13,4-1.47.47-.91,1.59-1.53,2.41-2.28l.15,1.53-.72.85Zm-15.3,9.67.15.15.85.69c.72.6,1.41,1.22,2.13,1.79,0,0,.47-.25.47-.41l-2.63-1.35-.85-.69Zm26.44-14.74.41-.57-.38.6-.72.81h0Zm-24.91,13.17a8.21,8.21,0,0,0-.63-3.13,14.78,14.78,0,0,0-3.13-2.6,4.67,4.67,0,0,0-.4,1.26c.5,1.56-.41,4.16,2.72,4,.44,0,.91.38,1.35.56l.81,1.44.63.38-.6-.41v-1.5h0A.89.89,0,0,1,2629.18,46.74Zm10.55-29.29.59-.25V15.67l-2.28.25-.63,1.59a4.83,4.83,0,0,0-2.63-.19,12.75,12.75,0,0,0-3.13,2.16s.25.69.47.69a4.42,4.42,0,0,0,5.17-2.69l.59-1.6,2.32-.21v1.56ZM2535,83.51l-.37-.53-1-2.22a111.86,111.86,0,0,0-4.6-10.86,85.77,85.77,0,0,1-8.17-18.43,8,8,0,0,0-.63-1.32v1.47a24.82,24.82,0,0,0,3.82,11.87c2.85,5.94,6.54,11.51,9.67,17.24l1,2.22ZM2646.3,24.08l-.22-.59-1-.41v.41h1.12Zm-15.21,94.39-.6-.28-3.13-.44a35.44,35.44,0,0,0-25,3.13,10.21,10.21,0,0,0-1,.56,4.42,4.42,0,0,0,1.25.16c3.51-.59,7-1.31,10.52-1.85,4.91-.72,9.54-1.31,14.3-1.94l3.13.47ZM2617,48c-.12.72-.4,1.63-.4,2.07.53,1.34,1.31,1.38,2,0l.37-.6-.31.63c-1.47,0-1.81-.88-1.81-2.19l.75-.81c.34-.6,1.09-1.32.94-1.73a25.91,25.91,0,0,0-2-4s-1,.19-1,.44c-.87,1.94-.18,3.72,2,5.32l-.66.84Zm-18.3-28.38a4.62,4.62,0,0,0,.53,1.81c.34.41,1.59.38,1.59.69.51,2.29,2.32,2.82,4.14,3.38.09,0,.37-.47.37-.47a16.77,16.77,0,0,0-1.59-3.44,15.1,15.1,0,0,0-2.76-2.22c-.5-.63-2.47-.63-1-2.19C2597.35,16.79,2598.67,18.61,2598.67,19.61ZM2609,13.26c.32.18.85.28.94.47a4.72,4.72,0,0,1,0,1.5l.88-.6a9,9,0,0,0-1-1.78c-.06-.1-.66.34-1,.34h0Zm8.67-6.2a5.86,5.86,0,0,0-1.25.16,14.42,14.42,0,0,0-1.5.93l2.16,2a10.86,10.86,0,0,0,.56-1.57,6.27,6.27,0,0,0,0-1.5c.13-.35.34-.94.38-1s-.16-.25-.16-.25l-.31,1.12Zm25,43a.85.85,0,0,1,.09.22,14,14,0,0,0-.41,2.28h.32V50.06a5.63,5.63,0,0,0-1-2,45.75,45.75,0,0,0-4-3.13l1.13,4.66h0l1.59-1.41V51h0l2.22-1ZM2631.12,3.21l-1.53.19c-.5,1.41-1,2.81-1.44,4.29-.13.4.31.9.31,1.37a5.52,5.52,0,0,0,1.38-.37c2.16-1.29,4-2.73,3.53-5.67V3Zm10.52,21.56c-.82-.34-2-1.19-2.41-.94a61.67,61.67,0,0,0-6.11,4.38,1.71,1.71,0,0,0,.41,1.32,9.05,9.05,0,0,0,8.83-3.6c.09-.25-.47-.78-.76-1.16Zm-61.88,68.41h0c1.76,5,3.42,9.89,4.89,14.9,1,3.29,1.53,6.7,2.25,10.08l.38,1.44a7.61,7.61,0,0,0,0-1.35c-1.1-6.26-2-12.52-3.48-18.77a22.62,22.62,0,0,0-4.13-6.26Zm-60.9-25.09-.25-.57a85.77,85.77,0,0,0-13.24-21,8.21,8.21,0,0,0-2.12-1.47,7.26,7.26,0,0,0,.65,2.38c1.63,2.44,3.35,4.82,5.1,7.17,3.35,4.32,6.48,8.57,9.61,12.86Zm30.48,3.44a34.89,34.89,0,0,0-.68,13.8c.53,2.88.72,5.82,1.06,8.7a14.84,14.84,0,0,0,.34,1.5,9.38,9.38,0,0,0,.19-1.41,66.89,66.89,0,0,0,0-8,27.21,27.21,0,0,1,3.73-19v0A4.76,4.76,0,0,0,2549.34,71.53Zm36.46,51.07-.28-.59A103.68,103.68,0,0,0,2579,96.13a6.7,6.7,0,0,0-1.28-1.66,6.56,6.56,0,0,0-.53,2.09,9.58,9.58,0,0,0,.66,3.67,83,83,0,0,1,4.28,14.64,40.81,40.81,0,0,0,3.41,7Zm-66.69-49.76h0c-2.34-4.07-4.5-8.26-7.1-12.14-3.19-4.79-6.76-9.3-10.2-13.9-.28-.4-.66-.72-1-1.09a4.4,4.4,0,0,0-.22,1.69,13.7,13.7,0,0,0,1.22,3.57A78.67,78.67,0,0,0,2514,67.15c1.85,1.75,3.41,3.78,5.13,5.69Zm78.93,35-3.85-28.16a11.11,11.11,0,0,1-.28-1.44c-.47.34-1.41.56-1.41,1a12.62,12.62,0,0,0-1.13,4.72,169.28,169.28,0,0,0,2.79,17.37,23,23,0,0,0,3.88,6.26Zm-41.34-28.1a74.63,74.63,0,0,1-.44-9.92,4.61,4.61,0,0,0-.31-1.1,4.57,4.57,0,0,0-1.19.69A16.4,16.4,0,0,0,2551.63,81c.22,4.72.47,9.42.47,14.11h0A21.47,21.47,0,0,0,2556.7,79.76Zm71.54,22.94c-5.76,1.53-11.42,3.5-17.12,5.29a7.57,7.57,0,0,0-1,.4,4.61,4.61,0,0,0,1,.54,21.29,21.29,0,0,0,15.65-.85c3.57-1.81,7.82-2.66,10.07-6.51h0A60,60,0,0,0,2628.24,102.7ZM2542,34.35a23.81,23.81,0,0,0-11-5c-1.22-.66-2-.44-2,1a8.26,8.26,0,0,0,1.47,3.63,63.71,63.71,0,0,0,17.15,18.78,33.32,33.32,0,0,0,13.21,5.45h0c-3.13-2.76-6.26-5.45-9.39-8.2-6.45-5.73-13-11.52-19.25-17.28a20.59,20.59,0,0,1-2.06-2.22,12.88,12.88,0,0,1,1-1.06c5.51,5.1,10.92,10.29,16.49,15.33,4.23,3.82,8.7,7.42,13,11.11C2557.11,46.49,2549.88,40.23,2542,34.35Zm26.57,7.48c2.6-7.07,5.29-14.12,7.73-21.28A35.72,35.72,0,0,1,2583.49,8a11.88,11.88,0,0,0,.81-1.19,3.72,3.72,0,0,0-1.41,0A15.16,15.16,0,0,0,2573,15.2,64.29,64.29,0,0,0,2569,35.54c-.16,2.16-.41,4.32-.41,6.48l-.31.53.28-.56Zm-6.76-9.92h-.16l-25-24.26a10.13,10.13,0,0,0-1.47-1.22,3.68,3.68,0,0,0-1-.22v1.1a1,1,0,0,0,.21.31c3.54,5.6,6.39,11.71,11.43,16.24a29,29,0,0,0,15.64,8.05ZM2534.7,3.33a6.36,6.36,0,0,0,.87,1.6c3.82,3.73,7.7,7.42,11.58,11.08q6.51,6.07,13,12.33a7.86,7.86,0,0,0,1.25.81,5,5,0,0,0,0-1.44c-4.31-10.2-10.23-18.77-20.49-23.4-1.41-.66-3.07-1.07-4.54-1.6Zm70,120a3.92,3.92,0,0,0-.85.41,7.77,7.77,0,0,0,1,.5,21,21,0,0,0,10.8,1.78c2-.19,4-.4,6.07-.72,4.29-.65,8.42-1.37,12.52-2.09a5.62,5.62,0,0,0,1.53-.88c-.56-.41-1.06-1.16-1.66-1.16-4.1-.62-8.16-1.16-11.29-1.59Zm-73.49-62.4a123.71,123.71,0,0,0-6.5-11.21,9.78,9.78,0,0,0-2-1.87,8.2,8.2,0,0,0,0,2.88,79.67,79.67,0,0,0,3.44,10.07c2.85,6.23,6,12.21,9.11,18.47a9.9,9.9,0,0,0,.56.87A5.48,5.48,0,0,0,2536,79v-4.6l.6-.22C2534.82,69.74,2533.29,65.27,2531.22,60.89Zm-12.33,21.69c.32-.13.5-.54.76-.79a4.69,4.69,0,0,0-1-.22c-8.89-.37-17.81-.68-26.7-1a3.14,3.14,0,0,0-.75,0L2489,81c.53.63.94,1.5,1.63,1.82A37.19,37.19,0,0,0,2510.16,86Zm79.75,20.56a3.64,3.64,0,0,0,.4.9c.19-.31.57-.62.57-.93.56-5.29,1.28-10.61,1.59-15.93a10.53,10.53,0,0,0-3.35-7.45,7.25,7.25,0,0,0-1.87-1.07,7,7,0,0,0-.22,2.13,7.49,7.49,0,0,0,0,1.16h.34C2597,89,2597.79,96.1,2598.64,103.14Zm-70.17-8.64c-3.85.84-8.14,1.47-12.11,2.66a32.34,32.34,0,0,0-6.92,3.91c-.5.31-.69,1.19-1,1.82a6.47,6.47,0,0,0,2.13.43,11.87,11.87,0,0,0,3.13-.93l16.65-7.67,1-.44h-1l-1.91.19Zm-38.18-16.71a5.63,5.63,0,0,0-1,.47,3.49,3.49,0,0,0,.9.28L2514.07,80a3.57,3.57,0,0,0,1.13,0,5.82,5.82,0,0,0,1.13-.6c-.32-.18-.6-.56-.94-.56-3.35-.72-6.67-1.56-10.08-2a55,55,0,0,0-8.14-.41Zm138,20.68a53.46,53.46,0,0,0-18.49,6.51,4.54,4.54,0,0,0-.79.79,3.28,3.28,0,0,0,1.22.31,37.46,37.46,0,0,0,3.7-.88l19.81-5.35a5.39,5.39,0,0,0,1-.41c-.35-.22-.69-.68-1.1-.68-2-.22-4-.47-5.38-.47Zm-95.79-1c.4-.34.53-1,.81-1.53a6.62,6.62,0,0,0-1.82.22l-18.77,8.41-.82.47a5.34,5.34,0,0,0,1.13,0l3.41-.31A29.52,29.52,0,0,0,2532.48,97.44Zm86.43-77.14a11.52,11.52,0,0,0,.29,2.34c.28.66.87,1.57,1.34,1.66s1.44-.59,1.69-1.15c1.19-2.54,2.16-5.14,3.13-7.73.06-.22-.34-.6-.56-.91-.13.31-.06.47-.41.84a1.46,1.46,0,0,1-1.16.38c-2.53-.94-3.66-.47-4.25,2a13.67,13.67,0,0,0-.22,2.47Zm30.33,15.43c.47-.47,1.16-.85,1.38-1.51a6.71,6.71,0,0,0,0-2.19l1.44.57c0-.22.28-.22,0-.6s-.82-.94-1-.94c-1.82.79-3.6,1.66-5.32,2.6-.07,0,.22,1.35.56,1.35a11.3,11.3,0,0,0,2.75.62ZM2611,17a4.77,4.77,0,0,0-1.54.82,3.81,3.81,0,0,0,.54,4.72c.15.13.94-.15.94-.34.28-1.25.4-2.51.56-3.66Zm4.72-12.86a3.71,3.71,0,0,0-.5-.47c-.06,0-.28.16-.28.16a1.94,1.94,0,0,0,0,.59l.6-.37Z"/><path d="M2536.39,165.32l.53-.5-1-.47v-.66c.78-1.37-2.19-2.53,0-4.13,1.56-1.12,2.41-.15,3.6.41a30.16,30.16,0,0,0,7.23,2.88c2.88.5,6.1-.5,8.82.28,5.26,1.5,10.83,1.69,15.65,5a43,43,0,0,0,24,7,117.3,117.3,0,0,1,21.19,2.81,20.21,20.21,0,0,1,15.08,11.3,80,80,0,0,1,7.3,26.73q.39,7.81,0,15.65c-.07,4.5-.69,5.22-5,5.22a106.83,106.83,0,0,1-13.37-1c-5.07-.66-10.23-1.31-15.33-1.82-.66-.06-1.79-.87-1.79-1.43-.59-4.89-1.12-9.77-1.44-14.68-.21-3.79-.84-5.26-4.19-5.54a61.22,61.22,0,0,1-20-6.54,75.72,75.72,0,0,0-26.16-6.89,46.21,46.21,0,0,1-28.17-12.2,19.61,19.61,0,0,0-4.28-3.13,12.27,12.27,0,0,1-7.61-9.39,8.09,8.09,0,0,0-1.34-3.13c-2.7-3.88-3.13-8.86-6.26-12.52-.82-.91-.25-3.38.22-5a3.12,3.12,0,0,1,2.81-1.23c5.1,1.54,10.49,2.73,12.93,8.45a25.33,25.33,0,0,0,2,3.13,24.53,24.53,0,0,0-1.44-7.82c-1.25-3.91.75-6.29,4.69-5.32a9,9,0,0,1,7,7.2c.63,2.41,1,5.26,4.1,6.26Zm41.09,22.5-.19.94,15.27,5.57c.41.19.88-.19,1.32.19a2.41,2.41,0,0,1,.84,1.5c0,.41-1.06.88-1.37,1s-.75-.53-1.16-.53c-3.35-1.13-6.64-2.44-10.05-3.32a13.49,13.49,0,0,1-7.41-4.6,19.41,19.41,0,0,0-9.39-6.26,25.43,25.43,0,0,1-4.29-1.84c-4.82-2.44-5-1.76-10.61-2.63s-11.3-.44-16.74-1.44a18.39,18.39,0,0,1-14.15-11.27,17.73,17.73,0,0,0-10.33-10.2,3.65,3.65,0,0,0-3.13.75c-.56.28-.43,1.88,0,2.5a81.49,81.49,0,0,1,7.2,15.65,16.14,16.14,0,0,0,7.95,8.36,71.63,71.63,0,0,0,23.85,7.85,89,89,0,0,1,24.53,9.58,144.06,144.06,0,0,0,21.91,9.39,40.14,40.14,0,0,0,15.3,2c.51-.06,1.13.94,1.69,1.44-.46.38-.9,1.1-1.37,1.1-2.07-.07-2.66.9-2.66,2.88V226c.06,5.64.28,5.82,5.82,6.73a115.69,115.69,0,0,0,21.59,1.63c3.66-.1,5-1.79,4.7-5.64a86.53,86.53,0,0,1-.6-9.38,74.36,74.36,0,0,0-6.41-27.73,18.78,18.78,0,0,0-16.21-12.11c-9.08-1.26-18.19-2.23-27.36-2.66a30.57,30.57,0,0,1-15.3-6.26c-3.47-2.35-7.61-2.47-11-4.6-.18-.16-1.4.75-1.65,1.37-.47,1.22-.16,3.1-.94,3.76-2.57,2.06-1.29,3.6.56,4.57a64.15,64.15,0,0,0,14.46,6.63,130.82,130.82,0,0,1,13.93,5Zm-40.22-14a1.34,1.34,0,0,0,.66-1.16,7.22,7.22,0,0,0-1.53-2.91,24.66,24.66,0,0,1-7.48-13.08,4.8,4.8,0,0,0-2.57-2.5,11,11,0,0,0-3.66-.32,11.72,11.72,0,0,0,0,3.13,59.2,59.2,0,0,0,4.91,12.24c1.88,3.44,3.95,5.29,7.61,4.66A8.87,8.87,0,0,0,2537.26,173.77Zm21.1,23.22c-5.57-3.82-11.49-3.72-16.9-5.29q-3.14-.81-6.32-1.31c-.38-.1-.82.34-1.26.34.16.28.22.82.44.82a48.51,48.51,0,0,0,24.13,5.44Zm-9-21.75a10,10,0,0,0,2-.19c.37-.09.65-.43,1-.65-.28-.35-.47-.85-.85-1-1.53-.84-3.13-1.4-4.66-2.41s-2.88-1.59-2-4.13-1.75-3.47-3.82-4.16a14.48,14.48,0,0,0-2.07-.37c0,.68-.28,1.47,0,2,1.6,2.69,3,5.38,4.73,7.92a5.2,5.2,0,0,0,5.79,2.88Zm-26.51-8.57.56-.44-.37-.38-.38.41Z"/></g><g id="Calque_2-2-3" data-name="Calque 2-2"><path d="M591.54,166.43a23.07,23.07,0,0,0-7.95-18.06,51.41,51.41,0,0,0-22.91-11.18,65.54,65.54,0,0,1-20.49-9.84,19,19,0,0,1-6.33-7.15A90.45,90.45,0,0,1,527,101.61a24.53,24.53,0,0,1,9.71-24A47.44,47.44,0,0,1,588,72.9a26.15,26.15,0,0,1,12.8,24.26,5.38,5.38,0,0,1-4.58,5.79,4.85,4.85,0,0,1-5.8-3.5,26.14,26.14,0,0,1-1.61-7.14,11.62,11.62,0,0,0-7.69-10,37.18,37.18,0,0,0-34.09,1.89,16.58,16.58,0,0,0-7.69,20.89,27,27,0,0,0,19.14,19.54c3.51,1.35,7.14,2.16,10.65,3.24A55.24,55.24,0,0,1,593,141.36a36.41,36.41,0,0,1,6.61,40.44,34.63,34.63,0,0,1-37.2,19.54c-4.45,0-8.76-1.08-13.48-2A37.34,37.34,0,0,1,525.5,182.6a20.08,20.08,0,0,1-2.69-8.89c0-2.43,1.34-4,3.77-5a5.27,5.27,0,0,1,5.8,2.16,8.38,8.38,0,0,1,1.07,1.89,29.24,29.24,0,0,0,28.17,17.38h7A23.44,23.44,0,0,0,591.54,166.43Z"/><path d="M405.28,131.26V79.5c0-6.33,2.83-9,9-9.16h46.5a20.87,20.87,0,0,1,5.8,0,5.53,5.53,0,0,1,0,10.78,21.68,21.68,0,0,1-6.61.67H420.38c-3,0-3.78,1.22-3.64,4V104.3c0,6.2-.94,13.48-1.08,19.14s0,6.06,5.8,5.79,14.69-1.21,22.1-1.61h15.5a5.93,5.93,0,0,1,6.45,5.36c0,.1,0,.2,0,.3a6.21,6.21,0,0,1-6.61,5.66l-37.6,2.15c-5.52,0-5.66,0-5.52,5.93,0,11.33,0,22.65.94,34,0,5,0,5.66,5.53,5.52,10.64,0,21.15-1.21,31.67-1.88,3.77,0,7.41-.68,11.05-.68a5.8,5.8,0,0,1,6.47,4.85c0,2.7-1.62,5-5.39,5.93l-3.64.81a368.37,368.37,0,0,1-50.14,2.16c-4.45,0-6.47-1.89-6.74-6.07s0-9.29,0-13.47V131.53Z"/><path d="M301.51,94.46c-.81,15.37-1.48,27-2.43,39.36a27.35,27.35,0,0,0,0,8.08,49.64,49.64,0,0,1,0,19.95c-1.48,7.82-1.61,15.23-1.88,22.51,0,3.5,1.88,3.64,4.85,3.64h44.34a21.35,21.35,0,0,1,5.79.8,4.72,4.72,0,0,1,3.78,5.5v0a5.26,5.26,0,0,1-4.45,5.12,54.13,54.13,0,0,1-6.74,0c-8.76,0-17.65-.94-26.95-.94s-14.29,1.08-21.43,1.35-8.49-1.76-9.71-9A84.35,84.35,0,0,1,288,157.94a58.08,58.08,0,0,0,0-15.36,284.29,284.29,0,0,1,1.08-30.33A118.78,118.78,0,0,0,288,78.42a17.06,17.06,0,0,1,0-5.79,4.59,4.59,0,0,1,3.91-4.45,9.18,9.18,0,0,1,5,2.16,6.33,6.33,0,0,1,2.15,3.91C299.89,82.06,300.83,89.88,301.51,94.46Z"/></g><g id="Calque_2-2-4" data-name="Calque 2-2"><path d="M1422.07,104.54V78.69a25.54,25.54,0,0,1,1-8.06,4.73,4.73,0,0,1,5.78-3.35l.06,0a4.86,4.86,0,0,1,4,5.14l.83,34.05c0,13.89,1.25,28.48,1.53,42.8s0,27.79,0,41.69a7.35,7.35,0,0,1-6.67,7.64c-3.75.7-5.28-2.08-6.67-4.58a282.88,282.88,0,0,0-20.15-32.66c-6.53-8.9-11.26-19-17.1-27.8-2.08-3.61-5-6.67-7.36-10.14-6-8.76-11.67-17.65-17.51-26.4a7,7,0,0,0-1.53-1.39s-1,1.11-1,1.66c0,10.56-1.11,21.13-1.25,31.69v62.12a27.64,27.64,0,0,1-1,5.84,5.28,5.28,0,0,1-10,0,12.08,12.08,0,0,1,0-5c0-7.64.83-15.28,1-22.93a105.36,105.36,0,0,0-.69-14.73V106.21c0-9.73.83-19.32,1.39-28.91a13.81,13.81,0,0,1,1.39-5.84,5.14,5.14,0,0,1,9-1.39,86.28,86.28,0,0,1,10.7,15.85,175.1,175.1,0,0,0,20.43,31.54c5,6.4,9,13.9,13.9,20.43l20,32.38,1,1.11a4.65,4.65,0,0,0,.69-1.8c0-11.26-.83-22.65-1-33.91s0-20.71,0-31.13Z"/><path d="M992.09,157.21v33.91c0,5.42-2.92,8.62-6.53,8.2s-6-3.48-5.28-8.34c2.64-22,0-43.92,1.25-65.73a199.57,199.57,0,0,0,0-34,68.69,68.69,0,0,1,0-13.9c0-5.42,2.36-6.67,7.64-6.81,8.06,0,16.26-1,24.32-1A165.77,165.77,0,0,1,1032,70.77a39.46,39.46,0,0,1,27.79,30.16,39.88,39.88,0,0,1-4,25.71,23.48,23.48,0,0,1-15,12.36l-3.47,1.26c-5,1.66-5.28,1.94-2.64,6.53,8.2,13.89,16.67,27.79,25,41.69a24,24,0,0,1,2.78,5.28,5,5,0,0,1-2.22,6.39,5.42,5.42,0,0,1-6.81-.83,13.75,13.75,0,0,1-2.78-3.48A430.91,430.91,0,0,1,1022,147.62a5.14,5.14,0,0,0-5.6-4.63l-.38,0H996c-6.11,0-4.72,0-4.86,5.15s0,6,0,8.89Zm1.25-42.8h-1.11v13.2c0,4.31,0,4,3.47,4h19.88a116.58,116.58,0,0,0,18.34-2.22,16.41,16.41,0,0,0,12.23-8.48,27.79,27.79,0,0,0-5.28-32.66,23.5,23.5,0,0,0-17.23-7.09h-22.1c-9.87,0-10.42,0-9.73,10.43v2.91C992.51,101.2,992.92,107.74,993.34,114.41Z"/><path d="M1121.89,113.57a87,87,0,0,0-2.64-29.32,11.76,11.76,0,0,1,0-2.22c-1.11-10.15,2-14.87,12.09-15.15A83.34,83.34,0,0,1,1178,74.52a33.39,33.39,0,0,1,14.74,16.54l5.28,14.59a6.11,6.11,0,0,1,0,2.09c0,8.06,3.89,15.42,3.89,23.2a80.62,80.62,0,0,1-4.73,36.28,48.91,48.91,0,0,1-45.16,29.32l-24.88.69a4.71,4.71,0,0,1-5.27-4.1v-.07a26.09,26.09,0,0,1-.83-8.75,105.14,105.14,0,0,0,0-26.41,148.12,148.12,0,0,1,0-19.31C1120.78,130.25,1121.47,121.63,1121.89,113.57Zm23.49-35.3h-11c-3.06,0-3.89,1.53-3.62,4.17s.84,3.34,1,5a158.26,158.26,0,0,1,1.94,16.12c0,7.08-.83,13.89-1,21.4v35.44a91.07,91.07,0,0,1,0,21.26c-.7,3.75,0,4.31,3.89,4,8.62,0,17.23,0,25.71-1.81a37.09,37.09,0,0,0,27.79-29.18,61.07,61.07,0,0,0-1.11-33.08,2.73,2.73,0,0,1,0-1.39,53,53,0,0,0-6.25-22.37A21.58,21.58,0,0,0,1171.09,84,43.68,43.68,0,0,0,1145.38,78.27Z"/><path d="M828.24,192.09l1.39-4c6.81-22.37,13.9-44.61,23.21-66.15,6.53-16,13.06-32,19.87-47.81,1.39-3.47,2.78-7.92,7.79-7.78s5.56,4.59,7,7.78a143.94,143.94,0,0,1,12.92,37.67,135.31,135.31,0,0,0,6.25,18.76c2.64,7.92,5.28,16,7.65,23.9,3.75,11.95,7.22,24,10.7,36a10.05,10.05,0,0,1,0,5.7,4.74,4.74,0,0,1-5,3.48,5.84,5.84,0,0,1-5.83-4.73c-1.67-6-3.2-12-4.73-17.79a38.52,38.52,0,0,0-1.25-4.31,31.23,31.23,0,0,0-3.33-9.45c-2.37-3.19-6,0-8.9,0H856.18c-6.95,0-7.09,0-9.31,6.54s-4.31,13.89-6.54,21.26A17.77,17.77,0,0,1,838,196.4a5,5,0,0,1-6.39,2.22C828.94,197.79,828,195.7,828.24,192.09ZM877,151.93h12.51c13.9,0,13.9,2.78,8.62-13.9a10.74,10.74,0,0,1,0-1.39,117.91,117.91,0,0,1-9.73-30.71A187.5,187.5,0,0,0,882.3,87l-1.53-1.53a10.68,10.68,0,0,0-1,1.67c-1.67,3.89-3.06,7.78-4.58,11.67l-18.63,43.5c-.83,1.95-1.11,4.17-1.94,6.25s0,3.34,2.78,3.34Z"/><path d="M1563.26,164.16c1.25-11.12-6.25-17.37-15.14-22.38a66.57,66.57,0,0,0-15.15-6.25,83.67,83.67,0,0,1-21.27-10.14,10.33,10.33,0,0,1-2.22-2c-13.9-19.18-17.23-42.53,10.29-54.06a46.85,46.85,0,0,1,33.35-1.53,27,27,0,0,1,20.15,27.38,6.12,6.12,0,0,1-4.86,6.53,5.56,5.56,0,0,1-6-4.45,41.06,41.06,0,0,1-1.11-5.83,13.9,13.9,0,0,0-10.15-11.54,38.93,38.93,0,0,0-28.76,1.39,35.57,35.57,0,0,0-9.18,7.23,10.38,10.38,0,0,0-2.91,6.67,27.78,27.78,0,0,0,10.83,23.07,59.7,59.7,0,0,0,18.9,7.92,60.92,60.92,0,0,1,25.85,15.15,35.7,35.7,0,0,1,4.87,41.69,33.78,33.78,0,0,1-36.13,17.51,117.68,117.68,0,0,1-17.24-3.34,36.13,36.13,0,0,1-19.73-16,19.21,19.21,0,0,1-2.64-6.81,5.41,5.41,0,0,1,4-6.25c2.92-1.11,4.72,0,6.25,2.5a8.55,8.55,0,0,1,1.11,1.95,28.76,28.76,0,0,0,25.85,16.81h7.37a22.79,22.79,0,0,0,23.62-25.29Z"/><path d="M768.76,158.18c1-13.89,2.23-26.4,2.78-39.74s0-24.18,0-36.14a62.8,62.8,0,0,1,0-8.89c0-4,3.2-6.25,6.26-5.7s4.86,3.2,4.86,7.09v31c0,5.42-.83,10.84-1.11,16.26,0,12.51-1.39,25-1.39,37.52A63.19,63.19,0,0,1,777,180.7a22,22,0,0,1-6,9,40.44,40.44,0,0,1-46.14,5.42A19.74,19.74,0,0,1,715,183.61a167.69,167.69,0,0,1-4.72-20.29,18.72,18.72,0,0,1,1.11-8.61,4.17,4.17,0,0,1,5-3.09l.12,0a8.51,8.51,0,0,1,4.73,4c.83,1.25,0,3.34,0,5,.69,4.31,1.25,8.76,2.22,12.93a17,17,0,0,0,16,13.9,34,34,0,0,0,18.76-1.95,16.68,16.68,0,0,0,10.7-15.43V158.18Z"/><path d="M1275.87,130v35.44a223.3,223.3,0,0,0,.83,23.62c0,5.42-1.8,8.2-5.28,8.48s-5.83-2.92-6.25-8.48c-1.81-22.65-1.11-45.3-1.39-67.95,0-6.4,1-12.79,1.11-19.18s0-9.87,0-14.73a59.33,59.33,0,0,0-1.11-13.9,5.41,5.41,0,0,1,4.31-6,5.27,5.27,0,0,1,6.25,3.89,25.87,25.87,0,0,1,1.67,7.92v50Z"/></g><g id="Calque_2-2-5" data-name="Calque 2-2"><path d="M1706,203h-14a4.88,4.88,0,0,1-5.44-3.91,31.66,31.66,0,0,1-.84-8.79,117.18,117.18,0,0,0,0-28.87,59.44,59.44,0,0,1,0-11.16c0-12.84,1.82-25.67,2.1-38.5a107.61,107.61,0,0,0-2.24-16.19c-.41-4.88-1.11-9.9-1.11-14.64a7.26,7.26,0,0,1,6.28-8,18.24,18.24,0,0,1,3.76-1.25,85.2,85.2,0,0,1,51.62,9.35,29.7,29.7,0,0,1,11.72,14.78,84.39,84.39,0,0,1,5.44,15.35,116.64,116.64,0,0,1,4,41.85,72.1,72.1,0,0,1-4.46,20.5,49.39,49.39,0,0,1-45.06,28.88H1706Zm5-119.27h-9.9c-5.58.14-5.86.69-5,6.13a115.91,115.91,0,0,1,2.37,18.28c0,9.62-1,19.39-1.26,28.88a259.66,259.66,0,0,0,0,27.9,83.83,83.83,0,0,1,0,23.57c0,2.65,0,3.49,3.07,3.63a117.66,117.66,0,0,0,27.9-2.23,37.94,37.94,0,0,0,27.76-34.46,46.1,46.1,0,0,1,0-8.79,27.93,27.93,0,0,0,0-13.95c-1.67-4.46-1.67-9.9-2.93-15.07a163,163,0,0,0-8.09-21.34,14,14,0,0,0-5.86-5.3A43.2,43.2,0,0,0,1711,83.72Z"/><path d="M1961.56,198.52c0,4.33-1.12,6.28-4,6.84a5.31,5.31,0,0,1-6.56-3.63c-1.81-5.58-3.2-11.3-4.74-17l-4.18-14a3.79,3.79,0,0,0-4.47-2.79c-14.79,1.4-29.85,1.4-43.8,1.4H1890c-3.35,0-4.88,1.25-5.72,4.32s-3.07,9.35-4.46,13.95-2.65,9.07-4.33,14a5.3,5.3,0,0,1-5.58,4,9,9,0,0,1-5.16-3.63,6.27,6.27,0,0,1,0-4.74,912.18,912.18,0,0,1,35.16-96.12c3.21-7.39,6.27-14.92,9.62-22.32,1.4-3.07,2.93-6.83,7.26-6.55s5.16,4,6.69,7.25a158.64,158.64,0,0,1,14,42.69c.7,3.07,1.82,6.14,2.79,9.21,3.21,9.48,6.14,19.25,9.77,28.73a302.43,302.43,0,0,1,10.46,34.74A27.35,27.35,0,0,1,1961.56,198.52Zm-48.69-40.87h11c15.21,0,15.49,0,9.07-14.79a24,24,0,0,1-1.54-3.34c-2.09-6.56-4.46-13-6.13-19.67a112,112,0,0,0-8.23-26.65,7.63,7.63,0,0,0-1.26-1.67,8,8,0,0,0-1.4,1.81c-2.37,5.86-4.6,11.86-7,17.86-5.3,13-10.6,25.94-15.76,39.06a14.27,14.27,0,0,0-1.26,3.49c0,3.2,0,3.9,3.07,4Z"/><path d="M2382,74.37h23.85c5.72,0,8.65,2.37,8.51,6.14s-3.2,5.86-8.78,5.86h-39.34c-6.28,0-6,0-5.86,6.13v32c0,10.6-1.12,10,9.9,9.49s19.81-1.26,29.72-1.82a21.23,21.23,0,0,1,5.85,0,5,5,0,0,1,4,5.44,4.76,4.76,0,0,1-3.63,5,10.48,10.48,0,0,1-3.62,0c-12.7,0-25.53,1.53-38.37,2.09-2.93,0-4.18,1.11-3.9,3.9h0v34.88c0,5.58,0,6.42,6.69,6.14,10.05,0,20.23-1.12,30.28-1.82,3.9,0,7.95-.83,11.85-.83s6.14,1.81,6.56,4.74-1.4,5.16-5.16,6.14a23.33,23.33,0,0,1-4.47.83,390,390,0,0,1-49.52,2.24c-5,0-6.83-1.68-7-6.7V86.79c0-13,0-14,13.95-14H2382Z"/><path d="M2217.12,141.47a52,52,0,0,1,0,8.09,62.63,62.63,0,0,0,5.16,30.41,23.88,23.88,0,0,0,14.79,12.84,47.28,47.28,0,0,0,29.15,0c5.45-1.68,7.4-7,9.63-11.58,1-2.1,1.4-4.33,2.23-6.28,1.82-4,3.91-5.58,6.56-5s5,3.07,4,7.53a31.51,31.51,0,0,1-26.36,27.9,67.51,67.51,0,0,1-23.72,0A33.15,33.15,0,0,1,2227,201a81.86,81.86,0,0,1-12.42-10.33,15.91,15.91,0,0,1-3.35-5.58,108,108,0,0,1-6.14-51c0-7.82,1.26-15.77,2.24-23.58a45.32,45.32,0,0,1,36-36.41,37.11,37.11,0,0,1,32.78,7.25,29.18,29.18,0,0,1,10.46,22,6.28,6.28,0,0,1-4.74,6.69,5.57,5.57,0,0,1-6-4.32,7,7,0,0,0-1-4.33,20.1,20.1,0,0,0-16-15.76,35,35,0,0,0-38.5,22.18,66.65,66.65,0,0,0-2.93,15.9v18.56Z"/><path d="M2028,100.46l-1.26,36.27v14a86.27,86.27,0,0,1-1.67,16.88,128.91,128.91,0,0,0-1.26,22c0,3.34,2.65,2.79,4.89,2.79h43.1a26.1,26.1,0,0,1,5.86,0c3.91.83,5.58,2.93,5.3,6a5.72,5.72,0,0,1-6,5.3h-56.36a5.72,5.72,0,0,1-6.41-4.89,48.91,48.91,0,0,1-2-17.43,167.78,167.78,0,0,1,3.35-25,7.6,7.6,0,0,0,0-4.33,65.37,65.37,0,0,1-.69-21.48c0-10.32,1.11-20.79,1.25-31.11,0-5.16-1.12-10.32-1.53-15.48a41.57,41.57,0,0,1,0-7.4,4.59,4.59,0,0,1,4.31-4.87,3.09,3.09,0,0,1,.43,0,5,5,0,0,1,5.58,2.65,20.84,20.84,0,0,1,2.09,6.28c.84,6.41,1.4,12.83,2.09,19.11Z"/><path d="M2145.84,98a675.9,675.9,0,0,0-1,75.05,159.67,159.67,0,0,0,1,21.48c1,7.53-2,8.79-5.58,8.93s-6.14-3.49-6.14-8.79V102.55a179.62,179.62,0,0,0-1.54-19.25,20.47,20.47,0,0,0,0-2.93c0-4.05,1.68-6.84,4.89-7.26a5.72,5.72,0,0,1,6.13,5.17C2144.86,85.67,2144.86,92,2145.84,98Z"/><path d="M1827.78,102.55v15.62a46.2,46.2,0,0,1,0,6,5.45,5.45,0,0,1-5.45,5,4.88,4.88,0,0,1-4.88-4.74c0-8.93-1-17.72-1.25-26.64V80.93a20.47,20.47,0,0,1,0-2.93,6.28,6.28,0,0,1,5-6.28,5.16,5.16,0,0,1,5.57,4.72s0,.11,0,.16a103.2,103.2,0,0,1,1.25,14.79,96.46,96.46,0,0,1,0,11Z"/></g></g></g></svg>