<svg xmlns="http://www.w3.org/2000/svg" viewBox="0 0 104.63 136.21"><defs><style>.cls-1{fill:#ce754e;}.cls-2{fill:#fff;}.cls-3{fill:none;stroke:#fff;stroke-miterlimit:10;}</style></defs><title>Fichier 2</title><g id="Calque_2" data-name="Calque 2"><g id="Calque_2-2" data-name="Calque 2"><path class="cls-1" d="M104.43,72.07C105.17,78,102.17,83,99,87.79,89.79,102,79.87,116,70.83,130.24c-4.44,7-23.61,8.32-31.78,1.4-6.18-5.23-10-11.52-14.52-17.48-6.72-8.78-12.81-17.83-19-26.85C-.86,77.91-2,68.49,3.66,58.82c9.37-16,18.05-32.18,28.75-47.6a25.29,25.29,0,0,1,42.11.13c11.6,16.91,20.4,34.86,28.65,52.9A12.59,12.59,0,0,1,104.43,72.07Z"/><path class="cls-2" d="M27.75,42.8l.42.4-1.85,2-2.12-2-.71-.67.4-.41,2.4,2.26Z"/><path class="cls-2" d="M32.66,39.51,31,40.76l-.46.35-.34-.46L29,39l-.41-.55L28.2,38l2.12-1.6.34.46L29,38.12l.66.86,1.45-1.1.34.46L30,39.44l.66.86,1.65-1.25Z"/><path class="cls-2" d="M36.21,37.39a1,1,0,0,1-.29.06l-.28,0a1.76,1.76,0,0,1-.23,0H35.2l-.07,0h-.05l.1-.53h.13l.22,0h.28a1.72,1.72,0,0,0,.28-.08l.16-.07.14-.09a.41.41,0,0,0,.14-.12.4.4,0,0,0,.12-.16.34.34,0,0,0,.06-.12l0-.14a.53.53,0,0,0,0-.13.43.43,0,0,0,0-.13.73.73,0,0,0-.08-.09.41.41,0,0,0-.11-.07l-.12-.05h-.15l-.18,0-.23,0-.2,0-.19,0-.2,0H35a1.27,1.27,0,0,1-.28,0,1.14,1.14,0,0,1-.26-.09,1,1,0,0,1-.21-.14.58.58,0,0,1-.18-.2.9.9,0,0,1-.12-.24,1.09,1.09,0,0,1,0-.26,1.31,1.31,0,0,1,0-.28,1,1,0,0,1,.09-.28l0-.08,0-.09.08-.1.09-.1a.81.81,0,0,1,.14-.12l.17-.11.12-.05.12,0a1.65,1.65,0,0,1,.42-.08,2.46,2.46,0,0,1,.53,0l-.07.52h-.41a1.81,1.81,0,0,0-.23,0,1,1,0,0,0-.22.08.46.46,0,0,0-.2.13.55.55,0,0,0-.14.22.78.78,0,0,0,0,.14.76.76,0,0,0,0,.15.3.3,0,0,0,0,.13.27.27,0,0,0,.06.12.34.34,0,0,0,.08.09l.11.08.13,0a.38.38,0,0,0,.15,0h.15l.18,0,.36-.05.14,0H36l.12,0h.1a.92.92,0,0,1,.29,0,1.14,1.14,0,0,1,.26.09l.23.15a1.18,1.18,0,0,1,.17.22v0a1.17,1.17,0,0,1,.09.24.8.8,0,0,1,0,.27,1.26,1.26,0,0,1,0,.27,1.05,1.05,0,0,1-.13.26,1.27,1.27,0,0,1-.13.19l-.15.15a1,1,0,0,1-.16.12l-.16.1A1.78,1.78,0,0,1,36.21,37.39Z"/><path class="cls-2" d="M45,34.12a1.14,1.14,0,0,1-.33,0l-.26-.1-.22-.1.11-.22.17-.29.16.08.18.07a.71.71,0,0,0,.21,0,1.36,1.36,0,0,0,.27,0,1.07,1.07,0,0,0,.27-.09.47.47,0,0,0,.17-.14,1.4,1.4,0,0,0,.09-.17.48.48,0,0,0,0-.17v-.18s0-.06,0-.08,0-.05,0-.07l-.51-2.51.56-.11.51,2.51a1.73,1.73,0,0,1,0,.55,1.4,1.4,0,0,1-.18.48,1.17,1.17,0,0,1-.35.35,1.5,1.5,0,0,1-.5.2A2.08,2.08,0,0,1,45,34.12Z"/><path class="cls-2" d="M52.36,32.39l-.77-.06-1.07-.08-.17.46c-.07.2-.15.41-.24.64h-.56L51,29.43h0l.63,0h0l1.7,3.83h-.57Zm-.21-.49-.35-.79L51.32,30l-.63,1.74Z"/><path class="cls-2" d="M59.23,33.55l-.19.14-.28.2c-.61-.87-1-1.46-1.23-1.74l-.48-.07-.2,1.44-.57-.08.27-1.93.27-1.92,1.57.22a1.41,1.41,0,0,1,.45.15,1.18,1.18,0,0,1,.34.33,1,1,0,0,1,.22.43,1.23,1.23,0,0,1,0,.47,1.25,1.25,0,0,1-.12.4,1.64,1.64,0,0,1-.26.33,1.2,1.2,0,0,1-.35.22,1,1,0,0,1-.4.09Zm-1.1-1.91a.65.65,0,0,0,.24,0,1,1,0,0,0,.23-.11.75.75,0,0,0,.17-.19.63.63,0,0,0,.08-.23.67.67,0,0,0,0-.25.57.57,0,0,0-.12-.23.85.85,0,0,0-.17-.16.68.68,0,0,0-.25-.09l-1-.14-.18,1.27h0Z"/><path class="cls-2" d="M65.7,34.53a1.56,1.56,0,0,1-.56.46,1.82,1.82,0,0,1-.72.18,2.25,2.25,0,0,1-.79-.13l-1.3-.43L63,32.76l.61-1.84,1.3.43.27.11a1.88,1.88,0,0,1,.24.14l.22.16.19.19a1.67,1.67,0,0,1,.25.4,1.72,1.72,0,0,1,.14.47,1.6,1.6,0,0,1,0,.49,2.64,2.64,0,0,1-.11.53A1.92,1.92,0,0,1,65.7,34.53Zm-.07-1.44a1.13,1.13,0,0,0-.12-.51,1.17,1.17,0,0,0-.32-.41,1.55,1.55,0,0,0-.51-.27l-.75-.25-.87,2.6.76.25a1.91,1.91,0,0,0,.44.09,1.14,1.14,0,0,0,.37,0,1.43,1.43,0,0,0,.31-.12,1.64,1.64,0,0,0,.26-.2,1.31,1.31,0,0,0,.11-.12L65.4,34a.8.8,0,0,0,.08-.16.77.77,0,0,0,.07-.16A1.61,1.61,0,0,0,65.63,33.09Z"/><path class="cls-2" d="M70.11,33.52l.51.26-1.77,3.46L68.34,37l1.11-2.16Z"/><path class="cls-2" d="M76.71,37.68l-2.27,3.14L74,40.49q0-1.18.06-2.07l0-1.48-1.72,2.38L71.91,39l1.71-2.36.57-.78.45.33c0,.79,0,1.48-.06,2.07s0,1.08,0,1.48l1.72-2.38Z"/><path class="cls-2" d="M77.58,43.71a.82.82,0,0,1-.14-.26l-.11-.25a1.23,1.23,0,0,1-.06-.22,1,1,0,0,1,0-.11s0-.07,0-.1a.2.2,0,0,1,0-.07.13.13,0,0,0,0-.06l.54,0,0,.13,0,.21a1.22,1.22,0,0,0,.09.27,1.28,1.28,0,0,0,.15.25.74.74,0,0,0,.12.13l.12.11.16.1a.48.48,0,0,0,.18.07l.14,0h.14l.13,0a.35.35,0,0,0,.1-.08l.07-.11a.42.42,0,0,0,0-.12.57.57,0,0,0,0-.13.32.32,0,0,0,0-.14l-.07-.17-.1-.21L79,42.68c0-.06-.06-.12-.08-.18l-.08-.18-.06-.18a1.31,1.31,0,0,1-.06-.27,1.14,1.14,0,0,1,0-.27,1,1,0,0,1,.07-.25.88.88,0,0,1,.14-.23.86.86,0,0,1,.2-.18.9.9,0,0,1,.24-.12,1.18,1.18,0,0,1,.27-.06.94.94,0,0,1,.29,0H80l.1,0,.12.05.13,0,.15.1.15.14.08.09.09.11a1.81,1.81,0,0,1,.2.37,3.33,3.33,0,0,1,.12.52l-.52.09,0-.18a.61.61,0,0,0,0-.11l0-.11a1.36,1.36,0,0,0-.1-.21l-.13-.2a.58.58,0,0,0-.19-.15.82.82,0,0,0-.25-.07h-.15a.32.32,0,0,0-.14,0,.27.27,0,0,0-.12.06.39.39,0,0,0-.1.08.75.75,0,0,0-.07.12s0,.08,0,.12a.66.66,0,0,0,0,.14.89.89,0,0,0,0,.14l0,.15.07.16.15.33a.49.49,0,0,1,.06.13l.06.11s0,.07,0,.11a.36.36,0,0,1,0,.09.94.94,0,0,1,.06.29.89.89,0,0,1,0,.28,1.14,1.14,0,0,1-.09.26.57.57,0,0,1-.16.22l0,0a.83.83,0,0,1-.21.16.85.85,0,0,1-.24.09.9.9,0,0,1-.28,0,1.26,1.26,0,0,1-.28,0l-.22-.08a1,1,0,0,1-.18-.1l-.17-.11L77.78,44A2.43,2.43,0,0,1,77.58,43.71Z"/><path class="cls-2" d="M39.17,103.78a1.61,1.61,0,0,1-.58.39,1.7,1.7,0,0,1-.7.12,2.38,2.38,0,0,1-.74-.19l-1.2-.51.73-1.71.73-1.7,1.21.51.25.13a1.37,1.37,0,0,1,.21.15,1.62,1.62,0,0,1,.19.17,1.54,1.54,0,0,1,.17.19,1.71,1.71,0,0,1,.21.4,2.21,2.21,0,0,1,.1.46,1.49,1.49,0,0,1,0,.47,2.48,2.48,0,0,1-.15.49A2.21,2.21,0,0,1,39.17,103.78Zm0-1.38a1.15,1.15,0,0,0-.07-.49,1.34,1.34,0,0,0-.28-.42,1.39,1.39,0,0,0-.46-.29l-.7-.3-1,2.4.7.3a3.15,3.15,0,0,0,.41.13h.36a1.12,1.12,0,0,0,.31-.1,1.32,1.32,0,0,0,.25-.16.34.34,0,0,0,.12-.12.64.64,0,0,0,.1-.13l.09-.14.08-.15A1.76,1.76,0,0,0,39.21,102.4Z"/><path class="cls-2" d="M42.92,103.37l-.36-.35.78-.77.35.35Z"/><path class="cls-2" d="M48.4,106.24l-.72-.18-1-.25-.24.4c-.09.18-.2.37-.32.56l-.53-.07,2-3.47h0l.6.08h0l1,3.87-.54-.07C48.53,106.73,48.45,106.43,48.4,106.24Zm-.12-.49-.2-.8-.27-1.1-.88,1.54Z"/><path class="cls-2" d="M55.16,106.71l0,.55-2.58.06-.08-2.77,0-.93.55,0,.08,3.16Z"/><path class="cls-2" d="M58.1,103.19l.54-.09.6,3.65-.54.09-.37-2.28Z"/><path class="cls-2" d="M65.86,104.42a2.33,2.33,0,0,1-.2.34,1.86,1.86,0,0,1-.27.29,1.66,1.66,0,0,1-.71.41,1.11,1.11,0,0,1-.26.07l-.27,0h-.26a1.19,1.19,0,0,1-.26-.05,2.11,2.11,0,0,1-.44-.17,2.63,2.63,0,0,1-.4-.28,1.85,1.85,0,0,1-.31-.37,2.17,2.17,0,0,1-.22-.46c0-.09,0-.18-.06-.26a2.48,2.48,0,0,1,0-.27,2.28,2.28,0,0,1,0-.27c0-.08,0-.16,0-.25a1.77,1.77,0,0,1,.18-.45,2.14,2.14,0,0,1,.28-.39,1.4,1.4,0,0,1,.37-.32,1.85,1.85,0,0,1,.45-.21,1.72,1.72,0,0,1,.38-.08,1.61,1.61,0,0,1,.38,0,1.36,1.36,0,0,1,.36.06,2,2,0,0,1,.34.14l-.21.53a1.28,1.28,0,0,0-.24-.11,1.31,1.31,0,0,0-.27-.06H64a1.4,1.4,0,0,0-.28.06,1.24,1.24,0,0,0-.33.15,1.78,1.78,0,0,0-.26.22,1.73,1.73,0,0,0-.19.28,1.27,1.27,0,0,0-.13.32,1.13,1.13,0,0,0,0,.18,1.15,1.15,0,0,0,0,.18c0,.07,0,.13,0,.2a1.21,1.21,0,0,0,.05.18.75.75,0,0,0,.07.18,1,1,0,0,0,.1.17l.11.15.13.12a1.26,1.26,0,0,0,.28.19,1.21,1.21,0,0,0,.32.11,1,1,0,0,0,.35,0,1,1,0,0,0,.35-.06,1.11,1.11,0,0,0,.27-.12,1.08,1.08,0,0,0,.24-.18,1.3,1.3,0,0,0,.19-.22,1.23,1.23,0,0,0,.14-.25Z"/><path class="cls-2" d="M71.7,102.37l-1.76.91-.49.25L69.2,103l-.9-1.74-.3-.58-.26-.49L70,99.07l.25.49-1.76.91.48.91,1.54-.79.25.49-1.54.79.47.92,1.76-.91Z"/><circle class="cls-3" cx="86.35" cy="71.51" r="1.76"/><circle class="cls-3" cx="20.8" cy="71.51" r="1.76"/><path class="cls-2" d="M53.38,57.12c0,.28-.15.38-.41.19a6.66,6.66,0,0,1-2.34-2.76q-1.05-2.61-2-5.27a1.88,1.88,0,0,1,.07-1.19c.22-.6.51-.69,1.14-.49a4,4,0,0,1,2.73,2.25,14,14,0,0,1,1,4.14c.07.59.15,1.18.22,1.77a.76.76,0,0,0,.09.18s0-.11,0-.17c.08-.44.18-.87.25-1.31a10.31,10.31,0,0,1,5.32-7.74,3.09,3.09,0,0,1,1.19-.35.9.9,0,0,1,.93,1.25,16,16,0,0,1-2.82,4.32A8.48,8.48,0,0,1,55.33,54a1,1,0,0,0-.78.75,31.84,31.84,0,0,0-.61,5.68.52.52,0,0,0,.08.19c.06-.07.12-.13.17-.2.52-.94,1-1.9,1.58-2.8a13.42,13.42,0,0,1,5.28-4.83,4.77,4.77,0,0,1,1.18-.37c.59-.11.86.15.76.74a2.18,2.18,0,0,1-.33.82,15,15,0,0,1-3.95,4.57,15.16,15.16,0,0,1-3.11,1.51c-1,.35-1.47.73-1.62,1.72a20.87,20.87,0,0,0-.06,6.92A39.91,39.91,0,0,1,54.28,74c.06,1.39,0,2.8.07,4.19a2.45,2.45,0,0,0,0,.27,2.92,2.92,0,0,0,.14-.31c.66-1.63,1.29-3.27,2-4.88.3-.71.69-1.39,1.06-2.07a2.09,2.09,0,0,0-.13-2.49,5.93,5.93,0,0,1-1.33-4.59,11,11,0,0,0,0-1.52c0-.42.09-.84.57-1a1.13,1.13,0,0,1,1.24.27,2.05,2.05,0,0,1,.62,1,18,18,0,0,1,.24,3.1c0,1.13-.26,2.25-.39,3.37a1.07,1.07,0,0,0,0,.25,1.49,1.49,0,0,0,.2-.15c.59-.64,1.16-1.28,1.76-1.9A2.21,2.21,0,0,0,61,65.66a9.22,9.22,0,0,1,1.15-5.94c.51-.77.89-1.62,1.33-2.43.24-.44.63-.92,1.1-.69a1.76,1.76,0,0,1,.61,1.18,2.7,2.7,0,0,1-.19,1.4c-.74,1.72-1.54,3.42-2.33,5.11-.34.73-.72,1.44-1.09,2.16h0c.7-.5,1.39-1,2.1-1.51a1.43,1.43,0,0,0,.73-1.15A9.3,9.3,0,0,1,66,59.38c.6-1,1.22-1.9,1.89-2.81a2.51,2.51,0,0,1,1.06-.75.58.58,0,0,1,.82.64,2.89,2.89,0,0,1-.3,1.27,18.83,18.83,0,0,1-3,4.21,16.57,16.57,0,0,0-1.34,1.78.91.91,0,0,0-.08.41,1.85,1.85,0,0,0,.41,0,35.89,35.89,0,0,1,3.92-.81,9.87,9.87,0,0,1,2.9.29c.85.18.94.6.4,1.25a1.85,1.85,0,0,1-.61.51,10.07,10.07,0,0,1-4,1,7.05,7.05,0,0,1-3.1-1,1,1,0,0,0-1.22,0l-1.8,1.31h0c-.19.15-.4.27-.57.43a1.82,1.82,0,0,0-.24.43,1.47,1.47,0,0,0,.49.12,13.63,13.63,0,0,1,4.41.55,6.67,6.67,0,0,1,2.13,1.24,1.12,1.12,0,0,1,.34.92c0,.42-.5.28-.81.33a6.76,6.76,0,0,1-5-1.18,10.31,10.31,0,0,1-1.24-1.15c-.63-.61-.86-.6-1.47,0a16.54,16.54,0,0,0-3.15,5.06,42.73,42.73,0,0,0-2.17,5.84,36,36,0,0,0-1,9.48c0,1.61,0,3.22.12,4.82a24.12,24.12,0,0,0,.4,2.38.94.94,0,0,1-.1.38c-.08-.11-.22-.21-.24-.33a24.66,24.66,0,0,1-.55-3.7c0-2.49.05-5,.13-7.49a3.8,3.8,0,0,0-.55-2,36.31,36.31,0,0,0-3.6-5.52,10,10,0,0,1-.77-1.49C48,75,47.89,75,47.1,75.34a8.75,8.75,0,0,1-5.36,1c-.38-.08-.75-.18-1.13-.23s-1-.13-1.49-.18c-.21,0-.42,0-.62,0-.66-.16-.81-.64-.35-1.11a1.87,1.87,0,0,1,.73-.5,12.32,12.32,0,0,1,2.76-.66,9,9,0,0,1,4.21.61,7.08,7.08,0,0,0,1.36.4c.3.07.51-.06.28-.37-.51-.7-1.06-1.37-1.61-2-.23-.29-.51-.29-.87-.14a6.72,6.72,0,0,1-6.4-.54c-.51-.31-1.18-.69-1.06-1.31s.88-.68,1.47-.82a5,5,0,0,1,2.72.29,10.67,10.67,0,0,1,4.53,2.42c.06.06.14.1.21.16a1.15,1.15,0,0,0,0-.31c-.22-1.2-.46-2.4-.67-3.6a4,4,0,0,1,.6-3.24,2.64,2.64,0,0,1,.34-.41c.83-.76,1.63-.51,1.92.58a2.23,2.23,0,0,1,0,.36A12.1,12.1,0,0,1,48,70.8a3,3,0,0,1-.71,1A.93.93,0,0,0,47.17,73c.54.92,1.13,1.83,1.7,2.73,0,.07.13.1.2.15a1.13,1.13,0,0,0,.08-.24,6.66,6.66,0,0,0,.13-1.33,12.64,12.64,0,0,1,.59-4.58,5.13,5.13,0,0,1,1.05-1.82c.43-.53,1-.37,1.19.3a3,3,0,0,1,0,1.31c-.28,1.24-.64,2.47-.94,3.71a6.12,6.12,0,0,1-1.29,2.52c-.55.66-.56.78-.1,1.51.89,1.41,1.81,2.8,2.7,4.21.31.47.56,1,.84,1.47a1.64,1.64,0,0,0,.21.25c0-.11.06-.22.07-.33a79.92,79.92,0,0,0,.3-8.48,34.13,34.13,0,0,0-.29-5.16,18.22,18.22,0,0,0-.71-3.13,18,18,0,0,0-6.22-8.75,3.24,3.24,0,0,0-.32-.17h0l-1.89-1.39h0a8.78,8.78,0,0,0-.77-.73c-.19-.14-.56-.34-.66-.27a1,1,0,0,0-.38,1,17.52,17.52,0,0,1,.06,2.29.58.58,0,0,1-.16.41,1.13,1.13,0,0,1-.63.36c-.17,0-.42-.22-.51-.41a1.76,1.76,0,0,1,0-1.55c.29-.59.58-1.18.89-1.76.21-.41,0-.45-.33-.41a1.88,1.88,0,0,0-1.34,1.42,3.35,3.35,0,0,1-1,2.48c-.25.24-.53.56-.93.27a.81.81,0,0,1-.26-1,5,5,0,0,1,1.67-2.16c.24-.18.48-.36.7-.55a.9.9,0,0,0,.16-.29c-.1,0-.2-.15-.29-.14a12.06,12.06,0,0,0-1.34.09.61.61,0,0,0-.33.23c-.06.06,0,.19-.09.25a6.53,6.53,0,0,0-1.44,3.17,1.4,1.4,0,0,1-.55.78,1,1,0,0,1-.79.18.67.67,0,0,1-.35-.9,2.56,2.56,0,0,1,.42-.78,10.45,10.45,0,0,1,.81-.82l.14-.06-.13.07c-.32,0-.64,0-1-.06-1.1-.16-1.26-.6-.56-1.48l.19-.17.19-.17.14-.06-.13.07-.2.16-.18.17a9.48,9.48,0,0,1-1.59.09c-.61-.06-1.12-.62-1.06-1a1.27,1.27,0,0,1,1.38-.74,3.13,3.13,0,0,1,1,.43,2.48,2.48,0,0,0,2,.45c.49-.1,1-.08,1.51-.14a1.3,1.3,0,0,0,.41-.23c-.17-.13-.39-.41-.5-.37-1.28.45-2.33-.13-3.37-.71-.25-.14-.56-.49-.54-.72,0-.42.46-.6.87-.62a2.83,2.83,0,0,1,2,.53,15.43,15.43,0,0,1,1.65,1.48,1.52,1.52,0,0,0,1.34.55c.64-.07,1.3-.09,2-.13l0,0,0,0a6.05,6.05,0,0,1-1.09-.91,6.42,6.42,0,0,0-2.31-1.44c-.16-.08-.41,0-.6,0a18.94,18.94,0,0,1-2-.5.75.75,0,0,1-.55-1,.71.71,0,0,1,1.06-.33c.67.36,1.32.79,2,1.2.3.18.57.4.86.6l-.3-.93a1.35,1.35,0,0,1-.11-.34,2.15,2.15,0,0,0-1.21-1.73,2.75,2.75,0,0,1-.77-1,.64.64,0,0,1,.17-.88.68.68,0,0,1,1-.07,3.7,3.7,0,0,1,.77,1c.18.38.25.8.77.84a.24.24,0,0,1,.15.09l.78.54c0-.37.1-.75.14-1.13a4.6,4.6,0,0,1,.14-1.13c.24-.6.77-.63,1.18-.12a1.36,1.36,0,0,1,0,1.59,2.21,2.21,0,0,1-.58.67.76.76,0,0,0-.31,1.07,2,2,0,0,1-.09,1.89.62.62,0,0,0,.19.93c.37.26.79.48,1.18.72a10.64,10.64,0,0,0,.08-1.38c-.06-.74-.2-1.47-.27-2.2a.8.8,0,0,1,.11-.6,1.49,1.49,0,0,1,.75-.51c.39-.06.58.31.61.65a3.13,3.13,0,0,1-.54,2.29,1.61,1.61,0,0,0-.16.51c.18-.08.4-.11.51-.25a6.19,6.19,0,0,0,.47-.74,12,12,0,0,1,1-1.36.75.75,0,0,1,1.11-.19c.42.32.31.72.09,1.12A3.28,3.28,0,0,1,44.48,53c-.41.08-.77.17-.85.63A1.12,1.12,0,0,0,44,54.87c.87.62,1.69,1.32,2.55,2a17.43,17.43,0,0,1,5.81,7.11c.21.46.47.89.71,1.33.09-.45.21-.9.26-1.36.11-1.27.21-2.55.29-3.82a14.75,14.75,0,0,0,0-1.88,5.34,5.34,0,0,0-.27-1.08c-.69-1.84-1.35-3.69-2.1-5.5a17.72,17.72,0,0,0-1.4-2.56,3.11,3.11,0,0,0-.84-.66,4.42,4.42,0,0,0,.11,1.1c.4,1.15.91,2.27,1.26,3.43A6.88,6.88,0,0,0,53.38,57.12Zm-13.15-7.5.19,0,0,0,0,0-.16-.19-.08-.23-.09.06.17.16v.19l0,0Zm-4,6.38-.17-.19,0-.36a2.6,2.6,0,0,1,.57.52c.33.59.36.65.94.31a2.79,2.79,0,0,0,.79-.7c.31-.42.16-.73-.35-.66a15.28,15.28,0,0,0-1.95.54,3.89,3.89,0,0,0-.53.46.38.38,0,0,0,0,.37c.07.1.25.11.38.16a1.11,1.11,0,0,1,0-.36.79.79,0,0,1,.18-.28Zm3.46,2-.19.16-.6.34s.1.1.11.09l.48-.43.19-.17,0,0Zm-6.08-3.1h0l-.17-.19-.09-.13.1.13Zm5.57,2.7h0l0,.35-.14.1.15-.09.19-.35c.11,0,.22-.14.32-.14.74,0,.5-.57.6-.94,0-.08-.06-.19-.1-.29a3.49,3.49,0,0,0-.7.62,2,2,0,0,0-.12.75A.2.2,0,0,1,39.18,57.63Zm-2.61-6.8,0-.37.55,0,.15.37a1,1,0,0,0,1.22.59c.05,0,.11-.17.1-.17a3,3,0,0,0-.71-.48c-.17-.07-.41,0-.62.06l-.15-.37-.53,0,0,.35.14.06Zm25,14.54.21-.52c.72-1.36,1.51-2.69,2.13-4.09a5.72,5.72,0,0,0,.8-2.8c0-.11,0-.22,0-.34a1.44,1.44,0,0,0-.13.32,20.1,20.1,0,0,1-1.78,4.35c-.4.82-.66,1.71-1,2.56l-.21.53-.08.13Zm-26.41-13h.27l0-.09-.24.1,0,.14Zm4.31,22,.72-.13c1.12.11,2.24.21,3.35.35.83.09,1.64.24,2.46.35a1,1,0,0,0,.3,0l-.23-.13a8.22,8.22,0,0,0-5.87-.52l-.73.12-.14.07Zm2.69-16.5-.16-.19c.5-.39.65-.81.42-1.25,0-.06-.23-.11-.23-.1a5.56,5.56,0,0,0-.44,1c0,.09.16.26.24.39l.18.19c0,.3-.07.5-.41.52l-.07-.14.08.13c.17.32.35.3.46,0C42.33,58.18,42.24,58,42.21,57.83Zm3.71-7.29c.36.35-.1.36-.22.52a3.25,3.25,0,0,0-.62.54,3.48,3.48,0,0,0-.35.81s.07.11.09.1c.42-.14.84-.27.94-.81,0-.08.29-.08.37-.17a1.18,1.18,0,0,0,.11-.43c0-.24.28-.66-.32-.56Zm-2.1-.86h0c-.08,0-.22-.09-.23-.07a2.41,2.41,0,0,0-.22.42s.14.09.21.14a1,1,0,0,1,0-.35C43.63,49.75,43.75,49.72,43.82,49.68ZM41.76,48.3,41.7,48s0,0,0,.06a1.57,1.57,0,0,0,.09.23,1.45,1.45,0,0,0,0,.36,1.78,1.78,0,0,0,.14.36l.49-.48a3.24,3.24,0,0,0-.36-.2A.77.77,0,0,0,41.76,48.3ZM36.24,58.51l.53.22h0v-.66l.37.32h0l.24-1.09a10.87,10.87,0,0,0-.91.74,1.38,1.38,0,0,0-.23.47c0,.2,0,.4,0,.59l.07,0c0-.17-.08-.35-.11-.53C36.23,58.57,36.24,58.54,36.24,58.51Zm1.8-11,0-.05,0,0c-.1.69.36,1,.87,1.3a1.07,1.07,0,0,0,.32.07.63.63,0,0,0,.06-.32c-.1-.33-.24-.66-.36-1l-.36,0ZM36.28,52.6c-.06.09-.19.22-.16.28a2.12,2.12,0,0,0,2.08.77c.06,0,.12-.28.08-.31a14.08,14.08,0,0,0-1.45-1c-.11-.06-.37.14-.56.23ZM51.22,68.11a5.43,5.43,0,0,0-.91,1.49c-.31,1.45-.46,2.93-.67,4.4a1.08,1.08,0,0,0,0,.31c0-.11.05-.23.08-.34.14-.79.24-1.59.45-2.36.3-1.18.68-2.34,1-3.51l0,0Zm14-6.44c.72-1,1.44-2,2.15-3.07.39-.56.78-1.13,1.14-1.71a2,2,0,0,0,.14-.56,2.07,2.07,0,0,0-.49.36,19.83,19.83,0,0,0-2.93,5l-.06.14ZM57,61.85l0,0,0,0a6.43,6.43,0,0,1,1,4.4,14.48,14.48,0,0,0,0,1.86,1.91,1.91,0,0,0,.06.33c0-.12,0-.23.06-.35.06-.68.09-1.36.19-2a8.29,8.29,0,0,0-.24-3.25A1.11,1.11,0,0,0,57,61.85Zm-6.95,13a9.52,9.52,0,0,0,.75-1.67,19.32,19.32,0,0,1,.89-3.44,2.32,2.32,0,0,0,.13-.88,1.46,1.46,0,0,0-.14-.48,2.07,2.07,0,0,0-.29.39,24.39,24.39,0,0,0-1.33,6.08L50,75ZM65.19,62.92c.38-.46.74-1,1.15-1.37a17.6,17.6,0,0,0,2.72-3.86,2.65,2.65,0,0,0,.26-.84.91.91,0,0,0-.06-.39l-.22.26c-.76,1.1-1.56,2.18-2.27,3.31-.58.93-1.06,1.93-1.58,2.89l0,0ZM47.05,71.6a6,6,0,0,0,.86-1.52A39.71,39.71,0,0,0,48.43,66a2.83,2.83,0,0,0-.3-1.1c0-.1-.22-.15-.33-.22,0,.12,0,.23-.06.34l-.69,6.57Zm10.62-3.26h0c0-1.1,0-2.2,0-3.3a3.84,3.84,0,0,0-.84-2.67c-.06-.07-.19-.1-.28-.15a1.22,1.22,0,0,0-.06.26c0,.77,0,1.55,0,2.32A5,5,0,0,0,57.67,68.34ZM38,70.47h0c.55.89,1.55,1.05,2.4,1.45A5,5,0,0,0,44,72a1,1,0,0,0,.22-.14L44,71.77c-1.34-.37-2.67-.78-4-1.11A14.87,14.87,0,0,0,38,70.47ZM55.39,59.23c1-.9,2-1.77,3-2.69,1.26-1.21,2.48-2.46,3.72-3.69.09.08.26.23.26.24a4,4,0,0,1-.47.53l-4.36,4.17c-.71.67-1.43,1.32-2.15,2h0a7.74,7.74,0,0,0,3.06-1.36,14.73,14.73,0,0,0,3.86-4.49,1.75,1.75,0,0,0,.28-.82c0-.35-.19-.39-.47-.23a5.49,5.49,0,0,0-2.53,1.25,11.6,11.6,0,0,0-4.17,5.12Zm-1.94-3.18.07.13-.08-.13c0-.5-.09-1-.13-1.51a15.15,15.15,0,0,0-1.1-4.67A3.56,3.56,0,0,0,49.85,48a1,1,0,0,0-.33,0c.07.09.13.19.2.27a8.29,8.29,0,0,1,1.78,2.87C52.12,52.8,52.8,54.42,53.45,56.05ZM55,53.64a6.72,6.72,0,0,0,3.61-2,16.26,16.26,0,0,0,2.55-3.86.35.35,0,0,0,0-.08,2.09,2.09,0,0,0,0-.25c-.07,0-.16,0-.22,0a3.17,3.17,0,0,0-.34.3L55,53.65l0,0Zm5.64-7c-.34.13-.71.24-1,.41A9.61,9.61,0,0,0,55,52.7,1,1,0,0,0,55,53a1.79,1.79,0,0,0,.28-.2c1-1,2-2,2.95-3l2.62-2.67a1.93,1.93,0,0,0,.19-.38ZM41.37,74.55c-.71.12-1.67.28-2.62.46-.14,0-.25.18-.38.28a1.44,1.44,0,0,0,.37.19l2.89.4c.48.06.95.09,1.42.13a5.07,5.07,0,0,0,2.51-.5l.22-.12a.66.66,0,0,0-.19-.09ZM61.13,63.36l.15,0,0,1.07a2.27,2.27,0,0,0,.06.25c0-.07.09-.13.13-.21.66-1.45,1.36-2.89,2-4.37a19.16,19.16,0,0,0,.74-2.37,1.91,1.91,0,0,0,0-.67,2.52,2.52,0,0,0-.47.45c-.49.88-1,1.74-1.43,2.66S61.51,62.31,61.13,63.36Zm6.26,2.55A8.51,8.51,0,0,0,71.91,65c.16-.08.25-.28.37-.43a4.59,4.59,0,0,0-.51-.1,1.09,1.09,0,0,0-.18,0L65.38,65a1,1,0,0,0-.23.06c.06.06.11.15.18.17Zm-20.08-.32h.09a2.44,2.44,0,0,0,0-.27c0-.16,0-.33-.06-.49a1.41,1.41,0,0,0-.43.26,2.46,2.46,0,0,0-.76,1.76c.12,1.24.32,2.47.49,3.7,0,.08.09.14.14.21a.78.78,0,0,0,.09-.21C47,68.91,47.17,67.25,47.31,65.59ZM63.17,68l-.45,0-.23,0,.25.09,3.93,1.67a2.9,2.9,0,0,0,.77.19,1.56,1.56,0,0,0,.5-.11c-.08-.15-.13-.35-.25-.42a7,7,0,0,0-1.64-.86C65.08,68.32,64.07,68.2,63.17,68Zm7.16-4.44c-.61,0-1.26,0-1.9.15s-1.55.36-2.33.55a.7.7,0,0,0-.21.14,1.05,1.05,0,0,0,.26.13.61.61,0,0,0,.27,0l5.56-.5a.9.9,0,0,0,.21-.08,2.44,2.44,0,0,0-.24-.1ZM39.94,69.68c-.32,0-.79.08-1.26.15-.09,0-.16.11-.25.17l.24.09,4.66,1.1c.29.07.58.14.87.18a.8.8,0,0,0,.28-.08,1.07,1.07,0,0,0-.19-.18A12.39,12.39,0,0,0,39.94,69.68ZM66,70.33l.8,0,.26,0-.2-.11-4.44-1.82a1.16,1.16,0,0,0-.42,0,1,1,0,0,0,.2.35A6.85,6.85,0,0,0,66,70.33ZM41.55,51.39a4.1,4.1,0,0,0-.06-.57c-.16-.57-.43-.67-1-.44-.07,0-.2,0-.27-.08s-.08-.12-.11-.19-.14.16-.12.21c.24.6.49,1.2.76,1.78.07.13.3.29.4.26s.24-.24.31-.4A3.7,3.7,0,0,0,41.55,51.39ZM34.6,55.21a2.84,2.84,0,0,0,.63-.17c.08,0,.14-.31.12-.32-.41-.2-.83-.4-1.25-.57,0,0-.16.14-.22.23s0,.09,0,.14l.33-.14a1.44,1.44,0,0,0,0,.51C34.32,55,34.48,55.1,34.6,55.21ZM43.22,51c0,.27.08.56.15.85a.27.27,0,0,0,.23.07.89.89,0,0,0,.09-1.1,1.41,1.41,0,0,0-.37-.18Zm-1-3.35.15.08a.57.57,0,0,0,0-.13s-.06-.05-.07,0A.73.73,0,0,0,42.17,47.61Z"/><path class="cls-1" d="M65.93,88.36s-1.09-1.08-1.41-1-2.24,1.21-2.24,1.21l.5-1.14.44-1s-1.41.1-1.58.43h0l-.59-.77-1.79-.64a2.75,2.75,0,0,1-1,.23,13.24,13.24,0,0,1-.54-2.9v-1l-.91.38a11.13,11.13,0,0,0-.53,1.42c-.05.3,0,1.83,0,1.83a3.67,3.67,0,0,1-1.72.13c-.94-.15-3-.55-3.86-1.49A15.45,15.45,0,0,0,47,81.83a7.6,7.6,0,0,0-3,.41,10.5,10.5,0,0,1-3.59.78,25.83,25.83,0,0,1-2.72-.34,6,6,0,0,0-1.05,3.11,8.82,8.82,0,0,0,1.26,3.55s2.66-1.38,4.4-.9,9.68,4,9.68,4a18.88,18.88,0,0,0,3.5,0,35.93,35.93,0,0,1,4.86,0l4.9-3.29Z"/><path class="cls-2" d="M36.57,84.6a6,6,0,0,1,.78-1.81c.27-.42.27-.41.75-.28a11.64,11.64,0,0,0,4.16.13,3.37,3.37,0,0,0,.77-.27l1.44-.57a4.14,4.14,0,0,1,2.19-.27,5.5,5.5,0,0,1,1.75.68,27.06,27.06,0,0,1,2.92,2,5.27,5.27,0,0,0,3.24,1.13,6.77,6.77,0,0,1,1,.07c.32,0,.4-.12.41-.38,0-.63.06-1.26.08-1.89a2,2,0,0,1,1.7-1.82c.2,0,.28.1.27.3,0,.53-.09,1.08-.07,1.61s.12,1.26.2,1.88c0,.2,0,.46.38.43s.47-.09.49-.41.09-.9.07-1.35a8,8,0,0,1,.2-2.54,1.47,1.47,0,0,1,1.08-1.11c.48-.11.68,0,.68.53s-.06.77,0,1.15c.09,1,.21,2,.32,3a.59.59,0,0,1,0,.13l.09-.1A3.37,3.37,0,0,0,62,83.37c0-.44.11-.89.19-1.33a2.37,2.37,0,0,1,1.44-1.76,1.12,1.12,0,0,1,.26-.08c.33-.07.48,0,.45.37,0,.7-.13,1.39-.17,2.09a14.44,14.44,0,0,0-.06,1.61,3.11,3.11,0,0,1-.36,1.42c-.37.82-.79,1.62-1.18,2.43a.8.8,0,0,0,0,.21l.18-.07c.88-.56,1.77-1.1,2.63-1.68a2.52,2.52,0,0,1,2.75-.06c.52.27.52.48,0,.81l-2.69,1.94c-1.4,1-2.81,2-4.21,3a2.49,2.49,0,0,1-1.52.47c-1.28,0-2.56-.06-3.84,0-.79,0-1.57.1-2.36.16a4.12,4.12,0,0,1-2.09-.4Q48.75,91.15,46,90c-1.06-.44-2.15-.79-3.24-1.15a4.2,4.2,0,0,0-2.28,0,7.66,7.66,0,0,0-2.23.77.37.37,0,0,1-.6-.16,6.84,6.84,0,0,1-1.15-3.07A14.69,14.69,0,0,1,36.57,84.6Zm21,3.68c-.47,0-.94,0-1.41,0H54.18a1,1,0,0,0-.17,0s0,.1.05.12c.43.29.85.59,1.29.86a.52.52,0,0,0,.44,0c.58-.32,1.15-.67,1.73-1l0,0Zm-20.47-3.7c-.05.5-.11.88-.11,1.26a6.11,6.11,0,0,0,1,3.12c.1.18.21.13.33.09.38-.15.74-.33,1.13-.45a5.86,5.86,0,0,1,3.39-.23c.76.23,1.51.46,2.24.76,2.07.86,4.16,1.71,6.19,2.67a5.14,5.14,0,0,0,2.8.51c.85-.09,1.7-.11,2.56-.12,1,0,2.07,0,3.1,0a2,2,0,0,0,1.26-.39c1.66-1.17,3.33-2.32,5-3.49l1.59-1.14a1.65,1.65,0,0,0,.22-.24c-.1-.08-.18-.21-.3-.24a2.08,2.08,0,0,0-1.82.2,45.54,45.54,0,0,1-4.34,2.63,3.38,3.38,0,0,1-1.91.57c-.83,0-1.67,0-2.49-.07a3.69,3.69,0,0,1-2.28-.7c-.22-.19-.51-.31-.71-.51a1.19,1.19,0,0,0-1.43-.26l-.32.11c-.6.18-1.2.37-1.81.54-.16,0-.38.12-.44-.14s.14-.24.29-.29c.56-.18,1.11-.37,1.68-.53a10.65,10.65,0,0,1,3-.52c1.73,0,3.46,0,5.19-.09a5.66,5.66,0,0,0,1.5-.36c.27-.08.29-.27.11-.47a1.58,1.58,0,0,0-.31-.26,3.85,3.85,0,0,0-2-.62c-1.55-.08-3.1-.13-4.65-.19a5.86,5.86,0,0,1-3.92-1.42l-.16-.13a18.22,18.22,0,0,0-2.9-1.84,3.46,3.46,0,0,0-2.56-.28c-.47.14-.94.31-1.41.48a8,8,0,0,1-1.52.51,10.88,10.88,0,0,1-4.1-.11c-.23,0-.39,0-.48.2C37.45,83.69,37.23,84.18,37.06,84.58Zm26.55.25c0-.19,0-.32,0-.46.06-1.16.13-2.33.19-3.5v-.13a.53.53,0,0,0-.19.06,2.12,2.12,0,0,0-1.09,1.9,5.15,5.15,0,0,1-.77,2.55,1.58,1.58,0,0,0-.32.73c0,.15.29.31.45.46l.09.1a.72.72,0,0,1-.2,1.19A2.11,2.11,0,0,1,61,88a1.77,1.77,0,0,0-1.26.68,4,4,0,0,1-.27.31l-.56.62a6.33,6.33,0,0,0,.87,0,3.17,3.17,0,0,0,.83-.25c.21-.08.39-.24.6-.32a1.26,1.26,0,0,0,.75-.73c.42-.89.86-1.78,1.28-2.67C63.35,85.4,63.49,85.09,63.61,84.83Zm-3.38.82c.88.21.75.2.71-.61,0-.18,0-.35-.07-.53l-.3-3.22c0-.2,0-.41,0-.61s-.05-.15-.16-.1a1.05,1.05,0,0,0-.66.8c-.07.65-.12,1.3-.16,2,0,.44,0,.9,0,1.34C59.48,85.48,59.46,85.47,60.23,85.65Zm-3.61-.21.86,0c.24,0,.26-.11.24-.29-.08-.64-.16-1.29-.22-1.93a9.57,9.57,0,0,1,0-1.07c0-.23-.09-.29-.28-.18a1.06,1.06,0,0,0-.59.85c-.07.78-.13,1.55-.18,2.34C56.44,85.28,56.57,85.37,56.62,85.44Zm2.89,2.82s-.08-.07-.11-.07c-.41.08-.85-.07-1.23.2s-1,.66-1.52,1a1.66,1.66,0,0,0-.14.13.71.71,0,0,0,.18.08,5.58,5.58,0,0,0,1,0,1.23,1.23,0,0,0,.65-.28,11.4,11.4,0,0,0,.89-.81Z"/><path class="cls-1" d="M57.53,88.28c-.47,0-.94,0-1.41,0H54.18a1,1,0,0,0-.17,0s0,.1.05.12c.43.29.85.59,1.29.86a.52.52,0,0,0,.44,0c.58-.32,1.15-.67,1.73-1l0,0Z"/><path class="cls-1" d="M63.61,84.83c0-.19,0-.32,0-.46.06-1.16.13-2.33.19-3.5v-.13a.53.53,0,0,0-.19.06,2.12,2.12,0,0,0-1.09,1.9,5.15,5.15,0,0,1-.77,2.55,1.58,1.58,0,0,0-.32.73c0,.15.29.31.45.46l.09.1a.72.72,0,0,1-.2,1.19A2.11,2.11,0,0,1,61,88a1.77,1.77,0,0,0-1.26.68,4,4,0,0,1-.27.31l-.56.62a6.33,6.33,0,0,0,.87,0,3.17,3.17,0,0,0,.83-.25c.21-.08.39-.24.6-.32a1.26,1.26,0,0,0,.75-.73c.42-.89.86-1.78,1.28-2.67C63.35,85.4,63.49,85.09,63.61,84.83Z"/><path class="cls-1" d="M60.23,85.65c.88.21.75.2.71-.61,0-.18,0-.35-.07-.53l-.3-3.22c0-.2,0-.41,0-.61s-.05-.15-.16-.1a1.05,1.05,0,0,0-.66.8c-.07.65-.12,1.3-.16,2,0,.44,0,.9,0,1.34C59.48,85.48,59.46,85.47,60.23,85.65Z"/><path class="cls-1" d="M56.62,85.44l.86,0c.24,0,.26-.11.24-.29-.08-.64-.16-1.29-.22-1.93a9.57,9.57,0,0,1,0-1.07c0-.23-.09-.29-.28-.18a1.06,1.06,0,0,0-.59.85c-.07.78-.13,1.55-.18,2.34C56.44,85.28,56.57,85.37,56.62,85.44Z"/><path class="cls-1" d="M59.51,88.26s-.08-.07-.11-.07c-.41.08-.85-.07-1.23.2s-1,.66-1.52,1a1.66,1.66,0,0,0-.14.13.71.71,0,0,0,.18.08,5.58,5.58,0,0,0,1,0,1.23,1.23,0,0,0,.65-.28,11.4,11.4,0,0,0,.89-.81Z"/><path class="cls-2" d="M48.12,42.77c.14-.57-.41-1.3.39-1.72l.24,1.7,0,0-.58,0Z"/><path class="cls-2" d="M48.13,43.38c-.58-.12-1.31.41-1.73-.39l1.72-.22h0v.61Z"/><path class="cls-2" d="M48.75,42.75l1.71.24c-.41.82-1.15.23-1.71.42l0,0V42.8Z"/><path class="cls-2" d="M48.75,43.41l-.24,1.69c-.79-.43-.26-1.15-.38-1.72h0l.59,0Z"/><path class="cls-2" d="M76.1,75.91a9.2,9.2,0,0,1,0,1c0,.1-.08.3-.23.3s-.18-.21-.25-.32,0-.92,0-.92-1.25,0-1.22-.29c.12,0-.11-.16,0-.17s.79,0,1,0,.2,0,.3,0l.29.07c.09.09.33.14,0,.25Z"/><path class="cls-2" d="M76.15,75.56a.65.65,0,0,1,.14,0l.95.21c0,.08-.06.25-.08.25l-1.06-.11h0a2.17,2.17,0,0,1,0-.25Z"/><path class="cls-2" d="M75.77,75.58a6.3,6.3,0,0,1-.1-.86c0-.08.15-.17.23-.25s.18.12.19.2c0,.29,0,.59.06.89l-.09.09a1.07,1.07,0,0,1-.25,0Z"/><path class="cls-2" d="M33,64.57a9.2,9.2,0,0,1,0,1.05c0,.1-.08.3-.23.3s-.18-.21-.25-.32,0-.92,0-.92-1.25,0-1.22-.29c.11,0-.11-.16,0-.17s.79,0,1,0h.3l.29.07c.09.09.33.14,0,.25Z"/><path class="cls-2" d="M33,64.22a.65.65,0,0,1,.14,0l1,.21c0,.08-.06.25-.08.25L33,64.57h0a2.17,2.17,0,0,1,0-.25Z"/><path class="cls-2" d="M32.63,64.24a6.3,6.3,0,0,1-.1-.86c0-.08.15-.17.23-.25s.18.12.19.2c0,.29,0,.59.06.89l-.09.09a1.07,1.07,0,0,1-.25,0Z"/></g></g></svg>