<svg xmlns="http://www.w3.org/2000/svg" viewBox="0 0 52.4 9.65"><title>Fichier 11</title><g id="Calque_2" data-name="Calque 2"><g id="Calque_2-2" data-name="Calque 2"><path d="M1.54,9.41h-1a.35.35,0,0,1-.39-.28A2.24,2.24,0,0,1,.09,8.5a8.43,8.43,0,0,0,0-2.07,4.25,4.25,0,0,1,0-.8c0-.92.13-1.84.15-2.76A7.71,7.71,0,0,0,.08,1.71C.05,1.36,0,1,0,.66A.52.52,0,0,1,.45.09,1.28,1.28,0,0,1,.72,0a6.11,6.11,0,0,1,3.7.67,2.13,2.13,0,0,1,.84,1.06,6,6,0,0,1,.39,1.1,8.37,8.37,0,0,1,.29,3A5.17,5.17,0,0,1,5.62,7.3,3.54,3.54,0,0,1,2.39,9.37c-.28,0-.56,0-.85,0ZM1.9.86c-.29,0-.5,0-.71,0C.79.87.77.91.83,1.3A8.24,8.24,0,0,1,1,2.61C1,3.3.93,4,.91,4.68a18.49,18.49,0,0,0,0,2,6,6,0,0,1,0,1.69c0,.19,0,.25.22.26a8.44,8.44,0,0,0,2-.16A2.72,2.72,0,0,0,5.12,6a3.28,3.28,0,0,1,0-.63,2,2,0,0,0,0-1C5,4.05,5,3.66,4.91,3.29a11.74,11.74,0,0,0-.58-1.53,1,1,0,0,0-.42-.38A3.1,3.1,0,0,0,1.9.86Z"/><path d="M19.86,9.09c0,.31-.08.45-.29.49a.38.38,0,0,1-.47-.26c-.13-.4-.23-.81-.34-1.22l-.3-1a.27.27,0,0,0-.32-.2C17.08,7,16,7,15,7h-.27c-.24,0-.35.09-.41.31s-.22.67-.32,1-.19.65-.31,1a.38.38,0,0,1-.4.29.65.65,0,0,1-.37-.26.45.45,0,0,1,0-.34,65.27,65.27,0,0,1,2.52-6.89c.23-.53.45-1.07.69-1.6.1-.22.21-.49.52-.47s.37.29.48.52a11.39,11.39,0,0,1,1,3.06c.05.22.13.44.2.66.23.68.44,1.38.7,2.06a21.61,21.61,0,0,1,.75,2.49C19.81,8.91,19.84,9,19.86,9.09ZM16.37,6.16h.79c1.09,0,1.11,0,.65-1.06a1.75,1.75,0,0,1-.11-.24c-.15-.47-.32-.93-.44-1.41a8,8,0,0,0-.59-1.91.54.54,0,0,0-.09-.12.57.57,0,0,0-.1.13c-.17.42-.33.85-.5,1.28-.38.93-.76,1.86-1.13,2.8a1.06,1.06,0,0,0-.09.25c0,.23,0,.28.22.29Z"/><path d="M50,.19c.57,0,1.14,0,1.71,0,.41,0,.62.17.61.44s-.23.42-.63.42c-.94,0-1.88,0-2.82,0-.45,0-.43,0-.42.44,0,.77,0,1.53,0,2.29s-.08.72.71.68,1.42-.09,2.13-.13a1.49,1.49,0,0,1,.42,0,.36.36,0,0,1,.29.39.34.34,0,0,1-.26.36.75.75,0,0,1-.26,0c-.91,0-1.83.11-2.75.15-.21,0-.3.08-.28.28v0c0,.84,0,1.67,0,2.5,0,.4,0,.46.48.44.72,0,1.45-.08,2.17-.13.28,0,.57-.06.85-.06s.44.13.47.34-.1.37-.37.44a1.65,1.65,0,0,1-.32.06,28,28,0,0,1-3.55.16c-.36,0-.49-.12-.5-.48,0-.64,0-1.28,0-1.92,0-.23,0-.46,0-.68,0-.07,0-.14,0-.21,0-.92,0-1.84,0-2.76,0-.71,0-1.42,0-2.13,0-.93,0-1,1-1H50Z"/><path d="M38.18,5a3.72,3.72,0,0,1,0,.58,4.49,4.49,0,0,0,.37,2.18,1.71,1.71,0,0,0,1.06.92,3.39,3.39,0,0,0,2.09,0c.39-.12.53-.5.69-.83.07-.15.1-.31.16-.45.13-.29.28-.4.47-.36s.36.22.29.54a2.26,2.26,0,0,1-1.89,2,4.85,4.85,0,0,1-1.7,0,2.37,2.37,0,0,1-.83-.31A5.86,5.86,0,0,1,38,8.53a1.15,1.15,0,0,1-.24-.4,7.74,7.74,0,0,1-.44-3.66c0-.56.09-1.13.16-1.69A3.25,3.25,0,0,1,40.06.17a2.66,2.66,0,0,1,2.35.52,2.09,2.09,0,0,1,.75,1.58.45.45,0,0,1-.34.48.4.4,0,0,1-.43-.31c0-.1,0-.21-.07-.31A1.44,1.44,0,0,0,41.17,1a2.51,2.51,0,0,0-2.76,1.59,4.78,4.78,0,0,0-.21,1.14c0,.44,0,.89,0,1.33Z"/><path d="M24.62,2.06l-.09,2.6c0,.34,0,.67,0,1a6.21,6.21,0,0,1-.12,1.21,9.25,9.25,0,0,0-.09,1.58c0,.24.19.2.35.2l3.09,0a1.93,1.93,0,0,1,.42,0c.28.06.4.21.38.43a.41.41,0,0,1-.43.38c-.21,0-.43,0-.64,0l-2.23,0-1.17,0a.41.41,0,0,1-.46-.35,3.51,3.51,0,0,1-.14-1.25,12,12,0,0,1,.24-1.79.55.55,0,0,0,0-.31,4.69,4.69,0,0,1-.05-1.54c0-.74.08-1.49.09-2.23,0-.37-.08-.74-.11-1.11a3.09,3.09,0,0,1,0-.53A.33.33,0,0,1,24,0a.36.36,0,0,1,.4.19,1.49,1.49,0,0,1,.15.45c.06.46.1.92.15,1.37Z"/><path d="M33.07,1.88A48.51,48.51,0,0,0,33,7.26c0,.52,0,1,.07,1.54s-.14.63-.4.64-.44-.25-.44-.63c0-1.07,0-2.13,0-3.2s0-2.27,0-3.4A12.79,12.79,0,0,0,32.12.83a1.52,1.52,0,0,0,0-.21c0-.29.12-.49.35-.52a.41.41,0,0,1,.44.37C33,1,33,1.45,33.07,1.88Z"/><path d="M10.27,2.21V3.33a3.09,3.09,0,0,1,0,.43.39.39,0,0,1-.39.36.35.35,0,0,1-.35-.34c0-.64-.07-1.27-.09-1.91,0-.4,0-.81,0-1.21a1.48,1.48,0,0,1,0-.21A.45.45,0,0,1,9.8,0a.37.37,0,0,1,.4.35,7.45,7.45,0,0,1,.09,1.06,7,7,0,0,1,0,.79Z"/></g></g></svg>