<svg xmlns="http://www.w3.org/2000/svg" viewBox="0 0 23.54 9.96"><title>Fichier 9</title><g id="Calque_2" data-name="Calque 2"><g id="Calque_2-2" data-name="Calque 2"><path d="M22.7,7.34A1.71,1.71,0,0,0,22.11,6a3.82,3.82,0,0,0-1.7-.83,4.86,4.86,0,0,1-1.52-.73,1.41,1.41,0,0,1-.47-.53,6.72,6.72,0,0,1-.51-1.38A1.82,1.82,0,0,1,18.63.75,3.52,3.52,0,0,1,22.44.4a1.94,1.94,0,0,1,.95,1.8.4.4,0,0,1-.34.43.36.36,0,0,1-.43-.26,1.94,1.94,0,0,1-.12-.53.86.86,0,0,0-.57-.74,2.76,2.76,0,0,0-2.53.14,1.23,1.23,0,0,0-.57,1.55,2,2,0,0,0,1.42,1.45c.26.1.53.16.79.24a4.1,4.1,0,0,1,1.77,1,2.7,2.7,0,0,1,.49,3,2.57,2.57,0,0,1-2.76,1.45c-.33,0-.65-.08-1-.15a2.77,2.77,0,0,1-1.74-1.24,1.5,1.5,0,0,1-.2-.66c0-.18.1-.3.28-.37a.39.39,0,0,1,.43.16.64.64,0,0,1,.08.14A2.17,2.17,0,0,0,20.48,9.1H21A1.74,1.74,0,0,0,22.7,7.34Z"/><path d="M8.88,4.73c0-1.28,0-2.56,0-3.84,0-.47.21-.67.67-.68H13a1.57,1.57,0,0,1,.43,0,.41.41,0,0,1,0,.8,1.63,1.63,0,0,1-.49.05H10c-.22,0-.28.09-.27.3,0,.45,0,.91,0,1.37s-.07,1-.08,1.42,0,.45.43.43,1.09-.09,1.64-.12c.38,0,.77,0,1.15,0a.44.44,0,0,1,.48.42.46.46,0,0,1-.49.42l-2.79.16c-.41,0-.42,0-.41.44,0,.84,0,1.68.07,2.52,0,.37,0,.42.41.41.79,0,1.57-.09,2.35-.14.28,0,.55-.05.82-.05a.43.43,0,0,1,.48.36c0,.2-.12.37-.4.44l-.27.06a27.24,27.24,0,0,1-3.72.16c-.33,0-.48-.14-.5-.45s0-.69,0-1c0-1.15,0-2.3,0-3.46Z"/><path d="M1.18,2C1.12,3.14,1.07,4,1,4.92a2,2,0,0,0,0,.6A3.7,3.7,0,0,1,1,7C.89,7.58.88,8.13.86,8.67c0,.26.14.27.36.27,1.09,0,2.19,0,3.29,0A1.61,1.61,0,0,1,4.94,9a.35.35,0,0,1,.28.41.39.39,0,0,1-.33.38,4.17,4.17,0,0,1-.5,0c-.65,0-1.31-.07-2-.07s-1.06.08-1.59.1S.17,9.69.08,9.15a6.25,6.25,0,0,1,.1-2.44,4.34,4.34,0,0,0,0-1.14A21.18,21.18,0,0,1,.26,3.32,8.81,8.81,0,0,0,.18.81a1.25,1.25,0,0,1,0-.43A.34.34,0,0,1,.47.05.68.68,0,0,1,.84.21.47.47,0,0,1,1,.5C1.06,1.08,1.13,1.66,1.18,2Z"/></g></g></svg>