<svg xmlns="http://www.w3.org/2000/svg" viewBox="0 0 62.24 9.67"><title>Fichier 10</title><g id="Calque_2" data-name="Calque 2"><g id="Calque_2-2" data-name="Calque 2"><path d="M51.22,2.77c0-.62,0-1.24,0-1.86a1.85,1.85,0,0,1,.07-.58.34.34,0,0,1,.42-.24A.35.35,0,0,1,52,.46l.06,2.45c0,1,.09,2.05.11,3.08s0,2,0,3a.53.53,0,0,1-.48.55c-.27.05-.38-.15-.48-.33a20.34,20.34,0,0,0-1.45-2.35c-.47-.64-.81-1.37-1.23-2-.15-.26-.36-.48-.53-.73-.43-.63-.84-1.27-1.26-1.9a.52.52,0,0,0-.11-.1s-.07.08-.07.12c0,.76-.08,1.52-.09,2.28,0,1.49,0,3,0,4.47a2,2,0,0,1-.07.42.38.38,0,0,1-.72,0,.87.87,0,0,1,0-.36c0-.55.06-1.1.07-1.65,0-.35,0-.71-.05-1.06,0-1.16,0-2.31,0-3.46,0-.7.06-1.39.1-2.08A1,1,0,0,1,45.9.39a.37.37,0,0,1,.65-.1,6.17,6.17,0,0,1,.77,1.14A12.6,12.6,0,0,0,48.79,3.7c.36.46.65,1,1,1.47L51.23,7.5l.07.08a.35.35,0,0,0,.05-.13c0-.81-.06-1.63-.07-2.44s0-1.49,0-2.24Z"/><path d="M20.28,6.56c0,.74,0,1.49,0,2.23V9c0,.39-.21.62-.47.59s-.43-.25-.38-.6c.19-1.58,0-3.16.09-4.73a14.32,14.32,0,0,0,0-2.45,4.91,4.91,0,0,1,0-1c0-.39.17-.48.55-.49.58,0,1.17-.07,1.75-.07a11.88,11.88,0,0,1,1.33.09,2.84,2.84,0,0,1,2,2.17,2.87,2.87,0,0,1-.29,1.85,1.69,1.69,0,0,1-1.08.89l-.25.09c-.36.12-.38.14-.19.47.59,1,1.2,2,1.8,3a1.72,1.72,0,0,1,.2.38.36.36,0,0,1-.16.46.39.39,0,0,1-.49-.06,1,1,0,0,1-.2-.25,31.06,31.06,0,0,1-2.06-3.47A.37.37,0,0,0,22,5.54c-.48,0-1,0-1.44,0s-.34,0-.35.37,0,.43,0,.64Zm.09-3.08h-.08c0,.32,0,.64,0,.95s0,.29.25.29c.48,0,1,0,1.43,0a8.35,8.35,0,0,0,1.32-.16,1.18,1.18,0,0,0,.88-.61,2,2,0,0,0-.38-2.35,1.69,1.69,0,0,0-1.24-.51c-.53,0-1.06,0-1.59,0-.71,0-.75,0-.7.75,0,.07,0,.14,0,.21C20.31,2.53,20.34,3,20.37,3.48Z"/><path d="M29.62,3.42a6.26,6.26,0,0,0-.19-2.11.88.88,0,0,1,0-.16c-.08-.73.14-1.07.87-1.09a6,6,0,0,1,3.36.55A2.4,2.4,0,0,1,34.72,1.8l.38,1.05a.44.44,0,0,1,0,.15c0,.58.28,1.11.28,1.67a5.8,5.8,0,0,1-.34,2.61,3.52,3.52,0,0,1-3.25,2.11L30,9.44a.34.34,0,0,1-.38-.3,1.9,1.9,0,0,1-.06-.63,7.55,7.55,0,0,0,0-1.9,10.75,10.75,0,0,1,0-1.39C29.54,4.62,29.59,4,29.62,3.42ZM31.31.88h-.79c-.22,0-.28.11-.26.3s.06.24.07.36a11.47,11.47,0,0,1,.14,1.16c0,.51-.06,1-.07,1.54,0,.85,0,1.7,0,2.55a6.53,6.53,0,0,1,0,1.53c-.05.27,0,.31.28.29.62,0,1.24,0,1.85-.13a2.67,2.67,0,0,0,2-2.1A4.4,4.4,0,0,0,34.45,4a.19.19,0,0,1,0-.1A3.82,3.82,0,0,0,34,2.29a1.55,1.55,0,0,0-.84-1A3.14,3.14,0,0,0,31.31.88Z"/><path d="M8.49,9.07l.1-.29c.49-1.61,1-3.21,1.67-4.76.47-1.15.94-2.3,1.43-3.44.1-.25.2-.57.56-.56s.4.33.5.56a10.35,10.35,0,0,1,.93,2.71,9.72,9.72,0,0,0,.45,1.35c.19.57.38,1.15.55,1.72.27.86.52,1.73.77,2.59a.72.72,0,0,1,0,.41.34.34,0,0,1-.36.25.42.42,0,0,1-.42-.34c-.12-.43-.23-.86-.34-1.28a2.8,2.8,0,0,0-.09-.31A2.25,2.25,0,0,0,14,7c-.17-.23-.43,0-.64,0H10.5c-.5,0-.51,0-.67.47s-.31,1-.47,1.53a1.3,1.3,0,0,1-.17.38.36.36,0,0,1-.46.16C8.54,9.48,8.47,9.33,8.49,9.07ZM12,6.18h.9c1,0,1,.2.62-1a1,1,0,0,1,0-.1,8.5,8.5,0,0,1-.7-2.21,13.46,13.46,0,0,0-.44-1.36s-.07-.07-.11-.11a.75.75,0,0,0-.07.12c-.12.28-.22.56-.33.84L10.53,5.49c-.06.14-.08.3-.14.45s0,.24.2.24Z"/><path d="M61.38,7.06c.09-.8-.45-1.25-1.09-1.61A4.79,4.79,0,0,0,59.2,5a6,6,0,0,1-1.53-.73.73.73,0,0,1-.16-.14c-1-1.38-1.24-3.06.74-3.89a3.37,3.37,0,0,1,2.4-.11A1.94,1.94,0,0,1,62.1,2.1a.44.44,0,0,1-.35.47.4.4,0,0,1-.43-.32,3.1,3.1,0,0,1-.08-.42A1,1,0,0,0,60.51,1a2.8,2.8,0,0,0-2.07.1,2.57,2.57,0,0,0-.66.52.75.75,0,0,0-.21.48,2,2,0,0,0,.78,1.66,4.28,4.28,0,0,0,1.36.57,4.39,4.39,0,0,1,1.86,1.09,2.57,2.57,0,0,1,.35,3,2.43,2.43,0,0,1-2.6,1.26,8.49,8.49,0,0,1-1.24-.24,2.6,2.6,0,0,1-1.42-1.15,1.39,1.39,0,0,1-.19-.49.39.39,0,0,1,.29-.45c.21-.08.34,0,.45.18a.64.64,0,0,1,.08.14,2.07,2.07,0,0,0,1.86,1.21c.17,0,.35,0,.53,0A1.64,1.64,0,0,0,61.38,7.06Z"/><path d="M4.21,6.63c.07-1,.16-1.9.2-2.86s0-1.74,0-2.6a4.52,4.52,0,0,1,0-.64c0-.29.23-.45.45-.41s.35.23.35.51c0,.75,0,1.49,0,2.23,0,.39-.06.78-.08,1.17,0,.9-.1,1.8-.1,2.7a4.56,4.56,0,0,1-.23,1.52,1.58,1.58,0,0,1-.43.65,2.91,2.91,0,0,1-3.32.39,1.42,1.42,0,0,1-.71-.83A12.16,12.16,0,0,1,0,7a1.35,1.35,0,0,1,.08-.62.3.3,0,0,1,.37-.22.61.61,0,0,1,.34.29c.06.09,0,.24,0,.36.05.31.09.63.16.93a1.22,1.22,0,0,0,1.15,1A2.44,2.44,0,0,0,3.45,8.6a1.2,1.2,0,0,0,.77-1.11c0-.29,0-.57,0-.86Z"/><path d="M40.7,4.6c0,.85,0,1.7,0,2.55,0,.57,0,1.14.06,1.7,0,.39-.13.59-.38.61s-.42-.21-.45-.61c-.13-1.63-.08-3.26-.1-4.89,0-.46.07-.92.08-1.38s0-.71,0-1.06,0-.64-.08-1a.39.39,0,0,1,.31-.43.38.38,0,0,1,.45.28,1.87,1.87,0,0,1,.12.57c0,.53,0,1.06,0,1.6v2Z"/></g></g></svg>