<svg xmlns="http://www.w3.org/2000/svg" viewBox="0 0 69.6 92.63"><title>Fichier 5</title><g id="Calque_2" data-name="Calque 2"><g id="Calque_2-2" data-name="Calque 2"><path d="M42.07,36.69c.29-1.88.52-3.77.89-5.63.18-.88.94-1,1.42-.27.72,1.11,1.29,2.32,1.94,3.48a5.35,5.35,0,0,0,.44.62,3.19,3.19,0,0,0,.59-.57c2.85-4.38,5.67-8.77,8.54-13.13a1.21,1.21,0,0,1,.9-.38c.13,0,.39.41.41.65.1,1.23.19,2.46.2,3.7.05,4.81-.34,9.52-3.21,13.66a4.29,4.29,0,0,0-.33.72,3.54,3.54,0,0,0,1,0,15.45,15.45,0,0,1,7.6-.67,9.35,9.35,0,0,1,6.87,5,4.72,4.72,0,0,1,.24,1.58c-.51,0-1.18.26-1.52,0-1.92-1.28-4-1.08-6.07-.75A22.08,22.08,0,0,1,50.75,44a2.82,2.82,0,0,0-2.67.29c-3.83,2.41-6.35,5.69-6.94,10.26-.19,1.51-.28,3-.36,4.55,0,.69.06,1.38.09,2.08a7.47,7.47,0,0,0,1.43-1.68c1.8-4.08,5.15-5.68,9.33-5.9,2.55-.13,4.83.9,7,2.07,1.25.67,2.43,1.48,3.71,2.07a7.53,7.53,0,0,1,4.1,4.87c.44,1.4-.17,2.29-1.64,2.17a9,9,0,0,1-3-.93A30.23,30.23,0,0,1,58.67,62c-2.28-1.42-4.54-1.82-6.94-.22a11,11,0,0,1-2.6,1.16,10.77,10.77,0,0,1-6.18.5c-2.19-.55-2.45-.44-3.31,1.65-.79,1.93-1.51,3.89-2.23,5.85a21.64,21.64,0,0,0-.56,2.1l1.73-1a.54.54,0,0,1,.26-.11c.18,0,.46,0,.51.08s.26.6.16.75A20,20,0,0,1,38,74.47c-3,3.29-6.13,6.51-9.08,9.87-2.13,2.42-4.06,5-6.11,7.53a4.45,4.45,0,0,1-1.11.76c-.27-.44-.83-.92-.77-1.32.11-.78.49-1,1-1.58A26.86,26.86,0,0,1,24.17,87a47.75,47.75,0,0,0,8-9.28c.58-.89,1.23-1.81.66-2.9a41.65,41.65,0,0,0-8.56-11.3c-.6-.56-1.12-.51-1.66.18a7.85,7.85,0,0,1-5.74,2.75c-3,.32-6,.71-9,1.07-.94.11-1.38-.33-.9-1.08a45.13,45.13,0,0,1,3.46-4.87c2.78-3.27,6.57-3.69,10.22-1.34a12,12,0,0,0,1.75.89.68.68,0,0,0,.53-.09.48.48,0,0,0,0-.44c-1.34-2-2.41-4.21-5.41-4.51a18.21,18.21,0,0,1-5.91-2C8,52.37,4.46,50.43,1,48.55a5,5,0,0,1-.95-.9c.35-.27.66-.69,1.05-.78,4.41-1,8.83-1.68,13,.82.82.49,1.15.37,1.2-.6a7.73,7.73,0,0,1,.34-2.26c.87-2.3,1.81-4.56,2.78-6.83.12-.29.6-.73.77-.67a1.66,1.66,0,0,1,1,.83q1.78,4.81,3.43,9.68a8.83,8.83,0,0,1,.57,3.07,14.39,14.39,0,0,1-.78,5.28,2.73,2.73,0,0,0,.3,3.26q5,6.92,10,13.93c.53.76.87.61,1.15,0,1.24-2.87,2.48-5.75,3.59-8.68a2.13,2.13,0,0,0-.5-1.7,21.29,21.29,0,0,1-4.3-9.53c-.75-3.72-.86-7.57-2.38-11.13-.07-.16-.14-.47-.07-.52.25-.2.69-.5.82-.41a6.68,6.68,0,0,1,1.47,1.34c1.7,2.16,3.36,4.36,5,6.55.2.26.43.51.64.76A5,5,0,0,0,39.09,49c-1.31-7.1-4.22-13.6-7.53-19.94a5.29,5.29,0,0,0-2.69-2.38c-5.05-1.72-8.76-5.71-13.58-7.78-.25-.11-.35-.57-.52-.87.31-.17.61-.46.93-.49,1.89-.12,3.78-.25,5.67-.24.84,0,1.19.08.92-1-1.24-5-2.39-10-3.55-15A4.78,4.78,0,0,1,18.81,0a2.69,2.69,0,0,1,1.05.17c4.35,3,8.66,6,11,10.88a59.16,59.16,0,0,1,2.46,7c.09.27.17.54.26.81a5.33,5.33,0,0,0,.82-.55c1.35-1.34,2.66-2.72,4.05-4A1.65,1.65,0,0,1,39.75,14c.18,0,.38.61.39.94.09,5.89-.34,11.65-4.65,16.27a2,2,0,0,0-.23,2.55,57.29,57.29,0,0,1,5.23,15.93c0,.19.09.37.13.55.15-.08.38-.13.44-.26.82-1.69,3-2.94,1.2-5.41-.68-.94-.53-2.57-.56-3.88a37.91,37.91,0,0,1,.33-4ZM18.22,64.83a2.21,2.21,0,0,0,1.1-.26c.8-.62,1.54-1.32,2.3-2-1-.18-1.92-.37-2.89-.54a2.74,2.74,0,0,0-.56.06c-.67,0-1.47.75-1.88-.29a10.05,10.05,0,0,1,1.51-.93c.16-.1.3-.21.45-.32a1.91,1.91,0,0,0-.57-.35,6,6,0,0,0-6.2,1.93A32.12,32.12,0,0,0,9.2,65.65L9,65.71l.19-.11C12.18,65.35,15.2,65.1,18.22,64.83ZM33.74,45.34l.15.7c.24,4.77.91,9.44,3.26,13.7a13.89,13.89,0,0,0,1.49,1.87,15.85,15.85,0,0,0,.8-2.38,12.52,12.52,0,0,0-2.25-9.45,35.4,35.4,0,0,0-3.35-3.71ZM20.47,2.19l.16.19c.65,5.77,1.66,11.47,4.31,16.7A14.11,14.11,0,0,0,30.05,25l.19.33c0-.06,0-.15,0-.18s-.15-.07-.22-.11c-.49-1.81-1-3.62-1.46-5.45-.06-.28.19-.63.29-.94.29.18.74.29.83.55.57,1.5,1.06,3,1.59,4.56a1.91,1.91,0,0,0,.3.46c.12-.2.31-.38.34-.59a16.92,16.92,0,0,0-1.37-10.27,24.12,24.12,0,0,0-9.94-11Zm26.15,40c.09.95.55,1,1.33.62A15,15,0,0,0,55.62,32,50.56,50.56,0,0,0,56.05,25c0-.23-.25-.48-.38-.72a3.62,3.62,0,0,0-.38.41c-2.09,3.05-4.37,6-6.2,9.2a43.18,43.18,0,0,0-2.58,6.57C46.57,41.44,46.58,41.82,46.62,42.2ZM18.43,53.51a2.87,2.87,0,0,0,.62.44,4,4,0,0,0-.11-.77c-.23-.78-1.07-1.91-.18-2.27,1.15-.46.9,1.09,1.29,1.73.54.88.88,1.89,1.34,2.83.1.21.35.35.53.52.17-.22.43-.41.51-.66a11.45,11.45,0,0,0-.1-7c-.83-2.63-1.84-5.19-2.79-7.78a5.49,5.49,0,0,0-.39-.71c-.25.26-.62.48-.74.79-.73,1.94-1.4,3.91-2.1,5.87A9.69,9.69,0,0,0,18.43,53.51ZM44.8,57.79c-.21.22-.23.63-.33,1,.25-.05.49-.11.74-.15,1.13-.16,2-1.62,3.37-.62-.92.6-1.83,1.22-2.76,1.79s-1.67.9-2.48,1.4c-.19.11-.4.47-.35.62a.88.88,0,0,0,.62.44,10.73,10.73,0,0,0,6.36-1c2.48-1.2,4.92-2.47,7.37-3.73A4.35,4.35,0,0,0,58,57c-.19-.21-.34-.51-.57-.6-1.49-.58-3-1.11-4-1.48C49.74,54.76,47,55.44,44.8,57.79Zm-6-41.33c0-.56-.22-.55-.65-.23-3.92,3-6,8.94-4.6,13.46a1.7,1.7,0,0,0,.64.77c.07.05.45-.26.62-.46a15.93,15.93,0,0,0,3.86-10.13C38.73,18.73,38.8,17.6,38.81,16.46ZM7.47,47.27c-1.31.14-2.6.32-3.9.48,1,.72,2,1.52,3,2.15,1.88,1.12,3.78,2.19,5.73,3.17,1,.51,1.35.18,1.28-1-.24-3.85-.93-4.51-5-4.74A6.22,6.22,0,0,0,7.47,47.27Zm55.36-4c.66-.06,1.31-.19,2-.22s1.49,0,2.23,0a12.66,12.66,0,0,0-2-1.86c-3.32-2-6.38-1.73-9,.77a3.74,3.74,0,0,0-.55.91,8.61,8.61,0,0,0,1.11.61,2.89,2.89,0,0,0,.84.09l0,.14Zm-19.48.52c.06.48.82,1.3,1.16,1.25.82-.13,1-.87.93-1.75a18.5,18.5,0,0,1,.14-4.21,9.08,9.08,0,0,0-1-5.46c-.1-.23-.37-.38-.56-.57a2.18,2.18,0,0,0-.3.64c-.14,1.31-.25,2.63-.37,3.94H43C43.08,39.74,43.12,41.8,43.35,43.84ZM65.06,62.6c-.59-3-4.5-4.94-7.16-3.65-.55.26-.68.75-.14,1.06,2.13,1.22,4.3,2.37,6.67,3.67C64.72,63.21,65.11,62.86,65.06,62.6ZM18.66,19.16c.93.62,1.88,1.22,2.84,1.8a1.94,1.94,0,0,0,.7.14,4.15,4.15,0,0,0,0-.79,2.7,2.7,0,0,0-3.62-1.92c-.1,0-.16.22-.24.35A1.74,1.74,0,0,0,18.66,19.16Z"/><path d="M2.79,42.83l.15.07L3,42.68l-.26-.09Z"/></g></g></svg>