<svg xmlns="http://www.w3.org/2000/svg" viewBox="0 0 720 720"><defs><style>.cls-1{fill:none;}</style></defs><title>Fichier 18</title><g id="Calque_2" data-name="Calque 2"><g id="Calque_4" data-name="Calque 4"><path d="M392.22,301.65c1.78-11.63,3.17-23.34,5.5-34.85,1.1-5.43,5.82-6.26,8.77-1.69,4.44,6.91,8,14.38,12,21.57a42.67,42.67,0,0,0,2.71,3.87c1.24-1.17,2.76-2.16,3.66-3.55,17.64-27.1,35.15-54.28,52.89-81.31,1-1.46,3.65-2.27,5.58-2.36.81,0,2.39,2.54,2.51,4,.63,7.62,1.17,15.27,1.25,22.91.32,29.79-2.09,59-19.84,84.56a27.81,27.81,0,0,0-2.08,4.49c2.13-.05,4.43.39,6.37-.24,15.38-5,31-7,47-4.15,19.26,3.46,33.41,14.07,42.58,31.18,1.46,2.74,1,6.49,1.49,9.77-3.21.15-7.31,1.65-9.46.22-11.89-7.92-24.63-6.7-37.53-4.65-23.61,3.74-47,3.55-69.71-4.7-6.23-2.27-11.19-1.58-16.57,1.8-23.69,14.88-39.32,35.17-42.95,63.49-1.19,9.34-1.71,18.78-2.21,28.19-.23,4.25.34,8.55.55,12.83,3-3.42,7.13-6.36,8.88-10.34,11.12-25.28,31.86-35.21,57.74-36.55,15.78-.82,29.88,5.58,43.48,12.83,7.74,4.14,15.06,9.12,23,12.81,13.28,6.18,21.13,16.6,25.36,30.11,2.71,8.67-1,14.21-10.15,13.44-6.23-.53-12.53-3-18.3-5.73-6.9-3.23-13.35-7.46-19.84-11.51-14.09-8.78-28.12-11.27-43-1.38-4.83,3.22-10.55,5.3-16.11,7.18-12.42,4.2-25.1,6.37-38.2,3.1-13.59-3.38-15.21-2.71-20.5,10.2-4.89,12-9.4,24.1-13.83,36.26-1.53,4.18-2.33,8.64-3.46,13q5.34-3,10.69-6a3.82,3.82,0,0,1,1.62-.66c1.09,0,2.85-.1,3.15.46.73,1.4,1.63,3.76,1,4.64a126.81,126.81,0,0,1-9.19,10.63c-18.76,20.34-37.95,40.3-56.22,61.08-13.2,15-25.12,31.16-37.81,46.65-1.69,2.06-4.55,3.15-6.87,4.7-1.71-2.74-5.13-5.72-4.78-8.17.7-4.84,3-6,6-9.79,4-5,9.11-12.78,13.89-17.16,18.75-17.19,35.58-36,49.41-57.45,3.56-5.51,7.61-11.19,4.07-18a258,258,0,0,0-53-70c-3.74-3.48-6.95-3.13-10.26,1.1-9,11.51-21.61,15.56-35.57,17.06-18.69,2-37.35,4.37-56,6.61-5.82.7-8.52-2.06-5.56-6.66,6.66-10.38,13.44-20.83,21.42-30.19,17.23-20.2,40.69-22.83,63.24-8.24A78.59,78.59,0,0,0,270,452.65a4,4,0,0,0,3.27-.54c.46-.32.52-2.08.08-2.75-8.27-12.66-14.88-26.05-33.5-27.91-12.5-1.24-25-6.58-36.58-12.1-22.26-10.63-43.86-22.63-65.64-34.25-2.29-1.22-3.92-3.7-5.85-5.59,2.15-1.65,4.1-4.26,6.5-4.79,27.31-6,54.64-10.46,80.56,5.07,5.06,3,7.09,2.29,7.41-3.76.26-4.69.49-9.63,2.11-13.94,5.35-14.24,11.23-28.29,17.18-42.29.79-1.85,3.74-4.51,4.77-4.16,2.33.82,5.1,2.91,5.92,5.13,7.33,19.88,14.49,39.83,21.21,59.92,2,6.08,3.8,12.72,3.52,19-.49,11-.36,23.05-4.79,32.67-4,8.58-3.07,13.44,1.84,20.2q31.15,42.85,61.59,86.24c3.29,4.7,5.39,3.8,7.09-.12C354.38,510.9,362,493.07,368.93,475c1.06-2.79-.89-7.9-3.1-10.57-14.31-17.28-22.25-37.47-26.61-59-4.67-23-5.35-46.86-14.75-68.88-.44-1-.87-2.91-.41-3.27,1.52-1.18,4.27-3,5.06-2.5A41.75,41.75,0,0,1,338.2,339c10.57,13.41,20.85,27,31.26,40.58,1.26,1.63,2.67,3.14,4,4.71.11-2.26.65-4.6.26-6.76-8.07-43.94-26.12-84.21-46.59-123.42-3.25-6.23-10.1-12.53-16.66-14.76-31.26-10.62-54.25-35.32-84.07-48.17-1.55-.67-2.15-3.54-3.2-5.39,1.92-1,3.78-2.86,5.75-3,11.69-.78,23.4-1.6,35.1-1.5,5.17,0,7.35.5,5.71-6.07-7.67-30.82-14.83-61.77-22-92.71-.58-2.51.23-5.34.4-8,2.19.3,4.86-.09,6.51,1,26.92,18.28,53.6,37.19,68.38,67.4,6.64,13.59,10.23,28.67,15.2,43.08.57,1.65,1.08,3.32,1.62,5,1.7-1.12,3.65-2,5.07-3.4,8.37-8.27,16.46-16.83,25.05-24.87,1.73-1.62,5.3-2.08,7.82-1.7,1.1.17,2.37,3.79,2.4,5.86.55,36.46-2.09,72.1-28.76,100.73-4.85,5.21-4.23,9.7-1.43,15.76C364.67,315,377.45,347.25,382.42,382a33.63,33.63,0,0,0,.82,3.4c.93-.52,2.34-.81,2.72-1.6,5.09-10.46,18.71-18.24,7.43-33.54-4.25-5.77-3.31-15.87-3.46-24s1.28-16.42,2-24.64ZM244.55,475.9c2.32-.21,5.09-.35,6.79-1.64,5-3.81,9.53-8.19,14.25-12.35-6-1.14-11.91-2.35-17.88-3.39-1.11-.19-2.32.36-3.49.41-4.12.18-9.09,4.6-11.62-1.79-.24-.59,6.11-3.77,9.38-5.79,1-.59,1.84-1.31,2.76-2-1.18-.75-2.26-1.92-3.54-2.2-15-3.27-28.36.19-38.36,12-5.55,6.55-9.46,14.48-14.11,21.79l-1.42.37,1.15-.7C207.16,479.08,225.86,477.54,244.55,475.9Zm96.08-120.71,1,4.34c1.43,29.55,5.63,58.47,20.15,84.86,2.34,4.25,6.13,7.72,9.25,11.54,1.67-4.89,4-9.67,4.91-14.71,3.67-21.39-1.86-41-13.88-58.51-5.79-8.43-13.76-15.35-20.74-23C341.06,358.23,340.85,356.71,340.63,355.19ZM258.46,88.09l1,1.14c4,35.74,10.29,71,26.69,103.4,7.38,14.57,17.11,28,31.61,36.82l1.21,2c0-.38.09-.93-.12-1.12a4.47,4.47,0,0,0-1.4-.63c-3-11.25-6.23-22.47-9-33.79-.41-1.7,1.14-3.87,1.79-5.82,1.76,1.11,4.53,1.84,5.12,3.39,3.54,9.33,6.55,18.86,9.81,28.28a13.21,13.21,0,0,0,1.88,2.8c.74-1.2,1.93-2.33,2.14-3.62,3.49-22,1.25-43.22-8.54-63.56-13.84-28.74-33.5-52.06-61.53-67.86C258.91,89,258.68,88.57,258.46,88.09Zm161.9,247.67c.58,5.89,3.39,6.54,8.26,3.83,26.41-14.74,42-37.58,47.46-66.73,2.68-14.29,2-29.22,2.65-43.87.06-1.46-1.5-3-2.32-4.46a22.66,22.66,0,0,0-2.38,2.53c-12.95,18.91-27,37.16-38.38,57-7.74,13.54-11.65,29.27-16,40.66C420.05,331.08,420.13,333.42,420.36,335.76Zm-174.54,70c1,1.18,2.58,1.82,3.89,2.71a29.7,29.7,0,0,0-.68-4.75c-1.47-4.82-6.68-11.86-1.11-14.08,7.11-2.84,5.53,6.79,7.93,10.7,3.36,5.48,5.46,11.72,8.31,17.53.64,1.3,2.16,2.16,3.28,3.22,1.09-1.35,2.69-2.53,3.18-4.07,4.66-14.53,3.82-29.23-.65-43.45-5.11-16.26-11.39-32.15-17.24-48.18a31.58,31.58,0,0,0-2.41-4.36c-1.57,1.61-3.85,2.95-4.58,4.87-4.52,12-8.71,24.19-13,36.31C231.7,378.87,235.64,393.19,245.82,405.8Zm163.31,26.46c-1.31,1.42-1.43,3.92-2.1,5.92,1.55-.32,3.08-.72,4.64-.94,7-1,12.5-10,20.8-3.86-5.68,3.72-11.27,7.58-17.07,11.11-5,3.05-10.33,5.6-15.34,8.66-1.16.71-2.5,2.92-2.15,3.86a5.45,5.45,0,0,0,3.85,2.73,66.73,66.73,0,0,0,39.35-6.4c15.33-7.42,30.44-15.31,45.61-23.06a27.83,27.83,0,0,0,3.8-2.84c-1.16-1.26-2.09-3.11-3.52-3.67-9.26-3.6-18.63-6.91-24.89-9.2C439.7,413.5,422.5,417.71,409.13,432.26ZM372,176.44c0-3.48-1.36-3.44-4-1.42-24.25,18.36-37,55.32-28.46,83.33a10.19,10.19,0,0,0,3.95,4.73c.41.3,2.79-1.58,3.81-2.83,15-18.23,23.65-38.87,23.89-62.74C371.49,190.49,372,183.47,372,176.44ZM178,367.17c-8.06.84-16.1,2-24.15,3,6.27,4.47,12.27,9.39,18.87,13.32,11.6,6.9,23.39,13.51,35.44,19.6,6.23,3.15,8.35,1.14,7.91-6-1.47-23.81-5.76-27.9-31.05-29.33C182.66,367.52,180.28,366.93,178,367.17ZM520.73,342.7c4.07-.37,8.11-1.16,12.17-1.34,4.61-.2,9.23.07,13.84.14-4-3.89-7.45-8.68-12.1-11.52-20.53-12.52-39.5-10.74-55.79,4.72-1.54,1.46-2.28,3.77-3.39,5.68a58.58,58.58,0,0,0,6.89,3.78c1.56.61,3.46.4,5.21.55l.07.83C498.67,344.6,509.7,343.69,520.73,342.7Zm-120.6,3.22c.34,3,5.1,8.05,7.15,7.74,5.1-.79,6.13-5.36,5.78-10.85a112.93,112.93,0,0,1,.89-26.06c2.09-12.22-1.1-23.07-6-33.79-.64-1.41-2.27-2.37-3.44-3.54-.65,1.33-1.73,2.6-1.88,4-.88,8.12-1.54,16.27-2.27,24.41h-2.63C398.44,320.54,398.69,333.3,400.13,345.92ZM534.51,462.09c-3.62-18.36-27.84-30.62-44.3-22.64-3.4,1.65-4.19,4.65-.85,6.56,13.16,7.57,26.57,14.7,41.28,22.75C532.41,465.83,534.82,463.7,534.51,462.09Zm-287.27-269c5.81,3.82,11.65,7.59,17.59,11.18,1.19.72,2.89.57,4.35.82,0-1.62.26-3.32-.14-4.85-2.67-10.22-12.49-15.44-22.35-11.91-.68.24-1,1.39-1.54,2.14A11.06,11.06,0,0,0,247.24,193.13Z"/><path d="M149,339.67l.95.41.52-1.35-1.56-.53Z"/><rect class="cls-1" width="720" height="720"/></g></g></svg>