<svg xmlns="http://www.w3.org/2000/svg" viewBox="0 0 110.91 124.01"><title>Fichier 7</title><g id="Calque_2" data-name="Calque 2"><g id="Calque_2-2" data-name="Calque 2"><path d="M24.66,43.6c.21-.8-.57-1.83.56-2.43l.34,2.4-.06.07-.82,0Z"/><path d="M24.68,44.46c-.81-.18-1.84.58-2.43-.55l2.41-.31,0,0,0,.85Z"/><path d="M25.56,43.57l2.41.34c-.57,1.15-1.62.33-2.41.58l0-.05v-.8Z"/><path d="M25.56,44.49c-.11.8-.23,1.59-.34,2.39-1.12-.6-.36-1.61-.54-2.42h0l.85,0Z"/><path d="M88.34,63.19c0,.49,0,1,0,1.48,0,.15-.12.42-.33.42s-.26-.29-.36-.45c-.19-.33.06-1.3.06-1.3s-1.76,0-1.71-.41c.15,0-.16-.22,0-.24.32,0,1.11.08,1.43,0,.14,0,.28,0,.42,0l.41.09c.13.13.46.2.06.36Z"/><path d="M88.41,62.69h.2l1.33.29a1.58,1.58,0,0,1-.1.35c-.5,0-1-.1-1.5-.15h0l-.06-.36Z"/><path d="M87.87,62.73c-.05-.41-.13-.81-.14-1.22,0-.12.21-.24.33-.35.09.09.25.17.26.28.05.41.06.83.09,1.25l-.13.13a1.27,1.27,0,0,1-.34,0Z"/><path d="M23.34,88.21a14.61,14.61,0,0,1,0,1.48c0,.15-.11.42-.33.42s-.25-.29-.35-.45c-.2-.32,0-1.29,0-1.29S21,88.37,21,88c.16,0-.15-.21,0-.24.33,0,1.11.08,1.44,0a2.94,2.94,0,0,1,.42,0l.41.09c.13.14.46.2,0,.36Z"/><path d="M23.4,87.71a1.49,1.49,0,0,1,.21,0l1.33.28c0,.13-.08.36-.11.36-.5,0-1-.1-1.49-.16h0c0-.12,0-.24,0-.36Z"/><path d="M22.87,87.75c-.05-.41-.14-.81-.15-1.22,0-.11.22-.23.33-.35.09.09.25.18.27.28.05.41.06.83.08,1.25l-.12.13a1.34,1.34,0,0,1-.35,0Z"/><path d="M60.2,39c-.06.39-.22.51-.56.24a9,9,0,0,1-3.09-3.88q-1.32-3.63-2.48-7.3a2.59,2.59,0,0,1,.15-1.62c.33-.82.73-.93,1.58-.63A5.52,5.52,0,0,1,59.44,29a19.13,19.13,0,0,1,1.23,5.72c.06.81.14,1.62.23,2.43a.85.85,0,0,0,.11.26l.06-.23c.13-.6.28-1.2.4-1.79,1-4.61,3.31-8.22,7.61-10.37a4.12,4.12,0,0,1,1.64-.43,1.23,1.23,0,0,1,1.22,1.75,21.56,21.56,0,0,1-4,5.8A11.58,11.58,0,0,1,63,34.8a1.31,1.31,0,0,0-1.09,1,43,43,0,0,0-1.08,7.75c0,.08.07.18.1.27a3,3,0,0,0,.24-.28c.76-1.25,1.46-2.55,2.29-3.76a18.25,18.25,0,0,1,7.43-6.39,6.55,6.55,0,0,1,1.64-.46c.81-.13,1.16.25,1,1A3,3,0,0,1,73,35.09c-1.61,2.27-3.18,4.6-5.59,6.09a20.73,20.73,0,0,1-4.33,1.93c-1.33.43-2,.93-2.29,2.28a28.5,28.5,0,0,0-.38,9.49,53.77,53.77,0,0,1,.27,7.19c0,1.92,0,3.84-.08,5.75a2.23,2.23,0,0,0,0,.37c.07-.14.14-.28.2-.42,1-2.2,1.91-4.42,2.91-6.6.44-1,1-1.87,1.54-2.79A2.84,2.84,0,0,0,65.25,55a8.14,8.14,0,0,1-1.63-6.35,17.75,17.75,0,0,0,.07-2.07c0-.58.15-1.15.81-1.38a1.55,1.55,0,0,1,1.69.42A2.74,2.74,0,0,1,67,47.05a23.28,23.28,0,0,1,.19,4.25c-.09,1.54-.44,3.06-.67,4.59a1.38,1.38,0,0,0,0,.35,2.83,2.83,0,0,0,.28-.2c.83-.84,1.64-1.7,2.49-2.53A3,3,0,0,0,70.24,51c-.11-2.83.1-5.62,1.83-8.08.72-1,1.28-2.18,1.92-3.27.35-.59.89-1.24,1.53-.9a2.33,2.33,0,0,1,.78,1.64A3.6,3.6,0,0,1,76,42.29c-1.08,2.32-2.24,4.61-3.4,6.91-.5,1-1,1.93-1.58,2.9h0c1-.66,2-1.34,3-2a2,2,0,0,0,1-1.55,12.81,12.81,0,0,1,2.36-6c.86-1.28,1.75-2.56,2.72-3.77a3.35,3.35,0,0,1,1.48-1,.8.8,0,0,1,1.1.9,4.25,4.25,0,0,1-.47,1.74,26.64,26.64,0,0,1-4.28,5.64A21,21,0,0,0,76,48.52c-.11.14-.09.37-.13.55a3.62,3.62,0,0,0,.57,0,50.51,50.51,0,0,1,5.4-1,13.8,13.8,0,0,1,4,.54c1.15.27,1.27.85.49,1.72a2.42,2.42,0,0,1-.86.67,13.42,13.42,0,0,1-5.56,1.19,9.45,9.45,0,0,1-4.2-1.54,1.42,1.42,0,0,0-1.68,0l-2.52,1.71h0a5.62,5.62,0,0,0-.79.56,2.24,2.24,0,0,0-.35.58,2.38,2.38,0,0,0,.67.18,18.48,18.48,0,0,1,6,1,9,9,0,0,1,2.87,1.77,1.63,1.63,0,0,1,.42,1.29c-.08.57-.7.36-1.13.42a9.29,9.29,0,0,1-6.8-1.84,13.27,13.27,0,0,1-1.65-1.62c-.84-.87-1.16-.86-2,0a22.79,22.79,0,0,0-4.53,6.8,59.4,59.4,0,0,0-3.23,7.91,49.5,49.5,0,0,0-1.78,12.94c0,2.2-.1,4.41,0,6.61,0,1.09.3,2.17.44,3.27a1.45,1.45,0,0,1-.14.51c-.11-.15-.3-.29-.32-.45a35.48,35.48,0,0,1-.6-5.09c0-3.43.29-6.85.5-10.27a5.14,5.14,0,0,0-.67-2.81,49.15,49.15,0,0,0-4.69-7.73,12.35,12.35,0,0,1-1-2.07c-.58-1.07-.73-1.09-1.82-.63a11.92,11.92,0,0,1-7.38,1.1c-.51-.12-1-.27-1.54-.36-.68-.13-1.36-.22-2-.31A6,6,0,0,1,39,64c-.89-.23-1.09-.9-.43-1.53a2.65,2.65,0,0,1,1-.65,17,17,0,0,1,3.8-.79,12.5,12.5,0,0,1,5.74,1,9.81,9.81,0,0,0,1.85.62c.42.11.71-.06.4-.51-.67-1-1.39-1.91-2.11-2.85-.31-.4-.69-.41-1.19-.21a9.21,9.21,0,0,1-8.75-1c-.68-.43-1.59-1-1.39-1.83s1.23-.89,2-1a6.91,6.91,0,0,1,3.72.5,14.62,14.62,0,0,1,6.1,3.51,1.51,1.51,0,0,0,.28.22,1.53,1.53,0,0,0,.07-.41c-.25-1.66-.52-3.3-.77-5a5.55,5.55,0,0,1,1-4.41,3.64,3.64,0,0,1,.48-.55c1.18-1,2.26-.64,2.61.88a2.63,2.63,0,0,1,.06.48,16.74,16.74,0,0,1-1.2,7,4,4,0,0,1-1,1.36A1.27,1.27,0,0,0,51,60.5c.7,1.29,1.46,2.55,2.2,3.82a1,1,0,0,0,.28.21,2.13,2.13,0,0,0,.11-.33,9.47,9.47,0,0,0,.24-1.81,17.39,17.39,0,0,1,1-6.25,7,7,0,0,1,1.51-2.46c.62-.7,1.42-.45,1.62.47a4,4,0,0,1-.05,1.79c-.43,1.7-1,3.36-1.44,5.05a8.42,8.42,0,0,1-1.87,3.4c-.78.88-.79,1-.2,2,1.16,2,2.36,3.92,3.52,5.88.4.67.72,1.38,1.09,2.06a2.19,2.19,0,0,0,.27.35,3.69,3.69,0,0,0,.11-.45,107.26,107.26,0,0,0,.77-11.61A46.49,46.49,0,0,0,60,55.59a25,25,0,0,0-.85-4.3A24.6,24.6,0,0,0,51,39c-.13-.09-.28-.16-.42-.24h0l-2.53-2h0a11.13,11.13,0,0,0-1-1c-.26-.2-.75-.49-.89-.39a1.33,1.33,0,0,0-.56,1.35,23.51,23.51,0,0,1,0,3.14.81.81,0,0,1-.23.55,1.69,1.69,0,0,1-.89.47c-.23,0-.55-.33-.66-.58A2.39,2.39,0,0,1,44,38.21c.41-.8.84-1.58,1.28-2.36.32-.56,0-.63-.43-.59a2.6,2.6,0,0,0-1.89,1.9,4.57,4.57,0,0,1-1.55,3.34c-.35.32-.74.75-1.28.34a1.12,1.12,0,0,1-.31-1.44,7,7,0,0,1,2.37-2.89c.34-.24.68-.46,1-.72a1.2,1.2,0,0,0,.23-.4c-.13-.07-.26-.2-.4-.2-.61,0-1.22,0-1.83.07a.87.87,0,0,0-.47.31c-.08.07,0,.25-.13.33a8.9,8.9,0,0,0-2.1,4.28,2,2,0,0,1-.79,1,1.35,1.35,0,0,1-1.09.22.91.91,0,0,1-.44-1.25,3.7,3.7,0,0,1,.61-1,13.21,13.21,0,0,1,1.15-1.09l.18-.08-.18.09c-.43,0-.88,0-1.3-.11-1.5-.27-1.71-.88-.71-2.06l.27-.22.27-.22.19-.08-.19.08-.27.22-.26.23a14.49,14.49,0,0,1-2.18.05c-.84-.1-1.51-.9-1.41-1.45a1.74,1.74,0,0,1,1.93-1,4.07,4.07,0,0,1,1.31.63,3.43,3.43,0,0,0,2.75.7c.67-.12,1.38-.06,2.07-.13a1.81,1.81,0,0,0,.57-.29c-.23-.19-.52-.58-.67-.53-1.77.57-3.19-.28-4.59-1.12-.34-.2-.74-.69-.71-1,.07-.57.66-.79,1.22-.81a3.91,3.91,0,0,1,2.76.81,23,23,0,0,1,2.2,2.1,2.06,2.06,0,0,0,1.8.81c.89-.07,1.79-.06,2.68-.09l0,.06,0-.05a9.55,9.55,0,0,1-1.46-1.29c-.79-1.08-2-1.45-3.09-2.07-.22-.12-.56,0-.83-.08a27.17,27.17,0,0,1-2.67-.77,1,1,0,0,1-.72-1.36,1,1,0,0,1,1.47-.42c.91.53,1.77,1.14,2.64,1.73.39.27.76.57,1.15.86-.13-.43-.25-.86-.38-1.29a2.79,2.79,0,0,1-.14-.47A2.9,2.9,0,0,0,40,27a3.85,3.85,0,0,1-1-1.34.89.89,0,0,1,.27-1.2.92.92,0,0,1,1.33-.06,5.26,5.26,0,0,1,1,1.46c.23.52.3,1.1,1,1.18a.49.49,0,0,1,.2.13l1,.78c.08-.51.17-1,.24-1.54a6.44,6.44,0,0,1,.24-1.55c.36-.81,1.08-.83,1.62-.11A1.85,1.85,0,0,1,45.88,27a2.77,2.77,0,0,1-.82.88,1.06,1.06,0,0,0-.47,1.46,2.77,2.77,0,0,1-.21,2.59.84.84,0,0,0,.22,1.27c.51.38,1.06.7,1.59,1a13.25,13.25,0,0,0,.16-1.88c0-1-.2-2-.27-3a1.16,1.16,0,0,1,.18-.82,2,2,0,0,1,1.05-.66c.54-.06.77.45.81.91a4.3,4.3,0,0,1-.84,3.11,2.63,2.63,0,0,0-.24.7c.24-.1.55-.14.71-.32a10.24,10.24,0,0,0,.67-1,19.11,19.11,0,0,1,1.4-1.82,1,1,0,0,1,1.53-.22c.56.46.4,1,.08,1.54a4.49,4.49,0,0,1-3.23,2.2c-.58.08-1.07.19-1.2.82a1.53,1.53,0,0,0,.47,1.76c1.17.89,2.25,1.88,3.41,2.79a24.08,24.08,0,0,1,7.66,10c.25.63.6,1.23.91,1.84a16.77,16.77,0,0,0,.4-1.84c.22-1.74.41-3.48.57-5.23a19.92,19.92,0,0,0,.09-2.56,7.17,7.17,0,0,0-.32-1.5c-.87-2.54-1.69-5.1-2.64-7.61a23.92,23.92,0,0,0-1.81-3.57c-.23-.4-.74-.64-1.12-.95a6.9,6.9,0,0,0,.1,1.52c.49,1.59,1.15,3.14,1.58,4.75A9.4,9.4,0,0,0,60.2,39ZM42.52,28.15l.25,0,0,.06-.05,0-.22-.27-.1-.32-.12.07.23.24,0,.26-.06,0Zm-5.75,8.57-.23-.27.05-.49c.26.24.62.44.77.73.42.83.47.9,1.27.47a4,4,0,0,0,1.11-.93c.44-.56.25-1-.45-.91A23.33,23.33,0,0,0,36.6,36a5.65,5.65,0,0,0-.74.62.52.52,0,0,0-.06.51c.09.13.33.16.51.24a1.71,1.71,0,0,1,0-.5,1.35,1.35,0,0,1,.26-.38Zm4.65,2.92-.27.22-.84.43c0,.05.14.14.15.13.23-.18.45-.38.68-.57l.27-.22.05-.05Zm-8.19-4.5h0L33,34.88l-.12-.19.13.18Zm7.5,3.93h0l0,.48-.19.13.2-.12L41,39.1c.14-.06.29-.19.43-.18,1,.06.71-.77.87-1.27,0-.11-.08-.27-.13-.4a4.68,4.68,0,0,0-1,.83,2.63,2.63,0,0,0-.2,1A.29.29,0,0,1,40.73,39.07Zm-3.28-9.42,0-.5.74.07.19.51a1.41,1.41,0,0,0,1.65.86c.07,0,.16-.22.15-.22a4,4,0,0,0-1-.69c-.23-.1-.56,0-.84.06l-.2-.51-.73-.08,0,.49.19.08Zm33.69,21,.31-.71c1-1.83,2.18-3.61,3.09-5.51a7.9,7.9,0,0,0,1.22-3.79c0-.16,0-.32,0-.47a2.67,2.67,0,0,0-.2.42,27.46,27.46,0,0,1-2.61,5.89c-.59,1.1-1,2.31-1.47,3.47l-.31.71-.12.17Zm-35.61-19h.36l0-.13-.32.13-.07.19Zm5,30.29,1-.15c1.52.2,3,.39,4.57.62,1.12.17,2.24.4,3.36.59a1.46,1.46,0,0,0,.4-.05,3.14,3.14,0,0,0-.31-.18,11.33,11.33,0,0,0-8-1l-1,.14-.19.09Zm4.38-22.48-.21-.27c.7-.51.92-1.08.64-1.7,0-.08-.31-.15-.32-.14a8.09,8.09,0,0,0-.63,1.29c-.05.13.19.36.3.55l.24.26c0,.42-.11.69-.58.7l-.1-.2.12.19c.21.44.46.43.63,0C45,40,44.91,39.71,44.87,39.48Zm5.39-9.83c.48.5-.15.5-.31.7a4.8,4.8,0,0,0-.88.71,5.25,5.25,0,0,0-.51,1.1s.09.15.12.15c.58-.18,1.16-.35,1.32-1.08,0-.1.4-.09.51-.22a1.46,1.46,0,0,0,.17-.58c0-.32.42-.9-.42-.78Zm-2.83-1.27h0c-.1,0-.29-.14-.31-.11a2.85,2.85,0,0,0-.31.57s.18.12.28.19a1.51,1.51,0,0,1,0-.48C47.16,28.47,47.33,28.44,47.43,28.38Zm-2.77-2L44.6,26s-.06.06-.05.08.08.21.12.32a2,2,0,0,0,0,.48,3.34,3.34,0,0,0,.18.5l.69-.63a4.8,4.8,0,0,0-.48-.3A2.08,2.08,0,0,0,44.66,26.4Zm-8,13.75.71.32h0l0-.89.51.45h0l.36-1.49c-.42.32-.87.62-1.27,1a1.85,1.85,0,0,0-.33.64c0,.27,0,.54,0,.81l.1,0c0-.24-.09-.49-.13-.73A.25.25,0,0,1,36.68,40.15Zm2.93-15,0-.06,0,.06c-.16.94.44,1.4,1.13,1.81a1.69,1.69,0,0,0,.44.12c0-.15.14-.31.1-.44-.13-.47-.3-.92-.46-1.37l-.49-.06ZM37,32.06c-.09.12-.27.29-.24.37a2.89,2.89,0,0,0,2.82,1.15.54.54,0,0,0,.13-.42,19.23,19.23,0,0,0-1.95-1.4c-.14-.08-.51.19-.77.3ZM56.79,53.93a7.26,7.26,0,0,0-1.32,2c-.48,2-.76,4-1.11,6a2.07,2.07,0,0,0,0,.43l.12-.46c.23-1.08.41-2.17.72-3.22.47-1.6,1-3.17,1.56-4.76l0,0ZM76.3,45.71c1-1.37,2-2.73,3.07-4.11.56-.75,1.11-1.51,1.63-2.29a2.38,2.38,0,0,0,.21-.76,2.57,2.57,0,0,0-.68.47,27.49,27.49,0,0,0-4.23,6.7l-.08.18ZM65,45.61l0-.06,0,.05a8.7,8.7,0,0,1,1.19,6.06,21.83,21.83,0,0,0,0,2.56,3.47,3.47,0,0,0,.06.45,4.15,4.15,0,0,0,.11-.48c.11-.92.17-1.86.34-2.78A11.16,11.16,0,0,0,66.48,47,1.52,1.52,0,0,0,65,45.61ZM54.91,63.1A12.94,12.94,0,0,0,56,60.85a26.41,26.41,0,0,1,1.37-4.68A3.14,3.14,0,0,0,57.58,55a2.07,2.07,0,0,0-.17-.67,2.29,2.29,0,0,0-.41.53,33.23,33.23,0,0,0-2.08,8.27l-.09.19ZM76.13,47.42c.55-.61,1.05-1.26,1.64-1.82a25.11,25.11,0,0,0,3.89-5.17,4.52,4.52,0,0,0,.39-1.14,1.46,1.46,0,0,0-.07-.54c-.1.12-.22.22-.31.35-1.1,1.47-2.24,2.91-3.26,4.44-.83,1.24-1.52,2.58-2.27,3.88l0,0ZM50.92,58.53a7.39,7.39,0,0,0,1.24-2,54.34,54.34,0,0,0,.89-5.55,4,4,0,0,0-.36-1.51c0-.14-.3-.21-.45-.32,0,.16-.07.31-.09.46l-1.23,9Zm14.68-4h0c0-1.5.08-3,.15-4.51a5.23,5.23,0,0,0-1-3.69,1.4,1.4,0,0,0-.38-.22,1.54,1.54,0,0,0-.1.35c0,1.06,0,2.12-.14,3.17A6.86,6.86,0,0,0,65.6,54.53ZM38.54,56.6h0c.72,1.23,2.08,1.5,3.22,2.08a6.8,6.8,0,0,0,5,.27,1.59,1.59,0,0,0,.31-.17,2.26,2.26,0,0,0-.33-.13c-1.82-.57-3.63-1.2-5.47-1.69A19.19,19.19,0,0,0,38.54,56.6ZM62.87,42c1.39-1.18,2.82-2.33,4.17-3.55,1.78-1.61,3.51-3.27,5.27-4.9a4.27,4.27,0,0,1,.33.34,6.31,6.31,0,0,1-.66.71c-2,1.84-4.09,3.69-6.15,5.52-1,.88-2,1.74-3,2.62h0A10.62,10.62,0,0,0,67.05,41a20.35,20.35,0,0,0,5.48-6A2.63,2.63,0,0,0,73,33.84c0-.47-.25-.54-.64-.33a7.62,7.62,0,0,0-3.52,1.61C66.31,37,64,39,62.87,42Zm-2.52-4.44.09.18-.1-.17c0-.69-.08-1.38-.13-2.07A20.69,20.69,0,0,0,58.91,29a4.85,4.85,0,0,0-3.15-2.67,1.15,1.15,0,0,0-.45,0,3.62,3.62,0,0,0,.26.38,11.45,11.45,0,0,1,2.31,4C58.66,33,59.52,35.25,60.35,37.51Zm2.27-3.22a9.26,9.26,0,0,0,5-2.57c1.61-1.45,2.52-3.4,3.65-5.19,0,0,.06-.06.07-.1l0-.35a1.08,1.08,0,0,0-.31.07,2.86,2.86,0,0,0-.47.39l-8,7.75-.05,0Zm8-9.33c-.47.17-1,.3-1.45.51C65.89,27,64,29.74,62.62,33a1.75,1.75,0,0,0,0,.46,2.48,2.48,0,0,0,.4-.26q2.08-2,4.16-3.94c1.24-1.17,2.48-2.35,3.7-3.54a2.09,2.09,0,0,0,.28-.51ZM43,62.34c-1,.14-2.3.31-3.61.51-.19,0-.35.24-.53.37.16.09.31.25.49.28,1.31.23,2.63.46,4,.67.65.1,1.29.17,1.94.23a6.71,6.71,0,0,0,3.45-.57,2.39,2.39,0,0,0,.32-.16,1.34,1.34,0,0,0-.27-.13ZM70.56,47.86l.19.07c0,.49,0,1,0,1.47a2,2,0,0,0,.06.34,2.68,2.68,0,0,0,.18-.28c1-2,2-3.91,2.91-5.9A25.48,25.48,0,0,0,75,40.34a2.61,2.61,0,0,0,0-.92,3.13,3.13,0,0,0-.65.6,40.11,40.11,0,0,0-2.08,3.58C71.61,45,71.12,46.43,70.56,47.86ZM79,51.62a11.87,11.87,0,0,0,6.23-1c.22-.1.35-.38.52-.58l-.7-.16a1,1,0,0,0-.24,0c-2.84.11-5.69.21-8.53.33a1.25,1.25,0,0,0-.31.07c.08.08.14.21.24.25ZM51.54,50.33h.11a2.31,2.31,0,0,0,0-.37c0-.23,0-.45-.07-.68a2.34,2.34,0,0,0-.6.34A3.37,3.37,0,0,0,49.91,52c.1,1.7.33,3.4.51,5.09,0,.1.12.2.18.3a1.23,1.23,0,0,0,.13-.29C51,54.85,51.27,52.59,51.54,50.33Zm21.61,4-.61-.06-.32,0,.33.14,5.32,2.45a3.83,3.83,0,0,0,1,.3,2.12,2.12,0,0,0,.68-.14c-.1-.2-.16-.48-.32-.58a10.34,10.34,0,0,0-2.21-1.25C75.75,54.81,74.38,54.61,73.15,54.34Zm10-5.78c-.83,0-1.73,0-2.6.13-1.09.15-2.15.42-3.22.65-.11,0-.2.12-.3.18a1.78,1.78,0,0,0,.36.19,1.08,1.08,0,0,0,.36,0l7.64-.46a1.08,1.08,0,0,0,.29-.09,2,2,0,0,0-.33-.15Zm-41.88,7c-.44,0-1.08.08-1.72.15-.13,0-.24.15-.35.22a1.79,1.79,0,0,0,.32.13l6.33,1.71c.39.11.79.21,1.18.28a1,1,0,0,0,.39-.1,1.48,1.48,0,0,0-.25-.25A17.08,17.08,0,0,0,41.26,55.61ZM77,57.6l1.09.1a2.19,2.19,0,0,0,.36,0l-.26-.15-6-2.69a2.15,2.15,0,0,0-.58-.07c.09.17.13.38.26.49A9.44,9.44,0,0,0,77,57.6Zm-32.7-27a4.62,4.62,0,0,0-.07-.79c-.19-.79-.55-.94-1.36-.64-.1,0-.26,0-.37-.12s-.09-.17-.13-.27c-.07.1-.2.22-.18.29.31.83.62,1.66,1,2.47.08.18.39.4.54.37s.34-.32.43-.53A3.78,3.78,0,0,0,44.25,30.63Zm-9.69,4.93a3.7,3.7,0,0,0,.88-.2c.11,0,.2-.42.18-.43-.55-.3-1.12-.58-1.7-.83-.05,0-.22.18-.31.3s0,.12,0,.19l.46-.18a2.06,2.06,0,0,0,0,.7C34.19,35.29,34.41,35.41,34.56,35.56Zm12-5.45c.05.37.09.77.18,1.17,0,.06.25.15.3.11a1.22,1.22,0,0,0,.17-1.51,1.53,1.53,0,0,0-.49-.26Zm-1.29-4.63.19.12a.61.61,0,0,0,0-.19s-.07-.06-.09-.05A1.31,1.31,0,0,0,45.26,25.48Z"/><path d="M70.73,76.63c1-.32,1.11-1.23,1.31-2a2.87,2.87,0,0,1,2.24-2.3c1.26-.31,1.9.45,1.5,1.7a7.81,7.81,0,0,0-.46,2.5,8,8,0,0,0,.63-1c.78-1.83,2.5-2.21,4.13-2.7a1,1,0,0,1,.9.39c.15.51.33,1.3.07,1.59-1,1.17-1.14,2.76-2,4a2.56,2.56,0,0,0-.43,1,3.92,3.92,0,0,1-2.43,3,6.33,6.33,0,0,0-1.37,1,14.76,14.76,0,0,1-9,3.9,24.2,24.2,0,0,0-8.36,2.2A19.5,19.5,0,0,1,51.07,92c-1.07.09-1.27.56-1.34,1.77-.1,1.57-.27,3.13-.46,4.69,0,.18-.36.44-.57.46-1.63.16-3.28.37-4.9.58a34.08,34.08,0,0,1-4.27.32c-1.39,0-1.59-.23-1.61-1.67a49.6,49.6,0,0,1,0-5,25.48,25.48,0,0,1,2.33-8.54A6.46,6.46,0,0,1,45.07,81a37.6,37.6,0,0,1,6.77-.9,13.73,13.73,0,0,0,7.66-2.22c1.54-1.07,3.32-1.13,5-1.61.87-.25,1.9.07,2.82-.09a9.69,9.69,0,0,0,2.31-.92c.38-.18.65-.49,1.15-.13.7.51-.25.88,0,1.32,0,0,0,.14,0,.21l-.33.15.17.16ZM54.74,84a41,41,0,0,1,4.45-1.61,20.6,20.6,0,0,0,4.62-2.12c.59-.31,1-.8.18-1.46-.25-.21-.15-.81-.3-1.2-.08-.2-.47-.49-.53-.44-1.08.68-2.4.72-3.51,1.47a9.76,9.76,0,0,1-4.89,2c-2.93.14-5.84.45-8.74.85a6,6,0,0,0-5.18,3.87,23.71,23.71,0,0,0-2.05,8.86,27.64,27.64,0,0,1-.19,3c-.11,1.23.33,1.77,1.5,1.8A37,37,0,0,0,47,98.5c1.77-.29,1.84-.35,1.86-2.15,0-1,0-2,0-3.06,0-.63-.19-.94-.85-.92-.15,0-.29-.23-.44-.35.18-.16.38-.48.54-.46A12.85,12.85,0,0,0,53,90.92a45.66,45.66,0,0,0,7-3,28.48,28.48,0,0,1,7.84-3.06,22.86,22.86,0,0,0,7.62-2.51A5.16,5.16,0,0,0,78,79.68a26,26,0,0,1,2.3-5c.14-.2.18-.71,0-.8a1.16,1.16,0,0,0-1-.24A5.67,5.67,0,0,0,76,76.9a5.88,5.88,0,0,1-4.52,3.6c-1.74.32-3.55.18-5.35.46s-1.85.06-3.39.84a8.21,8.21,0,0,1-1.37.59,6.18,6.18,0,0,0-3,2A4.34,4.34,0,0,1,56,85.86c-1.09.28-2.14.7-3.21,1.06-.13,0-.27.2-.37.17s-.43-.18-.44-.31.13-.36.27-.48.29,0,.42-.06l4.88-1.78-.06-.3ZM71,79.69c1.17.2,1.83-.39,2.43-1.49A18.85,18.85,0,0,0,75,74.29a3.74,3.74,0,0,0,0-1,3.46,3.46,0,0,0-1.17.1,1.53,1.53,0,0,0-.82.8,7.89,7.89,0,0,1-2.39,4.18,2.3,2.3,0,0,0-.49.93.43.43,0,0,0,.21.37A2.82,2.82,0,0,0,71,79.69Zm-7.43,7.4a15.5,15.5,0,0,0,7.71-1.74c.07,0,.09-.17.14-.26-.14,0-.28-.14-.4-.11A20.89,20.89,0,0,0,69,85.4C67.27,85.9,65.38,85.87,63.6,87.09Zm2.87-7a1.66,1.66,0,0,0,1.85-.92c.55-.81,1-1.67,1.51-2.53.09-.17,0-.42,0-.64a4.8,4.8,0,0,0-.66.12c-.66.22-1.5.52-1.22,1.33s-.15,1-.64,1.32-1,.5-1.49.77c-.12.06-.18.22-.27.33.11.07.2.18.32.21A3.34,3.34,0,0,0,66.47,80.14ZM75,77.27l-.12-.13-.12.12.18.14Z"/><path d="M16.36,21.32l.67.62-3,3.14-3.36-3.17L9.58,20.84l.63-.66L14,23.78Z"/><path d="M24.17,16.07l-2.64,2-.73.55-.55-.73-2-2.61-.66-.87-.55-.73,3.37-2.55.55.74-2.64,2,1,1.37,2.31-1.74.55.73L20,16l1,1.38,2.64-2Z"/><path d="M29.82,12.7a2.56,2.56,0,0,1-.46.11l-.44,0h-.55l-.15,0H28.1a.13.13,0,0,0-.08,0l.15-.84.21,0,.36,0a2.16,2.16,0,0,0,.44,0,2.85,2.85,0,0,0,.46-.12,1.12,1.12,0,0,0,.25-.11l.23-.15a1,1,0,0,0,.22-.19,1.18,1.18,0,0,0,.19-.24,1.89,1.89,0,0,0,.09-.21,1.55,1.55,0,0,0,0-.21.79.79,0,0,0,0-.22.77.77,0,0,0-.08-.19.7.7,0,0,0-.13-.16l-.17-.11a.76.76,0,0,0-.43-.08l-.29,0-.37.05-.31,0-.31.05-.31,0-.3,0a2.06,2.06,0,0,1-.44,0A1.65,1.65,0,0,1,27.1,10a2,2,0,0,1-.34-.23,1.24,1.24,0,0,1-.28-.32,1.35,1.35,0,0,1-.19-.38,1.54,1.54,0,0,1-.07-.42,2.13,2.13,0,0,1,0-.44,1.94,1.94,0,0,1,.14-.45l.06-.12.09-.15.12-.16.15-.16A1.9,1.9,0,0,1,27,7l.29-.17a.75.75,0,0,1,.18-.08l.2-.09a2.85,2.85,0,0,1,.66-.13,5.2,5.2,0,0,1,.85,0l-.11.84-.3,0h-.36a2.08,2.08,0,0,0-.36,0l-.36.12a1,1,0,0,0-.32.21,1.23,1.23,0,0,0-.22.35,1.55,1.55,0,0,0-.07.23.6.6,0,0,0,0,.23.49.49,0,0,0,0,.21.48.48,0,0,0,.09.19.67.67,0,0,0,.14.15l.17.11a.58.58,0,0,0,.21.07.85.85,0,0,0,.23,0h.25l.28,0L29,9.24l.22,0,.2,0,.18,0,.16,0a1.83,1.83,0,0,1,.47,0,1.77,1.77,0,0,1,.42.15,2.25,2.25,0,0,1,.36.24,1.1,1.1,0,0,1,.26.35l0,0a1.56,1.56,0,0,1,.15.39,1.44,1.44,0,0,1,0,.42,2.13,2.13,0,0,1-.07.44,2,2,0,0,1-.2.41c-.07.11-.13.21-.2.3a2.55,2.55,0,0,1-.24.23,1.51,1.51,0,0,1-.26.2,1.4,1.4,0,0,1-.26.16A2.62,2.62,0,0,1,29.82,12.7Z"/><path d="M43.74,7.5a1.73,1.73,0,0,1-.53-.09,2,2,0,0,1-.42-.16,2.16,2.16,0,0,1-.34-.16l.17-.34.26-.47.27.13a1.17,1.17,0,0,0,.28.11,1.21,1.21,0,0,0,.34.05,2.37,2.37,0,0,0,.43-.05,1.59,1.59,0,0,0,.42-.15.67.67,0,0,0,.27-.22A2.52,2.52,0,0,0,45,5.88a.89.89,0,0,0,.07-.28V5.32a.53.53,0,0,0,0-.13.22.22,0,0,0,0-.1l-.81-4L45.16.9l.82,4a2.65,2.65,0,0,1,0,.88,1.85,1.85,0,0,1-.29.76,1.67,1.67,0,0,1-.55.57,2.72,2.72,0,0,1-.8.31A3,3,0,0,1,43.74,7.5Z"/><path d="M55.53,4.75c-.32,0-.74-.07-1.23-.09l-1.71-.14-.27.73c-.11.32-.23.66-.37,1l-.89,0L53.33,0h0l1,0h0l2.7,6.09-.91,0C55.87,5.51,55.67,5.05,55.53,4.75ZM55.19,4l-.55-1.26L53.88,1l-1,2.77Z"/><path d="M66.46,6.6l-.31.22a5.38,5.38,0,0,0-.44.31c-1-1.39-1.62-2.32-1.95-2.77L63,4.25l-.32,2.29-.91-.13.44-3.07.43-3,2.49.35a2.13,2.13,0,0,1,.71.24,2.1,2.1,0,0,1,.56.52,2.07,2.07,0,0,1,.34.68,1.93,1.93,0,0,1,0,.76,1.86,1.86,0,0,1-.2.63,2,2,0,0,1-.41.52,1.93,1.93,0,0,1-.55.36,1.82,1.82,0,0,1-.63.14Zm-1.76-3a1.07,1.07,0,0,0,.4,0,1,1,0,0,0,.35-.17,1,1,0,0,0,.28-.29,1.21,1.21,0,0,0,.12-.38,1,1,0,0,0,0-.39A1,1,0,0,0,65.65,2a1.19,1.19,0,0,0-.28-.27A1,1,0,0,0,65,1.55l-1.58-.22-.29,2h0Z"/><path d="M76.76,8.16a2.66,2.66,0,0,1-.9.72,2.87,2.87,0,0,1-1.14.29A3.75,3.75,0,0,1,73.47,9l-2.08-.69,1-2.94,1-2.93,2.07.69a4.49,4.49,0,0,1,.44.17,2.48,2.48,0,0,1,.38.22l.34.26a2.83,2.83,0,0,1,.3.3,3.24,3.24,0,0,1,.41.63,3.53,3.53,0,0,1,.22.74,2.61,2.61,0,0,1,0,.79,3.72,3.72,0,0,1-.18.84A3.29,3.29,0,0,1,76.76,8.16Zm-.11-2.31A1.92,1.92,0,0,0,76,4.39,2.49,2.49,0,0,0,75.14,4l-1.2-.4L72.56,7.7l1.2.4a2.52,2.52,0,0,0,.7.15,2.24,2.24,0,0,0,.59-.05,1.86,1.86,0,0,0,.5-.19A2,2,0,0,0,76,7.7a1.18,1.18,0,0,0,.18-.21l.15-.23c0-.09.09-.16.13-.25a2.77,2.77,0,0,0,.1-.26A2.9,2.9,0,0,0,76.65,5.85Z"/><path d="M83.78,6.54l.81.42-2.81,5.5L81,12l1.76-3.43Z"/><path d="M94.28,13.17l-3.62,5-.73-.54c0-1.25.07-2.35.1-3.29L90.1,12l-2.74,3.79-.71-.52,2.71-3.75.9-1.25.73.53c0,1.25-.07,2.35-.1,3.29s0,1.73-.07,2.36l2.74-3.79Z"/><path d="M95.67,22.77a2,2,0,0,1-.24-.42l-.16-.4a2,2,0,0,1-.1-.36,1.54,1.54,0,0,1,0-.17l0-.15c0-.05,0-.09,0-.12a.09.09,0,0,0,0-.08l.85-.1,0,.21.08.35a2.3,2.3,0,0,0,.14.42,2.42,2.42,0,0,0,.25.4,1.81,1.81,0,0,0,.18.21l.2.18a1.28,1.28,0,0,0,.25.15,1.26,1.26,0,0,0,.29.12l.22,0a.82.82,0,0,0,.22,0,.59.59,0,0,0,.2-.07.52.52,0,0,0,.17-.13,1.63,1.63,0,0,0,.11-.17l.06-.19a.81.81,0,0,0,0-.22.55.55,0,0,0-.06-.22l-.11-.27L98,21.4l-.13-.28c0-.1-.1-.19-.14-.28l-.12-.3c0-.09-.07-.19-.1-.27a1.91,1.91,0,0,1-.09-.44,1.52,1.52,0,0,1,0-.43,2.64,2.64,0,0,1,.12-.4,1.08,1.08,0,0,1,.22-.35,1.81,1.81,0,0,1,.32-.3,1.93,1.93,0,0,1,.38-.19,3,3,0,0,1,.43-.1,1.42,1.42,0,0,1,.46,0l.14,0,.17,0,.19.07.2.1a1.58,1.58,0,0,1,.24.15l.24.22s.09.09.13.15.09.11.14.17a2.19,2.19,0,0,1,.31.59,4.39,4.39,0,0,1,.2.83l-.83.14-.06-.29a.64.64,0,0,0,0-.17l-.06-.18a2,2,0,0,0-.16-.33,2.11,2.11,0,0,0-.21-.31.91.91,0,0,0-.3-.25,1.38,1.38,0,0,0-.39-.11H99a.87.87,0,0,0-.22.05.42.42,0,0,0-.19.09.43.43,0,0,0-.16.14.59.59,0,0,0-.1.17.66.66,0,0,0-.06.2.55.55,0,0,0,0,.22,1,1,0,0,0,0,.23l.09.23.11.27.24.52c0,.08.07.14.09.2l.09.18a1.22,1.22,0,0,0,.07.17.47.47,0,0,1,.06.15,1.71,1.71,0,0,1,.1.46A1.83,1.83,0,0,1,99,23a1.16,1.16,0,0,1-.25.36l0,0a1.56,1.56,0,0,1-.34.25,1.38,1.38,0,0,1-.39.16,2.2,2.2,0,0,1-.44.05,1.69,1.69,0,0,1-.45-.07l-.34-.11a2.11,2.11,0,0,1-.3-.16,2.48,2.48,0,0,1-.26-.19l-.23-.2A3.52,3.52,0,0,1,95.67,22.77Z"/><path d="M34.53,118.37a2.58,2.58,0,0,1-.92.62,2.65,2.65,0,0,1-1.11.18,3.52,3.52,0,0,1-1.18-.29l-1.91-.82,1.16-2.72,1.17-2.71,1.91.82c.14.07.28.13.4.2a3.64,3.64,0,0,1,.35.24l.3.27a3.88,3.88,0,0,1,.26.31,3.28,3.28,0,0,1,.34.64,3.06,3.06,0,0,1,.12,1.48,3.41,3.41,0,0,1-.24.77A3.2,3.2,0,0,1,34.53,118.37Zm.07-2.2a1.73,1.73,0,0,0-.12-.78,1.84,1.84,0,0,0-.43-.66,2.29,2.29,0,0,0-.74-.47l-1.11-.48-1.64,3.83,1.11.47a2.79,2.79,0,0,0,.65.2,1.81,1.81,0,0,0,.57,0,1.56,1.56,0,0,0,.49-.15,1.77,1.77,0,0,0,.41-.26,1.07,1.07,0,0,0,.19-.18c.05-.07.11-.13.16-.21s.1-.14.14-.22.08-.16.12-.24A3.07,3.07,0,0,0,34.6,116.17Z"/><path d="M40.5,117.72l-.56-.56,1.22-1.22.57.55Q40.8,117.41,40.5,117.72Z"/><path d="M49.22,122.29c-.3-.08-.68-.19-1.14-.29l-1.58-.41-.37.65c-.16.28-.33.58-.52.89l-.85-.11,3.15-5.53h0l.95.13h0l1.55,6.16-.86-.11ZM49,121.5l-.32-1.28-.43-1.74-1.4,2.45Z"/><path d="M60,123l0,.87L55.9,124l-.12-4.42,0-1.48.88,0,.13,5Z"/><path d="M64.66,117.42l.86-.14,1,5.82-.86.14-.6-3.63Z"/><path d="M77,119.38a2.23,2.23,0,0,1-.31.54,3.8,3.8,0,0,1-.42.47,3.42,3.42,0,0,1-.52.4,4.66,4.66,0,0,1-.61.26,3.2,3.2,0,0,1-.42.1,3,3,0,0,1-.43,0,3,3,0,0,1-.42,0,2.79,2.79,0,0,1-.4-.07,3.18,3.18,0,0,1-.71-.28,3.32,3.32,0,0,1-.63-.45,2.84,2.84,0,0,1-.5-.59,2.64,2.64,0,0,1-.34-.72,2.41,2.41,0,0,1-.1-.43,2,2,0,0,1,0-.43,1.94,1.94,0,0,1,0-.42c0-.14,0-.26.07-.4a2.75,2.75,0,0,1,.27-.71A4,4,0,0,1,72,116a2.9,2.9,0,0,1,.6-.51,3.13,3.13,0,0,1,.72-.33,3.06,3.06,0,0,1,.6-.13,3,3,0,0,1,.6,0,2.13,2.13,0,0,1,.58.11,2.66,2.66,0,0,1,.53.21l-.32.84a2,2,0,0,0-.4-.17,1.43,1.43,0,0,0-.42-.09,3.38,3.38,0,0,0-.45,0,2.62,2.62,0,0,0-.45.1,2.34,2.34,0,0,0-.51.23,2.86,2.86,0,0,0-.42.36,2.39,2.39,0,0,0-.31.45,2.18,2.18,0,0,0-.2.5,2.5,2.5,0,0,0,0,.29,1.43,1.43,0,0,0,0,.29,1.63,1.63,0,0,0,0,.31c0,.1,0,.2.07.3a2.36,2.36,0,0,0,.12.28,2,2,0,0,0,.15.26,2.15,2.15,0,0,0,.18.24,1.94,1.94,0,0,0,.21.2,2.45,2.45,0,0,0,.44.3,3.2,3.2,0,0,0,.52.18,2.5,2.5,0,0,0,.55,0,2.13,2.13,0,0,0,.56-.1,3.43,3.43,0,0,0,.44-.19,1.48,1.48,0,0,0,.37-.29,2.59,2.59,0,0,0,.31-.35,1.87,1.87,0,0,0,.22-.39Z"/><path d="M86.3,116.12l-2.8,1.44-.78.41-.4-.78-1.43-2.77-.48-.93-.4-.77,3.58-1.85.4.77-2.8,1.45.75,1.46,2.45-1.27.41.79-2.46,1.26.76,1.46,2.8-1.45Z"/><path d="M107.62,65.3a3.3,3.3,0,1,1,3.29-3.3A3.29,3.29,0,0,1,107.62,65.3Zm0-5.59A2.3,2.3,0,1,0,109.91,62,2.29,2.29,0,0,0,107.62,59.71Z"/><path d="M3.29,65.3A3.3,3.3,0,1,1,6.59,62,3.3,3.3,0,0,1,3.29,65.3Zm0-5.59A2.3,2.3,0,1,0,5.59,62,2.3,2.3,0,0,0,3.29,59.71Z"/></g></g></svg>