<svg xmlns="http://www.w3.org/2000/svg" viewBox="0 0 720 720"><defs><style>.cls-1{fill:none;}</style></defs><title>Fichier 17</title><g id="Calque_2" data-name="Calque 2"><g id="Calque_4" data-name="Calque 4"><rect class="cls-1" width="720" height="720"/><path d="M206.05,265.94c1-4-2.82-9.05,2.76-12q.83,5.91,1.67,11.83l-.29.31-4.06-.1Z"/><path d="M206.12,270.18c-4-.86-9.06,2.86-12-2.73l11.92-1.51.08.08c0,1.41,0,2.82-.08,4.23Z"/><path d="M210.48,265.81l11.88,1.66c-2.82,5.7-8,1.61-11.9,2.87l-.26-.25v-4Z"/><path d="M210.46,270.34q-.84,5.88-1.67,11.77c-5.52-2.94-1.8-7.95-2.67-11.93l-.07.07,4.15-.16Z"/><path d="M520.21,362.58c0,2.43.23,4.88.07,7.3,0,.73-.58,2.08-1.64,2.08s-1.26-1.43-1.74-2.23c-1-1.6.27-6.38.27-6.38s-8.65,0-8.43-2c.77-.11-.77-1.07,0-1.18,1.58-.24,5.48.36,7.06.16a14.73,14.73,0,0,1,2.1,0l2,.45c.66.67,2.28,1,.29,1.79Z"/><path d="M520.53,360.13a5.49,5.49,0,0,1,1,.06c2.2.46,4.39.94,6.57,1.41a7.57,7.57,0,0,1-.52,1.75c-2.46-.18-4.92-.49-7.37-.77l0,0c-.11-.59-.21-1.19-.29-1.79Z"/><path d="M517.9,360.31a51.07,51.07,0,0,1-.73-6c0-.57,1.06-1.16,1.63-1.75.45.46,1.23.88,1.29,1.39.27,2,.32,4.12.44,6.19l-.63.63a6.48,6.48,0,0,1-1.7-.2Z"/><path d="M199.51,486c.05,2.43.24,4.88.07,7.3,0,.73-.58,2.08-1.63,2.08s-1.27-1.43-1.75-2.23c-1-1.6.27-6.38.27-6.38s-8.65,0-8.43-2c.77-.11-.77-1.07,0-1.18,1.59-.24,5.48.36,7.07.16a14.61,14.61,0,0,1,2.09,0l2,.45c.66.67,2.28,1,.29,1.79Z"/><path d="M199.84,483.58a5.6,5.6,0,0,1,1,.06l6.57,1.41a8,8,0,0,1-.53,1.75c-2.46-.18-4.92-.49-7.37-.77l0,0c-.11-.59-.21-1.19-.29-1.79Z"/><path d="M197.2,483.76a53.27,53.27,0,0,1-.73-6c0-.57,1.06-1.16,1.63-1.75.45.46,1.23.88,1.3,1.39.26,2,.31,4.12.44,6.19l-.64.63a6.41,6.41,0,0,1-1.69-.2Z"/><path d="M381.39,243.16c-.3,1.89-1.12,2.52-2.8,1.18-6.57-5.2-12.31-11.2-15.23-19.17q-6.54-17.85-12.24-36a12.77,12.77,0,0,1,.73-8c1.65-4,3.6-4.55,7.8-3.1,8.11,2.8,14.55,7.33,18,15.77,3.68,9.1,5.28,18.54,6.06,28.21.32,4,.72,8,1.12,12a4.74,4.74,0,0,0,.56,1.27c.1-.39.2-.77.29-1.16.67-2.94,1.37-5.88,2-8.82,4.78-22.74,16.33-40.54,37.56-51.14a20.57,20.57,0,0,1,8.07-2.15c4.77-.18,8.25,4.7,6,8.66-5.71,10.16-11.13,20.56-20,28.6a57.71,57.71,0,0,1-24.13,13.25c-2.82.75-4.65,2-5.39,4.9-3.18,12.55-4.48,25.36-5.35,38.23,0,.43.34.88.52,1.33a10.49,10.49,0,0,0,1.16-1.35c3.76-6.2,7.19-12.62,11.29-18.58a90.49,90.49,0,0,1,36.66-31.49,30.4,30.4,0,0,1,8.1-2.28c4-.64,5.73,1.21,4.92,5.19a15,15,0,0,1-2.39,5.47c-7.93,11.17-15.69,22.71-27.61,30a101.64,101.64,0,0,1-21.34,9.53c-6.56,2.15-10.12,4.61-11.32,11.27-2.78,15.5-4.25,30.91-1.86,46.79,1.75,11.64,1.19,23.65,1.33,35.5.12,9.46-.26,18.92-.4,28.38a17.73,17.73,0,0,0,.12,1.78c.32-.68.68-1.35,1-2,4.77-10.87,9.4-21.81,14.37-32.59a154.7,154.7,0,0,1,7.61-13.73c3.38-5.72,3.77-11.08-.31-16.85-6.59-9.33-10.22-19.55-8-31.3.62-3.31.09-6.83.31-10.24.18-2.87.77-5.69,4-6.81a7.67,7.67,0,0,1,8.35,2.08c1.85,2,3.7,4.65,4,7.2a119.75,119.75,0,0,1,.92,21c-.47,7.6-2.17,15.11-3.31,22.67a7.6,7.6,0,0,0,.14,1.7,8.72,8.72,0,0,0,1.39-1c4.1-4.15,8.1-8.4,12.28-12.47,3.56-3.46,4.73-7.32,4.54-12.42-.53-14,.51-27.76,9-39.88,3.57-5.1,6.31-10.77,9.48-16.15,1.72-2.91,4.42-6.09,7.55-4.44,2.18,1.14,3.53,5.2,3.88,8.12a18.26,18.26,0,0,1-1.59,9.39c-5.36,11.48-11.08,22.78-16.79,34.09-2.44,4.85-5.19,9.55-7.8,14.32l0,0c4.84-3.26,9.61-6.62,14.53-9.74,2.92-1.86,4.91-4.23,5.21-7.67,1-11,5.64-20.48,11.63-29.41,4.26-6.34,8.63-12.64,13.39-18.6a16.37,16.37,0,0,1,7.31-4.84c3.23-1.09,5.67,1,5.42,4.44a20.63,20.63,0,0,1-2.3,8.58,131.17,131.17,0,0,1-21.11,27.81c-3.54,3.52-6.39,7.75-9.44,11.74-.52.68-.43,1.81-.63,2.74a16.31,16.31,0,0,0,2.8,0c8.88-1.62,17.7-4.08,26.65-4.7,6.44-.43,13.16,1.1,19.55,2.63,5.68,1.37,6.24,4.23,2.4,8.52a12.43,12.43,0,0,1-4.22,3.3c-8.79,3.54-17.74,6.22-27.46,5.88-7.84-.28-14.26-4.11-20.72-7.62-3.17-1.72-5.5-1.91-8.26-.06-4.15,2.79-8.29,5.62-12.43,8.44l-.05,0a32.39,32.39,0,0,0-3.93,2.79,12.11,12.11,0,0,0-1.73,2.85,11.33,11.33,0,0,0,3.33.9c10.21-.52,20.06,1.92,29.65,4.65,5.16,1.47,9.76,5.37,14.14,8.78,1.51,1.17,2.41,4.3,2.1,6.32-.42,2.83-3.46,1.79-5.56,2.08-12.49,1.72-23.54-2-33.56-9.08-3.06-2.17-5.49-5.25-8.14-8-4.14-4.27-5.72-4.23-9.93-.08-9.76,9.64-16.68,21.25-22.33,33.52-5.88,12.77-12,25.62-15.93,39.05-6.08,20.71-8.35,42.23-8.82,63.85-.24,10.85-.46,21.72-.18,32.57.15,5.39,1.5,10.75,2.19,16.13a7,7,0,0,1-.72,2.55c-.55-.74-1.48-1.43-1.59-2.24-1.11-8.36-3-16.76-2.92-25.12.2-16.89,1.41-33.76,2.44-50.63a25.28,25.28,0,0,0-3.3-13.91c-7.11-13-13.69-26.42-23.14-38.1-2.31-2.85-3.1-6.88-4.89-10.21-2.85-5.3-3.58-5.4-9-3.12-11.65,4.92-23.56,8.28-36.37,5.41-2.55-.57-5.06-1.31-7.63-1.78-3.32-.61-6.66-1.05-10-1.51a36,36,0,0,1-4.19-.43c-4.38-1.16-5.34-4.47-2.09-7.54a12.53,12.53,0,0,1,5-3.23c6.19-1.59,12.47-3.78,18.75-3.89,9.6-.16,19.32.62,28.31,5a50.11,50.11,0,0,0,9.13,3c2,.54,3.49-.3,2-2.48-3.33-4.79-6.84-9.45-10.42-14.06-1.53-2-3.4-2-5.88-1.07-15.23,6-29.63,3.6-43.15-5.05-3.34-2.13-7.83-4.89-6.84-9.06s6.05-4.36,10.07-5.19c6.49-1.35,12.52.49,18.33,2.48,11.09,3.8,21.75,8.61,30.07,17.34a11.45,11.45,0,0,0,1.39,1.08,6.82,6.82,0,0,0,.34-2.05c-1.22-8.15-2.56-16.28-3.77-24.44-1.16-7.83-.31-15.28,4.74-21.77a17.73,17.73,0,0,1,2.37-2.73c5.82-4.94,11.15-3.12,12.87,4.35a14.7,14.7,0,0,1,.28,2.4c.84,12.05-1.78,23.56-5.94,34.73-.93,2.51-3,4.74-5,6.67a6.27,6.27,0,0,0-1.31,8.21c3.47,6.37,7.21,12.59,10.88,18.84.27.45.89.69,1.35,1a9.1,9.1,0,0,0,.57-1.61c.44-3,1.34-6,1.16-9-.67-10.68,1.87-20.86,4.93-30.83,1.36-4.41,4.38-8.56,7.48-12.09s7-2.24,8,2.27a19.84,19.84,0,0,1-.21,8.87c-2.14,8.36-4.84,16.57-7.11,24.9a41.37,41.37,0,0,1-9.24,16.77c-3.83,4.34-3.92,5.15-1,10.12,5.72,9.72,11.65,19.31,17.38,29,1.94,3.29,3.54,6.77,5.34,10.15a12.07,12.07,0,0,0,1.35,1.71,15.78,15.78,0,0,0,.55-2.23c2.11-19,3.76-38,3.8-57.23,0-11.67.89-23.34-.83-34.94-1.05-7.14-1.95-14.44-4.18-21.25-7.82-23.77-20-44.82-40.19-60.44a17.9,17.9,0,0,0-2.08-1.21l0,0-12.47-9.76,0,.05a54.94,54.94,0,0,0-5-5.08c-1.28-1-3.72-2.45-4.43-1.95-2.08,1.44-3.07,3.59-2.75,6.69.53,5.1.07,10.31-.1,15.46a4,4,0,0,1-1.11,2.74c-1.29,1.05-2.91,2.32-4.39,2.31-1.13,0-2.75-1.61-3.3-2.88a11.86,11.86,0,0,1,.65-10.5q3.06-5.88,6.34-11.65c1.56-2.74.2-3.07-2.13-2.89-3.66.28-9.19,5.65-9.33,9.36a22.6,22.6,0,0,1-7.63,16.5c-1.73,1.58-3.69,3.67-6.31,1.65-2.38-1.82-2.74-4.45-1.56-7.08A34.05,34.05,0,0,1,292.28,231c1.65-1.15,3.32-2.27,4.88-3.54a6.67,6.67,0,0,0,1.13-2c-.65-.35-1.31-1-2-1-3,0-6,.06-9,.34a4.56,4.56,0,0,0-2.33,1.52c-.39.37-.27,1.23-.64,1.66A43.94,43.94,0,0,0,274,249.05c-.36,1.93-2.19,3.93-3.88,5.15-1.39,1-3.88,1.66-5.36,1.1-2.55-1-3.07-3.67-2.17-6.17a16.91,16.91,0,0,1,3-5.18,68.84,68.84,0,0,1,5.68-5.37l.91-.41-.89.44c-2.15-.18-4.33-.19-6.44-.57-7.4-1.3-8.41-4.33-3.49-10.14l1.33-1.08,1.33-1.09.94-.4-.93.42-1.32,1.09-1.32,1.1c-3.58.13-7.22.71-10.74.27-4.12-.52-7.44-4.45-6.93-7.18s5.67-5.64,9.5-4.7a19.26,19.26,0,0,1,6.45,3.11c4.12,3,8.42,4.33,13.56,3.44,3.34-.58,6.82-.3,10.21-.63,1-.09,1.9-.95,2.84-1.46-1.12-.92-2.57-2.84-3.32-2.6-8.74,2.78-15.74-1.39-22.65-5.52-1.65-1-3.63-3.43-3.46-5,.3-2.83,3.22-3.93,6-4,4.94-.17,9.75.75,13.61,4a111.13,111.13,0,0,1,10.87,10.39c2.49,2.75,5.09,4.26,8.88,4,4.39-.33,8.81-.3,13.21-.43l.14.28-.19-.24c-2.43-2.1-5.33-3.85-7.19-6.37-3.91-5.33-10-7.16-15.27-10.2-1.07-.61-2.76,0-4.07-.39-4.42-1.15-8.89-2.23-13.17-3.79-2.89-1.06-4.79-3.78-3.54-6.73s4.45-3.66,7.24-2c4.48,2.6,8.72,5.59,13,8.5,2,1.32,3.79,2.84,5.67,4.27-.62-2.13-1.23-4.25-1.85-6.37a13.2,13.2,0,0,1-.68-2.31c-.49-5.38-3-9.17-7.79-12-2.21-1.29-3.55-4.24-5-6.62-1.35-2.22-.55-4.3,1.34-5.91,2.08-1.78,4.6-2.25,6.55-.26a25.1,25.1,0,0,1,5,7.18c1.14,2.58,1.49,5.43,5,5.81.36,0,.69.4,1,.64q2.58,1.92,5.14,3.86c.4-2.54.82-5.07,1.19-7.62s.17-5.34,1.17-7.61c1.75-4,5.35-4.09,8-.55,2.19,2.95,2.18,7-.31,10.73a14.24,14.24,0,0,1-4.06,4.38c-3.09,1.84-3.43,4.15-2.32,7.18,1.62,4.4,1.56,8.78-1,12.77-1.7,2.62-1.09,4.64,1.09,6.28,2.5,1.87,5.23,3.45,7.86,5.15.29-3.1.92-6.22.79-9.3-.22-5-1-10-1.37-15-.1-1.34.06-3.16.88-4,1.41-1.46,3.35-3,5.22-3.26,2.62-.32,3.8,2.21,4,4.47.38,5.53-.48,10.82-4.1,15.38-.71.9-.82,2.27-1.21,3.43,1.2-.5,2.72-.7,3.52-1.57,1.33-1.42,2.12-3.34,3.29-4.94a97.78,97.78,0,0,1,6.89-9c2-2.19,4.82-3.28,7.56-1.05s2,5,.38,7.6a21.9,21.9,0,0,1-15.94,10.81c-2.83.43-5.26,1-5.92,4.05s-.87,6.22,2.35,8.68c5.75,4.41,11.11,9.31,16.81,13.78C352.2,253,365.11,269.11,373.16,289c1.26,3.13,3,6.06,4.49,9.09.69-3,1.63-6,2-9.09q1.59-12.88,2.78-25.8a100.88,100.88,0,0,0,.47-12.65c-.08-2.48-1-4.92-1.57-7.38C377,230.66,373,218,368.3,205.64A119,119,0,0,0,359.35,188c-1.14-2-3.63-3.13-5.5-4.67.13,2.5-.23,5.15.48,7.47,2.43,7.87,5.66,15.51,7.8,23.45C365.34,226.17,370.78,236.32,381.39,243.16Zm-87.25-53.43,1.24.14.21.31-.25-.28-1.09-1.33c-.16-.52-.32-1-.49-1.56l-.61.36,1.16,1.16-.12,1.26-.31.25ZM265.77,232l-1.12-1.31c.09-.81.17-1.62.26-2.42,1.28,1.19,3,2.15,3.76,3.61,2.07,4.06,2.31,4.43,6.27,2.28a18.35,18.35,0,0,0,5.46-4.57c2.19-2.76,1.24-4.89-2.18-4.49-4.49.53-8.87,2.08-13.29,3.18a26.4,26.4,0,0,0-3.67,3,2.67,2.67,0,0,0-.28,2.52c.46.66,1.66.8,2.54,1.17a8,8,0,0,1-.11-2.47,6.41,6.41,0,0,1,1.29-1.87C265.05,231.1,265.41,231.55,265.77,232ZM288.7,246.4l-1.32,1.09-4.14,2.12c.25.23.68.69.73.65,1.14-.91,2.25-1.87,3.37-2.83l1.32-1.08.26-.24Zm-40.4-22.19,0,0-1.09-1.33-.58-.91.61.89Zm37,19.37,0,0c-.07.79-.15,1.58-.23,2.37l-.92.64,1-.6,1.42-2.28c.72-.32,1.46-.94,2.16-.9,5,.32,3.47-3.78,4.26-6.24.17-.54-.39-1.32-.62-2-1.66,1.33-3.68,2.41-4.85,4.09-.89,1.27-.7,3.3-1,5A1.26,1.26,0,0,1,285.32,243.58Zm-16.21-46.47c.08-.82.16-1.65.25-2.47L273,195l1,2.55c1.18,3.21,5.08,5.28,8.11,4.23.35-.12.78-1.07.75-1.1-1.53-1.22-3-2.7-4.72-3.42-1.16-.47-2.77.18-4.18.32-.32-.84-.65-1.69-1-2.53l-3.57-.36c-.07.8-.14,1.6-.22,2.4l1,.4ZM435.34,300.63c.52-1.17,1-2.34,1.54-3.52,5.14-9,10.76-17.82,15.23-27.17,2.79-5.84,6.36-11.73,6-18.71,0-.77-.05-1.54-.08-2.31a12.07,12.07,0,0,0-1,2.1c-2.72,10.38-7.89,19.64-12.89,29-2.89,5.44-4.86,11.38-7.24,17.1l-1.56,3.5-.58.85C435,301.22,435.16,300.92,435.34,300.63ZM259.65,207.07l1.78,0-.13-.64-1.61.66-.35.93C259.44,207.71,259.55,207.39,259.65,207.07ZM284.11,356.5l4.93-.74c7.53,1,15.07,1.92,22.58,3.06,5.53.84,11,2,16.55,2.93a6.52,6.52,0,0,0,2-.26,17.38,17.38,0,0,0-1.51-.87c-12.66-5.87-25.7-8.66-39.55-4.8l-4.94.72-.95.42Zm21.65-110.89-1.05-1.35c3.46-2.5,4.55-5.29,3.13-8.34-.2-.42-1.54-.76-1.56-.71a40.22,40.22,0,0,0-3.13,6.35c-.22.67,1,1.81,1.52,2.74l1.14,1.27c.19,2.08-.53,3.41-2.83,3.43l-.48-.95.55.9c1,2.2,2.3,2.14,3.11,0C306.51,248,305.92,246.74,305.76,245.61Zm26.59-48.49c2.36,2.45-.75,2.44-1.56,3.47-1.47,1.15-3.24,2.07-4.34,3.5s-1.74,3.57-2.51,5.41c-.06.15.46.77.58.73,2.89-.85,5.75-1.7,6.5-5.32.1-.5,2-.43,2.55-1.07s.58-1.9.83-2.88c-.13-1.59,2.05-4.41-2.07-3.86Zm-14-6.25,0,0c-.53-.19-1.43-.67-1.52-.54a12.44,12.44,0,0,0-1.54,2.82c0,.11.88.61,1.35.93a7.64,7.64,0,0,1,.24-2.37C317,191.32,317.85,191.15,318.37,190.87ZM304.7,181.1l-.3-2c-.09.14-.28.31-.24.41.16.53.38,1,.58,1.56a10.12,10.12,0,0,0-.17,2.38,12.79,12.79,0,0,0,.88,2.47l3.41-3.12a21,21,0,0,0-2.4-1.45A5.94,5.94,0,0,0,304.7,181.1Zm-39.38,67.83,3.52,1.6h0l.15-4.42,2.49,2.25h0q.9-3.69,1.81-7.36c-2.11,1.6-4.33,3.08-6.29,4.84-.82.75-1.11,2.08-1.64,3.15,0,1.33,0,2.67.06,4,0,.05.33.09.5.14-.22-1.2-.45-2.41-.66-3.61A1.88,1.88,0,0,1,265.32,248.93ZM279.76,175l-.17-.32.23.28c-.79,4.64,2.21,6.94,5.6,8.95a8,8,0,0,0,2.18.58c.18-.72.66-1.53.48-2.16-.64-2.3-1.49-4.53-2.27-6.78l-2.42-.26Zm-13,34c-.41.63-1.31,1.47-1.14,1.86,1.59,3.73,10,7.13,13.88,5.64a2.54,2.54,0,0,0,.65-2,93.53,93.53,0,0,0-9.6-6.9c-.73-.43-2.52.93-3.81,1.46Zm97.73,107.93c-2.23,3.28-5.58,6.28-6.47,9.89-2.4,9.72-3.76,19.7-5.5,29.58a10.71,10.71,0,0,0,.08,2.11c.2-.76.44-1.52.61-2.29,1.16-5.3,2-10.68,3.54-15.87,2.32-7.89,5.11-15.65,7.71-23.46l.25-.13Zm96.25-40.58c5.07-6.75,10.16-13.48,15.18-20.26,2.76-3.72,5.48-7.47,8-11.33.68-1,.72-2.48,1.05-3.73-1.13.76-2.57,1.3-3.36,2.34-7.88,10.41-16.19,20.57-20.87,33l-.4.92Zm-55.85-.48-.19-.28.24.24c6,9.18,7.21,19.23,5.89,29.91-.51,4.14-.11,8.39-.08,12.59a16.9,16.9,0,0,0,.3,2.22,21.58,21.58,0,0,0,.51-2.33c.56-4.58.87-9.2,1.68-13.73a55.31,55.31,0,0,0-.94-22C411.47,278.6,409.24,276,404.92,275.86Zm-49.68,86.29c1.85-3.7,4.36-7.21,5.41-11.12,2.07-7.74,3.24-15.71,6.77-23.06a16,16,0,0,0,1-5.89,11.16,11.16,0,0,0-.86-3.32,12.54,12.54,0,0,0-2,2.63,166.19,166.19,0,0,0-10.3,40.81c-.14.31-.28.63-.41.94ZM460,284.79c2.67-3,5.14-6.23,8-9,7.81-7.46,13.66-16.37,19.21-25.5a20.25,20.25,0,0,0,1.92-5.63,7.63,7.63,0,0,0-.31-2.63,19.26,19.26,0,0,0-1.56,1.71c-5.4,7.27-11,14.37-16.07,21.88-4.12,6.15-7.51,12.77-11.22,19.19l-.22.13Zm-124.4,54.83c2.1-3.35,5.26-6.46,6.1-10.1a259.28,259.28,0,0,0,4.39-27.36c.29-2.4-1-5-1.78-7.48-.23-.68-1.44-1-2.2-1.54-.15.76-.34,1.51-.45,2.27q-3,22.09-6.07,44.21ZM408,319.86l0,0c.24-7.43.4-14.87.73-22.3.29-6.63-.76-12.84-5.06-18.16a6.41,6.41,0,0,0-1.9-1.1,8.56,8.56,0,0,0-.47,1.73c-.23,5.21-.13,10.47-.68,15.65C399.59,304.89,402.72,312.67,408,319.86ZM274.5,330.09l0,0c3.56,6.1,10.27,7.43,15.89,10.28,7.92,4,16.31,3.53,24.67,1.35a6.84,6.84,0,0,0,1.52-.87c-.53-.21-1.05-.46-1.6-.63-9-2.83-17.91-5.9-27-8.36C283.68,330.66,279,330.64,274.5,330.09Zm120-72.29c6.88-5.83,13.9-11.5,20.6-17.53,8.78-7.91,17.31-16.1,26-24.17a20.28,20.28,0,0,1,1.65,1.68,29,29,0,0,1-3.24,3.5q-15.13,13.65-30.34,27.23c-4.92,4.38-10,8.62-15,12.93l0,0c7.71-1.09,14.53-4.39,21-8.55,11.6-7.47,19.44-18.41,27.07-29.51a12.73,12.73,0,0,0,2-5.53c.27-2.31-1.23-2.68-3.12-1.65-6.61.85-12.19,4.13-17.38,8-12.26,9-23.47,19-29.21,33.71Zm-12.44-21.89.45.89L382,236c-.21-3.41-.39-6.82-.62-10.23-.73-10.88-2.26-21.55-6.4-31.81-3-7.35-8.86-10.61-15.57-13.17a5.8,5.8,0,0,0-2.22.08,19.49,19.49,0,0,0,1.29,1.92,57.27,57.27,0,0,1,11.42,19.71C373.76,213.68,378,224.77,382.09,235.91ZM393.31,220c9.82-1.21,17.68-6.27,24.85-12.67,8-7.14,12.46-16.74,18-25.58.11-.17.29-.33.32-.51.08-.56.11-1.14.16-1.71a4.4,4.4,0,0,0-1.5.33,16.46,16.46,0,0,0-2.34,1.9L393.35,220l-.23.18Zm39.56-46a74.46,74.46,0,0,0-7.15,2.52c-16.29,7.56-25.86,21-32.41,37.13a7.48,7.48,0,0,0-.15,2.29,13.28,13.28,0,0,0,1.95-1.31q10.31-9.67,20.56-19.41,9.16-8.7,18.25-17.48a9.41,9.41,0,0,0,1.34-2.51ZM296.59,358.41c-4.83.67-11.32,1.5-17.78,2.51-.95.15-1.76,1.18-2.64,1.81a8.47,8.47,0,0,0,2.43,1.37q9.73,1.77,19.5,3.31c3.17.49,6.37.83,9.56,1.17a33.75,33.75,0,0,0,17-2.81c.53-.23,1-.52,1.55-.79a5.13,5.13,0,0,0-1.29-.67C316.13,362.45,307.3,360.63,296.59,358.41Zm135.88-71.47,1,.38c0,2.4,0,4.81,0,7.21a10.28,10.28,0,0,0,.32,1.71,13.69,13.69,0,0,0,.91-1.38c4.81-9.69,9.82-19.29,14.33-29.12,2.32-5.07,3.84-10.52,5.49-15.87.42-1.37-.07-3-.14-4.56-1.1,1-2.51,1.77-3.24,3-3.55,5.81-7.31,11.55-10.23,17.68C437.64,272.75,435.23,279.93,432.47,286.94Zm41.75,18.55c12.48,1,21.83-.89,30.73-5,1.06-.49,1.71-1.87,2.54-2.84-1.13-.27-2.26-.57-3.41-.8a5.46,5.46,0,0,0-1.2.08l-42.09,1.62a7.69,7.69,0,0,0-1.51.36c.38.42.68,1,1.15,1.23C465.8,302.25,471.19,304.32,474.22,305.49Zm-135.59-6.37.56.07a11.07,11.07,0,0,0,.16-1.81c-.06-1.12-.22-2.25-.35-3.37-1,.55-2.24.89-2.95,1.69-3,3.36-5.77,7.11-5.47,11.75.52,8.39,1.63,16.73,2.55,25.09.05.52.56,1,.86,1.47a4.86,4.86,0,0,0,.67-1.4Q336.67,315.87,338.63,299.12Zm106.62,19.81c-1.42-.14-2.22-.25-3-.28-.51,0-1,.06-1.55.09.54.23,1.09.44,1.62.68,8.74,4,17.46,8.11,26.22,12.08a19.13,19.13,0,0,0,5.19,1.47c1.07.14,2.24-.42,3.37-.67-.52-1-.78-2.35-1.59-2.86-3.54-2.24-7-4.93-10.91-6.15C458.1,321.27,451.31,320.24,445.25,318.93Zm49.27-28.49c-4.07.16-8.5,0-12.82.6-5.34.73-10.6,2.07-15.88,3.2a5.16,5.16,0,0,0-1.46.9,10,10,0,0,0,1.75,1,4.69,4.69,0,0,0,1.79.17q18.86-1.09,37.7-2.23a6.1,6.1,0,0,0,1.43-.46,9.62,9.62,0,0,0-1.61-.73C501.92,292.05,498.42,291.3,494.52,290.44Zm-206.6,34.75c-2.14.18-5.33.39-8.49.75-.61.07-1.15.72-1.73,1.1a14,14,0,0,0,1.58.62q15.62,4.24,31.25,8.46c1.93.52,3.87,1,5.83,1.36.59.1,1.27-.32,1.91-.49a7.15,7.15,0,0,0-1.24-1.22A84,84,0,0,0,287.92,325.19ZM464,335c1.79.17,3.59.37,5.39.5a10.78,10.78,0,0,0,1.79-.13c-.43-.25-.85-.54-1.31-.75-9.87-4.44-19.73-8.89-29.62-13.27a9.91,9.91,0,0,0-2.87-.37,7.94,7.94,0,0,0,1.3,2.45A46.35,46.35,0,0,0,464,335ZM302.67,202a22.12,22.12,0,0,0-.32-3.89c-1-3.88-2.74-4.62-6.72-3.15-.48.18-1.31-.23-1.82-.59s-.46-.87-.68-1.33c-.3.47-1,1.08-.85,1.39,1.5,4.1,3,8.2,4.79,12.19.39.89,1.92,2,2.63,1.84.89-.22,1.68-1.58,2.14-2.61A19.19,19.19,0,0,0,302.67,202Zm-47.78,24.34a20.42,20.42,0,0,0,4.33-1c.54-.25,1-2.09.88-2.14-2.73-1.47-5.52-2.86-8.38-4.09-.27-.12-1.08.89-1.54,1.47-.12.15.16.61.26.94l2.24-.88c0,1.16-.33,2.42,0,3.44S254.12,225.54,254.89,226.29ZM314,199.39c.26,1.84.48,3.82.89,5.76.06.3,1.26.75,1.5.57,1.92-1.46,2.41-5.82.83-7.47a8.63,8.63,0,0,0-2.41-1.27C314.57,197.72,314.32,198.46,314,199.39Zm-6.36-22.86,1,.6a3.53,3.53,0,0,0,.05-.91c0-.12-.37-.31-.45-.26A3.07,3.07,0,0,0,307.64,176.53Z"/><path d="M433.29,428.88c4.89-1.57,5.51-6,6.47-10,1.47-6.11,5.15-9.94,11.08-11.38,6.2-1.51,9.34,2.22,7.41,8.39-1.22,3.91-2.41,7.84-2.3,12.33a41.25,41.25,0,0,0,3.13-5.14c3.82-9,12.33-10.88,20.35-13.31,1.25-.38,4.12.87,4.44,1.92.77,2.51,1.66,6.42.38,7.86-5.16,5.78-5.64,13.63-9.77,19.75a12.2,12.2,0,0,0-2.12,4.78c-1.07,7.42-5.64,11.78-12,15A31.81,31.81,0,0,0,453.6,464a72.41,72.41,0,0,1-44.49,19.23,119.54,119.54,0,0,0-41.24,10.86c-10.19,4.75-20.12,9.63-31.57,10.7-5.25.49-6.22,2.77-6.6,8.75-.5,7.73-1.32,15.45-2.25,23.14-.1.88-1.76,2.15-2.8,2.25-8.08.79-16.19,1.86-24.17,2.9a170.31,170.31,0,0,1-21.1,1.55c-6.84,0-7.85-1.13-7.92-8.23-.08-8.27-.61-16.6.2-24.79a125,125,0,0,1,11.48-42.14c4.7-9.8,12.77-15.49,23.56-17.8A183,183,0,0,1,340.11,446c13.42-.36,26.64-3.18,37.82-11,7.6-5.29,16.35-5.59,24.59-8,4.32-1.24,9.39.35,13.93-.44,3.95-.7,7.67-2.83,11.4-4.55,1.89-.87,3.21-2.43,5.67-.62,3.43,2.52-1.23,4.33-.14,6.48a2.53,2.53,0,0,1,0,1.07l-1.62.73.8.8Zm-78.85,36.26c8.25-3.06,14.9-6.27,21.92-7.94,8.41-2,15.41-6.58,22.8-10.46,2.91-1.52,4.92-3.92.9-7.19-1.25-1-.74-4-1.49-5.93-.38-1-2.29-2.39-2.61-2.18-5.34,3.38-11.81,3.57-17.3,7.27-7.12,4.79-15.05,9.21-24.13,9.65-14.46.7-28.8,2.24-43.14,4.24-12.28,1.71-21.07,7.53-25.52,19.09-5.4,14.05-10.37,28.25-10.13,43.68a139.63,139.63,0,0,1-.93,14.86c-.55,6.06,1.6,8.72,7.39,8.88a183.08,183.08,0,0,0,34-2.31c8.77-1.42,9.08-1.75,9.22-10.59.07-5,0-10.08.15-15.11.12-3.14-1-4.63-4.24-4.56-.7,0-1.42-1.12-2.13-1.73.89-.79,1.85-2.34,2.65-2.26,8.29.82,16.52-.89,24.07-3.17,11.92-3.59,23.4-9,34.6-14.53,12.48-6.2,24.61-12.71,38.66-15.1,13-2.23,25.73-5.62,37.58-12.39,6-3.42,9.95-7.38,12.27-13.42,3.25-8.46,6.29-17,11.33-24.64.68-1,.88-3.53.27-4-1.23-.93-3.48-1.7-4.75-1.18-7.64,3.12-13.49,7.79-16.8,16.08-3.88,9.71-12.28,15.94-22.26,17.78-8.58,1.58-17.56.89-26.41,2.23s-9.13.32-16.75,4.19a40.36,40.36,0,0,1-6.74,2.89c-6,1.77-10.61,5.36-14.6,10a21.67,21.67,0,0,1-11.54,7.09c-5.38,1.35-10.57,3.43-15.84,5.22-.65.22-1.34,1-1.84.83-.85-.22-2.09-.87-2.18-1.5s.66-1.8,1.33-2.4c.43-.39,1.43,0,2.09-.29,8-2.9,16.06-5.85,24.08-8.78-.1-.5-.21-1-.32-1.48ZM434.77,444c5.8,1,9.05-1.89,12-7.35a90.72,90.72,0,0,0,7.5-19.28c.42-1.52,0-3.28-.06-4.94-2,.13-4.13-.23-5.82.51s-3.56,2.35-4.05,4c-2.34,7.82-5.1,15.23-11.75,20.62-1.25,1-1.81,3-2.42,4.58a2.07,2.07,0,0,0,1,1.8A13.77,13.77,0,0,0,434.77,444Zm-36.64,36.51c14.28.6,26.41-2.84,38.05-8.56.35-.17.45-.86.66-1.31-.64-.19-1.33-.64-1.93-.54-3.4.62-6.84,1.16-10.16,2.11C416.23,474.62,406.94,474.5,398.13,480.48Zm14.19-34.28c3.68,1.13,6.82-1.08,9.11-4.51,2.7-4,5.08-8.26,7.42-12.51.45-.81.08-2.07.09-3.12a22.27,22.27,0,0,0-3.28.58c-3.26,1.08-7.41,2.56-6,6.57s-.7,5.09-3.12,6.48-4.95,2.48-7.37,3.81c-.56.32-.88,1.09-1.3,1.65a5.89,5.89,0,0,0,1.55,1A15.14,15.14,0,0,0,412.32,446.2Zm42.15-14.13-.56-.68-.62.63.88.66Z"/><path d="M165.08,156l3.28,3.09L153.8,174.56l-16.6-15.65-5.57-5.25,3.09-3.28,18.89,17.8Z"/><path d="M203.61,130.14l-13,9.83-3.6,2.72-2.72-3.6-9.69-12.85-3.26-4.32-2.72-3.6,16.62-12.54,2.72,3.6-13,9.83L180,126l11.38-8.6,2.74,3.64-11.38,8.6,5.11,6.76,13-9.83Z"/><path d="M231.48,113.51a9.73,9.73,0,0,1-2.28.51l-2.14.2a13.76,13.76,0,0,1-1.83,0l-.88,0a5.17,5.17,0,0,0-.76-.08c-.25,0-.42-.08-.58-.09a1.25,1.25,0,0,0-.42-.07l.78-4.15,1,.14,1.73.11a11.72,11.72,0,0,0,2.21-.09,18.6,18.6,0,0,0,2.24-.59c.44-.18.83-.34,1.25-.55l1.11-.73a5.13,5.13,0,0,0,1.09-1,4.68,4.68,0,0,0,.95-1.21,6.38,6.38,0,0,0,.45-1,6.14,6.14,0,0,0,.21-1.07,2.9,2.9,0,0,0-.07-1.06,2.49,2.49,0,0,0-.4-1,3.69,3.69,0,0,0-.64-.77,4.08,4.08,0,0,0-.81-.54,2.93,2.93,0,0,0-1-.35,2.79,2.79,0,0,0-1.15-.07l-1.41.15-1.82.27-1.56.24c-.49.06-1,.19-1.5.25l-1.56.14a10.47,10.47,0,0,1-1.45.08,8.39,8.39,0,0,1-2.21-.2,8.51,8.51,0,0,1-2-.69,10,10,0,0,1-1.69-1.13A5.4,5.4,0,0,1,215,97.68a7.08,7.08,0,0,1-.94-1.91,8.39,8.39,0,0,1-.36-2.07,12.26,12.26,0,0,1,.12-2.17,8.25,8.25,0,0,1,.69-2.18l.3-.64.44-.71.6-.79.73-.81a7.2,7.2,0,0,1,1-.93c.44-.27.91-.57,1.4-.82a7.4,7.4,0,0,1,.89-.41,9,9,0,0,1,1-.42,11.63,11.63,0,0,1,3.27-.64,22.14,22.14,0,0,1,4.19.22l-.54,4.12-1.45-.11a8.15,8.15,0,0,0-.88,0l-.93,0a11,11,0,0,0-1.79.26,12.07,12.07,0,0,0-1.76.58,4.52,4.52,0,0,0-1.56,1A5.37,5.37,0,0,0,218.38,91a7.7,7.7,0,0,0-.37,1.15,3,3,0,0,0-.09,1.11,2.42,2.42,0,0,0,.16,1.06,2.16,2.16,0,0,0,.44.93,3.47,3.47,0,0,0,.68.75,5.55,5.55,0,0,0,.86.56,4.38,4.38,0,0,0,1,.34,5.3,5.3,0,0,0,1.16.12l1.22-.06,1.4-.15,2.82-.41c.4-.06.74-.14,1.06-.17l1-.13a6.16,6.16,0,0,0,.89-.12,3.06,3.06,0,0,1,.78-.07,8.46,8.46,0,0,1,2.31.19,7.69,7.69,0,0,1,2.07.75,8.56,8.56,0,0,1,1.77,1.19,6.08,6.08,0,0,1,1.32,1.71l.1.19a8,8,0,0,1,.72,1.94,7.32,7.32,0,0,1,.16,2.07,8.65,8.65,0,0,1-.37,2.16,8.78,8.78,0,0,1-1,2c-.36.52-.67,1-1,1.45a12.85,12.85,0,0,1-1.16,1.17,11,11,0,0,1-1.26,1c-.44.27-.87.54-1.29.76A15.6,15.6,0,0,1,231.48,113.51Z"/><path d="M300.15,87.84a10,10,0,0,1-2.61-.42,19.21,19.21,0,0,1-2.07-.79,13.92,13.92,0,0,1-1.68-.79l.87-1.69,1.27-2.31,1.3.65a8.09,8.09,0,0,0,1.41.53,5.42,5.42,0,0,0,1.66.23,10.63,10.63,0,0,0,2.11-.26,6.9,6.9,0,0,0,2.07-.72,3.39,3.39,0,0,0,1.34-1.1,7.65,7.65,0,0,0,.73-1.32,3.55,3.55,0,0,0,.37-1.38l0-.71v-.69a2.74,2.74,0,0,0-.09-.63,2.09,2.09,0,0,0-.06-.51l-4-19.73,4.42-.9,4,19.73a12.46,12.46,0,0,1,.2,4.35A9.8,9.8,0,0,1,310,83.1a8.94,8.94,0,0,1-2.73,2.81,12.77,12.77,0,0,1-3.94,1.55A15.36,15.36,0,0,1,300.15,87.84Z"/><path d="M358.31,74.29c-1.58-.16-3.63-.34-6.06-.47s-5.22-.42-8.42-.7l-1.32,3.63c-.55,1.55-1.17,3.23-1.84,5l-4.42.15L347.46,51h0l4.94-.17h.08l13.3,30.05-4.47.15C360,78,359,75.76,358.31,74.29Zm-1.67-3.86-2.72-6.22-3.74-8.47-5,13.67Z"/><path d="M412.25,83.39l-1.53,1.08c-.62.43-1.34.93-2.15,1.54-4.8-6.83-8-11.41-9.64-13.67l-3.79-.53-1.61,11.3-4.47-.64,2.15-15.14,2.13-15L405.62,54a9.4,9.4,0,0,1,3.53,1.19,9.91,9.91,0,0,1,2.74,2.53,9.54,9.54,0,0,1,1.67,3.38,10.2,10.2,0,0,1-.8,6.82,10.05,10.05,0,0,1-2,2.59A9.44,9.44,0,0,1,408,72.3a8.8,8.8,0,0,1-3.11.72Zm-8.67-15a5.46,5.46,0,0,0,1.94-.07,5.18,5.18,0,0,0,1.76-.87A4.81,4.81,0,0,0,408.65,66a5.66,5.66,0,0,0,.6-1.85,5.45,5.45,0,0,0-.06-2,4.88,4.88,0,0,0-.92-1.76,5.46,5.46,0,0,0-1.4-1.32,4.77,4.77,0,0,0-1.89-.65l-7.8-1.11-1.41,10v0Z"/><path d="M463.08,91.08a13,13,0,0,1-4.47,3.58A13.49,13.49,0,0,1,453,96.07a18,18,0,0,1-6.18-1l-10.22-3.4,4.83-14.5,4.82-14.46,10.22,3.4a21.2,21.2,0,0,1,2.14.85,12.66,12.66,0,0,1,1.88,1.08c.62.43,1.16.83,1.69,1.28a11.5,11.5,0,0,1,1.48,1.48,13.94,13.94,0,0,1,2,3.14,14.78,14.78,0,0,1,1.12,3.65,13.36,13.36,0,0,1,.13,3.9,18.54,18.54,0,0,1-.87,4.11A16.39,16.39,0,0,1,463.08,91.08Zm-.56-11.36A9.65,9.65,0,0,0,459,72.51a11.79,11.79,0,0,0-4-2.09l-5.93-2-6.8,20.4,5.93,2a14.88,14.88,0,0,0,3.44.75,11.53,11.53,0,0,0,2.9-.25,8.85,8.85,0,0,0,2.48-1,9.85,9.85,0,0,0,2-1.53,6.51,6.51,0,0,0,.88-1c.25-.37.51-.73.74-1.15s.44-.79.63-1.22a12.3,12.3,0,0,0,.51-1.26A14.39,14.39,0,0,0,462.52,79.72Z"/><path d="M497.68,83.13l4,2.06-13.88,27.13-4-2.06,8.67-16.94Z"/><path d="M549.49,115.79l-17.84,24.67L528,137.84c.22-6.19.36-11.61.5-16.24l.35-11.61-13.52,18.7-3.51-2.55,13.37-18.49,4.46-6.18,3.59,2.6c-.22,6.19-.36,11.61-.5,16.24s-.22,8.51-.33,11.64L546,113.25Z"/><path d="M556.34,163.16a9.85,9.85,0,0,1-1.15-2l-.81-2a13.53,13.53,0,0,1-.51-1.75c-.09-.33-.18-.61-.23-.85a5.55,5.55,0,0,0-.14-.75c-.06-.25,0-.43-.08-.58a1.91,1.91,0,0,0,0-.42l4.19-.45.16,1,.4,1.69a10.77,10.77,0,0,0,.72,2.09,17.42,17.42,0,0,0,1.2,2c.3.37.57.7.89,1l1,.86a6.09,6.09,0,0,0,1.23.77,4.65,4.65,0,0,0,1.44.56,5.6,5.6,0,0,0,1.08.14,6.57,6.57,0,0,0,1.08-.1,2.63,2.63,0,0,0,1-.38,2.49,2.49,0,0,0,.8-.65,3.42,3.42,0,0,0,.55-.83,4.22,4.22,0,0,0,.29-.93,3.42,3.42,0,0,0,.05-1.06,2.86,2.86,0,0,0-.26-1.11l-.55-1.31-.79-1.67-.67-1.43c-.2-.45-.47-.9-.67-1.36l-.58-1.46a12.92,12.92,0,0,1-.94-3.54,8.11,8.11,0,0,1,.09-2.1,9.4,9.4,0,0,1,.61-2,5.27,5.27,0,0,1,1.08-1.76,7.22,7.22,0,0,1,1.56-1.46,8.44,8.44,0,0,1,1.88-.93,12.15,12.15,0,0,1,2.12-.51,8.38,8.38,0,0,1,2.29,0l.69.11.81.22.93.35,1,.46a7.25,7.25,0,0,1,1.2.75c.39.33.8.7,1.19,1.1.2.21.44.46.65.73a10.09,10.09,0,0,1,.68.83,11.4,11.4,0,0,1,1.55,2.94,22.71,22.71,0,0,1,1,4.09l-4.11.65-.31-1.41a5.63,5.63,0,0,0-.22-.85l-.32-.88a12.8,12.8,0,0,0-.76-1.64,13,13,0,0,0-1.06-1.52,4.67,4.67,0,0,0-1.46-1.2,5.67,5.67,0,0,0-1.95-.54,7,7,0,0,0-1.21,0,3.15,3.15,0,0,0-1.08.22,2.26,2.26,0,0,0-1,.47,2,2,0,0,0-.77.68,3.56,3.56,0,0,0-.53.87,4.51,4.51,0,0,0-.28,1,4.26,4.26,0,0,0,0,1.06,5.71,5.71,0,0,0,.23,1.15l.4,1.15.55,1.3,1.2,2.58c.17.37.35.67.46,1l.41.92a6.69,6.69,0,0,0,.38.81,4,4,0,0,1,.29.73,8.52,8.52,0,0,1,.48,2.27,7.76,7.76,0,0,1-.13,2.19,8.67,8.67,0,0,1-.63,2,5.82,5.82,0,0,1-1.27,1.76l-.15.15a8.14,8.14,0,0,1-1.64,1.24,8,8,0,0,1-1.94.76,9.62,9.62,0,0,1-2.18.26,9,9,0,0,1-2.22-.33c-.6-.19-1.17-.35-1.68-.57a12.41,12.41,0,0,1-1.46-.78,11.35,11.35,0,0,1-1.32-.92c-.38-.34-.77-.68-1.1-1A16.48,16.48,0,0,1,556.34,163.16Z"/><path d="M254.7,634.84a12.63,12.63,0,0,1-4.54,3,13,13,0,0,1-5.46.88,16.86,16.86,0,0,1-5.8-1.42l-9.45-4.05,5.75-13.42,5.73-13.37,9.45,4a21.27,21.27,0,0,1,2,1,13.63,13.63,0,0,1,1.71,1.17c.55.47,1,.89,1.5,1.36a10.56,10.56,0,0,1,1.29,1.52,13.56,13.56,0,0,1,1.66,3.15,14.53,14.53,0,0,1,.77,3.56,13,13,0,0,1-.18,3.72,18.24,18.24,0,0,1-1.16,3.84A15.78,15.78,0,0,1,254.7,634.84Zm.37-10.86a8.84,8.84,0,0,0-.6-3.88,9,9,0,0,0-2.14-3.26,11.42,11.42,0,0,0-3.61-2.3l-5.49-2.36-8.09,18.87,5.49,2.35a13.63,13.63,0,0,0,3.21,1,10.84,10.84,0,0,0,2.79,0,8.62,8.62,0,0,0,2.43-.72,10.12,10.12,0,0,0,2-1.31,5.47,5.47,0,0,0,.91-.89,10.73,10.73,0,0,0,.79-1,12.06,12.06,0,0,0,.7-1.11c.22-.4.41-.75.59-1.16A14,14,0,0,0,255.07,624Z"/><path d="M284.17,631.61l-2.78-2.76c3-3,5.06-5,6.06-6l2.78,2.75C287.2,628.56,285.17,630.57,284.17,631.61Z"/><path d="M327.2,654.15c-1.46-.4-3.36-.91-5.63-1.42s-4.83-1.25-7.81-2l-1.83,3.2c-.76,1.37-1.62,2.85-2.53,4.41l-4.19-.58,15.55-27.24h0l4.67.63.08,0,7.65,30.42L329,661C328.2,657.94,327.61,655.64,327.2,654.15Zm-.94-3.9L324.7,644l-2.15-8.58-6.9,12.06Z"/><path d="M380.32,657.79l.11,4.31-20.28.54-.58-21.79-.2-7.32,4.31-.11.66,24.79Z"/><path d="M403.37,630.14l4.25-.7,4.72,28.71-4.25.7-2.95-17.92Z"/><path d="M464.27,639.82a13.55,13.55,0,0,1-1.54,2.66,17.13,17.13,0,0,1-2.08,2.33,15.85,15.85,0,0,1-2.59,1.93,17.06,17.06,0,0,1-3,1.29,12.11,12.11,0,0,1-2.06.49,18.38,18.38,0,0,1-2.11.2,12.79,12.79,0,0,1-2.07-.07,15.15,15.15,0,0,1-5.47-1.76,17.27,17.27,0,0,1-3.13-2.2,13.43,13.43,0,0,1-2.47-2.93,14.11,14.11,0,0,1-1.68-3.55,11.73,11.73,0,0,1-.5-2.11,12.17,12.17,0,0,1-.2-2.11,12.81,12.81,0,0,1,.11-2.08,18,18,0,0,1,.34-2,15.34,15.34,0,0,1,1.37-3.51,21.05,21.05,0,0,1,2.21-3.09,12.89,12.89,0,0,1,3-2.51,15,15,0,0,1,3.53-1.64,14.54,14.54,0,0,1,2.95-.64,18.53,18.53,0,0,1,3,0,13.05,13.05,0,0,1,2.86.54,15.07,15.07,0,0,1,2.64,1l-1.62,4.18a10.86,10.86,0,0,0-1.94-.87,9,9,0,0,0-2.1-.44,13.84,13.84,0,0,0-2.23,0,14.49,14.49,0,0,0-2.19.49,10.73,10.73,0,0,0-2.53,1.15,9.51,9.51,0,0,0-2,1.76,12.16,12.16,0,0,0-1.56,2.2,10.63,10.63,0,0,0-1,2.48,13,13,0,0,0-.28,1.41,10.39,10.39,0,0,0,0,1.47c0,.5.06,1,.14,1.53s.22,1,.38,1.46a9.62,9.62,0,0,0,.57,1.39,12.78,12.78,0,0,0,.76,1.3,8.73,8.73,0,0,0,.88,1.17,12,12,0,0,0,1,1,11,11,0,0,0,2.17,1.44,12,12,0,0,0,2.54.91,11.24,11.24,0,0,0,2.73.24,10.74,10.74,0,0,0,2.74-.49,11.41,11.41,0,0,0,2.17-1,8.25,8.25,0,0,0,1.86-1.4,14.21,14.21,0,0,0,1.5-1.72,9.41,9.41,0,0,0,1.09-2Z"/><path d="M510.13,623.7l-13.82,7.15-3.83,2-2-3.83-7.06-13.65-2.37-4.58-2-3.83,17.66-9.13,2,3.83-13.83,7.15,3.71,7.18,12.1-6.25,2,3.86-12.1,6.26,3.72,7.18,13.82-7.15Z"/><path d="M615.31,373a16.25,16.25,0,1,1,16.25-16.25A16.27,16.27,0,0,1,615.31,373Zm0-27.57a11.32,11.32,0,1,0,11.31,11.32A11.34,11.34,0,0,0,615.31,345.42Z"/><path d="M100.62,373a16.25,16.25,0,1,1,16.25-16.25A16.27,16.27,0,0,1,100.62,373Zm0-27.57a11.32,11.32,0,1,0,11.31,11.32A11.34,11.34,0,0,0,100.62,345.42Z"/></g></g></svg>