<svg xmlns="http://www.w3.org/2000/svg" viewBox="0 0 2144.84 3842.52"><defs><style>.cls-1{fill:none;}</style></defs><title>Plan de travail 13</title><g id="Calque_2" data-name="Calque 2"><rect class="cls-1" width="2144.84" height="3842.52"/><path d="M412.65,1350.59c.75-4.9,1.33-9.83,2.32-14.68.46-2.29,2.45-2.64,3.69-.71,1.87,2.91,3.38,6.06,5.06,9.09.32.57.76,1.08,1.14,1.63a10,10,0,0,0,1.55-1.5c7.42-11.42,14.8-22.87,22.28-34.25a3.24,3.24,0,0,1,2.35-1c.34,0,1,1.07,1,1.7.27,3.21.5,6.43.53,9.65.13,12.55-.88,24.85-8.36,35.63a11.67,11.67,0,0,0-.88,1.89,10.41,10.41,0,0,0,2.69-.1,40,40,0,0,1,19.82-1.75,24.37,24.37,0,0,1,17.93,13.13c.62,1.16.44,2.74.63,4.12-1.35.06-3.08.69-4,.09-5-3.34-10.38-2.82-15.81-2-10,1.58-19.8,1.5-29.37-2a7.31,7.31,0,0,0-7,.76c-10,6.27-16.57,14.82-18.1,26.75-.5,3.93-.72,7.91-.93,11.87-.09,1.8.15,3.61.24,5.41,1.27-1.44,3-2.68,3.73-4.36,4.69-10.64,13.43-14.83,24.33-15.39,6.65-.35,12.59,2.35,18.32,5.4,3.26,1.74,6.34,3.84,9.69,5.4,5.59,2.6,8.9,7,10.68,12.68,1.14,3.66-.44,6-4.27,5.66a23.37,23.37,0,0,1-7.71-2.41,79.29,79.29,0,0,1-8.36-4.85c-5.94-3.7-11.85-4.75-18.1-.58a28.76,28.76,0,0,1-6.79,3c-5.23,1.77-10.57,2.69-16.09,1.31-5.73-1.42-6.41-1.14-8.64,4.3-2.06,5-4,10.15-5.83,15.27-.64,1.77-1,3.64-1.45,5.47l4.5-2.51a1.64,1.64,0,0,1,.68-.28c.46,0,1.21,0,1.33.2.31.59.69,1.58.41,2a51.34,51.34,0,0,1-3.87,4.48c-7.9,8.57-16,17-23.68,25.73-5.56,6.33-10.58,13.13-15.93,19.65a12.4,12.4,0,0,1-2.9,2c-.72-1.16-2.16-2.42-2-3.44.29-2,1.28-2.53,2.54-4.13,1.68-2.11,3.85-5.38,5.86-7.23a124.89,124.89,0,0,0,20.81-24.2c1.5-2.32,3.21-4.72,1.72-7.57a108.79,108.79,0,0,0-22.32-29.48c-1.58-1.46-2.93-1.32-4.32.47-3.79,4.84-9.11,6.55-15,7.18-7.88.85-15.74,1.85-23.6,2.79-2.45.29-3.59-.87-2.34-2.81a116,116,0,0,1,9-12.72c7.26-8.51,17.14-9.61,26.64-3.47a33.17,33.17,0,0,0,4.57,2.31,1.72,1.72,0,0,0,1.38-.23,1.23,1.23,0,0,0,0-1.16c-3.48-5.33-6.27-11-14.11-11.76-5.27-.52-10.54-2.77-15.41-5.09-9.38-4.48-18.48-9.54-27.66-14.43a12.72,12.72,0,0,1-2.46-2.36c.91-.69,1.72-1.8,2.74-2,11.5-2.54,23-4.4,33.94,2.14,2.13,1.28,3,1,3.12-1.59a20.16,20.16,0,0,1,.89-5.87c2.25-6,4.73-11.92,7.24-17.82.33-.77,1.57-1.9,2-1.74a4.34,4.34,0,0,1,2.49,2.16c3.09,8.37,6.1,16.77,8.93,25.24a23,23,0,0,1,1.49,8c-.21,4.65-.15,9.71-2,13.77-1.67,3.61-1.3,5.66.77,8.5q13.14,18.06,26,36.34c1.39,2,2.27,1.6,3,0,3.25-7.49,6.47-15,9.38-22.63.44-1.17-.38-3.33-1.31-4.45-6-7.28-9.37-15.79-11.21-24.85-2-9.7-2.25-19.74-6.22-29-.18-.43-.36-1.23-.17-1.38.64-.49,1.8-1.28,2.13-1.05a17.38,17.38,0,0,1,3.83,3.48c4.45,5.65,8.78,11.39,13.17,17.1.53.68,1.12,1.32,1.69,2a13.71,13.71,0,0,0,.11-2.85c-3.4-18.51-11-35.47-19.63-52a13.82,13.82,0,0,0-7-6.22c-13.17-4.48-22.85-14.88-35.42-20.3-.65-.28-.9-1.49-1.34-2.26.8-.44,1.59-1.21,2.42-1.27,4.92-.33,9.86-.67,14.79-.63,2.17,0,3.09.21,2.4-2.56-3.23-13-6.25-26-9.26-39a12.13,12.13,0,0,1,.17-3.38c.92.13,2,0,2.74.43,11.34,7.7,22.58,15.67,28.81,28.39,2.79,5.73,4.31,12.08,6.4,18.15.24.7.46,1.4.68,2.1a13.3,13.3,0,0,0,2.14-1.43c3.52-3.49,6.93-7.09,10.55-10.48a4.37,4.37,0,0,1,3.29-.71c.47.07,1,1.59,1,2.46.23,15.36-.88,30.38-12.12,42.44-2,2.2-1.78,4.09-.6,6.64,6.16,13.31,11.54,26.9,13.64,41.56a13.56,13.56,0,0,0,.35,1.43c.39-.22,1-.34,1.14-.67,2.15-4.41,7.88-7.69,3.13-14.13-1.79-2.43-1.39-6.69-1.46-10.12a98.33,98.33,0,0,1,.85-10.38ZM350.44,1424a5.69,5.69,0,0,0,2.86-.69c2.1-1.61,4-3.45,6-5.2-2.51-.48-5-1-7.53-1.43a7.54,7.54,0,0,0-1.47.17c-1.74.08-3.83,1.94-4.9-.75-.1-.25,2.58-1.59,4-2.44.41-.25.78-.55,1.16-.83a5.37,5.37,0,0,0-1.48-.93c-6.34-1.38-11.95.08-16.17,5.06-2.33,2.76-4,6.1-5.94,9.18l-.6.16.49-.3C334.68,1425.34,342.56,1424.69,350.44,1424Zm40.47-50.85.41,1.83c.6,12.44,2.37,24.63,8.49,35.75a35.72,35.72,0,0,0,3.89,4.86,40.64,40.64,0,0,0,2.07-6.2c1.55-9-.78-17.28-5.85-24.65-2.43-3.55-5.79-6.47-8.73-9.67C391.1,1374.43,391,1373.79,390.91,1373.15Zm-34.62-112.53.43.48c1.69,15.06,4.34,29.92,11.25,43.56,3.11,6.14,7.2,11.78,13.31,15.51l.51.85c0-.16,0-.4-.05-.48a2,2,0,0,0-.59-.26c-1.28-4.74-2.62-9.47-3.78-14.24-.18-.71.48-1.62.75-2.45.74.47,1.91.78,2.16,1.43,1.49,3.93,2.75,7.94,4.13,11.92a5.79,5.79,0,0,0,.79,1.18c.31-.51.82-1,.9-1.53a44.17,44.17,0,0,0-3.6-26.78c-5.83-12.1-14.11-21.93-25.92-28.59ZM424.5,1365c.25,2.48,1.43,2.76,3.48,1.61,11.13-6.21,17.69-15.83,20-28.11,1.13-6,.85-12.31,1.11-18.48,0-.61-.63-1.25-1-1.88a9.13,9.13,0,0,0-1,1.07c-5.46,8-11.4,15.65-16.17,24-3.27,5.7-4.91,12.33-6.74,17.12C424.38,1363,424.41,1364,424.5,1365ZM351,1394.47a7,7,0,0,0,1.64,1.14,13.19,13.19,0,0,0-.28-2c-.62-2-2.82-5-.47-5.93,3-1.2,2.33,2.86,3.34,4.51,1.41,2.3,2.3,4.93,3.5,7.38.27.55.91.91,1.38,1.36.46-.57,1.13-1.07,1.34-1.72a29.71,29.71,0,0,0-.28-18.3c-2.15-6.85-4.79-13.55-7.26-20.3a12.72,12.72,0,0,0-1-1.84c-.66.68-1.62,1.25-1.93,2.06-1.91,5.06-3.67,10.19-5.48,15.29C345,1383.13,346.68,1389.16,351,1394.47Zm68.8,11.15a7,7,0,0,0-.88,2.49c.65-.13,1.3-.3,1.95-.4,3-.42,5.27-4.21,8.77-1.62-2.4,1.56-4.75,3.19-7.2,4.68-2.11,1.28-4.35,2.36-6.46,3.65-.49.3-1.05,1.23-.91,1.63a2.34,2.34,0,0,0,1.63,1.15,28.17,28.17,0,0,0,16.58-2.7c6.45-3.13,12.82-6.45,19.21-9.72a11.32,11.32,0,0,0,1.6-1.2c-.49-.52-.88-1.3-1.48-1.54-3.9-1.51-7.85-2.91-10.49-3.87C432.65,1397.71,425.4,1399.49,419.77,1405.62Zm-15.63-107.78c0-1.46-.57-1.45-1.7-.59-10.21,7.73-15.59,23.3-12,35.1a4.33,4.33,0,0,0,1.67,2c.17.13,1.17-.66,1.61-1.19,6.3-7.68,10-16.38,10.06-26.43C403.92,1303.76,404.11,1300.8,404.14,1297.84Zm-81.75,80.36c-3.4.35-6.78.82-10.17,1.25,2.64,1.88,5.17,4,7.95,5.61,4.88,2.91,9.85,5.7,14.93,8.26,2.62,1.33,3.51.48,3.33-2.53-.62-10-2.43-11.76-13.08-12.36A15.67,15.67,0,0,0,322.39,1378.2Zm144.4-10.32c1.71-.15,3.41-.48,5.13-.56,1.94-.08,3.88,0,5.83.06-1.69-1.64-3.14-3.66-5.1-4.85-8.65-5.28-16.64-4.53-23.51,2a10.34,10.34,0,0,0-1.42,2.4,24.08,24.08,0,0,0,2.9,1.59,7.87,7.87,0,0,0,2.19.23l0,.35C457.49,1368.69,462.14,1368.3,466.79,1367.88ZM416,1369.24c.15,1.26,2.15,3.4,3,3.26,2.15-.33,2.58-2.26,2.44-4.57a47.88,47.88,0,0,1,.37-11c.88-5.16-.46-9.72-2.51-14.24-.27-.6-1-1-1.45-1.49a5.46,5.46,0,0,0-.79,1.68c-.37,3.42-.65,6.85-1,10.28H415C415.27,1358.55,415.37,1363.92,416,1369.24Zm56.61,49c-1.52-7.74-11.73-12.9-18.66-9.54-1.43.69-1.76,1.95-.36,2.76,5.55,3.19,11.2,6.19,17.4,9.58C471.71,1419.76,472.73,1418.86,472.59,1418.19Zm-121-113.32c2.45,1.61,4.91,3.2,7.41,4.72a5.36,5.36,0,0,0,1.83.34,8.65,8.65,0,0,0-.06-2,7,7,0,0,0-9.41-5c-.29.1-.43.58-.65.9A4.44,4.44,0,0,0,351.57,1304.87Z"/><path d="M310.19,1366.61l.4.17.22-.56-.66-.23Z"/><path d="M1850.38,976.19a93.28,93.28,0,0,1,.85,10.38c-.06,3.43.34,7.68-1.46,10.12-4.75,6.44,1,9.72,3.14,14.13.16.33.75.45,1.14.67a14.19,14.19,0,0,0,.35-1.43c2.09-14.66,7.47-28.25,13.64-41.56,1.18-2.55,1.44-4.44-.6-6.64-11.24-12.06-12.35-27.08-12.12-42.44,0-.87.55-2.39,1-2.47a4.43,4.43,0,0,1,3.3.72c3.61,3.39,7,7,10.55,10.48a13.66,13.66,0,0,0,2.13,1.43c.23-.7.45-1.4.69-2.1,2.09-6.07,3.6-12.42,6.4-18.15,6.23-12.72,17.47-20.69,28.81-28.39.69-.47,1.82-.3,2.74-.43a12.13,12.13,0,0,1,.17,3.38c-3,13-6,26.07-9.26,39.05-.69,2.77.23,2.58,2.4,2.56,4.93,0,9.87.3,14.79.63.83.06,1.61.83,2.42,1.26-.44.78-.69,2-1.35,2.27-12.56,5.42-22.24,15.82-35.41,20.3a13.78,13.78,0,0,0-7,6.22c-8.63,16.52-16.23,33.48-19.63,52a12.46,12.46,0,0,0,.11,2.85c.56-.66,1.16-1.3,1.69-2,4.38-5.7,8.72-11.44,13.17-17.09a17.11,17.11,0,0,1,3.82-3.48c.34-.23,1.5.55,2.14,1,.19.15,0,1-.18,1.38-4,9.28-4.24,19.32-6.21,29-1.84,9.06-5.19,17.57-11.21,24.85-.93,1.12-1.76,3.27-1.31,4.45,2.91,7.62,6.13,15.13,9.38,22.63.71,1.65,1.6,2,3,.05q12.81-18.29,25.94-36.34c2.07-2.84,2.45-4.89.78-8.51-1.87-4-1.81-9.11-2-13.76a22.92,22.92,0,0,1,1.48-8c2.84-8.47,5.85-16.87,8.94-25.25a4.38,4.38,0,0,1,2.49-2.16c.44-.15,1.68,1,2,1.75,2.51,5.9,5,11.82,7.24,17.82a20.16,20.16,0,0,1,.89,5.87c.14,2.55,1,2.86,3.12,1.59,10.92-6.54,22.44-4.68,33.94-2.14,1,.22,1.83,1.32,2.74,2a12.48,12.48,0,0,1-2.47,2.36c-9.17,4.89-18.27,10-27.65,14.43-4.87,2.32-10.14,4.57-15.41,5.09-7.84.78-10.63,6.42-14.11,11.76a1.23,1.23,0,0,0,0,1.16,1.72,1.72,0,0,0,1.38.23,33.61,33.61,0,0,0,4.56-2.31c9.5-6.15,19.39-5,26.65,3.47a116.36,116.36,0,0,1,9,12.72c1.25,1.94.11,3.1-2.34,2.81-7.87-.94-15.73-1.94-23.6-2.79-5.88-.63-11.2-2.34-15-7.18-1.39-1.79-2.74-1.93-4.32-.47a108.64,108.64,0,0,0-22.32,29.48c-1.49,2.85.22,5.25,1.71,7.57a124.94,124.94,0,0,0,20.82,24.2c2,1.85,4.18,5.12,5.85,7.23,1.27,1.6,2.25,2.09,2.55,4.12.14,1-1.29,2.29-2,3.44a12.37,12.37,0,0,1-2.9-2c-5.35-6.52-10.37-13.32-15.93-19.65-7.7-8.75-15.78-17.16-23.69-25.73a55,55,0,0,1-3.87-4.48c-.27-.37.11-1.37.42-2,.12-.24.86-.19,1.32-.2a1.63,1.63,0,0,1,.69.28l4.5,2.51c-.48-1.83-.81-3.71-1.46-5.47-1.86-5.12-3.76-10.23-5.83-15.27-2.22-5.44-2.9-5.72-8.63-4.3-5.52,1.38-10.86.46-16.09-1.31a28.8,28.8,0,0,1-6.79-3c-6.25-4.17-12.16-3.12-18.1.58a80.31,80.31,0,0,1-8.36,4.85,23.37,23.37,0,0,1-7.71,2.41c-3.83.33-5.42-2-4.27-5.66,1.78-5.69,5.09-10.08,10.68-12.68,3.34-1.56,6.43-3.66,9.69-5.4,5.73-3.05,11.67-5.75,18.32-5.41,10.9.57,19.64,4.75,24.32,15.4.74,1.68,2.47,2.92,3.74,4.36.09-1.8.33-3.61.24-5.41-.21-4-.43-7.94-.94-11.87-1.52-11.93-8.11-20.48-18.09-26.75a7.29,7.29,0,0,0-7-.76c-9.57,3.48-19.42,3.56-29.37,2-5.43-.86-10.8-1.38-15.81,2-.91.6-2.63,0-4-.09.19-1.38,0-3,.62-4.12A24.38,24.38,0,0,1,1797,981.79a40.1,40.1,0,0,1,19.82,1.74,9.91,9.91,0,0,0,2.68.11,11.29,11.29,0,0,0-.87-1.9c-7.48-10.77-8.5-23.07-8.36-35.62,0-3.22.26-6.44.52-9.65.06-.63.72-1.72,1.06-1.7a3.27,3.27,0,0,1,2.35,1c7.48,11.39,14.85,22.84,22.28,34.26a9.14,9.14,0,0,0,1.55,1.49,19.73,19.73,0,0,0,1.14-1.62c1.68-3,3.19-6.18,5.06-9.09,1.24-1.93,3.23-1.58,3.69.71,1,4.85,1.57,9.78,2.32,14.68Zm85.73,75.41.49.29-.6-.15c-2-3.08-3.61-6.42-6-9.18-4.21-5-9.82-6.44-16.16-5.06a5.42,5.42,0,0,0-1.49.93c.39.28.76.58,1.16.83,1.38.85,4.06,2.19,4,2.44-1.07,2.69-3.16.83-4.9.75a7.54,7.54,0,0,0-1.47-.17c-2.52.44-5,.94-7.53,1.43,2,1.75,3.9,3.59,6,5.2a5.77,5.77,0,0,0,2.86.69C1920.36,1050.29,1928.23,1050.94,1936.11,1051.6Zm-64.38-50.93c-2.94,3.2-6.3,6.12-8.74,9.67-5.06,7.37-7.39,15.64-5.84,24.65a41.72,41.72,0,0,0,2.06,6.2,34.55,34.55,0,0,0,3.9-4.87c6.12-11.11,7.89-23.3,8.49-35.74l.4-1.83Zm34.6-113.85c-11.81,6.66-20.09,16.48-25.92,28.59a44.24,44.24,0,0,0-3.59,26.78c.08.54.59,1,.9,1.52a5.47,5.47,0,0,0,.79-1.17c1.37-4,2.64-8,4.13-11.92.25-.65,1.42-1,2.16-1.43.27.82.93,1.74.75,2.45-1.16,4.77-2.5,9.5-3.79,14.24a2,2,0,0,0-.59.26c-.08.08,0,.31-.05.48l.51-.85c6.11-3.73,10.21-9.37,13.32-15.51,6.91-13.64,9.56-28.5,11.25-43.56l.42-.48Zm-67.62,99.08c-1.83-4.8-3.47-11.42-6.74-17.13-4.78-8.35-10.71-16-16.17-24a8.4,8.4,0,0,0-1-1.07c-.34.63-1,1.27-1,1.88.27,6.17,0,12.46,1.12,18.48,2.3,12.28,8.87,21.9,20,28.11,2,1.15,3.23.87,3.47-1.61C1838.51,989.58,1838.54,988.59,1838.71,985.9Zm78.75,15.82c-1.81-5.1-3.57-10.23-5.48-15.29-.31-.82-1.27-1.38-1.93-2.06a13.83,13.83,0,0,0-1,1.84c-2.46,6.75-5.1,13.45-7.26,20.29a29.82,29.82,0,0,0-.27,18.31c.2.65.88,1.15,1.34,1.72.47-.45,1.11-.81,1.38-1.36,1.2-2.45,2.08-5.08,3.5-7.38,1-1.65.35-5.71,3.34-4.51,2.35.93.15,3.9-.47,5.93a13.19,13.19,0,0,0-.28,2,7.84,7.84,0,0,0,1.64-1.14C1916.24,1014.76,1917.89,1008.72,1917.46,1001.72Zm-96.63,22c-2.64,1-6.59,2.36-10.49,3.88-.6.23-1,1-1.48,1.54a10.78,10.78,0,0,0,1.6,1.2c6.39,3.27,12.75,6.59,19.21,9.72a28.16,28.16,0,0,0,16.58,2.69,2.28,2.28,0,0,0,1.62-1.15c.15-.39-.42-1.33-.91-1.62-2.1-1.29-4.34-2.37-6.46-3.65-2.44-1.49-4.8-3.12-7.19-4.68,3.5-2.59,5.82,1.2,8.77,1.62.65.1,1.3.27,2,.4a6.93,6.93,0,0,0-.88-2.49C1837.51,1025.09,1830.27,1023.31,1820.83,1023.76Zm38.3-91.44c.1,10,3.76,18.75,10.06,26.43.43.53,1.44,1.32,1.61,1.19a4.25,4.25,0,0,0,1.66-2c3.61-11.8-1.77-27.37-12-35.11-1.12-.85-1.71-.86-1.69.6C1858.81,926.4,1859,929.36,1859.13,932.32Zm78.44,71.71c-10.66.6-12.46,2.33-13.08,12.36-.19,3,.71,3.86,3.33,2.53,5.08-2.57,10-5.35,14.93-8.26,2.78-1.65,5.31-3.73,8-5.61-3.39-.43-6.78-.9-10.17-1.26A15.62,15.62,0,0,0,1937.57,1004Zm-127.5-9.35,0-.35a7.87,7.87,0,0,0,2.19-.23,25.55,25.55,0,0,0,2.9-1.59,10.37,10.37,0,0,0-1.43-2.4c-6.86-6.51-14.85-7.26-23.5-2-2,1.19-3.41,3.21-5.1,4.85,1.94,0,3.89-.14,5.83-.06,1.71.08,3.41.41,5.13.56C1800.77,993.9,1805.42,994.28,1810.07,994.68Zm37.87-15.89h-1.11c-.31-3.43-.59-6.86-1-10.29a5.65,5.65,0,0,0-.79-1.67c-.49.49-1.18.89-1.45,1.49-2.05,4.52-3.4,9.08-2.51,14.23a48,48,0,0,1,.37,11c-.15,2.31.28,4.24,2.44,4.57.86.13,2.86-2,3-3.26C1847.54,989.52,1847.65,984.15,1847.94,978.79Zm-56,67.8c6.2-3.39,11.85-6.39,17.39-9.58,1.41-.81,1.08-2.07-.35-2.76-6.94-3.37-17.14,1.8-18.67,9.53C1790.19,1044.46,1791.21,1045.36,1792,1046.59Zm120.28-117.22c-.22-.32-.36-.8-.65-.9a7,7,0,0,0-9.42,5,10,10,0,0,0-.06,2,5.38,5.38,0,0,0,1.84-.35c2.5-1.51,5-3.1,7.41-4.71A4.44,4.44,0,0,0,1912.23,929.37Z"/><path d="M1952.73,992.21l-.4.17-.22-.57.65-.22Z"/><path d="M1382.41,1401.18a98.33,98.33,0,0,1,.85,10.38c-.06,3.43.33,7.69-1.46,10.12-4.75,6.44,1,9.72,3.13,14.13.16.33.76.45,1.15.67a13.56,13.56,0,0,0,.35-1.43c2.09-14.66,7.47-28.25,13.63-41.56,1.19-2.55,1.45-4.44-.6-6.64-11.23-12.06-12.35-27.08-12.11-42.44,0-.87.54-2.39,1-2.46a4.36,4.36,0,0,1,3.29.71c3.62,3.39,7,7,10.56,10.48a13.21,13.21,0,0,0,2.13,1.43c.23-.7.45-1.4.69-2.1,2.09-6.07,3.6-12.42,6.4-18.15,6.22-12.72,17.47-20.69,28.81-28.39.69-.47,1.81-.3,2.74-.43a12.53,12.53,0,0,1,.17,3.38c-3,13-6,26.07-9.27,39-.69,2.77.23,2.58,2.41,2.56,4.93,0,9.86.3,14.79.63.83.06,1.61.83,2.42,1.27-.44.77-.7,2-1.35,2.26-12.56,5.42-22.25,15.82-35.42,20.3a13.82,13.82,0,0,0-7,6.22c-8.62,16.52-16.23,33.48-19.62,52a12.46,12.46,0,0,0,.11,2.85c.56-.66,1.16-1.3,1.68-2,4.39-5.7,8.72-11.44,13.17-17.09a17.38,17.38,0,0,1,3.83-3.48c.33-.23,1.49.56,2.13,1,.19.15,0,1-.17,1.38-4,9.28-4.25,19.32-6.22,29-1.83,9.06-5.18,17.57-11.21,24.85-.93,1.12-1.75,3.28-1.3,4.45,2.91,7.63,6.13,15.14,9.38,22.63.71,1.65,1.59,2,3,.05q12.81-18.29,26-36.34c2.07-2.84,2.44-4.89.78-8.5-1.87-4.06-1.82-9.12-2-13.77a22.74,22.74,0,0,1,1.48-8c2.83-8.47,5.85-16.87,8.93-25.25a4.43,4.43,0,0,1,2.5-2.16c.43-.15,1.68,1,2,1.75,2.51,5.9,5,11.82,7.24,17.82a19.82,19.82,0,0,1,.88,5.87c.14,2.55,1,2.87,3.13,1.59,10.92-6.54,22.43-4.68,33.94-2.14,1,.22,1.83,1.33,2.74,2a12.76,12.76,0,0,1-2.47,2.36c-9.17,4.89-18.28,9.95-27.65,14.43-4.87,2.32-10.15,4.57-15.42,5.09-7.84.79-10.62,6.43-14.11,11.76-.18.28-.16,1,0,1.16a1.69,1.69,0,0,0,1.37.23,32.61,32.61,0,0,0,4.57-2.31c9.5-6.14,19.39-5,26.64,3.47a116,116,0,0,1,9,12.72c1.24,1.94.11,3.1-2.34,2.81-7.87-.94-15.73-1.94-23.61-2.79-5.88-.63-11.2-2.34-15-7.18-1.4-1.79-2.75-1.93-4.32-.47a108.79,108.79,0,0,0-22.32,29.48c-1.5,2.85.21,5.25,1.71,7.57a124.94,124.94,0,0,0,20.82,24.2c2,1.85,4.18,5.12,5.85,7.23,1.27,1.6,2.25,2.09,2.54,4.13.15,1-1.29,2.28-2,3.44a12.93,12.93,0,0,1-2.9-2c-5.34-6.52-10.36-13.32-15.93-19.65-7.69-8.75-15.77-17.16-23.68-25.73a53.1,53.1,0,0,1-3.87-4.48c-.27-.37.11-1.36.41-2,.13-.24.87-.19,1.33-.2a1.54,1.54,0,0,1,.68.28c1.51.83,3,1.67,4.5,2.51-.47-1.83-.81-3.7-1.45-5.47-1.87-5.12-3.77-10.23-5.83-15.27-2.23-5.44-2.91-5.72-8.63-4.3-5.52,1.38-10.87.46-16.1-1.31a28.51,28.51,0,0,1-6.78-3c-6.26-4.17-12.17-3.12-18.1.58a81.36,81.36,0,0,1-8.36,4.85,23.44,23.44,0,0,1-7.71,2.41c-3.84.33-5.42-2-4.28-5.66,1.78-5.69,5.09-10.08,10.69-12.68,3.34-1.56,6.43-3.66,9.69-5.4,5.73-3,11.66-5.75,18.31-5.4,10.91.56,19.65,4.75,24.33,15.39.74,1.68,2.47,2.92,3.74,4.36a51.52,51.52,0,0,0,.23-5.41c-.21-4-.43-7.94-.93-11.87-1.53-11.93-8.12-20.48-18.09-26.75a7.33,7.33,0,0,0-7-.76c-9.56,3.48-19.42,3.56-29.36,2-5.44-.86-10.81-1.38-15.81,2-.91.6-2.64,0-4-.09.19-1.38,0-3,.63-4.12a24.36,24.36,0,0,1,17.94-13.13,40,40,0,0,1,19.81,1.75,10.41,10.41,0,0,0,2.69.1,11.67,11.67,0,0,0-.88-1.89c-7.48-10.78-8.49-23.08-8.36-35.63,0-3.22.27-6.44.53-9.65.05-.63.72-1.72,1.06-1.7a3.29,3.29,0,0,1,2.35,1c7.47,11.39,14.85,22.84,22.28,34.26a9.53,9.53,0,0,0,1.54,1.5,19.17,19.17,0,0,0,1.14-1.63c1.69-3,3.19-6.18,5.07-9.09,1.23-1.93,3.23-1.58,3.69.71,1,4.85,1.57,9.78,2.32,14.68Zm85.73,75.41.48.3-.59-.16c-2-3.08-3.61-6.42-6-9.18-4.21-5-9.83-6.44-16.16-5.06a5.28,5.28,0,0,0-1.49.93c.39.28.76.58,1.16.83,1.38.85,4.05,2.19,4,2.44-1.06,2.69-3.16.83-4.89.75a7.72,7.72,0,0,0-1.47-.17c-2.52.44-5,1-7.54,1.43,2,1.75,3.91,3.59,6,5.2a5.64,5.64,0,0,0,2.86.69C1452.38,1475.28,1460.26,1475.93,1468.14,1476.59Zm-64.38-50.93c-2.94,3.2-6.3,6.12-8.74,9.67-5.07,7.37-7.4,15.64-5.85,24.65a41.77,41.77,0,0,0,2.07,6.2,35.8,35.8,0,0,0,3.9-4.86c6.11-11.12,7.88-23.31,8.49-35.75l.4-1.83Zm34.6-113.85c-11.81,6.66-20.09,16.49-25.92,28.59a44.17,44.17,0,0,0-3.6,26.78,5.16,5.16,0,0,0,.9,1.53,5.79,5.79,0,0,0,.79-1.18c1.38-4,2.65-8,4.14-11.92.24-.65,1.41-1,2.16-1.43.27.83.92,1.74.75,2.45-1.17,4.77-2.51,9.5-3.79,14.24a2.11,2.11,0,0,0-.59.26c-.09.08,0,.32,0,.48l.51-.85c6.11-3.73,10.21-9.37,13.32-15.51,6.91-13.64,9.56-28.5,11.24-43.56l.43-.48Zm-67.62,99.08c-1.83-4.79-3.48-11.42-6.74-17.13-4.78-8.35-10.72-16-16.17-24a9.18,9.18,0,0,0-1-1.07c-.35.63-1,1.27-1,1.88.26,6.17,0,12.46,1.12,18.48,2.3,12.28,8.86,21.9,20,28.11,2,1.15,3.24.87,3.48-1.61C1370.54,1414.57,1370.57,1413.58,1370.74,1410.89Zm78.74,15.82c-1.81-5.1-3.57-10.23-5.48-15.29-.3-.81-1.26-1.38-1.92-2.06a12.78,12.78,0,0,0-1,1.84c-2.46,6.75-5.11,13.45-7.26,20.3a29.71,29.71,0,0,0-.28,18.3c.21.65.89,1.15,1.34,1.72.47-.45,1.12-.81,1.38-1.36,1.21-2.45,2.09-5.08,3.51-7.38,1-1.65.34-5.71,3.34-4.51,2.34.93.15,3.9-.47,5.93a12.05,12.05,0,0,0-.29,2,6.75,6.75,0,0,0,1.64-1.14C1448.26,1439.75,1449.92,1433.72,1449.48,1426.71Zm-96.63,22c-2.64,1-6.58,2.36-10.48,3.87-.61.24-1,1-1.49,1.54a11.32,11.32,0,0,0,1.6,1.2c6.4,3.27,12.76,6.59,19.22,9.72a28.07,28.07,0,0,0,16.58,2.69,2.28,2.28,0,0,0,1.62-1.14c.14-.4-.42-1.33-.91-1.63-2.11-1.29-4.35-2.37-6.46-3.65-2.44-1.49-4.8-3.12-7.19-4.68,3.5-2.59,5.82,1.2,8.76,1.62.66.1,1.3.27,2,.4a7.21,7.21,0,0,0-.89-2.49C1369.54,1450.08,1362.29,1448.3,1352.85,1448.76Zm38.3-91.45c.11,10,3.76,18.75,10.07,26.43.43.53,1.43,1.32,1.61,1.19a4.31,4.31,0,0,0,1.66-2c3.61-11.8-1.77-27.37-12-35.1-1.13-.86-1.72-.87-1.7.59C1390.84,1351.39,1391,1354.35,1391.15,1357.31Zm78.44,71.71c-10.65.6-12.46,2.33-13.07,12.36-.19,3,.7,3.86,3.33,2.53,5.07-2.56,10-5.35,14.93-8.26,2.78-1.65,5.31-3.73,8-5.61-3.39-.43-6.78-.9-10.18-1.25A15.67,15.67,0,0,0,1469.59,1429Zm-127.49-9.35,0-.35a7.79,7.79,0,0,0,2.19-.23,25,25,0,0,0,2.91-1.59,10.37,10.37,0,0,0-1.43-2.4c-6.87-6.51-14.85-7.26-23.51-2-2,1.19-3.41,3.21-5.09,4.85,1.94,0,3.89-.14,5.83-.06,1.71.08,3.41.41,5.12.56C1332.8,1418.89,1337.45,1419.28,1342.1,1419.67Zm37.86-15.88h-1.11c-.31-3.43-.58-6.86-.95-10.28a5.58,5.58,0,0,0-.79-1.68c-.5.49-1.18.89-1.45,1.49-2.06,4.52-3.4,9.08-2.52,14.24a47.32,47.32,0,0,1,.38,11c-.15,2.31.28,4.24,2.43,4.57.86.14,2.87-2,3-3.26C1379.57,1414.51,1379.67,1409.14,1380,1403.79Zm-56,67.79c6.2-3.39,11.85-6.39,17.39-9.58,1.41-.81,1.08-2.07-.36-2.76-6.93-3.37-17.13,1.8-18.66,9.54C1322.22,1469.45,1323.23,1470.35,1324,1471.58Zm120.27-117.22c-.21-.32-.36-.8-.64-.9a7,7,0,0,0-9.42,5,8.65,8.65,0,0,0-.06,2,5.32,5.32,0,0,0,1.83-.34c2.51-1.52,5-3.11,7.41-4.72A4.44,4.44,0,0,0,1444.25,1354.36Z"/><path d="M1484.75,1417.2l-.4.17-.21-.56.65-.23Z"/><path d="M289,258.3c.75-4.9,1.34-9.83,2.32-14.69.46-2.28,2.45-2.63,3.69-.71,1.87,2.91,3.38,6.06,5.06,9.09a18.31,18.31,0,0,0,1.14,1.63,9.55,9.55,0,0,0,1.55-1.49c7.43-11.42,14.8-22.87,22.28-34.26a3.25,3.25,0,0,1,2.35-1c.34,0,1,1.07,1.06,1.69.26,3.21.49,6.43.52,9.66.14,12.55-.88,24.84-8.36,35.62a12,12,0,0,0-.87,1.89,9.53,9.53,0,0,0,2.68-.1,40.23,40.23,0,0,1,19.82-1.75A24.39,24.39,0,0,1,360.22,277c.61,1.15.44,2.73.62,4.11-1.34.07-3.07.7-4,.1-5-3.34-10.37-2.83-15.81-2-9.95,1.58-19.8,1.5-29.37-2a7.26,7.26,0,0,0-7,.76c-10,6.26-16.57,14.81-18.09,26.74-.51,3.94-.72,7.91-.94,11.88-.09,1.79.15,3.6.24,5.4,1.27-1.44,3-2.68,3.74-4.35,4.68-10.65,13.42-14.83,24.32-15.4,6.65-.35,12.59,2.35,18.32,5.41,3.26,1.74,6.35,3.84,9.69,5.39,5.6,2.6,8.9,7,10.68,12.69,1.15,3.65-.44,6-4.27,5.66a23.39,23.39,0,0,1-7.71-2.42,80.22,80.22,0,0,1-8.36-4.84c-5.94-3.7-11.84-4.75-18.1-.59a28.43,28.43,0,0,1-6.79,3c-5.23,1.77-10.57,2.68-16.09,1.31-5.72-1.43-6.41-1.15-8.63,4.29-2.07,5-4,10.16-5.83,15.28-.65,1.76-1,3.64-1.46,5.46l4.5-2.5a1.63,1.63,0,0,1,.69-.28c.46,0,1.2,0,1.32.19.31.59.69,1.58.42,2a56.45,56.45,0,0,1-3.87,4.48c-7.91,8.56-16,17-23.69,25.73-5.56,6.32-10.58,13.13-15.93,19.65a12.51,12.51,0,0,1-2.89,2c-.73-1.15-2.16-2.41-2-3.44.3-2,1.28-2.53,2.55-4.12,1.67-2.11,3.84-5.39,5.85-7.23a125,125,0,0,0,20.82-24.21c1.49-2.32,3.2-4.71,1.71-7.57a108.74,108.74,0,0,0-22.32-29.47c-1.58-1.47-2.93-1.32-4.32.46-3.79,4.85-9.11,6.56-15,7.19-7.87.84-15.73,1.84-23.6,2.78-2.45.3-3.59-.86-2.34-2.8a115.4,115.4,0,0,1,9-12.72c7.26-8.51,17.15-9.62,26.65-3.48a32,32,0,0,0,4.56,2.31,1.65,1.65,0,0,0,1.38-.23,1.21,1.21,0,0,0,0-1.15c-3.48-5.34-6.27-11-14.11-11.76-5.26-.53-10.54-2.77-15.41-5.1-9.38-4.48-18.48-9.53-27.65-14.43a12.47,12.47,0,0,1-2.47-2.36c.91-.69,1.73-1.79,2.74-2,11.5-2.54,23-4.41,33.94,2.13,2.13,1.28,3,1,3.12-1.58a20.17,20.17,0,0,1,.89-5.88c2.25-6,4.73-11.91,7.24-17.81.33-.78,1.58-1.9,2-1.75a4.31,4.31,0,0,1,2.49,2.16c3.09,8.37,6.1,16.78,8.94,25.24a23,23,0,0,1,1.48,8c-.21,4.65-.15,9.71-2,13.76-1.67,3.62-1.29,5.66.78,8.51q13.13,18.06,26,36.33c1.38,2,2.27,1.6,3-.05,3.25-7.49,6.47-15,9.38-22.63.45-1.17-.38-3.32-1.31-4.45-6-7.28-9.37-15.78-11.21-24.85-2-9.69-2.25-19.74-6.21-29-.19-.43-.37-1.23-.18-1.38.64-.5,1.8-1.29,2.14-1.06a17.6,17.6,0,0,1,3.82,3.48c4.45,5.65,8.79,11.4,13.17,17.1.53.69,1.13,1.32,1.69,2a12.37,12.37,0,0,0,.11-2.84c-3.4-18.52-11-35.48-19.63-52a13.82,13.82,0,0,0-7-6.22c-13.16-4.47-22.85-14.88-35.41-20.29-.66-.28-.91-1.49-1.35-2.27.81-.44,1.59-1.21,2.42-1.26,4.92-.33,9.86-.67,14.79-.63,2.18,0,3.09.21,2.4-2.56-3.23-13-6.24-26-9.26-39.06a12.13,12.13,0,0,1,.17-3.38c.92.13,2,0,2.74.43,11.34,7.7,22.58,15.67,28.81,28.4,2.8,5.72,4.31,12.08,6.4,18.15.24.69.46,1.4.69,2.1a14.45,14.45,0,0,0,2.13-1.44c3.53-3.48,6.94-7.09,10.55-10.47a4.39,4.39,0,0,1,3.3-.72c.46.07,1,1.6,1,2.47.23,15.36-.88,30.37-12.11,42.44-2.05,2.19-1.79,4.08-.61,6.63,6.17,13.31,11.55,26.91,13.64,41.57.07.48.23.95.35,1.43.39-.22,1-.34,1.14-.68,2.15-4.4,7.89-7.68,3.14-14.13-1.79-2.43-1.4-6.68-1.46-10.12a95.74,95.74,0,0,1,.85-10.38Zm-62.21,73.41a5.77,5.77,0,0,0,2.86-.7c2.1-1.6,4-3.45,6-5.2-2.51-.48-5-1-7.53-1.42a6.26,6.26,0,0,0-1.47.17c-1.74.07-3.83,1.93-4.9-.76-.1-.25,2.58-1.59,4-2.44.4-.24.77-.55,1.16-.83a5.38,5.38,0,0,0-1.49-.92c-6.34-1.38-11.95.08-16.16,5.06-2.34,2.76-4,6.1-5.95,9.18l-.59.15.48-.29C211.08,333.05,219,332.4,226.83,331.71Zm40.48-50.86.4,1.83c.6,12.45,2.37,24.63,8.49,35.75a35.73,35.73,0,0,0,3.9,4.87,42.1,42.1,0,0,0,2.06-6.2c1.55-9-.78-17.28-5.84-24.66-2.44-3.54-5.8-6.46-8.74-9.67ZM232.69,168.33l.42.48c1.69,15.05,4.34,29.91,11.25,43.56,3.11,6.14,7.21,11.78,13.32,15.51l.51.84c0-.16,0-.39-.05-.47a2.13,2.13,0,0,0-.59-.27c-1.29-4.74-2.63-9.46-3.79-14.23-.18-.71.48-1.63.75-2.45.74.47,1.91.77,2.16,1.43,1.49,3.93,2.76,7.94,4.13,11.91a5.93,5.93,0,0,0,.79,1.18c.31-.51.82-1,.9-1.52a44.23,44.23,0,0,0-3.59-26.78c-5.83-12.11-14.11-21.94-25.92-28.59ZM300.9,272.67c.24,2.48,1.42,2.75,3.47,1.61,11.13-6.21,17.7-15.83,20-28.11,1.13-6,.85-12.31,1.12-18.49,0-.61-.64-1.25-1-1.88a10,10,0,0,0-1,1.07c-5.46,8-11.39,15.66-16.17,24-3.26,5.7-4.91,12.33-6.74,17.13C300.77,270.69,300.8,271.68,300.9,272.67Zm-73.54,29.5a7.52,7.52,0,0,0,1.64,1.15,13,13,0,0,0-.28-2c-.62-2-2.82-5-.47-5.94,3-1.19,2.33,2.86,3.34,4.51,1.42,2.31,2.3,4.94,3.5,7.39.27.54.91.9,1.38,1.35.46-.57,1.14-1.06,1.34-1.71a29.82,29.82,0,0,0-.27-18.31c-2.16-6.85-4.8-13.54-7.26-20.3a13.72,13.72,0,0,0-1-1.83c-.66.68-1.62,1.24-1.93,2-1.91,5.07-3.67,10.19-5.48,15.29C221.42,290.83,223.07,296.86,227.36,302.17Zm68.8,11.15a7,7,0,0,0-.88,2.5c.65-.14,1.3-.31,2-.4,2.95-.42,5.27-4.22,8.77-1.63-2.39,1.57-4.75,3.2-7.19,4.68-2.11,1.29-4.36,2.36-6.46,3.65-.49.3-1.06,1.23-.91,1.63a2.32,2.32,0,0,0,1.62,1.15,28.08,28.08,0,0,0,16.58-2.7c6.46-3.12,12.82-6.45,19.21-9.71a11.52,11.52,0,0,0,1.6-1.2c-.48-.53-.88-1.31-1.48-1.54-3.9-1.52-7.85-2.92-10.49-3.88C309,305.42,301.8,307.19,296.16,313.32ZM280.54,205.55c0-1.47-.58-1.45-1.7-.6-10.22,7.74-15.6,23.31-12,35.1a4.29,4.29,0,0,0,1.66,2c.17.12,1.18-.67,1.61-1.19,6.3-7.69,10-16.38,10.06-26.44C280.31,211.46,280.5,208.51,280.54,205.55ZM198.79,285.9c-3.4.35-6.79.83-10.18,1.25,2.64,1.89,5.17,4,7.95,5.62,4.88,2.9,9.86,5.69,14.93,8.25,2.62,1.33,3.52.48,3.33-2.53-.62-10-2.42-11.75-13.08-12.35A15.59,15.59,0,0,0,198.79,285.9Zm144.39-10.31c1.72-.16,3.42-.49,5.13-.56,1.94-.09,3.89,0,5.83.06-1.69-1.64-3.14-3.66-5.1-4.86-8.65-5.27-16.64-4.52-23.5,2a10.3,10.3,0,0,0-1.43,2.39,22.76,22.76,0,0,0,2.9,1.59,8.27,8.27,0,0,0,2.19.24l0,.35C333.89,276.39,338.54,276,343.18,275.59ZM292.37,277c.15,1.25,2.15,3.39,3,3.26,2.16-.33,2.59-2.26,2.44-4.57a48,48,0,0,1,.37-11c.89-5.15-.46-9.72-2.51-14.24-.27-.59-1-1-1.45-1.49a5.82,5.82,0,0,0-.79,1.68c-.37,3.42-.65,6.86-1,10.29h-1.1C291.66,266.25,291.77,271.63,292.37,277ZM349,325.89c-1.53-7.74-11.73-12.9-18.67-9.54-1.43.7-1.76,2-.35,2.77,5.54,3.18,11.19,6.19,17.39,9.58C348.1,327.47,349.12,326.56,349,325.89ZM228,212.58c2.45,1.61,4.91,3.2,7.41,4.71a5.63,5.63,0,0,0,1.84.35,9.94,9.94,0,0,0-.06-2,7,7,0,0,0-9.42-5c-.28.1-.43.59-.65.91A5.12,5.12,0,0,0,228,212.58Z"/><path d="M186.58,274.31l.41.18.21-.57-.65-.23Z"/><path d="M1436.44,319.06a95.92,95.92,0,0,1,.85,10.39c-.06,3.43.33,7.68-1.46,10.11-4.75,6.45,1,9.73,3.14,14.13.16.34.75.46,1.14.68.12-.48.28-.95.35-1.43,2.09-14.66,7.47-28.26,13.64-41.57,1.18-2.55,1.44-4.44-.61-6.63-11.23-12.07-12.34-27.08-12.11-42.44,0-.87.55-2.4,1-2.47a4.39,4.39,0,0,1,3.3.72c3.61,3.38,7,7,10.55,10.47a14.45,14.45,0,0,0,2.13,1.44c.23-.7.45-1.41.69-2.1,2.09-6.07,3.6-12.43,6.4-18.15,6.23-12.73,17.47-20.7,28.81-28.4.69-.47,1.82-.3,2.74-.43a12.53,12.53,0,0,1,.17,3.38c-3,13-6,26.07-9.26,39.06-.69,2.77.22,2.58,2.4,2.56,4.93,0,9.86.3,14.79.63.83.05,1.61.82,2.42,1.26-.44.78-.69,2-1.35,2.27-12.56,5.41-22.25,15.82-35.41,20.3a13.76,13.76,0,0,0-7,6.21c-8.63,16.52-16.23,33.49-19.63,52a12.48,12.48,0,0,0,.11,2.85c.56-.67,1.16-1.3,1.69-2,4.38-5.7,8.72-11.45,13.17-17.1a17.6,17.6,0,0,1,3.82-3.48c.34-.23,1.49.56,2.13,1.06.2.15,0,.95-.17,1.38-4,9.27-4.25,19.32-6.21,29-1.84,9.07-5.19,17.57-11.21,24.85-.94,1.13-1.76,3.28-1.31,4.45,2.91,7.63,6.13,15.14,9.38,22.63.71,1.65,1.6,2,3,.05q12.82-18.27,26-36.33c2.07-2.85,2.45-4.89.78-8.51-1.87-4.05-1.81-9.11-2-13.76a23,23,0,0,1,1.48-8c2.84-8.46,5.85-16.87,8.94-25.24a4.31,4.31,0,0,1,2.49-2.16c.43-.15,1.68,1,2,1.75,2.51,5.9,5,11.82,7.24,17.82a20.06,20.06,0,0,1,.89,5.87c.13,2.55,1,2.86,3.12,1.58,10.92-6.54,22.44-4.67,33.94-2.13,1,.22,1.83,1.32,2.74,2a12.47,12.47,0,0,1-2.47,2.36c-9.17,4.9-18.27,9.95-27.65,14.43-4.87,2.33-10.15,4.58-15.41,5.1-7.84.78-10.63,6.42-14.11,11.76-.19.28-.17,1,0,1.15a1.65,1.65,0,0,0,1.38.23,33,33,0,0,0,4.56-2.3c9.5-6.15,19.39-5,26.65,3.47a115.4,115.4,0,0,1,9,12.72c1.25,1.94.11,3.1-2.34,2.8-7.87-.94-15.73-1.94-23.6-2.78-5.88-.63-11.2-2.34-15-7.19-1.39-1.78-2.74-1.93-4.32-.46a108.74,108.74,0,0,0-22.32,29.47c-1.49,2.86.22,5.25,1.71,7.57A125,125,0,0,0,1483,450.19c2,1.84,4.18,5.12,5.85,7.23,1.27,1.59,2.25,2.08,2.55,4.12.14,1-1.29,2.29-2,3.44a12.51,12.51,0,0,1-2.89-2c-5.35-6.52-10.37-13.33-15.93-19.65-7.7-8.76-15.78-17.17-23.69-25.73a56.45,56.45,0,0,1-3.87-4.48c-.27-.37.11-1.37.42-2,.12-.23.86-.19,1.32-.19a1.63,1.63,0,0,1,.69.28l4.5,2.5c-.48-1.82-.81-3.7-1.46-5.46-1.87-5.12-3.76-10.23-5.83-15.28-2.22-5.44-2.91-5.72-8.63-4.29-5.52,1.37-10.86.46-16.1-1.31a28.92,28.92,0,0,1-6.78-3c-6.26-4.17-12.16-3.12-18.1.58a82.14,82.14,0,0,1-8.36,4.85,23.61,23.61,0,0,1-7.71,2.41c-3.84.32-5.42-2-4.27-5.66,1.78-5.7,5.08-10.09,10.68-12.69,3.34-1.55,6.43-3.65,9.69-5.39,5.73-3.06,11.67-5.75,18.32-5.41,10.9.57,19.64,4.75,24.32,15.4.74,1.67,2.47,2.91,3.74,4.36.09-1.81.33-3.62.24-5.41-.22-4-.43-7.94-.94-11.88-1.52-11.93-8.11-20.48-18.09-26.74a7.26,7.26,0,0,0-7-.76c-9.57,3.47-19.42,3.55-29.37,2-5.44-.87-10.8-1.38-15.81,2-.91.6-2.64,0-4-.09.18-1.39,0-3,.62-4.12a24.39,24.39,0,0,1,17.94-13.14,40.23,40.23,0,0,1,19.82,1.75,9.53,9.53,0,0,0,2.68.1,11.23,11.23,0,0,0-.88-1.89c-7.47-10.78-8.49-23.07-8.35-35.62,0-3.22.26-6.45.52-9.66.06-.62.72-1.71,1.06-1.69a3.25,3.25,0,0,1,2.35,1c7.48,11.39,14.85,22.84,22.28,34.26a9.16,9.16,0,0,0,1.55,1.49,18.31,18.31,0,0,0,1.14-1.63c1.68-3,3.19-6.18,5.06-9.09,1.24-1.92,3.23-1.57,3.69.71,1,4.86,1.57,9.79,2.32,14.69Zm85.73,75.42.48.29-.59-.15c-2-3.08-3.61-6.42-6-9.18-4.21-5-9.82-6.44-16.16-5.06a5.38,5.38,0,0,0-1.49.92c.39.28.76.59,1.16.84,1.38.84,4.05,2.18,4,2.43-1.07,2.69-3.16.83-4.9.76a7.54,7.54,0,0,0-1.47-.17c-2.52.43-5,.94-7.53,1.42,2,1.75,3.9,3.6,6,5.2a5.77,5.77,0,0,0,2.86.7C1506.41,393.17,1514.29,393.82,1522.17,394.48Zm-64.38-50.94c-2.94,3.21-6.3,6.13-8.74,9.68-5.06,7.37-7.39,15.64-5.84,24.65a42.1,42.1,0,0,0,2.06,6.2,35.73,35.73,0,0,0,3.9-4.87c6.12-11.12,7.89-23.3,8.49-35.75l.4-1.83Zm34.6-113.84c-11.81,6.65-20.09,16.48-25.92,28.59a44.23,44.23,0,0,0-3.59,26.78c.08.54.59,1,.9,1.52a5.93,5.93,0,0,0,.79-1.18c1.37-4,2.64-8,4.13-11.91.25-.66,1.42-1,2.16-1.43.27.82.93,1.74.75,2.45-1.16,4.77-2.5,9.49-3.79,14.23a2.13,2.13,0,0,0-.59.27c-.09.08,0,.31,0,.47l.51-.84c6.11-3.73,10.21-9.37,13.32-15.51,6.91-13.65,9.56-28.51,11.25-43.56l.42-.48Zm-67.62,99.08c-1.83-4.8-3.48-11.43-6.74-17.13-4.78-8.35-10.71-16-16.17-24a9,9,0,0,0-1-1.06c-.34.62-1,1.26-1,1.87.26,6.18,0,12.47,1.12,18.49,2.3,12.28,8.87,21.9,20,28.11,2,1.14,3.24.87,3.48-1.61C1424.57,332.45,1424.6,331.46,1424.77,328.78Zm78.75,15.82c-1.81-5.11-3.57-10.23-5.48-15.3-.31-.81-1.27-1.37-1.93-2.05a13.83,13.83,0,0,0-1,1.84c-2.46,6.75-5.1,13.44-7.26,20.29a29.74,29.74,0,0,0-.27,18.31c.2.65.88,1.14,1.34,1.71.47-.44,1.11-.81,1.38-1.35,1.2-2.45,2.08-5.08,3.5-7.39,1-1.65.34-5.7,3.34-4.51,2.35.94.15,3.9-.47,5.94a13,13,0,0,0-.28,2,7.22,7.22,0,0,0,1.63-1.15C1502.3,357.63,1504,351.6,1503.52,344.6Zm-96.63,22c-2.64,1-6.59,2.36-10.49,3.88-.6.23-1,1-1.49,1.54a12.23,12.23,0,0,0,1.61,1.2c6.39,3.26,12.75,6.59,19.21,9.71a28.07,28.07,0,0,0,16.58,2.7,2.32,2.32,0,0,0,1.62-1.15c.15-.4-.42-1.33-.91-1.63-2.11-1.29-4.35-2.36-6.46-3.65-2.44-1.48-4.8-3.11-7.19-4.68,3.5-2.59,5.82,1.21,8.76,1.63.66.09,1.31.26,2,.4a7,7,0,0,0-.88-2.5C1423.57,368,1416.33,366.19,1406.89,366.64Zm38.3-91.45c.1,10.06,3.76,18.75,10.06,26.44.43.52,1.44,1.31,1.61,1.19a4.29,4.29,0,0,0,1.66-2c3.61-11.79-1.77-27.36-12-35.1-1.12-.85-1.71-.87-1.7.6C1444.87,269.28,1445.06,272.23,1445.19,275.19Zm78.44,71.72c-10.66.6-12.46,2.32-13.08,12.35-.19,3,.71,3.86,3.33,2.53,5.07-2.56,10-5.35,14.93-8.25,2.78-1.66,5.31-3.73,8-5.62-3.39-.42-6.78-.9-10.18-1.25A15.59,15.59,0,0,0,1523.63,346.91Zm-127.5-9.35,0-.35a7.9,7.9,0,0,0,2.2-.24,22.76,22.76,0,0,0,2.9-1.59,10.3,10.3,0,0,0-1.43-2.39c-6.86-6.51-14.85-7.26-23.5-2-2,1.2-3.41,3.22-5.1,4.86,1.94,0,3.89-.15,5.83-.06,1.71.07,3.41.41,5.13.56C1386.83,336.78,1391.48,337.16,1396.13,337.56ZM1434,321.67h-1.1c-.31-3.43-.59-6.87-1-10.29a5.82,5.82,0,0,0-.79-1.68c-.5.49-1.18.9-1.45,1.49-2,4.52-3.4,9.09-2.51,14.24a48,48,0,0,1,.37,11c-.15,2.31.28,4.24,2.44,4.57.86.13,2.86-2,3-3.26C1433.6,332.4,1433.71,327,1434,321.67Zm-56,67.8c6.2-3.39,11.85-6.4,17.39-9.58,1.41-.81,1.08-2.07-.35-2.77-6.94-3.36-17.14,1.8-18.67,9.54C1376.25,387.34,1377.27,388.24,1378,389.47Zm120.28-117.22c-.22-.32-.37-.81-.65-.91a7,7,0,0,0-9.42,5,9.29,9.29,0,0,0-.06,2.05,5.63,5.63,0,0,0,1.84-.35c2.5-1.51,5-3.1,7.41-4.71A5.12,5.12,0,0,0,1498.29,272.25Z"/><path d="M1538.78,335.08l-.4.18-.21-.57.65-.22Z"/><path d="M1859.48,1996.18a95.72,95.72,0,0,1,.85,10.39c-.06,3.43.33,7.68-1.46,10.11-4.75,6.45,1,9.73,3.13,14.13.16.34.76.46,1.15.68.12-.48.28-1,.35-1.43,2.09-14.66,7.47-28.26,13.64-41.57,1.18-2.55,1.44-4.44-.61-6.63-11.23-12.07-12.34-27.08-12.11-42.44,0-.87.54-2.4,1-2.47a4.36,4.36,0,0,1,3.29.72c3.62,3.38,7,7,10.56,10.47a13.94,13.94,0,0,0,2.13,1.44c.23-.7.45-1.41.69-2.1,2.09-6.07,3.6-12.43,6.4-18.15,6.22-12.73,17.47-20.7,28.81-28.4.69-.47,1.82-.3,2.74-.43a12.53,12.53,0,0,1,.17,3.38c-3,13-6,26.07-9.27,39.06-.69,2.77.23,2.57,2.41,2.56,4.93,0,9.86.3,14.79.63.83,0,1.61.82,2.42,1.26-.44.78-.7,2-1.35,2.27-12.56,5.41-22.25,15.82-35.42,20.29a13.86,13.86,0,0,0-7,6.22c-8.62,16.52-16.23,33.49-19.62,52a12.48,12.48,0,0,0,.11,2.85c.56-.67,1.16-1.3,1.68-2,4.39-5.7,8.72-11.45,13.17-17.1a17.88,17.88,0,0,1,3.83-3.48c.33-.23,1.49.56,2.13,1.06.19.15,0,1-.17,1.38-4,9.27-4.25,19.32-6.22,29-1.83,9.07-5.18,17.57-11.21,24.85-.93,1.13-1.75,3.28-1.3,4.45,2.91,7.63,6.13,15.14,9.38,22.63.71,1.65,1.59,2,3,.05q12.81-18.27,26-36.33c2.07-2.85,2.44-4.89.78-8.51-1.87-4-1.82-9.11-2-13.76a22.75,22.75,0,0,1,1.48-8c2.83-8.46,5.85-16.87,8.94-25.24a4.31,4.31,0,0,1,2.49-2.16c.43-.15,1.68,1,2,1.75,2.51,5.9,5,11.82,7.24,17.82a19.72,19.72,0,0,1,.88,5.87c.14,2.55,1,2.86,3.13,1.58,10.92-6.54,22.43-4.67,33.94-2.13,1,.22,1.83,1.32,2.74,2a12.47,12.47,0,0,1-2.47,2.36c-9.17,4.9-18.28,9.95-27.65,14.43-4.87,2.33-10.15,4.57-15.42,5.1-7.84.78-10.62,6.42-14.11,11.76-.18.28-.16,1,0,1.15a1.62,1.62,0,0,0,1.37.23,32.56,32.56,0,0,0,4.57-2.3c9.5-6.15,19.39-5,26.64,3.47a114.16,114.16,0,0,1,9,12.72c1.24,1.94.11,3.1-2.34,2.8-7.87-.94-15.73-1.94-23.61-2.78-5.88-.63-11.2-2.34-15-7.19-1.4-1.78-2.75-1.93-4.32-.46a108.74,108.74,0,0,0-22.32,29.47c-1.5,2.86.21,5.25,1.71,7.57a125,125,0,0,0,20.82,24.21c2,1.84,4.18,5.12,5.85,7.23,1.27,1.59,2.25,2.08,2.54,4.12.15,1-1.29,2.29-2,3.44a12.3,12.3,0,0,1-2.89-2c-5.35-6.52-10.37-13.33-15.93-19.65-7.7-8.76-15.78-17.17-23.69-25.73a56.45,56.45,0,0,1-3.87-4.48c-.27-.38.11-1.37.41-2,.13-.23.87-.19,1.33-.19a1.54,1.54,0,0,1,.68.28l4.5,2.5c-.47-1.82-.81-3.7-1.45-5.46-1.87-5.12-3.77-10.23-5.83-15.28-2.23-5.44-2.91-5.72-8.63-4.29-5.52,1.37-10.86.46-16.1-1.31a28.92,28.92,0,0,1-6.78-3c-6.26-4.17-12.17-3.12-18.1.58a83.24,83.24,0,0,1-8.36,4.85,23.61,23.61,0,0,1-7.71,2.41c-3.84.32-5.42-2-4.28-5.66,1.79-5.7,5.09-10.09,10.69-12.69,3.34-1.55,6.43-3.65,9.69-5.39,5.73-3.06,11.66-5.75,18.32-5.41,10.9.57,19.64,4.75,24.32,15.4.74,1.67,2.47,2.91,3.74,4.35a51.45,51.45,0,0,0,.23-5.4c-.21-4-.43-7.94-.93-11.88-1.53-11.93-8.11-20.48-18.09-26.74a7.28,7.28,0,0,0-7-.76c-9.56,3.47-19.41,3.55-29.36,2-5.44-.86-10.81-1.37-15.81,2-.91.6-2.64,0-4-.1.19-1.38,0-3,.63-4.11a24.38,24.38,0,0,1,17.94-13.14,40.19,40.19,0,0,1,19.81,1.75,9.6,9.6,0,0,0,2.69.1,12.08,12.08,0,0,0-.88-1.89c-7.48-10.78-8.49-23.07-8.36-35.62,0-3.22.27-6.45.53-9.66,0-.62.72-1.71,1.06-1.69a3.25,3.25,0,0,1,2.35,1c7.47,11.39,14.85,22.84,22.28,34.26a9.47,9.47,0,0,0,1.54,1.49,16.44,16.44,0,0,0,1.14-1.63c1.69-3,3.19-6.18,5.07-9.09,1.24-1.92,3.23-1.57,3.69.71,1,4.86,1.57,9.79,2.32,14.69Zm85.73,75.42.48.29-.59-.15c-2-3.08-3.61-6.42-5.95-9.18-4.21-5-9.83-6.44-16.16-5.06a5.24,5.24,0,0,0-1.49.92c.39.28.76.59,1.16.84,1.38.84,4,2.18,3.95,2.43-1.06,2.69-3.16.83-4.89.76a6.39,6.39,0,0,0-1.47-.17c-2.52.43-5,.94-7.53,1.42,2,1.75,3.9,3.6,6,5.2a5.74,5.74,0,0,0,2.86.7C1929.45,2070.29,1937.33,2070.94,1945.21,2071.6Zm-64.38-50.94c-2.94,3.21-6.3,6.13-8.74,9.67-5.07,7.38-7.39,15.64-5.85,24.66a43.37,43.37,0,0,0,2.07,6.2,36.51,36.51,0,0,0,3.9-4.87c6.11-11.12,7.89-23.3,8.49-35.75l.4-1.83Zm34.6-113.84c-11.81,6.65-20.09,16.48-25.92,28.59a44.16,44.16,0,0,0-3.6,26.78,5.12,5.12,0,0,0,.9,1.52,5.53,5.53,0,0,0,.79-1.18c1.38-4,2.65-8,4.14-11.91.24-.66,1.41-1,2.16-1.43.27.82.92,1.74.75,2.45-1.17,4.77-2.51,9.49-3.79,14.23a2.13,2.13,0,0,0-.59.27c-.09.08,0,.31,0,.47l.51-.84c6.11-3.73,10.21-9.37,13.32-15.51,6.91-13.65,9.56-28.51,11.24-43.56l.43-.48Zm-67.62,99.08c-1.83-4.8-3.48-11.43-6.74-17.13-4.78-8.35-10.72-16-16.17-24a10,10,0,0,0-1-1.06c-.35.62-1,1.26-1,1.87.26,6.18,0,12.47,1.12,18.49,2.3,12.28,8.86,21.9,20,28.11,2,1.14,3.24.87,3.48-1.61C1847.61,2009.57,1847.64,2008.58,1847.81,2005.9Zm78.74,15.81c-1.81-5.1-3.57-10.22-5.48-15.29-.3-.81-1.26-1.37-1.92-2.05a13.24,13.24,0,0,0-1,1.83c-2.46,6.76-5.11,13.45-7.26,20.3a29.82,29.82,0,0,0-.28,18.31c.21.65.89,1.14,1.34,1.71.47-.45,1.12-.81,1.39-1.35,1.2-2.45,2.08-5.08,3.5-7.39,1-1.65.34-5.7,3.34-4.51,2.34.94.15,3.9-.47,5.94a13,13,0,0,0-.29,2,7.07,7.07,0,0,0,1.64-1.15C1925.33,2034.75,1927,2028.72,1926.55,2021.71Zm-96.63,22c-2.64,1-6.58,2.36-10.48,3.88-.61.23-1,1-1.49,1.54a11.6,11.6,0,0,0,1.61,1.2c6.39,3.26,12.75,6.59,19.21,9.71a28.07,28.07,0,0,0,16.58,2.7,2.32,2.32,0,0,0,1.62-1.15c.14-.4-.42-1.33-.91-1.63-2.11-1.29-4.35-2.36-6.46-3.65-2.44-1.48-4.8-3.11-7.19-4.68,3.5-2.59,5.82,1.21,8.76,1.63.66.09,1.31.26,2,.4a7.19,7.19,0,0,0-.89-2.5C1846.61,2045.08,1839.36,2043.31,1829.92,2043.76Zm38.3-91.45c.11,10.06,3.77,18.75,10.07,26.44.43.52,1.43,1.31,1.61,1.19a4.29,4.29,0,0,0,1.66-2c3.61-11.79-1.77-27.36-12-35.1-1.13-.85-1.72-.87-1.7.6C1867.91,1946.4,1868.1,1949.35,1868.22,1952.31Zm78.44,71.72c-10.65.6-12.46,2.32-13.07,12.35-.19,3,.7,3.86,3.33,2.53,5.07-2.56,10-5.35,14.93-8.25,2.78-1.66,5.31-3.73,8-5.62-3.39-.42-6.78-.9-10.18-1.25A15.69,15.69,0,0,0,1946.66,2024Zm-127.49-9.35,0-.35a8.3,8.3,0,0,0,2.2-.24,24.21,24.21,0,0,0,2.9-1.59,10.3,10.3,0,0,0-1.43-2.39c-6.86-6.51-14.85-7.26-23.5-2-2,1.2-3.42,3.22-5.1,4.86,1.94,0,3.89-.15,5.83-.06,1.71.07,3.41.41,5.12.56C1809.87,2013.9,1814.52,2014.28,1819.17,2014.68Zm37.86-15.89h-1.11c-.3-3.43-.58-6.87-1-10.29a5.82,5.82,0,0,0-.79-1.68c-.5.49-1.18.9-1.45,1.49-2.06,4.52-3.4,9.09-2.52,14.24a47.39,47.39,0,0,1,.38,11c-.15,2.31.28,4.24,2.43,4.57.86.13,2.87-2,3-3.26C1856.64,2009.52,1856.74,2004.14,1857,1998.79Zm-56,67.8c6.2-3.39,11.85-6.4,17.39-9.58,1.41-.81,1.08-2.07-.36-2.77-6.93-3.36-17.13,1.8-18.66,9.54C1799.29,2064.46,1800.3,2065.36,1801.05,2066.59Zm120.27-117.22c-.21-.32-.36-.81-.64-.91a7,7,0,0,0-9.42,5,8.71,8.71,0,0,0-.06,2,5.57,5.57,0,0,0,1.83-.35c2.51-1.51,5-3.1,7.41-4.71A4.58,4.58,0,0,0,1921.32,1949.37Z"/><path d="M1961.82,2012.2l-.4.18-.21-.57.65-.23Z"/><path d="M1816.51,3259.5a95.74,95.74,0,0,1,.85,10.38c-.06,3.44.33,7.69-1.46,10.12-4.75,6.45,1,9.73,3.14,14.13.16.33.75.46,1.14.68a14.38,14.38,0,0,0,.35-1.44c2.09-14.65,7.47-28.25,13.64-41.56,1.18-2.55,1.44-4.44-.61-6.64-11.23-12.06-12.34-27.07-12.11-42.43,0-.87.55-2.4,1-2.47a4.39,4.39,0,0,1,3.3.72c3.61,3.38,7,7,10.55,10.47a14.45,14.45,0,0,0,2.13,1.44c.23-.7.45-1.41.69-2.1,2.09-6.07,3.6-12.43,6.4-18.15,6.23-12.73,17.47-20.7,28.81-28.4.69-.47,1.82-.3,2.74-.43a12.53,12.53,0,0,1,.17,3.38c-3,13-6,26.07-9.26,39.06-.69,2.77.22,2.57,2.4,2.56,4.93-.05,9.86.3,14.79.63.83.05,1.61.82,2.42,1.26-.44.78-.69,2-1.35,2.27-12.56,5.41-22.25,15.82-35.41,20.29a13.82,13.82,0,0,0-7,6.22c-8.63,16.52-16.23,33.48-19.63,52a12.37,12.37,0,0,0,.11,2.84c.56-.66,1.16-1.29,1.69-2,4.38-5.7,8.72-11.45,13.17-17.1a17.6,17.6,0,0,1,3.82-3.48c.34-.23,1.49.56,2.13,1.06.2.15,0,1-.17,1.38-4,9.27-4.25,19.32-6.21,29-1.84,9.07-5.19,17.57-11.21,24.85-.94,1.13-1.76,3.28-1.31,4.45,2.91,7.63,6.13,15.14,9.38,22.63.71,1.65,1.6,2,3,0q12.83-18.27,26-36.33c2.07-2.85,2.45-4.89.78-8.51-1.87-4.05-1.81-9.11-2-13.76a23,23,0,0,1,1.48-8c2.84-8.46,5.85-16.87,8.94-25.24a4.31,4.31,0,0,1,2.49-2.16c.43-.15,1.68,1,2,1.75,2.51,5.9,5,11.81,7.24,17.81a20.17,20.17,0,0,1,.89,5.88c.13,2.54,1,2.86,3.12,1.58,10.92-6.54,22.44-4.67,33.94-2.14,1,.23,1.83,1.33,2.74,2a12.47,12.47,0,0,1-2.47,2.36c-9.17,4.9-18.27,10-27.65,14.43-4.87,2.33-10.15,4.57-15.41,5.1-7.84.78-10.63,6.42-14.11,11.76-.19.28-.17,1,0,1.15a1.68,1.68,0,0,0,1.38.23,32,32,0,0,0,4.56-2.31c9.5-6.14,19.39-5,26.65,3.48a115.4,115.4,0,0,1,9,12.72c1.25,1.94.11,3.1-2.34,2.8-7.87-.94-15.73-1.94-23.6-2.78-5.88-.63-11.2-2.34-15-7.19-1.39-1.78-2.74-1.93-4.32-.46a108.74,108.74,0,0,0-22.32,29.47c-1.49,2.86.22,5.25,1.71,7.57a125.3,125.3,0,0,0,20.82,24.21c2,1.84,4.18,5.12,5.85,7.22,1.27,1.6,2.25,2.09,2.55,4.13.14,1-1.29,2.29-2,3.44a12.51,12.51,0,0,1-2.89-2c-5.35-6.52-10.37-13.33-15.93-19.66-7.7-8.75-15.78-17.16-23.69-25.73a54.59,54.59,0,0,1-3.87-4.47c-.27-.38.11-1.37.42-2,.12-.24.86-.19,1.32-.19a1.74,1.74,0,0,1,.69.27l4.5,2.51c-.48-1.82-.81-3.7-1.46-5.46-1.87-5.12-3.76-10.24-5.83-15.28-2.22-5.44-2.91-5.72-8.63-4.29-5.52,1.37-10.86.46-16.1-1.31a28.54,28.54,0,0,1-6.78-3c-6.26-4.16-12.16-3.11-18.1.59a82.05,82.05,0,0,1-8.36,4.84,23.39,23.39,0,0,1-7.71,2.42c-3.83.32-5.42-2-4.27-5.66,1.78-5.7,5.08-10.09,10.68-12.69,3.34-1.55,6.43-3.65,9.69-5.39,5.73-3.06,11.67-5.76,18.32-5.41,10.9.57,19.64,4.75,24.32,15.4.74,1.67,2.47,2.91,3.74,4.35.09-1.8.33-3.61.24-5.4-.22-4-.43-7.94-.94-11.88-1.52-11.93-8.11-20.48-18.09-26.75a7.28,7.28,0,0,0-7-.75c-9.57,3.47-19.42,3.55-29.37,2-5.44-.86-10.8-1.37-15.81,2-.91.61-2.64,0-4-.09.18-1.38,0-3,.62-4.12a24.41,24.41,0,0,1,17.94-13.13,40.23,40.23,0,0,1,19.82,1.75,9.53,9.53,0,0,0,2.68.1,11.23,11.23,0,0,0-.88-1.89c-7.47-10.78-8.49-23.08-8.35-35.63,0-3.22.26-6.44.52-9.65.06-.62.72-1.71,1.06-1.7a3.26,3.26,0,0,1,2.35,1c7.48,11.39,14.85,22.84,22.28,34.25a9.21,9.21,0,0,0,1.55,1.5,18.31,18.31,0,0,0,1.14-1.63c1.68-3,3.19-6.18,5.06-9.09,1.24-1.92,3.23-1.57,3.69.71,1,4.85,1.57,9.79,2.32,14.69Zm85.73,75.42.48.29-.59-.16c-2-3.07-3.61-6.42-6-9.18-4.21-5-9.82-6.43-16.16-5a5.15,5.15,0,0,0-1.49.92c.39.28.76.58,1.16.83,1.38.85,4,2.19,4,2.44-1.07,2.69-3.16.83-4.9.76a6.87,6.87,0,0,0-1.47-.18c-2.52.44-5,.95-7.53,1.43,2,1.75,3.9,3.6,6,5.2a5.66,5.66,0,0,0,2.86.69C1886.48,3333.61,1894.36,3334.25,1902.24,3334.92ZM1837.86,3284c-2.94,3.21-6.3,6.12-8.74,9.67-5.06,7.38-7.39,15.64-5.84,24.65a41.34,41.34,0,0,0,2.06,6.2,35,35,0,0,0,3.9-4.86c6.12-11.12,7.89-23.3,8.49-35.75l.4-1.83Zm34.6-113.84c-11.81,6.65-20.09,16.48-25.92,28.59a44.21,44.21,0,0,0-3.59,26.77c.08.55.59,1,.9,1.53a5.93,5.93,0,0,0,.79-1.18c1.37-4,2.64-8,4.13-11.91.25-.66,1.42-1,2.16-1.43.27.82.93,1.73.75,2.45-1.16,4.77-2.5,9.49-3.79,14.23a2.13,2.13,0,0,0-.59.27c-.09.08,0,.31,0,.47l.51-.84c6.11-3.73,10.21-9.37,13.32-15.51,6.91-13.65,9.56-28.51,11.25-43.56l.42-.48Zm-67.62,99.08c-1.83-4.8-3.48-11.43-6.74-17.13-4.78-8.35-10.71-16-16.17-24a9.13,9.13,0,0,0-1-1.07c-.34.63-1,1.27-1,1.88.26,6.18,0,12.47,1.12,18.49,2.3,12.28,8.87,21.9,20,28.11,2,1.14,3.24.87,3.48-1.62C1804.64,3272.89,1804.67,3271.9,1804.84,3269.22Zm78.75,15.81c-1.81-5.1-3.57-10.22-5.48-15.29-.31-.81-1.27-1.37-1.93-2a13.72,13.72,0,0,0-1,1.83c-2.46,6.76-5.1,13.45-7.26,20.3a29.74,29.74,0,0,0-.27,18.31c.2.64.88,1.14,1.34,1.71.47-.45,1.11-.81,1.38-1.36,1.2-2.44,2.08-5.07,3.5-7.38,1-1.65.34-5.7,3.34-4.51,2.35.94.15,3.9-.47,5.93a13.37,13.37,0,0,0-.28,2,6.88,6.88,0,0,0,1.63-1.14C1882.37,3298.07,1884,3292,1883.59,3285Zm-96.63,22c-2.64,1-6.59,2.36-10.49,3.87-.6.24-1,1-1.49,1.55a11.33,11.33,0,0,0,1.61,1.19c6.39,3.27,12.75,6.6,19.21,9.72a28.07,28.07,0,0,0,16.58,2.7A2.32,2.32,0,0,0,1814,3325c.15-.4-.42-1.33-.91-1.63-2.11-1.29-4.35-2.36-6.46-3.65-2.44-1.49-4.8-3.11-7.19-4.68,3.5-2.59,5.82,1.21,8.77,1.63.65.09,1.3.26,2,.4a7,7,0,0,0-.88-2.5C1803.64,3308.4,1796.4,3306.63,1787,3307.08Zm38.3-91.45c.1,10.06,3.76,18.75,10.06,26.44.43.52,1.44,1.31,1.61,1.19a4.34,4.34,0,0,0,1.66-2c3.61-11.8-1.77-27.37-12-35.1-1.12-.85-1.71-.87-1.7.6C1824.94,3209.72,1825.13,3212.67,1825.26,3215.63Zm78.44,71.72c-10.66.6-12.46,2.32-13.08,12.35-.19,3,.71,3.86,3.33,2.53,5.07-2.56,10-5.35,14.93-8.26,2.78-1.65,5.31-3.72,7.95-5.61-3.39-.43-6.78-.9-10.18-1.25A15.59,15.59,0,0,0,1903.7,3287.35ZM1776.2,3278l0-.35a8.3,8.3,0,0,0,2.2-.24,24.08,24.08,0,0,0,2.9-1.59,10.3,10.3,0,0,0-1.43-2.39c-6.86-6.51-14.85-7.26-23.5-2-2,1.2-3.41,3.22-5.1,4.85,1.94,0,3.89-.14,5.83-.05,1.71.07,3.41.4,5.13.56C1766.9,3277.22,1771.55,3277.6,1776.2,3278Zm37.86-15.89H1813c-.31-3.43-.59-6.86-1-10.28a5.82,5.82,0,0,0-.79-1.68c-.5.49-1.18.9-1.45,1.49-2,4.52-3.4,9.09-2.51,14.24a47.88,47.88,0,0,1,.37,11c-.15,2.32.28,4.25,2.44,4.58.86.13,2.86-2,3-3.26C1813.67,3272.84,1813.78,3267.46,1814.06,3262.11Zm-56,67.8c6.2-3.4,11.85-6.4,17.39-9.59,1.41-.8,1.08-2.06-.35-2.76-6.94-3.36-17.14,1.8-18.67,9.54C1756.32,3327.77,1757.34,3328.67,1758.08,3329.91Zm120.28-117.23c-.22-.31-.37-.8-.65-.9a7,7,0,0,0-9.42,5,9.21,9.21,0,0,0-.06,2,5.38,5.38,0,0,0,1.84-.34c2.5-1.51,5-3.1,7.41-4.71A5,5,0,0,0,1878.36,3212.68Z"/><path d="M1918.85,3275.52l-.4.18-.21-.57.65-.23Z"/><path d="M870.79,804.07c.75-4.9,1.34-9.83,2.32-14.68.46-2.29,2.45-2.64,3.69-.71,1.87,2.91,3.38,6.06,5.06,9.09.32.57.76,1.08,1.14,1.63a9.6,9.6,0,0,0,1.55-1.5c7.42-11.42,14.8-22.87,22.28-34.25a3.24,3.24,0,0,1,2.35-1c.34,0,1,1.07,1.05,1.7.27,3.21.5,6.43.53,9.65.14,12.55-.88,24.85-8.36,35.63a10.84,10.84,0,0,0-.87,1.89,10.34,10.34,0,0,0,2.68-.1A40,40,0,0,1,924,809.67,24.38,24.38,0,0,1,942,822.8c.61,1.16.43,2.74.62,4.12-1.35.06-3.07.69-4,.09-5-3.34-10.38-2.82-15.81-2-9.95,1.58-19.8,1.5-29.37-2a7.31,7.31,0,0,0-7,.76c-10,6.27-16.57,14.82-18.09,26.75-.51,3.93-.73,7.91-.94,11.87-.09,1.8.15,3.61.24,5.41,1.27-1.44,3-2.68,3.73-4.36,4.69-10.64,13.43-14.83,24.33-15.39,6.65-.35,12.59,2.35,18.32,5.4,3.26,1.74,6.34,3.84,9.69,5.4,5.59,2.6,8.9,7,10.68,12.68,1.15,3.66-.44,6-4.27,5.66a23.37,23.37,0,0,1-7.71-2.41,79.29,79.29,0,0,1-8.36-4.85c-5.94-3.7-11.85-4.75-18.1-.58a28.58,28.58,0,0,1-6.79,3c-5.23,1.77-10.57,2.69-16.09,1.31-5.73-1.42-6.41-1.14-8.63,4.3-2.07,5-4,10.15-5.83,15.27-.65,1.77-1,3.64-1.46,5.47l4.5-2.51a1.63,1.63,0,0,1,.69-.28c.46,0,1.2,0,1.32.2.31.59.69,1.58.42,1.95a53.22,53.22,0,0,1-3.88,4.48c-7.9,8.57-16,17-23.68,25.73C831,934.68,826,941.48,820.61,948a12.4,12.4,0,0,1-2.9,2c-.72-1.16-2.16-2.42-2-3.44.3-2,1.28-2.53,2.55-4.13,1.67-2.11,3.84-5.38,5.85-7.23A124.94,124.94,0,0,0,844.92,911c1.49-2.32,3.2-4.72,1.71-7.57a108.79,108.79,0,0,0-22.32-29.48c-1.58-1.46-2.93-1.32-4.32.47-3.79,4.84-9.11,6.55-15,7.18-7.87.85-15.73,1.85-23.6,2.79-2.45.29-3.59-.87-2.34-2.81a116,116,0,0,1,9-12.72c7.26-8.51,17.15-9.61,26.64-3.47a33.17,33.17,0,0,0,4.57,2.31,1.72,1.72,0,0,0,1.38-.23,1.23,1.23,0,0,0,0-1.16c-3.48-5.33-6.27-11-14.11-11.76-5.27-.52-10.54-2.77-15.41-5.09C781.8,845,772.7,839.91,763.53,835a12.48,12.48,0,0,1-2.47-2.36c.91-.69,1.73-1.8,2.74-2,11.5-2.54,23-4.4,33.94,2.14,2.13,1.28,3,1,3.12-1.59a20.16,20.16,0,0,1,.89-5.87c2.25-6,4.73-11.92,7.24-17.82.33-.77,1.57-1.9,2-1.75a4.36,4.36,0,0,1,2.49,2.17c3.09,8.37,6.1,16.77,8.94,25.24a23,23,0,0,1,1.48,8c-.21,4.65-.15,9.71-2,13.77-1.67,3.61-1.29,5.66.78,8.5q13.13,18.06,25.94,36.34c1.39,2,2.28,1.6,3,0,3.25-7.49,6.47-15,9.38-22.63.45-1.17-.38-3.33-1.31-4.45-6-7.28-9.37-15.79-11.21-24.85-2-9.7-2.25-19.74-6.21-29-.19-.43-.37-1.23-.18-1.38.64-.49,1.8-1.28,2.14-1a17.33,17.33,0,0,1,3.82,3.48c4.45,5.65,8.79,11.39,13.17,17.09.53.69,1.13,1.33,1.69,2a12.46,12.46,0,0,0,.11-2.85c-3.4-18.51-11-35.47-19.63-52a13.78,13.78,0,0,0-7-6.22c-13.17-4.48-22.85-14.88-35.41-20.3-.66-.28-.91-1.49-1.35-2.26.81-.44,1.59-1.21,2.42-1.27,4.92-.33,9.86-.67,14.79-.63,2.17,0,3.09.21,2.4-2.56-3.23-13-6.25-26-9.26-39.05a12.13,12.13,0,0,1,.17-3.38c.92.13,2,0,2.74.43,11.34,7.7,22.58,15.67,28.81,28.39,2.8,5.73,4.31,12.08,6.4,18.15.24.7.46,1.4.69,2.1a13.66,13.66,0,0,0,2.13-1.43c3.53-3.49,6.93-7.09,10.55-10.48a4.38,4.38,0,0,1,3.3-.71c.46.07,1,1.59,1,2.46.23,15.36-.88,30.38-12.12,42.44-2,2.2-1.78,4.09-.6,6.64,6.16,13.31,11.55,26.9,13.64,41.56a13.56,13.56,0,0,0,.35,1.43c.39-.22,1-.34,1.14-.67,2.15-4.41,7.89-7.69,3.13-14.13-1.79-2.43-1.39-6.69-1.46-10.12a95.77,95.77,0,0,1,.86-10.38Zm-62.21,73.41a5.66,5.66,0,0,0,2.86-.69c2.1-1.61,4-3.45,6-5.2-2.51-.48-5-1-7.53-1.43a7.54,7.54,0,0,0-1.47.17c-1.74.08-3.83,1.94-4.9-.75-.1-.25,2.58-1.59,4-2.44.4-.25.77-.55,1.16-.83a5.42,5.42,0,0,0-1.49-.93c-6.34-1.38-11.95.08-16.16,5.06-2.34,2.76-4,6.1-6,9.18l-.6.16.49-.3C792.82,878.82,800.7,878.17,808.58,877.48Zm40.48-50.85.4,1.83c.6,12.44,2.37,24.63,8.49,35.75a35.72,35.72,0,0,0,3.89,4.86,40.64,40.64,0,0,0,2.07-6.2c1.55-9-.78-17.28-5.84-24.65-2.44-3.55-5.8-6.47-8.74-9.67ZM814.44,714.1l.42.48c1.69,15.06,4.34,29.92,11.25,43.56,3.11,6.14,7.21,11.78,13.32,15.51l.51.85c0-.16,0-.4-.05-.48a2.25,2.25,0,0,0-.59-.26c-1.29-4.74-2.63-9.47-3.79-14.24-.18-.71.48-1.62.75-2.45.74.47,1.91.78,2.16,1.43,1.49,3.93,2.76,7.94,4.13,11.92a5.79,5.79,0,0,0,.79,1.18c.31-.51.82-1,.9-1.53a44.24,44.24,0,0,0-3.59-26.78c-5.84-12.1-14.11-21.93-25.93-28.59Zm68.2,104.34c.25,2.48,1.43,2.76,3.48,1.61,11.13-6.21,17.69-15.83,20-28.11,1.13-6,.85-12.31,1.12-18.48,0-.61-.64-1.25-1-1.88a8.4,8.4,0,0,0-1,1.07c-5.46,8-11.39,15.65-16.17,24-3.27,5.71-4.91,12.34-6.74,17.13C882.52,816.47,882.55,817.46,882.64,818.44ZM809.11,848a7.16,7.16,0,0,0,1.64,1.14,13.19,13.19,0,0,0-.28-2c-.62-2-2.82-5-.47-5.93,3-1.2,2.33,2.86,3.34,4.51,1.42,2.3,2.3,4.93,3.5,7.38.27.55.91.91,1.38,1.36.46-.57,1.14-1.07,1.34-1.72a29.79,29.79,0,0,0-.27-18.3c-2.16-6.85-4.8-13.55-7.26-20.3a13.83,13.83,0,0,0-1-1.84c-.66.68-1.62,1.25-1.93,2.06-1.91,5.06-3.67,10.19-5.48,15.29C803.17,836.61,804.82,842.64,809.11,848Zm68.8,11.15a7,7,0,0,0-.88,2.49c.65-.13,1.3-.3,2-.4,2.95-.42,5.27-4.21,8.77-1.62-2.4,1.56-4.75,3.19-7.19,4.68-2.12,1.28-4.36,2.36-6.47,3.65-.49.3-1.05,1.23-.9,1.63a2.3,2.3,0,0,0,1.62,1.15,28.16,28.16,0,0,0,16.58-2.7c6.46-3.13,12.82-6.45,19.21-9.72a10.78,10.78,0,0,0,1.6-1.2c-.49-.52-.88-1.3-1.48-1.54-3.9-1.51-7.85-2.91-10.49-3.87C890.79,851.19,883.55,853,877.91,859.1ZM862.28,751.32c0-1.46-.57-1.45-1.69-.59-10.22,7.73-15.6,23.3-12,35.1a4.33,4.33,0,0,0,1.67,2c.17.13,1.17-.66,1.61-1.19,6.3-7.68,10-16.38,10.06-26.43C862.06,757.24,862.25,754.28,862.28,751.32Zm-81.75,80.36c-3.4.35-6.78.82-10.17,1.25,2.64,1.88,5.17,4,7.95,5.61,4.88,2.91,9.85,5.7,14.93,8.26,2.62,1.33,3.52.48,3.33-2.53-.62-10-2.43-11.76-13.08-12.36A15.67,15.67,0,0,0,780.53,831.68Zm144.4-10.32c1.71-.15,3.42-.48,5.13-.56,1.94-.08,3.89,0,5.83.06-1.69-1.64-3.14-3.66-5.1-4.85-8.65-5.28-16.64-4.53-23.5,2a10.37,10.37,0,0,0-1.43,2.4,24.08,24.08,0,0,0,2.9,1.59,7.87,7.87,0,0,0,2.19.23l0,.35C915.64,822.17,920.29,821.78,924.93,821.36Zm-50.81,1.36c.15,1.26,2.15,3.4,3,3.26,2.16-.33,2.59-2.26,2.44-4.57a47.88,47.88,0,0,1,.37-11c.89-5.16-.46-9.72-2.51-14.24-.27-.6-1-1-1.45-1.49a5.7,5.7,0,0,0-.79,1.68c-.37,3.42-.65,6.85-1,10.28h-1.11C873.41,812,873.52,817.4,874.12,822.72Zm56.61,48.95c-1.52-7.74-11.72-12.91-18.66-9.54-1.43.69-1.76,2-.35,2.76,5.54,3.19,11.19,6.19,17.39,9.58C929.85,873.24,930.87,872.34,930.73,871.67Zm-121-113.32c2.45,1.61,4.91,3.2,7.41,4.72a5.38,5.38,0,0,0,1.84.34,9.86,9.86,0,0,0-.06-2,7,7,0,0,0-9.42-5c-.29.1-.43.58-.65.9A4.44,4.44,0,0,0,809.71,758.35Z"/><path d="M768.33,820.09l.4.17.22-.56-.65-.23Z"/><path d="M862,2029.23c.75-4.9,1.33-9.83,2.32-14.68.46-2.29,2.45-2.64,3.69-.71,1.87,2.91,3.38,6.06,5.06,9.09.32.57.76,1.08,1.14,1.63a10,10,0,0,0,1.55-1.5c7.42-11.42,14.8-22.87,22.28-34.26a3.27,3.27,0,0,1,2.35-1c.34,0,1,1.07,1.05,1.7.27,3.21.5,6.43.53,9.65.13,12.55-.88,24.85-8.36,35.62a11.29,11.29,0,0,0-.87,1.9,9.93,9.93,0,0,0,2.68-.11,40.1,40.1,0,0,1,19.82-1.74A24.37,24.37,0,0,1,933.21,2048c.62,1.15.44,2.74.63,4.12-1.35.06-3.08.69-4,.09-5-3.34-10.38-2.82-15.81-2-9.95,1.58-19.8,1.5-29.37-2a7.31,7.31,0,0,0-7,.76c-10,6.27-16.57,14.82-18.09,26.75-.51,3.93-.73,7.91-.94,11.87-.09,1.8.15,3.61.24,5.41,1.27-1.44,3-2.68,3.73-4.36,4.69-10.65,13.43-14.83,24.33-15.39,6.65-.35,12.59,2.35,18.32,5.4,3.26,1.74,6.34,3.84,9.69,5.4,5.59,2.6,8.9,7,10.68,12.68,1.15,3.65-.44,6-4.27,5.66a23.37,23.37,0,0,1-7.71-2.41,79.29,79.29,0,0,1-8.36-4.85c-5.94-3.7-11.85-4.75-18.1-.58a28.76,28.76,0,0,1-6.79,3c-5.23,1.77-10.57,2.69-16.09,1.31-5.73-1.42-6.41-1.14-8.64,4.3-2.06,5-4,10.15-5.83,15.27-.64,1.77-1,3.64-1.45,5.47l4.5-2.51a1.64,1.64,0,0,1,.68-.28c.46,0,1.21,0,1.33.2.31.58.69,1.58.41,2a51.34,51.34,0,0,1-3.87,4.48c-7.9,8.57-16,17-23.68,25.73-5.56,6.33-10.58,13.13-15.93,19.65a12.71,12.71,0,0,1-2.9,2c-.72-1.16-2.16-2.42-2-3.44.29-2,1.28-2.53,2.54-4.13,1.68-2.11,3.85-5.38,5.86-7.23a124.89,124.89,0,0,0,20.81-24.2c1.5-2.32,3.21-4.72,1.72-7.57a108.79,108.79,0,0,0-22.32-29.48c-1.58-1.46-2.93-1.32-4.32.47-3.79,4.84-9.11,6.55-15,7.18-7.88.85-15.74,1.85-23.6,2.79-2.45.29-3.59-.87-2.34-2.81a115,115,0,0,1,9-12.72c7.26-8.51,17.14-9.61,26.64-3.47a33.17,33.17,0,0,0,4.57,2.31,1.72,1.72,0,0,0,1.38-.23,1.23,1.23,0,0,0,0-1.16c-3.48-5.33-6.27-11-14.11-11.76-5.27-.52-10.54-2.77-15.41-5.09-9.38-4.48-18.48-9.54-27.66-14.43a12.72,12.72,0,0,1-2.46-2.36c.91-.69,1.73-1.8,2.74-2,11.5-2.54,23-4.4,33.94,2.14,2.13,1.28,3,1,3.12-1.59a20.16,20.16,0,0,1,.89-5.87c2.25-6,4.73-11.92,7.24-17.82.33-.77,1.57-1.9,2-1.75a4.41,4.41,0,0,1,2.49,2.16c3.09,8.38,6.1,16.78,8.93,25.25a23,23,0,0,1,1.49,8c-.21,4.65-.15,9.71-2,13.76-1.67,3.62-1.29,5.67.77,8.51q13.14,18.06,26,36.34c1.39,2,2.27,1.6,3,0,3.25-7.49,6.47-15,9.38-22.63.44-1.17-.38-3.33-1.31-4.45-6-7.28-9.37-15.79-11.21-24.85-2-9.7-2.25-19.74-6.21-29-.19-.43-.37-1.23-.18-1.38.64-.49,1.8-1.28,2.14-1a17.55,17.55,0,0,1,3.82,3.48c4.45,5.65,8.78,11.39,13.17,17.09.53.69,1.12,1.33,1.69,2a13.05,13.05,0,0,0,.11-2.85c-3.4-18.51-11-35.47-19.63-52a13.82,13.82,0,0,0-7-6.22c-13.17-4.48-22.85-14.88-35.42-20.3-.65-.28-.9-1.49-1.34-2.27.8-.43,1.59-1.2,2.42-1.26,4.92-.33,9.86-.67,14.79-.63,2.17,0,3.09.21,2.4-2.56-3.23-13-6.25-26-9.26-39a12.13,12.13,0,0,1,.17-3.38c.92.13,2,0,2.74.43,11.34,7.7,22.58,15.67,28.81,28.39,2.8,5.73,4.31,12.08,6.4,18.15.24.7.46,1.4.68,2.1a13.3,13.3,0,0,0,2.14-1.43c3.52-3.49,6.93-7.09,10.55-10.48A4.37,4.37,0,0,1,856,1970c.47.07,1,1.59,1,2.46.23,15.36-.88,30.38-12.12,42.44-2,2.2-1.78,4.09-.6,6.64,6.16,13.31,11.55,26.9,13.64,41.56a14.19,14.19,0,0,0,.35,1.43c.39-.22,1-.34,1.14-.67,2.15-4.41,7.88-7.69,3.13-14.13-1.79-2.43-1.39-6.69-1.46-10.12a98.33,98.33,0,0,1,.85-10.38Zm-62.21,73.41a5.79,5.79,0,0,0,2.86-.69c2.1-1.61,4-3.45,6-5.2-2.51-.48-5-1-7.53-1.43a7.54,7.54,0,0,0-1.47.17c-1.74.08-3.83,1.94-4.9-.75-.1-.25,2.58-1.59,4-2.44.41-.25.78-.55,1.16-.83a5.37,5.37,0,0,0-1.48-.93c-6.34-1.38-11.95.08-16.16,5.06-2.34,2.76-4,6.1-6,9.18l-.6.16.49-.3C784.07,2104,792,2103.33,799.83,2102.64Zm40.47-50.85.41,1.83c.6,12.44,2.37,24.63,8.49,35.75a35.72,35.72,0,0,0,3.89,4.86,40.64,40.64,0,0,0,2.07-6.2c1.55-9-.78-17.28-5.85-24.65-2.43-3.55-5.79-6.47-8.73-9.67C840.49,2053.07,840.4,2052.43,840.3,2051.79Zm-34.62-112.53.43.48c1.69,15.06,4.34,29.92,11.25,43.56,3.11,6.14,7.2,11.78,13.31,15.51l.51.85c0-.16,0-.4,0-.48a2,2,0,0,0-.59-.26c-1.28-4.74-2.62-9.47-3.78-14.24-.18-.71.48-1.62.75-2.45.74.47,1.91.78,2.16,1.43,1.49,3.93,2.76,7.94,4.13,11.92a5.79,5.79,0,0,0,.79,1.18c.31-.51.82-1,.9-1.53a44.17,44.17,0,0,0-3.6-26.78c-5.83-12.1-14.11-21.93-25.92-28.59Zm68.21,104.34c.25,2.48,1.43,2.76,3.48,1.61,11.13-6.21,17.69-15.83,20-28.11,1.13-6,.85-12.31,1.11-18.48,0-.61-.63-1.25-1-1.88a8.4,8.4,0,0,0-1,1.07c-5.46,8-11.39,15.65-16.17,24-3.27,5.71-4.91,12.34-6.74,17.13C873.77,2041.63,873.8,2042.62,873.89,2043.6Zm-73.53,29.51a7.59,7.59,0,0,0,1.64,1.14,13.19,13.19,0,0,0-.28-2c-.62-2-2.82-5-.47-5.93,3-1.2,2.33,2.86,3.34,4.51,1.41,2.3,2.3,4.93,3.5,7.38.27.55.91.91,1.38,1.36.46-.57,1.13-1.07,1.34-1.72a29.79,29.79,0,0,0-.27-18.3c-2.16-6.85-4.8-13.55-7.26-20.3a13.83,13.83,0,0,0-1-1.84c-.66.68-1.62,1.25-1.93,2.06-1.91,5.06-3.67,10.19-5.48,15.29C794.41,2061.77,796.07,2067.8,800.36,2073.11Zm68.8,11.15a6.93,6.93,0,0,0-.88,2.49c.65-.13,1.3-.3,2-.4,2.95-.42,5.27-4.21,8.77-1.62-2.4,1.56-4.75,3.19-7.19,4.68-2.12,1.28-4.36,2.36-6.47,3.65-.49.3-1.05,1.23-.91,1.63a2.3,2.3,0,0,0,1.63,1.14,28.09,28.09,0,0,0,16.58-2.69c6.46-3.13,12.82-6.45,19.21-9.72a11.32,11.32,0,0,0,1.6-1.2c-.49-.52-.88-1.31-1.48-1.54-3.9-1.51-7.85-2.91-10.49-3.87C882,2076.35,874.8,2078.13,869.16,2084.26Zm-15.63-107.78c0-1.46-.57-1.45-1.69-.59-10.22,7.73-15.6,23.3-12,35.1a4.33,4.33,0,0,0,1.67,2c.17.13,1.17-.66,1.61-1.19,6.3-7.68,10-16.38,10.06-26.43C853.31,1982.4,853.5,1979.44,853.53,1976.48Zm-81.75,80.36c-3.4.35-6.78.82-10.17,1.25,2.64,1.88,5.17,4,7.95,5.61,4.88,2.91,9.85,5.69,14.93,8.26,2.62,1.33,3.51.48,3.33-2.53-.62-10-2.43-11.76-13.08-12.36A14.89,14.89,0,0,0,771.78,2056.84Zm144.4-10.32c1.71-.15,3.41-.48,5.13-.56,1.94-.08,3.88,0,5.83.06-1.69-1.64-3.14-3.66-5.1-4.85-8.65-5.28-16.64-4.53-23.51,2a10.71,10.71,0,0,0-1.42,2.4,24.08,24.08,0,0,0,2.9,1.59,7.87,7.87,0,0,0,2.19.23l0,.35C906.88,2047.33,911.53,2046.94,916.18,2046.52Zm-50.81,1.36c.15,1.26,2.15,3.4,3,3.26,2.15-.33,2.58-2.26,2.44-4.57a48,48,0,0,1,.37-11c.88-5.15-.46-9.71-2.51-14.23-.27-.6-1-1-1.45-1.49a5.35,5.35,0,0,0-.79,1.68c-.37,3.42-.65,6.85-1,10.28h-1.11C864.66,2037.19,864.76,2042.56,865.37,2047.88ZM922,2096.83c-1.52-7.74-11.72-12.91-18.66-9.54-1.43.69-1.76,1.95-.36,2.76,5.55,3.19,11.2,6.19,17.4,9.58C921.1,2098.4,922.12,2097.5,922,2096.83ZM801,1983.51c2.45,1.61,4.91,3.2,7.41,4.72a5.62,5.62,0,0,0,1.83.34,8.65,8.65,0,0,0-.06-2,7,7,0,0,0-9.41-5c-.29.1-.43.58-.65.9A4.44,4.44,0,0,0,801,1983.51Z"/><path d="M759.58,2045.25l.4.17.22-.57-.66-.22Z"/><path d="M299.5,2589.85c.75-4.9,1.34-9.83,2.32-14.68.46-2.29,2.45-2.64,3.69-.71,1.87,2.91,3.38,6.06,5.06,9.09.32.57.76,1.08,1.14,1.63a9.6,9.6,0,0,0,1.55-1.5c7.42-11.42,14.8-22.87,22.28-34.26a3.27,3.27,0,0,1,2.35-1c.34,0,1,1.07,1.05,1.7.27,3.21.5,6.43.53,9.65.14,12.55-.88,24.85-8.36,35.63a10.84,10.84,0,0,0-.87,1.89,10.34,10.34,0,0,0,2.68-.1,40,40,0,0,1,19.82-1.75,24.38,24.38,0,0,1,17.94,13.13c.61,1.15.43,2.74.62,4.12-1.35.06-3.07.69-4,.09-5-3.34-10.38-2.82-15.81-2-9.95,1.58-19.8,1.5-29.37-2a7.31,7.31,0,0,0-7,.76c-10,6.27-16.57,14.82-18.09,26.75-.51,3.93-.73,7.91-.94,11.87-.09,1.8.15,3.61.24,5.41,1.27-1.44,3-2.68,3.73-4.36,4.69-10.64,13.43-14.83,24.33-15.39,6.65-.35,12.59,2.35,18.32,5.4,3.26,1.74,6.34,3.84,9.69,5.4,5.59,2.6,8.9,7,10.68,12.68,1.15,3.66-.44,6-4.27,5.66a23.37,23.37,0,0,1-7.71-2.41,79.29,79.29,0,0,1-8.36-4.85c-5.94-3.7-11.85-4.75-18.1-.58a28.76,28.76,0,0,1-6.79,3c-5.23,1.77-10.57,2.69-16.09,1.31-5.73-1.42-6.41-1.14-8.63,4.3-2.07,5-4,10.15-5.83,15.27-.65,1.77-1,3.64-1.46,5.47l4.5-2.51a1.63,1.63,0,0,1,.69-.28c.46,0,1.2,0,1.32.2.31.59.69,1.58.42,2a53.22,53.22,0,0,1-3.88,4.48c-7.9,8.57-16,17-23.68,25.73-5.56,6.33-10.58,13.13-15.93,19.65a12.71,12.71,0,0,1-2.9,2c-.72-1.16-2.16-2.42-2-3.44.3-2,1.28-2.53,2.55-4.13,1.67-2.11,3.84-5.38,5.85-7.23a124.94,124.94,0,0,0,20.82-24.2c1.49-2.32,3.2-4.72,1.71-7.57A108.79,108.79,0,0,0,253,2659.72c-1.58-1.46-2.93-1.32-4.32.47-3.79,4.84-9.11,6.55-15,7.18-7.87.85-15.73,1.85-23.6,2.79-2.45.29-3.59-.87-2.34-2.81a116,116,0,0,1,9-12.72c7.26-8.51,17.15-9.61,26.64-3.47a33.17,33.17,0,0,0,4.57,2.31,1.72,1.72,0,0,0,1.38-.23,1.23,1.23,0,0,0,0-1.16c-3.48-5.33-6.27-11-14.11-11.76-5.27-.52-10.54-2.77-15.41-5.09-9.38-4.48-18.48-9.54-27.65-14.43a12.48,12.48,0,0,1-2.47-2.36c.91-.69,1.73-1.8,2.74-2,11.5-2.54,23-4.4,33.94,2.14,2.13,1.28,3,1,3.12-1.59a20.16,20.16,0,0,1,.89-5.87c2.25-6,4.73-11.92,7.24-17.82.33-.77,1.57-1.9,2-1.75a4.36,4.36,0,0,1,2.49,2.17c3.09,8.37,6.1,16.77,8.94,25.24a23,23,0,0,1,1.48,8c-.21,4.65-.15,9.71-2,13.77-1.67,3.61-1.29,5.66.78,8.5q13.13,18.06,25.94,36.34c1.39,2,2.28,1.6,3-.05,3.25-7.49,6.47-15,9.38-22.63.44-1.17-.38-3.33-1.31-4.45-6-7.28-9.37-15.79-11.21-24.85-2-9.7-2.25-19.74-6.21-29-.19-.43-.37-1.23-.18-1.38.64-.49,1.8-1.28,2.14-1.05a17.33,17.33,0,0,1,3.82,3.48c4.45,5.65,8.78,11.39,13.17,17.09.53.69,1.13,1.33,1.69,2a12.46,12.46,0,0,0,.11-2.85c-3.4-18.51-11-35.47-19.63-52a13.78,13.78,0,0,0-7-6.22c-13.17-4.48-22.85-14.88-35.41-20.3-.66-.28-.91-1.49-1.35-2.26.81-.44,1.59-1.21,2.42-1.27,4.92-.33,9.86-.67,14.79-.63,2.17,0,3.09.21,2.4-2.56-3.23-13-6.25-26-9.26-39a12.13,12.13,0,0,1,.17-3.38c.92.13,2.05,0,2.74.43,11.34,7.7,22.58,15.67,28.81,28.39,2.8,5.73,4.31,12.08,6.4,18.15.24.7.46,1.4.69,2.1a13.66,13.66,0,0,0,2.13-1.43c3.53-3.49,6.93-7.09,10.55-10.48a4.38,4.38,0,0,1,3.3-.71c.46.07,1,1.59,1,2.46.23,15.36-.88,30.38-12.12,42.44-2,2.2-1.78,4.09-.6,6.64,6.16,13.31,11.55,26.9,13.64,41.56a13.56,13.56,0,0,0,.35,1.43c.39-.22,1-.34,1.14-.67,2.15-4.41,7.89-7.69,3.13-14.13-1.79-2.43-1.39-6.69-1.46-10.12a95.77,95.77,0,0,1,.86-10.38Zm-62.21,73.41a5.66,5.66,0,0,0,2.86-.69c2.1-1.61,4-3.45,6-5.2-2.51-.48-5-1-7.53-1.43a7.54,7.54,0,0,0-1.47.17c-1.74.08-3.83,1.94-4.9-.75-.1-.25,2.58-1.59,4-2.44.4-.25.77-.55,1.16-.83a5.42,5.42,0,0,0-1.49-.93c-6.34-1.38-11.95.08-16.16,5.06-2.34,2.76-4,6.1-5.95,9.18l-.6.16.49-.3C221.53,2664.6,229.41,2664,237.29,2663.26Zm40.48-50.85.4,1.83c.6,12.44,2.37,24.63,8.49,35.75a35.72,35.72,0,0,0,3.89,4.86,40.64,40.64,0,0,0,2.07-6.2c1.55-9-.78-17.28-5.84-24.65-2.44-3.55-5.8-6.47-8.74-9.67Zm-34.62-112.53.42.48c1.69,15.06,4.34,29.92,11.25,43.56,3.11,6.14,7.21,11.78,13.32,15.51l.51.85c0-.16,0-.4,0-.48a2.25,2.25,0,0,0-.59-.26c-1.29-4.74-2.63-9.47-3.79-14.24-.18-.71.48-1.62.75-2.45.74.47,1.91.78,2.16,1.43,1.49,3.93,2.76,7.94,4.13,11.92a5.79,5.79,0,0,0,.79,1.18c.31-.51.82-1,.9-1.53a44.24,44.24,0,0,0-3.59-26.78c-5.84-12.1-14.11-21.93-25.93-28.59Zm68.2,104.34c.25,2.48,1.43,2.76,3.48,1.61,11.13-6.21,17.69-15.83,20-28.11,1.13-6,.85-12.31,1.12-18.48,0-.61-.64-1.25-1-1.88a8.4,8.4,0,0,0-1,1.07c-5.46,8-11.39,15.65-16.17,24-3.27,5.71-4.91,12.34-6.74,17.13C311.23,2602.25,311.26,2603.24,311.35,2604.22Zm-73.53,29.51a7.16,7.16,0,0,0,1.64,1.14,13.19,13.19,0,0,0-.28-2c-.62-2-2.82-5-.47-5.93,3-1.2,2.33,2.86,3.34,4.51,1.42,2.3,2.3,4.93,3.5,7.38.27.55.91.91,1.38,1.36.46-.57,1.14-1.07,1.34-1.72a29.79,29.79,0,0,0-.27-18.3c-2.16-6.85-4.8-13.55-7.26-20.3a13.83,13.83,0,0,0-1-1.84c-.66.68-1.62,1.25-1.93,2.06-1.91,5.06-3.67,10.19-5.48,15.29C231.88,2622.39,233.53,2628.42,237.82,2633.73Zm68.8,11.15a7,7,0,0,0-.88,2.49c.65-.13,1.3-.3,1.95-.4,2.95-.42,5.27-4.21,8.77-1.62-2.4,1.56-4.75,3.19-7.19,4.68-2.12,1.28-4.36,2.36-6.47,3.65-.49.3-1.05,1.23-.9,1.63a2.26,2.26,0,0,0,1.62,1.14,28.08,28.08,0,0,0,16.58-2.69c6.46-3.13,12.82-6.45,19.21-9.72a10.78,10.78,0,0,0,1.6-1.2c-.49-.52-.88-1.3-1.48-1.54-3.9-1.51-7.85-2.91-10.49-3.87C319.5,2637,312.26,2638.75,306.62,2644.88ZM291,2537.1c0-1.46-.57-1.45-1.69-.59-10.22,7.73-15.6,23.3-12,35.1a4.33,4.33,0,0,0,1.67,2c.17.13,1.17-.66,1.61-1.19,6.3-7.68,10-16.38,10.06-26.43C290.77,2543,291,2540.06,291,2537.1Zm-81.75,80.36c-3.4.35-6.78.82-10.17,1.25,2.64,1.88,5.17,4,8,5.61,4.88,2.91,9.85,5.7,14.93,8.26,2.62,1.33,3.52.48,3.33-2.53-.62-10-2.43-11.76-13.08-12.36A15.67,15.67,0,0,0,209.24,2617.46Zm144.4-10.32c1.71-.15,3.42-.48,5.13-.56,1.94-.08,3.89,0,5.83.06-1.69-1.64-3.14-3.66-5.1-4.85-8.65-5.28-16.64-4.53-23.5,2a10.37,10.37,0,0,0-1.43,2.4,24.08,24.08,0,0,0,2.9,1.59,7.87,7.87,0,0,0,2.19.23l0,.35C344.34,2608,349,2607.56,353.64,2607.14Zm-50.81,1.36c.15,1.26,2.15,3.4,3,3.26,2.16-.33,2.59-2.26,2.44-4.57a47.88,47.88,0,0,1,.37-11c.89-5.16-.46-9.72-2.51-14.24-.27-.6-1-1-1.45-1.49a5.58,5.58,0,0,0-.79,1.68c-.37,3.42-.65,6.85-1,10.28h-1.11C302.12,2597.81,302.23,2603.18,302.83,2608.5Zm56.61,48.95c-1.52-7.74-11.72-12.91-18.66-9.54-1.43.69-1.76,2-.35,2.76,5.54,3.19,11.19,6.19,17.39,9.58C358.56,2659,359.58,2658.12,359.44,2657.45Zm-121-113.32c2.45,1.61,4.91,3.2,7.41,4.72a5.38,5.38,0,0,0,1.84.34,9.86,9.86,0,0,0-.06-2,7,7,0,0,0-9.42-5c-.29.1-.43.58-.65.9A4.44,4.44,0,0,0,238.42,2544.13Z"/><path d="M197,2605.87l.4.17.22-.56-.65-.23Z"/><path d="M1335.31,2710.65c.75-4.9,1.34-9.83,2.32-14.68.47-2.29,2.46-2.64,3.7-.71,1.87,2.91,3.37,6,5.06,9.09a19.73,19.73,0,0,0,1.14,1.62,9.08,9.08,0,0,0,1.54-1.49c7.43-11.42,14.81-22.87,22.28-34.26a3.31,3.31,0,0,1,2.35-1c.34,0,1,1.07,1.06,1.7.27,3.21.49,6.43.53,9.65.13,12.55-.88,24.85-8.36,35.62a12.18,12.18,0,0,0-.88,1.9,10,10,0,0,0,2.69-.11,40.07,40.07,0,0,1,19.81-1.74,24.36,24.36,0,0,1,17.94,13.13c.62,1.15.44,2.74.63,4.12-1.35.06-3.08.69-4,.09-5-3.34-10.38-2.82-15.82-2-9.94,1.58-19.8,1.5-29.36-2a7.33,7.33,0,0,0-7,.76c-10,6.27-16.56,14.82-18.09,26.75-.5,3.93-.72,7.91-.93,11.87a51.52,51.52,0,0,0,.23,5.41c1.27-1.44,3-2.68,3.74-4.36,4.69-10.65,13.42-14.83,24.33-15.39,6.65-.35,12.59,2.35,18.31,5.4,3.27,1.74,6.35,3.84,9.69,5.4,5.6,2.6,8.91,7,10.69,12.68,1.14,3.65-.44,6-4.28,5.66a23.44,23.44,0,0,1-7.71-2.41,80.17,80.17,0,0,1-8.35-4.85c-5.94-3.7-11.85-4.75-18.11-.58a28.51,28.51,0,0,1-6.78,3c-5.23,1.77-10.58,2.69-16.1,1.31-5.72-1.42-6.4-1.14-8.63,4.3-2.06,5-4,10.15-5.83,15.27-.64,1.77-1,3.64-1.45,5.47,1.5-.84,3-1.68,4.5-2.51a1.54,1.54,0,0,1,.68-.28c.46,0,1.2,0,1.33.2.31.58.68,1.58.41,1.95a51.34,51.34,0,0,1-3.87,4.48c-7.91,8.57-16,17-23.68,25.73-5.57,6.33-10.59,13.13-15.93,19.65a12.58,12.58,0,0,1-2.9,2c-.72-1.15-2.16-2.41-2-3.44.29-2,1.27-2.52,2.54-4.12,1.67-2.11,3.84-5.38,5.85-7.23a124.94,124.94,0,0,0,20.82-24.2c1.5-2.32,3.21-4.72,1.71-7.57a108.43,108.43,0,0,0-22.32-29.48c-1.57-1.46-2.92-1.32-4.32.47-3.78,4.84-9.1,6.55-15,7.18-7.88.85-15.74,1.85-23.61,2.79-2.44.29-3.58-.87-2.34-2.81a116.44,116.44,0,0,1,9-12.72c7.25-8.51,17.14-9.62,26.64-3.47a34.33,34.33,0,0,0,4.57,2.31,1.69,1.69,0,0,0,1.37-.23c.2-.13.22-.88,0-1.16-3.49-5.33-6.27-11-14.11-11.76-5.27-.52-10.55-2.77-15.42-5.09-9.37-4.48-18.47-9.54-27.65-14.43a12.76,12.76,0,0,1-2.47-2.36c.91-.69,1.73-1.8,2.74-2,11.51-2.54,23-4.4,33.94,2.14,2.13,1.28,3,1,3.13-1.59a19.51,19.51,0,0,1,.89-5.87c2.25-6,4.72-11.92,7.23-17.82.33-.77,1.58-1.9,2-1.75a4.43,4.43,0,0,1,2.5,2.16c3.08,8.38,6.1,16.78,8.93,25.25a22.74,22.74,0,0,1,1.48,8c-.2,4.65-.15,9.71-2,13.76-1.66,3.62-1.29,5.67.78,8.51q13.13,18.06,26,36.34c1.39,2,2.27,1.6,3,0,3.24-7.5,6.46-15,9.37-22.63.45-1.17-.37-3.33-1.3-4.45-6-7.28-9.37-15.79-11.21-24.85-2-9.7-2.26-19.74-6.22-29-.18-.43-.36-1.23-.17-1.38.64-.5,1.8-1.28,2.13-1a17.38,17.38,0,0,1,3.83,3.48c4.45,5.65,8.78,11.39,13.17,17.09.53.69,1.12,1.33,1.69,2a13,13,0,0,0,.1-2.85c-3.39-18.51-11-35.47-19.62-52a13.82,13.82,0,0,0-7-6.22c-13.17-4.48-22.85-14.88-35.42-20.3-.65-.28-.91-1.49-1.35-2.27.81-.43,1.59-1.2,2.43-1.26,4.92-.33,9.85-.67,14.78-.63,2.18,0,3.1.21,2.41-2.56-3.23-13-6.25-26-9.27-39.05a12.53,12.53,0,0,1,.17-3.38c.93.13,2,0,2.74.43,11.35,7.7,22.59,15.67,28.81,28.39,2.8,5.73,4.31,12.08,6.41,18.15.24.7.45,1.4.68,2.1a13.21,13.21,0,0,0,2.13-1.43c3.53-3.49,6.94-7.09,10.56-10.48a4.36,4.36,0,0,1,3.29-.71c.47.07,1,1.59,1,2.46.24,15.36-.87,30.38-12.11,42.44-2,2.2-1.78,4.09-.6,6.64,6.16,13.31,11.54,26.9,13.64,41.56a11.88,11.88,0,0,0,.34,1.43c.39-.22,1-.34,1.15-.67,2.14-4.41,7.88-7.69,3.13-14.13-1.79-2.43-1.4-6.69-1.46-10.12a98.33,98.33,0,0,1,.85-10.38Zm-62.21,73.41a5.74,5.74,0,0,0,2.86-.69c2.1-1.61,4-3.45,6-5.2-2.51-.48-5-1-7.54-1.43a7.72,7.72,0,0,0-1.47.17c-1.73.08-3.82,1.94-4.89-.75-.1-.25,2.57-1.59,4-2.44.41-.25.78-.55,1.16-.83a5.28,5.28,0,0,0-1.49-.93c-6.33-1.38-11.94.08-16.16,5.06-2.33,2.76-4,6.1-6,9.18l-.59.16.48-.3C1257.35,2785.4,1265.23,2784.75,1273.1,2784.06Zm40.48-50.85.4,1.83c.61,12.44,2.38,24.63,8.5,35.75a35,35,0,0,0,3.89,4.86,41.77,41.77,0,0,0,2.07-6.2c1.55-9-.78-17.28-5.85-24.65-2.44-3.55-5.79-6.47-8.74-9.67ZM1279,2620.68l.43.48c1.68,15.06,4.33,29.92,11.24,43.56,3.11,6.14,7.21,11.78,13.32,15.51l.51.85c0-.17,0-.4,0-.48a1.86,1.86,0,0,0-.59-.26c-1.28-4.74-2.62-9.47-3.79-14.24-.17-.71.48-1.63.76-2.45.74.47,1.91.78,2.16,1.43,1.48,3.93,2.75,7.94,4.13,11.92a5.47,5.47,0,0,0,.79,1.17,5,5,0,0,0,.9-1.52,44.17,44.17,0,0,0-3.6-26.78c-5.83-12.11-14.11-21.93-25.92-28.59ZM1347.17,2725c.25,2.48,1.43,2.76,3.48,1.61,11.13-6.21,17.69-15.83,20-28.11,1.13-6,.85-12.31,1.11-18.48,0-.61-.63-1.25-1-1.88a9.27,9.27,0,0,0-1,1.07c-5.45,8-11.39,15.65-16.17,24-3.26,5.71-4.91,12.33-6.73,17.13C1347,2723.05,1347.07,2724,1347.17,2725Zm-73.53,29.51a7.35,7.35,0,0,0,1.64,1.14,12.05,12.05,0,0,0-.29-2c-.62-2-2.81-5-.46-5.93,3-1.2,2.32,2.86,3.33,4.51,1.42,2.3,2.3,4.93,3.51,7.38.26.55.91.91,1.38,1.36.46-.57,1.13-1.07,1.34-1.72a29.71,29.71,0,0,0-.28-18.3c-2.15-6.85-4.8-13.55-7.26-20.3a12.78,12.78,0,0,0-1-1.84c-.66.68-1.62,1.25-1.92,2.06-1.91,5.06-3.67,10.19-5.48,15.29C1267.69,2743.19,1269.35,2749.22,1273.64,2754.53Zm68.8,11.15a6.93,6.93,0,0,0-.88,2.49c.65-.13,1.29-.3,2-.4,2.94-.42,5.26-4.21,8.76-1.62-2.39,1.56-4.75,3.19-7.19,4.68-2.11,1.28-4.35,2.36-6.46,3.65-.49.3-1,1.23-.91,1.62a2.3,2.3,0,0,0,1.62,1.15,28.07,28.07,0,0,0,16.58-2.69c6.46-3.13,12.83-6.45,19.22-9.72a11.32,11.32,0,0,0,1.6-1.2c-.49-.52-.88-1.31-1.49-1.54-3.9-1.52-7.84-2.91-10.48-3.87C1355.32,2757.77,1348.07,2759.55,1342.44,2765.68Zm-15.63-107.78c0-1.46-.57-1.45-1.7-.6-10.21,7.74-15.6,23.31-12,35.11a4.31,4.31,0,0,0,1.66,2c.18.13,1.18-.66,1.61-1.19,6.31-7.68,10-16.38,10.07-26.43C1326.58,2663.82,1326.77,2660.86,1326.81,2657.9Zm-81.75,80.35c-3.4.36-6.79.83-10.18,1.26,2.64,1.88,5.17,4,7.95,5.61,4.89,2.91,9.86,5.69,14.93,8.26,2.63,1.33,3.52.48,3.34-2.53-.62-10-2.43-11.76-13.08-12.36A15.69,15.69,0,0,0,1245.06,2738.25Zm144.4-10.31c1.71-.15,3.41-.48,5.12-.56,1.94-.08,3.89,0,5.83.06-1.68-1.64-3.14-3.66-5.09-4.85-8.65-5.28-16.64-4.53-23.51,2a10.37,10.37,0,0,0-1.43,2.4,25,25,0,0,0,2.91,1.59,7.79,7.79,0,0,0,2.19.23l0,.35C1380.16,2728.74,1384.81,2728.36,1389.46,2727.94Zm-50.81,1.36c.14,1.26,2.15,3.4,3,3.26,2.15-.33,2.58-2.26,2.43-4.57a48,48,0,0,1,.38-11c.88-5.15-.46-9.71-2.51-14.23-.27-.6-1-1-1.45-1.49a5.68,5.68,0,0,0-.8,1.67c-.37,3.43-.64,6.86-1,10.29h-1.11C1337.94,2718.61,1338,2724,1338.65,2729.3Zm56.61,48.94c-1.53-7.73-11.73-12.9-18.66-9.53-1.43.69-1.77,1.95-.36,2.76,5.54,3.19,11.19,6.19,17.39,9.58C1394.38,2779.82,1395.39,2778.92,1395.26,2778.24Zm-121-113.31c2.44,1.61,4.9,3.2,7.41,4.71a5.32,5.32,0,0,0,1.83.35,8.65,8.65,0,0,0-.06-2,7,7,0,0,0-9.42-5c-.28.1-.43.58-.64.9A4.44,4.44,0,0,0,1274.24,2664.93Z"/><path d="M1232.86,2726.67l.4.17.22-.57-.66-.22Z"/><path d="M817.29,3361.46a93.28,93.28,0,0,1,.85,10.38c-.06,3.44.34,7.69-1.46,10.12-4.75,6.45,1,9.73,3.14,14.13.16.34.75.46,1.14.68.12-.48.28-.95.35-1.43,2.09-14.66,7.48-28.26,13.64-41.57,1.18-2.55,1.44-4.44-.6-6.63-11.24-12.07-12.35-27.08-12.12-42.44,0-.87.55-2.4,1-2.47a4.39,4.39,0,0,1,3.3.72c3.62,3.38,7,7,10.55,10.47a14.45,14.45,0,0,0,2.13,1.44c.23-.7.45-1.41.69-2.1,2.09-6.07,3.6-12.43,6.4-18.15,6.23-12.73,17.47-20.7,28.81-28.4.69-.47,1.82-.3,2.74-.43a12.13,12.13,0,0,1,.17,3.38c-3,13-6,26.07-9.26,39.06-.69,2.77.23,2.57,2.4,2.56,4.93,0,9.87.3,14.79.63.83.05,1.61.82,2.42,1.26-.44.78-.69,2-1.35,2.27-12.56,5.41-22.24,15.82-35.41,20.29a13.82,13.82,0,0,0-7,6.22c-8.63,16.52-16.23,33.48-19.63,52a12.37,12.37,0,0,0,.11,2.84c.56-.66,1.16-1.29,1.69-2,4.38-5.7,8.72-11.45,13.17-17.1a17.83,17.83,0,0,1,3.82-3.48c.34-.23,1.5.56,2.14,1.06.19.15,0,.95-.18,1.38-4,9.27-4.24,19.32-6.21,29-1.84,9.07-5.18,17.57-11.21,24.85-.93,1.13-1.76,3.28-1.31,4.45,2.91,7.63,6.13,15.14,9.38,22.63.71,1.65,1.6,2,3,0q12.81-18.27,25.94-36.33c2.07-2.85,2.45-4.89.78-8.51-1.87-4.05-1.81-9.11-2-13.76a23,23,0,0,1,1.48-8c2.84-8.46,5.85-16.87,8.94-25.24a4.31,4.31,0,0,1,2.49-2.16c.44-.15,1.68,1,2,1.75,2.51,5.9,5,11.82,7.24,17.81a20.17,20.17,0,0,1,.89,5.88c.14,2.55,1,2.86,3.12,1.58,10.92-6.54,22.44-4.67,33.94-2.13,1,.22,1.83,1.32,2.74,2a12.2,12.2,0,0,1-2.47,2.36c-9.17,4.9-18.27,10-27.65,14.43-4.87,2.33-10.14,4.57-15.41,5.1-7.84.78-10.63,6.42-14.11,11.76a1.21,1.21,0,0,0,0,1.15,1.65,1.65,0,0,0,1.38.23,32.09,32.09,0,0,0,4.57-2.31c9.49-6.14,19.38-5,26.64,3.48a114.08,114.08,0,0,1,9,12.72c1.25,1.94.11,3.1-2.34,2.8-7.87-.94-15.73-1.94-23.6-2.78-5.88-.63-11.2-2.34-15-7.19-1.39-1.78-2.74-1.93-4.32-.46a108.74,108.74,0,0,0-22.32,29.47c-1.49,2.86.22,5.25,1.71,7.57a125,125,0,0,0,20.82,24.21c2,1.84,4.18,5.12,5.85,7.23,1.27,1.59,2.25,2.08,2.55,4.12.14,1-1.29,2.29-2,3.44a12.37,12.37,0,0,1-2.9-2c-5.35-6.52-10.37-13.33-15.93-19.65-7.7-8.76-15.78-17.17-23.69-25.73a58.59,58.59,0,0,1-3.87-4.48c-.27-.38.11-1.37.42-2,.12-.23.86-.19,1.32-.19a1.63,1.63,0,0,1,.69.28l4.5,2.5c-.48-1.82-.81-3.7-1.46-5.46-1.86-5.12-3.76-10.24-5.83-15.28-2.22-5.44-2.9-5.72-8.63-4.29-5.52,1.37-10.86.46-16.09-1.31a28.43,28.43,0,0,1-6.79-3c-6.25-4.16-12.16-3.11-18.1.59a79.2,79.2,0,0,1-8.36,4.84,23.39,23.39,0,0,1-7.71,2.42c-3.83.32-5.42-2-4.27-5.66,1.78-5.7,5.09-10.09,10.68-12.69,3.35-1.55,6.43-3.65,9.69-5.39,5.73-3.06,11.67-5.76,18.32-5.41,10.9.57,19.64,4.75,24.32,15.4.74,1.67,2.47,2.91,3.74,4.35.09-1.8.33-3.61.24-5.4-.21-4-.43-7.94-.94-11.88-1.52-11.93-8.11-20.48-18.09-26.74a7.26,7.26,0,0,0-7-.76c-9.57,3.47-19.42,3.55-29.37,2-5.43-.86-10.8-1.37-15.81,2-.91.61-2.63,0-4-.09.19-1.38,0-3,.62-4.11a24.39,24.39,0,0,1,17.94-13.14,40.22,40.22,0,0,1,19.82,1.75,9.53,9.53,0,0,0,2.68.1,11.19,11.19,0,0,0-.87-1.89c-7.48-10.78-8.5-23.07-8.36-35.62,0-3.23.26-6.45.52-9.66.06-.62.72-1.71,1.06-1.69a3.23,3.23,0,0,1,2.35,1c7.48,11.39,14.86,22.84,22.28,34.26a9.55,9.55,0,0,0,1.55,1.49,18.31,18.31,0,0,0,1.14-1.63c1.68-3,3.19-6.18,5.06-9.09,1.24-1.92,3.23-1.57,3.69.71,1,4.86,1.57,9.79,2.32,14.69ZM903,3436.88l.49.29-.6-.15c-2-3.08-3.61-6.42-5.95-9.18-4.21-5-9.82-6.44-16.16-5.06a5.38,5.38,0,0,0-1.49.92c.39.28.76.59,1.16.83,1.38.85,4.06,2.19,4,2.44-1.07,2.69-3.16.83-4.9.76a6.26,6.26,0,0,0-1.47-.17c-2.52.43-5,.94-7.53,1.42,2,1.75,3.9,3.6,6,5.2a5.77,5.77,0,0,0,2.86.7C887.27,3435.57,895.15,3436.22,903,3436.88Zm-64.38-50.94c-2.94,3.21-6.3,6.13-8.74,9.67-5.06,7.38-7.39,15.64-5.84,24.66a42.1,42.1,0,0,0,2.06,6.2,35.73,35.73,0,0,0,3.9-4.87c6.12-11.12,7.89-23.3,8.49-35.75l.4-1.83Zm34.61-113.84c-11.82,6.65-20.09,16.48-25.93,28.59a44.23,44.23,0,0,0-3.59,26.78c.08.54.59,1,.9,1.52a5.53,5.53,0,0,0,.79-1.18c1.37-4,2.64-8,4.13-11.91.25-.66,1.42-1,2.16-1.43.27.82.93,1.73.75,2.45-1.16,4.77-2.5,9.49-3.79,14.23a2.27,2.27,0,0,0-.59.27c-.08.08,0,.31-.05.47l.51-.84c6.11-3.73,10.21-9.37,13.32-15.51,6.91-13.65,9.56-28.51,11.25-43.56l.42-.48Zm-67.63,99.08c-1.83-4.8-3.47-11.43-6.74-17.13-4.78-8.35-10.71-16-16.17-24a10,10,0,0,0-1-1.07c-.34.63-1,1.27-1,1.88.27,6.18,0,12.47,1.12,18.49,2.3,12.28,8.87,21.9,20,28.11,2,1.14,3.23.87,3.48-1.61C805.42,3374.85,805.45,3373.86,805.62,3371.18ZM884.37,3387c-1.81-5.1-3.57-10.22-5.48-15.29-.31-.81-1.27-1.37-1.93-2a13.72,13.72,0,0,0-1,1.83c-2.46,6.76-5.1,13.45-7.26,20.3a29.82,29.82,0,0,0-.27,18.31c.2.65.88,1.14,1.34,1.71.47-.45,1.11-.81,1.38-1.35,1.2-2.45,2.08-5.08,3.5-7.39,1-1.65.35-5.7,3.34-4.51,2.35.94.15,3.9-.47,5.94a13,13,0,0,0-.28,2,7.52,7.52,0,0,0,1.64-1.15C883.15,3400,884.8,3394,884.37,3387ZM787.74,3409c-2.64,1-6.59,2.36-10.49,3.87-.6.24-1,1-1.48,1.55a11.52,11.52,0,0,0,1.6,1.2c6.39,3.26,12.75,6.59,19.21,9.71a28.08,28.08,0,0,0,16.58,2.7,2.3,2.3,0,0,0,1.62-1.15c.15-.4-.42-1.33-.9-1.63-2.11-1.29-4.35-2.36-6.47-3.65-2.44-1.48-4.8-3.11-7.19-4.68,3.5-2.59,5.82,1.21,8.77,1.63.65.09,1.3.26,2,.4a7,7,0,0,0-.88-2.5C804.42,3410.36,797.18,3408.59,787.74,3409Zm38.3-91.45c.1,10.06,3.76,18.75,10.06,26.44.43.52,1.44,1.31,1.61,1.19a4.23,4.23,0,0,0,1.66-2c3.61-11.79-1.77-27.36-12-35.1-1.12-.85-1.71-.87-1.69.6C825.72,3311.68,825.91,3314.63,826,3317.59Zm78.44,71.72c-10.65.6-12.46,2.32-13.08,12.35-.19,3,.71,3.86,3.33,2.53,5.08-2.56,10-5.35,14.93-8.25,2.78-1.66,5.31-3.73,8-5.62-3.39-.42-6.78-.9-10.17-1.25A15.69,15.69,0,0,0,904.48,3389.31ZM777,3380l0-.35a8.27,8.27,0,0,0,2.19-.24,22.76,22.76,0,0,0,2.9-1.59,10.3,10.3,0,0,0-1.43-2.39c-6.86-6.51-14.85-7.26-23.5-2-2,1.2-3.41,3.22-5.1,4.86,1.94,0,3.89-.15,5.83-.06,1.71.07,3.42.4,5.13.56C767.68,3379.18,772.33,3379.56,777,3380Zm37.87-15.89h-1.11c-.31-3.43-.59-6.87-1-10.29a5.82,5.82,0,0,0-.79-1.68c-.49.49-1.18.9-1.45,1.49-2,4.52-3.4,9.09-2.51,14.24a48,48,0,0,1,.37,11c-.15,2.31.28,4.24,2.44,4.57.86.13,2.86-2,3-3.26C814.45,3374.8,814.56,3369.42,814.85,3364.07Zm-56,67.8c6.2-3.39,11.85-6.4,17.39-9.58,1.41-.81,1.08-2.07-.35-2.77-6.94-3.36-17.14,1.8-18.66,9.54C757.1,3429.73,758.12,3430.64,758.86,3431.87Zm120.28-117.22c-.22-.32-.36-.81-.65-.91a7,7,0,0,0-9.42,5,9.94,9.94,0,0,0-.06,2,5.63,5.63,0,0,0,1.84-.35c2.5-1.51,5-3.1,7.41-4.71A4.84,4.84,0,0,0,879.14,3314.65Z"/><path d="M919.64,3377.48l-.4.18-.22-.57.65-.23Z"/></g></svg>